<svg width="100" height="101" viewBox="0 0 100 101" fill="none" xmlns="http://www.w3.org/2000/svg">
<path d="M28.6279 18.8281H25.4082C23.1991 18.8281 21.4082 20.6189 21.4082 22.8281V85.0524C21.4082 87.2616 23.1991 89.0524 25.4082 89.0524H67.3721C69.5812 89.0524 71.3721 87.2616 71.3721 85.0524L71.3721 22.8281C71.3721 20.6189 69.5812 18.8281 67.3721 18.8281L28.6279 18.8281ZM28.6279 18.8281V18.8407M28.6279 18.8281L28.6279 15.9819C28.6279 13.7727 30.4188 11.9819 32.6279 11.9819L74.5918 11.9819C76.8009 11.9819 78.5918 13.7727 78.5918 15.9819L78.5918 78.2062C78.5918 80.4154 76.8009 82.2062 74.5918 82.2062H71.3915M43.3661 70.8292L35.688 78.3527C35.4905 78.5462 35.1729 78.5433 34.9862 78.3394C32.4729 75.5948 30.9392 71.9382 30.9392 67.9234C30.9392 63.7876 32.5667 60.0319 35.2161 57.2617C35.4015 57.0679 35.7076 57.0649 35.9033 57.2483L37.7115 58.9431L43.7436 65.0035M46.3666 63.7629V52.996C46.3666 52.7199 46.5916 52.4952 46.8676 52.504C54.9897 52.7631 61.5269 59.3003 61.786 67.4224C61.7948 67.6984 61.5701 67.9234 61.294 67.9234H50.6482M49.9085 68.2402H57.6812C57.9573 68.2402 58.1823 68.4646 58.1703 68.7405C57.9157 74.5985 53.2119 79.3024 47.3539 79.5569C47.078 79.5689 46.8536 79.3439 46.8536 79.0678V71.3839M46.8156 71.8053L46.8156 80.5253C46.8156 80.8015 46.5915 81.0264 46.3156 81.0152C42.8129 80.8739 39.5748 79.2571 37.3604 76.7661M37.8243 59.0161C40.0744 56.8354 43.1438 55.6298 46.3118 55.7328M27.9465 33.7079H43.0622C44.0198 33.7079 44.7961 32.9317 44.7961 31.9741C44.7961 31.0165 44.0198 30.2402 43.0622 30.2402H27.9465C26.9889 30.2402 26.2126 31.0165 26.2126 31.9741C26.2126 32.9317 26.9889 33.7079 27.9465 33.7079ZM27.9384 39.9057H64.7948C65.748 39.9057 66.5207 39.133 66.5207 38.1799C66.5207 37.2267 65.748 36.454 64.7948 36.454H27.9384C26.9852 36.454 26.2126 37.2267 26.2126 38.1799C26.2126 39.133 26.9852 39.9057 27.9384 39.9057ZM27.9384 46.0102H64.7948C65.748 46.0102 66.5207 45.2375 66.5207 44.2844C66.5207 43.3312 65.748 42.5585 64.7948 42.5585H27.9384C26.9852 42.5585 26.2126 43.3312 26.2126 44.2844C26.2126 45.2375 26.9852 46.0102 27.9384 46.0102ZM50.4705 67.9232C50.4705 70.1897 48.6331 72.027 46.3666 72.027C44.1001 72.027 42.2627 70.1897 42.2627 67.9232C42.2627 65.6566 44.1001 63.8193 46.3666 63.8193C48.6331 63.8193 50.4705 65.6566 50.4705 67.9232Z" stroke="#0180C9"/>
</svg>
