<svg width="100" height="101" viewBox="0 0 100 101" fill="none" xmlns="http://www.w3.org/2000/svg">
<path d="M24.9775 65.7791L25.4577 65.9185C25.5238 65.6909 25.421 65.4482 25.2116 65.3373L24.9775 65.7791ZM19.2477 74.2048L18.9292 73.8194L18.9292 73.8194L19.2477 74.2048ZM37.0536 69.5111L37.1193 69.0154C36.9589 68.9942 36.7981 69.0519 36.6878 69.1703L37.0536 69.5111ZM19.3703 74.9826L19.5208 74.5058L19.5208 74.5058L19.3703 74.9826ZM76.0998 78.1223L75.8658 77.6805C75.6564 77.7914 75.5536 78.0341 75.6197 78.2617L76.0998 78.1223ZM80.541 84.7331L80.8644 84.3519L80.8644 84.3519L80.541 84.7331ZM66.473 81.0974L66.8388 80.7565C66.7285 80.6381 66.5677 80.5804 66.4073 80.6017L66.473 81.0974ZM80.4119 85.5074L80.5535 85.9869L80.5535 85.9869L80.4119 85.5074ZM70.4149 51.1805C70.4149 56.1221 67.3857 60.6588 62.3581 63.9833C57.3344 67.3053 50.3651 69.3762 42.6418 69.3762V70.3762C50.5333 70.3762 57.7005 68.262 62.9097 64.8174C68.1149 61.3754 71.4149 56.5643 71.4149 51.1805H70.4149ZM14.8687 51.1805C14.8687 46.2389 17.8978 41.7022 22.9254 38.3777C27.9492 35.0558 34.9185 32.9848 42.6418 32.9848V31.9848C34.7502 31.9848 27.583 34.099 22.3739 37.5436C17.1686 40.9856 13.8687 45.7967 13.8687 51.1805H14.8687ZM42.6418 32.9848C50.3651 32.9848 57.3344 35.0558 62.3581 38.3777C67.3857 41.7022 70.4149 46.2389 70.4149 51.1805H71.4149C71.4149 45.7967 68.1149 40.9856 62.9097 37.5436C57.7005 34.099 50.5333 31.9848 42.6418 31.9848V32.9848ZM25.2116 65.3373C18.836 61.9597 14.8687 56.8322 14.8687 51.1805H13.8687C13.8687 57.3409 18.1844 62.7462 24.7435 66.221L25.2116 65.3373ZM24.4974 65.6398C24.0306 67.248 22.2717 71.0567 18.9292 73.8194L19.5663 74.5902C23.0968 71.6721 24.9484 67.6733 25.4577 65.9185L24.4974 65.6398ZM42.6418 69.3762C40.7506 69.3762 38.9039 69.252 37.1193 69.0154L36.9879 70.0068C38.8162 70.2491 40.7069 70.3762 42.6418 70.3762V69.3762ZM19.2198 75.4594C23.0295 76.6618 30.846 76.9076 37.4194 69.8519L36.6878 69.1703C30.4329 75.884 23.0474 75.6188 19.5208 74.5058L19.2198 75.4594ZM18.9292 73.8194C18.3981 74.2584 18.4395 75.2132 19.2198 75.4594L19.5208 74.5058C19.5279 74.5081 19.5428 74.5159 19.5556 74.5316C19.567 74.5456 19.5709 74.5585 19.572 74.566C19.5731 74.5733 19.5722 74.5787 19.5706 74.5827C19.5687 74.5879 19.566 74.5905 19.5663 74.5902L18.9292 73.8194ZM76.3339 78.5641C81.5814 75.7842 85.0571 71.447 85.0571 66.4845H84.0571C84.0571 70.9383 80.9297 74.9978 75.8658 77.6805L76.3339 78.5641ZM75.6197 78.2617C76.0239 79.6543 77.47 82.7834 80.2175 85.1144L80.8644 84.3519C78.2972 82.1739 76.9419 79.2296 76.58 77.9829L75.6197 78.2617ZM62.0182 81.8884C63.5651 81.8884 65.0767 81.7868 66.5387 81.593L66.4073 80.6017C64.9891 80.7897 63.5214 80.8884 62.0182 80.8884V81.8884ZM80.2703 85.0279C77.4301 85.8666 71.7053 85.98 66.8388 80.7565L66.1071 81.4382C71.2865 86.9975 77.4334 86.9084 80.5535 85.9869L80.2703 85.0279ZM85.0571 66.4845C85.0571 59.9745 79.0992 54.5544 70.9202 52.2686L70.651 53.2317C78.6572 55.4692 84.0571 60.6447 84.0571 66.4845H85.0571ZM39.5901 70.0317C40.8018 73.4855 43.7281 76.4499 47.6655 78.5445C51.608 80.6419 56.5999 81.8884 62.0182 81.8884V80.8884C56.7476 80.8884 51.9195 79.6749 48.1352 77.6617C44.3457 75.6458 41.6383 72.8491 40.5337 69.7007L39.5901 70.0317ZM80.2175 85.1144C80.2184 85.1151 80.2162 85.1133 80.2146 85.1089C80.2134 85.1056 80.2124 85.1005 80.2136 85.0928C80.2148 85.0848 80.2191 85.0707 80.2319 85.0555C80.2461 85.0385 80.2624 85.0302 80.2703 85.0279L80.5535 85.9869C80.9273 85.8766 81.1515 85.5713 81.2018 85.2455C81.251 84.9273 81.1378 84.5838 80.8644 84.3519L80.2175 85.1144ZM35.841 31.8976C35.841 27.5272 38.5201 23.5076 42.9816 20.5574C47.4392 17.6098 53.6265 15.7704 60.486 15.7704V14.7704C53.4583 14.7704 47.0731 16.6531 42.43 19.7233C37.7908 22.791 34.841 27.085 34.841 31.8976H35.841ZM60.486 15.7704C67.3454 15.7704 73.5327 17.6098 77.9904 20.5574C82.4519 23.5076 85.131 27.5272 85.131 31.8976H86.131C86.131 27.085 83.1811 22.791 78.5419 19.7233C73.8989 16.6531 67.5137 14.7704 60.486 14.7704V15.7704ZM85.131 31.8976C85.131 38.4501 79.0769 44.2371 70.1378 46.7369L70.4071 47.7C79.519 45.1519 86.131 39.1201 86.131 31.8976H85.131ZM35.8992 33.012C35.8606 32.6439 35.841 32.2723 35.841 31.8976H34.841C34.841 32.3072 34.8624 32.7136 34.9046 33.1162L35.8992 33.012ZM36.4264 51.3942C36.4264 52.5843 35.4617 53.549 34.2716 53.549V54.549C36.0139 54.549 37.4264 53.1365 37.4264 51.3942H36.4264ZM34.2716 53.549C33.0816 53.549 32.1168 52.5843 32.1168 51.3942H31.1168C31.1168 53.1365 32.5293 54.549 34.2716 54.549V53.549ZM32.1168 51.3942C32.1168 50.2042 33.0816 49.2394 34.2716 49.2394V48.2394C32.5293 48.2394 31.1168 49.6519 31.1168 51.3942H32.1168ZM34.2716 49.2394C35.4617 49.2394 36.4264 50.2042 36.4264 51.3942H37.4264C37.4264 49.6519 36.0139 48.2394 34.2716 48.2394V49.2394ZM44.7965 51.3942C44.7965 52.5843 43.8317 53.549 42.6417 53.549V54.549C44.384 54.549 45.7965 53.1365 45.7965 51.3942H44.7965ZM42.6417 53.549C41.4516 53.549 40.4869 52.5843 40.4869 51.3942H39.4869C39.4869 53.1365 40.8994 54.549 42.6417 54.549V53.549ZM40.4869 51.3942C40.4869 50.2042 41.4516 49.2394 42.6417 49.2394V48.2394C40.8994 48.2394 39.4869 49.6519 39.4869 51.3942H40.4869ZM42.6417 49.2394C43.8317 49.2394 44.7965 50.2042 44.7965 51.3942H45.7965C45.7965 49.6519 44.384 48.2394 42.6417 48.2394V49.2394ZM53.1665 51.3942C53.1665 52.5843 52.2018 53.549 51.0118 53.549V54.549C52.7541 54.549 54.1665 53.1365 54.1665 51.3942H53.1665ZM51.0118 53.549C49.8217 53.549 48.857 52.5843 48.857 51.3942H47.857C47.857 53.1365 49.2694 54.549 51.0118 54.549V53.549ZM48.857 51.3942C48.857 50.2042 49.8217 49.2394 51.0118 49.2394V48.2394C49.2694 48.2394 47.857 49.6519 47.857 51.3942H48.857ZM51.0118 49.2394C52.2018 49.2394 53.1665 50.2042 53.1665 51.3942H54.1665C54.1665 49.6519 52.7541 48.2394 51.0118 48.2394V49.2394Z" fill="#017EC6"/>
</svg>
