<svg width="100" height="100" viewBox="0 0 100 100" fill="none" xmlns="http://www.w3.org/2000/svg">
<path d="M30.9757 88.3202H68.4136C70.5985 88.3202 72.3791 86.567 72.4131 84.3823L73.3846 21.8393C73.4193 19.6061 71.6185 17.7771 69.3851 17.7771H27.0275C24.8184 17.7771 23.0275 19.568 23.0275 21.7771V86.3072M52.1943 71.7019H64.7146C65.854 71.7019 66.7778 70.7782 66.7778 69.6387C66.7778 68.4993 65.854 67.5756 64.7146 67.5756H55.4728M57.2816 64.0145H64.7429C65.8667 64.0145 66.7778 63.1034 66.7778 61.9796C66.7778 60.8558 65.8667 59.9447 64.7429 59.9447H57.9599M56.4902 55.8749H62.7778C64.9869 55.8749 66.7778 54.084 66.7778 51.8749V47.5525C66.7778 45.3433 64.9869 43.5525 62.7778 43.5525H33.0191C30.81 43.5525 29.0191 45.3433 29.0191 47.5525V57.1405M32.4131 75.1935L34.4478 71.6693M37.0208 73.1549L34.9861 76.6791M41.8808 36.2816C41.8808 33.338 39.4946 30.9518 36.551 30.9518C33.6074 30.9518 31.2211 33.338 31.2211 36.2816M31.4772 17.7864V15.3124C31.4772 12.551 33.7157 10.3124 36.4772 10.3124H75.3462C78.1076 10.3124 80.3462 12.551 80.3462 15.3124V76.9193C80.3462 79.6807 78.1076 81.9193 75.3462 81.9193H72.4429M49.9832 59.1534L44.3894 64.7471C42.8273 66.3092 40.2946 66.3092 38.7325 64.7471L36.1628 62.1774C35.4604 61.475 35.4604 60.3362 36.1628 59.6338C36.8652 58.9314 38.004 58.9314 38.7064 59.6338L40.411 61.449C40.799 61.8623 41.4526 61.8707 41.8511 61.4675L47.0439 56.2141C47.8555 55.4024 49.1715 55.4024 49.9832 56.2141C50.7948 57.0257 50.7948 58.3417 49.9832 59.1534ZM48.4637 75.0934H65.1951C66.0692 75.0934 66.7778 75.802 66.7778 76.6761C66.7778 77.5502 66.0692 78.2588 65.1951 78.2588H48.4637C47.5896 78.2588 46.881 77.5502 46.881 76.6761C46.881 75.802 47.5896 75.0934 48.4637 75.0934ZM32.3408 22.073H40.3939C42.603 22.073 44.3939 23.8639 44.3939 26.073V34.4652C44.3939 36.6744 42.603 38.4652 40.3939 38.4652H32.3408C30.1317 38.4652 28.3408 36.6744 28.3408 34.4652V26.073C28.3408 23.8639 30.1317 22.073 32.3408 22.073ZM50.8377 31.9083H65.9864C66.8605 31.9083 67.5691 31.1997 67.5691 30.3256C67.5691 29.4515 66.8605 28.7429 65.9864 28.7429H50.8377C49.9636 28.7429 49.255 29.4515 49.255 30.3256C49.255 31.1997 49.9636 31.9083 50.8377 31.9083ZM50.6504 38.1681H65.7991C66.6732 38.1681 67.3818 37.4595 67.3818 36.5854C67.3818 35.7113 66.6732 35.0027 65.7991 35.0027H50.6504C49.7763 35.0027 49.0677 35.7113 49.0677 36.5854C49.0677 37.4595 49.7763 38.1681 50.6504 38.1681ZM20.3118 91.2578L28.4322 77.1927C29.4728 75.3903 31.7775 74.7728 33.5799 75.8134C35.3823 76.854 35.9998 79.1587 34.9592 80.961L26.8387 95.0261C25.7981 96.8285 23.4934 97.446 21.6911 96.4054C19.8887 95.3648 19.2712 93.0602 20.3118 91.2578ZM57.2226 60.6804C57.2226 68.5152 50.8713 74.8666 43.0365 74.8666C35.2017 74.8666 28.8503 68.5152 28.8503 60.6804C28.8503 52.8456 35.2017 46.4943 43.0365 46.4943C50.8713 46.4943 57.2226 52.8456 57.2226 60.6804ZM55.0005 60.6805C55.0005 67.288 49.644 72.6444 43.0365 72.6444C36.429 72.6444 31.0726 67.288 31.0726 60.6805C31.0726 54.073 36.429 48.7166 43.0365 48.7166C49.644 48.7166 55.0005 54.073 55.0005 60.6805ZM39.2191 27.1991C39.2191 28.6727 38.0246 29.8672 36.551 29.8672C35.0775 29.8672 33.8829 28.6727 33.8829 27.1991C33.8829 25.7256 35.0775 24.531 36.551 24.531C38.0246 24.531 39.2191 25.7256 39.2191 27.1991Z" stroke="#017EC6"/>
</svg>
