<svg width="100" height="101" viewBox="0 0 100 101" fill="none" xmlns="http://www.w3.org/2000/svg">
<path d="M50.9316 82.7129C50.6555 82.7129 50.4316 82.9367 50.4316 83.2129C50.4316 83.489 50.6555 83.7129 50.9316 83.7129V82.7129ZM88.6074 83.7129C88.8836 83.7129 89.1074 83.489 89.1074 83.2129C89.1074 82.9367 88.8836 82.7129 88.6074 82.7129V83.7129ZM73.9404 55.881C73.7029 55.7401 73.3962 55.8184 73.2553 56.0559C73.1144 56.2934 73.1927 56.6002 73.4302 56.7411L73.9404 55.881ZM76.3843 66.1128C76.2608 66.3597 76.3609 66.6601 76.6079 66.7836C76.8549 66.9071 77.1553 66.807 77.2787 66.56L76.3843 66.1128ZM75.4133 43.8143L75.2608 44.2905L75.2608 44.2905L75.4133 43.8143ZM76.611 48.8012L76.2589 48.4462L76.2589 48.4462L76.611 48.8012ZM32.6792 36.9754L32.8317 36.4992L32.8317 36.4992L32.6792 36.9754ZM31.4815 31.9885L31.8336 32.3435L31.4815 31.9885ZM50.7992 19.0009L50.3218 19.1496L50.3218 19.1496L50.7992 19.0009ZM45.8221 17.763L46.1742 18.118L46.1742 18.118L45.8221 17.763ZM57.2934 61.7888L57.7708 61.6401L57.7708 61.6401L57.2934 61.7888ZM62.2704 63.0267L62.6226 63.3816L62.6226 63.3816L62.2704 63.0267ZM12.8337 74.65L13.1872 75.0035L12.8337 74.65ZM19.7913 81.6076L19.4378 81.2541L19.4378 81.2541L19.7913 81.6076ZM44.4084 56.9905L44.762 57.3441L44.762 57.3441L44.4084 56.9905ZM37.4508 50.0329L37.0972 49.6793L37.4508 50.0329ZM53.803 76.4722H85.7358V75.4722H53.803V76.4722ZM86.2358 76.9722V82.2128H87.2358V76.9722H86.2358ZM85.7358 82.7128H53.803V83.7128H85.7358V82.7128ZM53.303 82.2128V76.9722H52.303V82.2128H53.303ZM53.803 82.7128C53.5268 82.7128 53.303 82.489 53.303 82.2128H52.303C52.303 83.0412 52.9745 83.7128 53.803 83.7128V82.7128ZM86.2358 82.2128C86.2358 82.489 86.012 82.7128 85.7358 82.7128V83.7128C86.5643 83.7128 87.2358 83.0412 87.2358 82.2128H86.2358ZM85.7358 76.4722C86.012 76.4722 86.2358 76.696 86.2358 76.9722H87.2358C87.2358 76.1437 86.5643 75.4722 85.7358 75.4722V76.4722ZM53.803 75.4722C52.9745 75.4722 52.303 76.1437 52.303 76.9722H53.303C53.303 76.696 53.5268 76.4722 53.803 76.4722V75.4722ZM58.6355 69.5386H80.8154V68.5386H58.6355V69.5386ZM81.3154 70.0386V74.9722H82.3154V70.0386H81.3154ZM80.8154 75.4722H58.6355V76.4722H80.8154V75.4722ZM58.1355 74.9722V70.0386H57.1355V74.9722H58.1355ZM58.6355 75.4722C58.3594 75.4722 58.1355 75.2483 58.1355 74.9722H57.1355C57.1355 75.8006 57.8071 76.4722 58.6355 76.4722V75.4722ZM81.3154 74.9722C81.3154 75.2483 81.0916 75.4722 80.8154 75.4722V76.4722C81.6438 76.4722 82.3154 75.8006 82.3154 74.9722H81.3154ZM80.8154 69.5386C81.0916 69.5386 81.3154 69.7624 81.3154 70.0386H82.3154C82.3154 69.2101 81.6438 68.5386 80.8154 68.5386V69.5386ZM58.6355 68.5386C57.8071 68.5386 57.1355 69.2101 57.1355 70.0386H58.1355C58.1355 69.7624 58.3594 69.5386 58.6355 69.5386V68.5386ZM73.4302 56.7411C74.4128 57.3239 75.7514 58.5048 76.5394 60.1216C77.3159 61.715 77.5676 63.7462 76.3843 66.1128L77.2787 66.56C78.6125 63.8925 78.3398 61.5332 77.4383 59.6835C76.5483 57.8572 75.0553 56.5424 73.9404 55.881L73.4302 56.7411ZM70.7493 42.8456L75.2608 44.2905L75.5658 43.3381L71.0543 41.8932L70.7493 42.8456ZM75.2608 44.2905C77.0472 44.8626 77.5906 47.1252 76.2589 48.4462L76.9632 49.1562C78.8276 47.3068 78.0668 44.1391 75.5658 43.3381L75.2608 44.2905ZM37.3432 37.9442L32.8317 36.4992L32.5267 37.4516L37.0382 38.8965L37.3432 37.9442ZM32.8317 36.4992C31.0453 35.9271 30.5019 33.6645 31.8336 32.3435L31.1294 31.6335C29.265 33.483 30.0257 36.6506 32.5267 37.4516L32.8317 36.4992ZM52.6851 23.3753L51.2766 18.8523L50.3218 19.1496L51.7303 23.6726L52.6851 23.3753ZM51.2766 18.8523C50.4958 16.3449 47.3344 15.5586 45.47 17.4081L46.1742 18.118C47.5059 16.797 49.7641 17.3586 50.3218 19.1496L51.2766 18.8523ZM55.4075 57.4145L56.816 61.9375L57.7708 61.6401L56.3622 57.1171L55.4075 57.4145ZM56.816 61.9375C57.5968 64.4448 60.7582 65.2311 62.6226 63.3816L61.9183 62.6717C60.5866 63.9927 58.3285 63.4311 57.7708 61.6401L56.816 61.9375ZM70.5497 42.0144L55.5327 56.9108L56.237 57.6208L71.254 42.7244L70.5497 42.0144ZM76.2589 48.4462L61.9183 62.6717L62.6226 63.3816L76.9632 49.1562L76.2589 48.4462ZM51.8527 23.8761L70.5469 42.7215L71.2568 42.0173L52.5627 23.1718L51.8527 23.8761ZM37.5428 38.7753L52.5598 23.8789L51.8556 23.169L36.8386 38.0654L37.5428 38.7753ZM31.8336 32.3435L46.1742 18.118L45.47 17.4081L31.1294 31.6335L31.8336 32.3435ZM56.2398 56.9137L37.5457 38.0682L36.8357 38.7725L55.5299 57.6179L56.2398 56.9137ZM39.9256 50.3864L44.0549 54.5156L44.762 53.8085L40.6328 49.6793L39.9256 50.3864ZM44.0549 56.637L19.4378 81.2541L20.1449 81.9612L44.762 57.3441L44.0549 56.637ZM13.1872 75.0035L37.8043 50.3864L37.0972 49.6793L12.4801 74.2964L13.1872 75.0035ZM13.1872 81.2541C11.4612 79.528 11.4612 76.7295 13.1872 75.0035L12.4801 74.2964C10.3636 76.413 10.3636 79.8446 12.4801 81.9612L13.1872 81.2541ZM19.4378 81.2541C17.7117 82.9801 14.9133 82.9801 13.1872 81.2541L12.4801 81.9612C14.5967 84.0777 18.0283 84.0777 20.1449 81.9612L19.4378 81.2541ZM44.0549 54.5156C44.6407 55.1014 44.6407 56.0512 44.0549 56.637L44.762 57.3441C45.7383 56.3678 45.7383 54.7848 44.762 53.8085L44.0549 54.5156ZM40.6328 49.6793C39.6564 48.703 38.0735 48.703 37.0972 49.6793L37.8043 50.3864C38.3901 49.8006 39.3399 49.8006 39.9256 50.3864L40.6328 49.6793ZM48.3579 49.3435L44.2388 53.4627L44.9459 54.1698L49.0651 50.0506L48.3579 49.3435ZM40.9788 50.2027L45.0979 46.0835L44.3908 45.3764L40.2717 49.4955L40.9788 50.2027ZM50.9316 83.7129H88.6074V82.7129H50.9316V83.7129Z" fill="#017EC6"/>
</svg>
