<svg width="100" height="100" viewBox="0 0 100 100" fill="none" xmlns="http://www.w3.org/2000/svg">
<path d="M45.4709 52.8445L50.0804 48.235M46.1628 44.3175L41.5533 48.9269M37.8453 36.7955L52.8611 21.7796M37.8453 36.7955L33.1156 35.3277C31.6782 34.8816 31.23 33.0675 32.2942 32.0033L47.9045 16.3931C48.9427 15.3549 50.7083 15.7519 51.2022 17.1346L52.8611 21.7796M37.8453 36.7955L57.3523 56.3025M52.8611 21.7796L72.3681 41.2867M72.3681 41.2867L57.3523 56.3025M72.3681 41.2867L77.0977 42.7545C78.5351 43.2006 78.9834 45.0146 77.9192 46.0788L62.3089 61.6891C61.2707 62.7273 59.505 62.3302 59.0112 60.9475L57.3523 56.3025M86.2273 84.1935H87.687M86.2273 84.1935V78.3385C86.2273 77.2339 85.3318 76.3385 84.2273 76.3385H80.7357M86.2273 84.1935H52.5134M50.0804 84.1935H52.5134M52.5134 84.1935V78.3385C52.5134 77.2339 53.4088 76.3385 54.5134 76.3385H56.9622M56.9622 76.3385V71.5957C56.9622 70.4911 57.8577 69.5957 58.9622 69.5957H78.7357C79.8403 69.5957 80.7357 70.4911 80.7357 71.5957V76.3385M56.9622 76.3385H80.7357M73.0198 56.6662C74.943 58.0333 78.3445 62.0187 76.5649 67.0237M13.7775 80.5102L13.9252 80.6579C15.8778 82.6105 19.0358 82.6185 20.9884 80.6658L45.6195 56.0347C46.4006 55.2536 46.3941 53.9938 45.6131 53.2127L41.2226 48.8223C40.4416 48.0413 39.1753 48.0413 38.3942 48.8223L13.7775 73.4391C11.8248 75.3917 11.8248 78.5575 13.7775 80.5102Z" stroke="#017EC6"/>
</svg>
