<svg width="100" height="101" viewBox="0 0 100 101" fill="none" xmlns="http://www.w3.org/2000/svg">
<path d="M40.194 37.9448C40.194 35.0012 37.8077 32.615 34.8641 32.615C31.9205 32.615 29.5342 35.0012 29.5342 37.9448M29.7903 19.4496V16.9756C29.7903 14.2142 32.0289 11.9756 34.7903 11.9756H73.6593C76.4207 11.9756 78.6593 14.2142 78.6593 16.9756V78.5825C78.6593 81.3439 76.4207 83.5825 73.6593 83.5825H70.756M51.1028 80.5164L52.3462 81.4706C53.3092 82.2097 54.6617 82.1598 55.5677 81.3518C56.1577 80.8255 56.4676 80.0535 56.405 79.2653L56.2913 77.8328C56.2208 76.9446 56.8416 76.1501 57.7204 76.0037C58.4787 75.8773 59.2286 76.2705 59.5559 76.9661L60.2028 78.3407C60.4301 78.8238 61.0189 79.0136 61.4856 78.7543C61.7105 78.6294 61.8729 78.4163 61.9339 78.1664L62.3959 76.272C62.4741 75.9514 62.5659 75.6268 62.7613 75.3608C63.4458 74.4291 64.5912 74.5049 65.3493 74.9124M58.897 19.4403H25.3406C23.1315 19.4403 21.3406 21.2312 21.3406 23.4403V84.9834C21.3406 87.7449 23.5792 89.9834 26.3406 89.9834H66.7267C68.9116 89.9834 70.6922 88.2302 70.7262 86.0455L71.5905 30.4062M58.897 19.4403L71.5905 30.4062M58.897 19.4403V27.4062C58.897 29.063 60.2402 30.4062 61.8971 30.4062H71.5905M54.8033 57.5381H61.0909C63.3 57.5381 65.0909 55.7473 65.0909 53.5381V49.2157C65.0909 47.0065 63.3 45.2157 61.0909 45.2157H31.3322C29.1231 45.2157 27.3322 47.0065 27.3322 49.2157V53.5381C27.3322 55.7473 29.1231 57.5381 31.3322 57.5381H54.8033ZM30.6539 23.7362H38.707C40.9161 23.7362 42.707 25.5271 42.707 27.7362V36.1284C42.707 38.3376 40.9161 40.1284 38.707 40.1284H30.6539C28.4448 40.1284 26.6539 38.3376 26.6539 36.1284V27.7362C26.6539 25.5271 28.4448 23.7362 30.6539 23.7362ZM48.9635 39.8313H64.1122C64.9863 39.8313 65.6949 39.1227 65.6949 38.2486C65.6949 37.3745 64.9863 36.6659 64.1122 36.6659H48.9635C48.0894 36.6659 47.3808 37.3745 47.3808 38.2486C47.3808 39.1227 48.0894 39.8313 48.9635 39.8313ZM37.5322 28.8623C37.5322 30.3359 36.3377 31.5304 34.8642 31.5304C33.3906 31.5304 32.1961 30.3359 32.1961 28.8623C32.1961 27.3888 33.3906 26.1942 34.8642 26.1942C36.3377 26.1942 37.5322 27.3888 37.5322 28.8623ZM28.2717 66.3505H63.961C64.9186 66.3505 65.6948 67.1268 65.6948 68.0844C65.6948 69.042 64.9186 69.8183 63.961 69.8183H28.2717C27.3141 69.8183 26.5379 69.042 26.5379 68.0844C26.5379 67.1268 27.3141 66.3505 28.2717 66.3505ZM28.2717 74.9228H46.5335C47.4911 74.9228 48.2673 75.6991 48.2673 76.6567C48.2673 77.6143 47.4911 78.3906 46.5335 78.3906H28.2717C27.3141 78.3906 26.5379 77.6143 26.5379 76.6567C26.5379 75.6991 27.3141 74.9228 28.2717 74.9228Z" stroke="#017EC6"/>
</svg>
