<svg width="100" height="101" viewBox="0 0 100 101" fill="none" xmlns="http://www.w3.org/2000/svg">
<path d="M25.9695 37.7035L34.65 26.8517M39.76 25.9151L46.83 30.8793M52.0093 29.9184L60.8279 18.9104M65.8145 18.3054L72.9662 22.2677M17.2903 76.6424H43.4028C44.547 76.6424 45.4746 75.7148 45.4746 74.5706C45.4746 73.4263 44.547 72.4987 43.4028 72.4987H17.2903C16.1461 72.4987 15.2185 73.4263 15.2185 74.5706C15.2185 75.7148 16.1461 76.6424 17.2903 76.6424ZM53.8145 68.3553H79.927C81.0712 68.3553 81.9988 67.4277 81.9988 66.2834C81.9988 65.1392 81.0712 64.2116 79.927 64.2116H53.8145C52.6703 64.2116 51.7427 65.1392 51.7427 66.2834C51.7427 67.4277 52.6703 68.3553 53.8145 68.3553ZM60.3784 61.1984H66.0044C67.109 61.1984 68.0044 60.303 68.0044 59.1984V27.8884C68.0044 26.7838 67.109 25.8884 66.0044 25.8884H60.3784C59.2738 25.8884 58.3784 26.7838 58.3784 27.8884V59.1984C58.3784 60.303 59.2738 61.1984 60.3784 61.1984ZM73.5127 61.1986H79.1387C80.2432 61.1986 81.1387 60.3031 81.1387 59.1986V35.4006C81.1387 34.296 80.2432 33.4006 79.1387 33.4006H73.5127C72.4081 33.4006 71.5127 34.296 71.5127 35.4006V59.1986C71.5127 60.3031 72.4081 61.1986 73.5127 61.1986ZM47.0537 61.1986H52.6797C53.7843 61.1986 54.6797 60.3031 54.6797 59.1986V43.2361C54.6797 42.1315 53.7843 41.2361 52.6797 41.2361H47.0537C45.9491 41.2361 45.0537 42.1315 45.0537 43.2361V59.1986C45.0537 60.3031 45.9491 61.1986 47.0537 61.1986ZM33.9197 61.1986H39.5457C40.6502 61.1986 41.5457 60.3031 41.5457 59.1986V35.4006C41.5457 34.296 40.6502 33.4006 39.5457 33.4006H33.9197C32.8151 33.4006 31.9197 34.296 31.9197 35.4006V59.1986C31.9197 60.3031 32.8151 61.1986 33.9197 61.1986ZM20.7856 61.1983H26.4116C27.5162 61.1983 28.4116 60.3029 28.4116 59.1983V51.4133C28.4116 50.3087 27.5162 49.4133 26.4116 49.4133H20.7856C19.6811 49.4133 18.7856 50.3087 18.7856 51.4133V59.1983C18.7856 60.3029 19.6811 61.1983 20.7856 61.1983ZM53.8145 84.9295H79.927C81.0712 84.9295 81.9988 84.0019 81.9988 82.8577C81.9988 81.7134 81.0712 80.7859 79.927 80.7859H53.8145C52.6703 80.7859 51.7427 81.7134 51.7427 82.8577C51.7427 84.0019 52.6703 84.9295 53.8145 84.9295ZM20.073 80.7859H46.1855C47.3297 80.7859 48.2573 79.8583 48.2573 78.7141C48.2573 77.5699 47.3297 76.6423 46.1855 76.6423H20.073C18.9288 76.6423 18.0012 77.5699 18.0012 78.7141C18.0012 79.8583 18.9288 80.7859 20.073 80.7859ZM56.5972 72.4988H82.7097C83.8539 72.4988 84.7815 71.5712 84.7815 70.427C84.7815 69.2828 83.8539 68.3552 82.7097 68.3552H56.5972C55.453 68.3552 54.5254 69.2828 54.5254 70.427C54.5254 71.5712 55.453 72.4988 56.5972 72.4988ZM56.5972 89.073H82.7097C83.8539 89.073 84.7815 88.1454 84.7815 87.0012C84.7815 85.857 83.8539 84.9294 82.7097 84.9294H56.5972C55.453 84.9294 54.5254 85.857 54.5254 87.0012C54.5254 88.1454 55.453 89.073 56.5972 89.073ZM17.2903 84.9295H43.4028C44.547 84.9295 45.4746 84.0019 45.4746 82.8577C45.4746 81.7134 44.547 80.7859 43.4028 80.7859H17.2903C16.1461 80.7859 15.2185 81.7134 15.2185 82.8577C15.2185 84.0019 16.1461 84.9295 17.2903 84.9295ZM53.8145 76.6424H79.927C81.0712 76.6424 81.9988 75.7148 81.9988 74.5706C81.9988 73.4263 81.0712 72.4987 79.927 72.4987H53.8145C52.6703 72.4987 51.7427 73.4263 51.7427 74.5706C51.7427 75.7148 52.6703 76.6424 53.8145 76.6424ZM20.073 89.073H46.1855C47.3297 89.073 48.2573 88.1454 48.2573 87.0012C48.2573 85.857 47.3297 84.9294 46.1855 84.9294H20.073C18.9288 84.9294 18.0012 85.857 18.0012 87.0012C18.0012 88.1454 18.9288 89.073 20.073 89.073ZM56.5972 80.7859H82.7097C83.8539 80.7859 84.7815 79.8583 84.7815 78.7141C84.7815 77.5699 83.8539 76.6423 82.7097 76.6423H56.5972C55.453 76.6423 54.5254 77.5699 54.5254 78.7141C54.5254 79.8583 55.453 80.7859 56.5972 80.7859ZM27.2517 40.5072C27.2517 42.4448 25.6809 44.0156 23.7433 44.0156C21.8056 44.0156 20.2349 42.4448 20.2349 40.5072C20.2349 38.5695 21.8056 36.9987 23.7433 36.9987C25.6809 36.9987 27.2517 38.5695 27.2517 40.5072ZM40.241 24.0433C40.241 25.981 38.6702 27.5517 36.7326 27.5517C34.7949 27.5517 33.2241 25.981 33.2241 24.0433C33.2241 22.1057 34.7949 20.5349 36.7326 20.5349C38.6702 20.5349 40.241 22.1057 40.241 24.0433ZM53.3753 32.6083C53.3753 34.5459 51.8045 36.1167 49.8668 36.1167C47.9292 36.1167 46.3584 34.5459 46.3584 32.6083C46.3584 30.6706 47.9292 29.0998 49.8668 29.0998C51.8045 29.0998 53.3753 30.6706 53.3753 32.6083ZM66.4607 16.1444C66.4607 18.082 64.8899 19.6528 62.9523 19.6528C61.0146 19.6528 59.4438 18.082 59.4438 16.1444C59.4438 14.2067 61.0146 12.636 62.9523 12.636C64.8899 12.636 66.4607 14.2067 66.4607 16.1444ZM79.5193 24.0433C79.5193 25.981 77.9485 27.5517 76.0109 27.5517C74.0732 27.5517 72.5024 25.981 72.5024 24.0433C72.5024 22.1057 74.0732 20.5349 76.0109 20.5349C77.9485 20.5349 79.5193 22.1057 79.5193 24.0433Z" stroke="#0180C9" stroke-linecap="round"/>
</svg>
