<svg width="201" height="200" viewBox="0 0 201 200" fill="none" xmlns="http://www.w3.org/2000/svg">
<path d="M98.3499 110.58L98.1312 95.6455C98.1092 94.1442 97.4137 92.7322 96.2368 91.7997L69.8244 70.8723C69.0817 70.2838 69.4978 69.0885 70.4455 69.0885H129.626C130.561 69.0885 130.985 70.2567 130.267 70.8559L105.23 91.7741C104.092 92.7241 103.435 94.1295 103.435 95.6112V110.58M57.2154 154.144L57.2154 137.876C57.2154 135.581 58.2007 133.397 59.9209 131.878L93.6138 102.135C94.0438 101.755 94.2902 101.209 94.2902 100.635V98.4268C94.2902 97.807 94.0028 97.2223 93.5122 96.8436L60.8023 71.595C58.8985 70.1255 57.7568 67.8774 57.6934 65.4732L57.332 51.7754M143.129 154.144V137.777C143.129 135.54 142.192 133.405 140.546 131.89L108.597 102.493C108.185 102.114 107.951 101.58 107.951 101.021V98.729C107.951 98.1429 108.208 97.5864 108.654 97.2064L139.833 70.6478C141.558 69.1783 142.579 67.0462 142.642 64.781L143.006 51.7754M100.893 136.851H102.137C103.819 136.851 105.182 135.487 105.182 133.805C105.182 132.123 103.819 130.76 102.137 130.76H99.6059C97.9476 130.76 96.6034 129.416 96.6034 127.757C96.6034 126.099 97.9476 124.755 99.6059 124.755H100.893M100.893 136.851H96.6034M100.893 136.851V139.607M105.182 124.755H100.893M100.893 124.755V121.727M57.332 51.7754H52.015C49.8059 51.7754 48.015 49.9845 48.015 47.7754V35.6631C48.015 33.4539 49.8059 31.6631 52.015 31.6631H149.254C151.463 31.6631 153.254 33.4539 153.254 35.6631V47.7754C153.254 49.9845 151.463 51.7754 149.254 51.7754H143.006M57.332 51.7754H100.169H143.006M52.015 174.256H149.254C151.463 174.256 153.254 172.465 153.254 170.256V158.144C153.254 155.934 151.463 154.144 149.254 154.144H52.015C49.8059 154.144 48.015 155.934 48.015 158.144V170.256C48.015 172.465 49.8059 174.256 52.015 174.256ZM120.98 130.667C120.98 141.761 111.987 150.754 100.893 150.754C89.7989 150.754 80.8055 141.761 80.8055 130.667C80.8055 119.573 89.7989 110.58 100.893 110.58C111.987 110.58 120.98 119.573 120.98 130.667ZM115.109 130.667C115.109 138.518 108.744 144.883 100.893 144.883C93.0417 144.883 86.6771 138.518 86.6771 130.667C86.6771 122.816 93.0417 116.451 100.893 116.451C108.744 116.451 115.109 122.816 115.109 130.667Z" stroke="#017EC6" stroke-width="2" stroke-linecap="round"/>
</svg>
