<svg width="100" height="101" viewBox="0 0 100 101" fill="none" xmlns="http://www.w3.org/2000/svg">
<path d="M27.0437 18.5995L27.0437 19.0995H27.0437V18.5995ZM69.0076 18.5995L69.0076 18.0995L69.0076 18.5995ZM73.0076 22.5995L73.5076 22.5995V22.5995L73.0076 22.5995ZM73.0076 84.8239L72.5076 84.8239V84.8239L73.0076 84.8239ZM23.0437 22.5995L22.5437 22.5995V22.5995L23.0437 22.5995ZM69.0076 88.8239L69.0076 88.3239H69.0076V88.8239ZM34.2634 11.7533L34.2634 12.2533L34.2634 11.7533ZM80.2273 15.7533L80.7273 15.7533V15.7533L80.2273 15.7533ZM80.2273 77.9777L79.7273 77.9777V77.9777L80.2273 77.9777ZM76.2273 81.9777L76.2273 81.4777H76.2273V81.9777ZM30.2634 15.7533L30.7634 15.7533L30.7634 15.7533L30.2634 15.7533ZM41.192 36.4466V36.9466H41.692V36.4466H41.192ZM32.228 36.4466H31.728V36.9466H32.228V36.4466ZM50.1809 59.5666L50.5215 59.9326L50.5215 59.9326L50.1809 59.5666ZM50.2697 57.0933L50.6357 56.7527L50.6357 56.7527L50.2697 57.0933ZM42.9674 66.2801L42.6267 65.9141L42.6267 65.9141L42.9674 66.2801ZM39.0816 66.1414L39.4474 65.8006L39.0816 66.1414ZM35.7903 62.6079L35.4244 62.9487L35.4244 62.9487L35.7903 62.6079ZM35.878 60.1346L36.2188 60.5004L36.2188 60.5004L35.878 60.1346ZM38.3514 60.2223L37.9855 60.5631L37.9855 60.5631L38.3514 60.2223ZM41.1317 63.2072L40.7658 63.548C40.954 63.75 41.2702 63.7613 41.4723 63.5733L41.1317 63.2072ZM47.7964 57.0045L47.4558 56.6385L47.4558 56.6385L47.7964 57.0045ZM20.2962 92.0988L20.7292 92.3488L20.7292 92.3488L20.2962 92.0988ZM27.0557 96.0014L27.4887 96.2514L27.4887 96.2514L27.0557 96.0014ZM35.2887 81.7415L34.8556 81.4915L34.8556 81.4915L35.2887 81.7415ZM28.5292 77.8389L28.0962 77.5889L28.0962 77.5889L28.5292 77.8389ZM27.0437 19.0995H30.2634V18.0995H27.0437V19.0995ZM30.2634 19.0995L69.0076 19.0995L69.0076 18.0995L30.2634 18.0995L30.2634 19.0995ZM72.5076 22.5995L72.5076 84.8239L73.5076 84.8239L73.5076 22.5995L72.5076 22.5995ZM69.0076 19.0995C70.9406 19.0995 72.5076 20.6665 72.5076 22.5995L73.5076 22.5995C73.5076 20.1142 71.4929 18.0995 69.0076 18.0995L69.0076 19.0995ZM27.0437 18.0995C24.5584 18.0995 22.5437 20.1142 22.5437 22.5995L23.5437 22.5995C23.5437 20.6665 25.1107 19.0995 27.0437 19.0995L27.0437 18.0995ZM72.5076 84.8239C72.5076 86.7569 70.9406 88.3239 69.0076 88.3239L69.0076 89.3239C71.4928 89.3239 73.5076 87.3091 73.5076 84.8239L72.5076 84.8239ZM34.2634 12.2533L76.2273 12.2533L76.2273 11.2533L34.2634 11.2533L34.2634 12.2533ZM79.7273 15.7533L79.7273 77.9777L80.7273 77.9777L80.7273 15.7533L79.7273 15.7533ZM76.2273 81.4777H73.027V82.4777H76.2273V81.4777ZM30.7634 18.6121V18.5995H29.7634V18.6121H30.7634ZM30.7634 18.5995L30.7634 15.7533L29.7634 15.7533L29.7634 18.5995L30.7634 18.5995ZM76.2273 12.2533C78.1603 12.2533 79.7273 13.8203 79.7273 15.7533L80.7273 15.7533C80.7273 13.268 78.7126 11.2533 76.2273 11.2533L76.2273 12.2533ZM34.2634 11.2533C31.7782 11.2533 29.7634 13.268 29.7634 15.7533L30.7634 15.7533C30.7634 13.8203 32.3304 12.2533 34.2634 12.2533L34.2634 11.2533ZM79.7273 77.9777C79.7273 79.9107 78.1603 81.4777 76.2273 81.4777L76.2273 82.4777C78.7126 82.4777 80.7273 80.4629 80.7273 77.9777L79.7273 77.9777ZM69.0076 88.3239H31.3615V89.3239H69.0076V88.3239ZM23.5437 87.2313L23.5437 22.5995L22.5437 22.5995L22.5437 87.2313L23.5437 87.2313ZM30.447 23.424H42.9731V22.424H30.447V23.424ZM44.4731 24.924V37.4804H45.4731V24.924H44.4731ZM42.9731 38.9804H30.447V39.9804H42.9731V38.9804ZM28.947 37.4804V24.924H27.947V37.4804H28.947ZM30.447 38.9804C29.6186 38.9804 28.947 38.3088 28.947 37.4804H27.947C27.947 38.8611 29.0663 39.9804 30.447 39.9804V38.9804ZM44.4731 37.4804C44.4731 38.3088 43.8016 38.9804 42.9731 38.9804V39.9804C44.3539 39.9804 45.4731 38.8611 45.4731 37.4804H44.4731ZM42.9731 23.424C43.8016 23.424 44.4731 24.0956 44.4731 24.924H45.4731C45.4731 23.5433 44.3539 22.424 42.9731 22.424V23.424ZM30.447 22.424C29.0663 22.424 27.947 23.5433 27.947 24.924H28.947C28.947 24.0956 29.6186 23.424 30.447 23.424V22.424ZM30.447 44.549H65.2742V43.549H30.447V44.549ZM66.7742 46.049V54.4964H67.7742V46.049H66.7742ZM28.947 54.4964V46.049H27.947V54.4964H28.947ZM29.1895 56.4964C29.5744 56.1772 29.5745 56.1773 29.5746 56.1774C29.5746 56.1775 29.5747 56.1776 29.5747 56.1776C29.5749 56.1778 29.5749 56.1779 29.575 56.178C29.5752 56.1782 29.5753 56.1783 29.5754 56.1784C29.5755 56.1786 29.5755 56.1786 29.5753 56.1784C29.575 56.1779 29.5739 56.1766 29.5723 56.1745C29.569 56.1704 29.5632 56.163 29.5553 56.1527C29.5395 56.1319 29.5153 56.0992 29.4855 56.0559C29.4256 55.9688 29.3444 55.8409 29.2632 55.6824C29.0979 55.3602 28.947 54.9407 28.947 54.4964H27.947C27.947 55.1566 28.1674 55.7371 28.3734 56.1388C28.4777 56.3422 28.5822 56.5072 28.6615 56.6225C28.7013 56.6804 28.7351 56.7263 28.7599 56.7588C28.7723 56.7751 28.7825 56.788 28.7901 56.7975C28.7938 56.8023 28.797 56.8062 28.7994 56.8092C28.8006 56.8107 28.8017 56.812 28.8026 56.813C28.803 56.8136 28.8034 56.814 28.8037 56.8144C28.8039 56.8147 28.8041 56.8148 28.8042 56.815C28.8043 56.8151 28.8044 56.8152 28.8044 56.8153C28.8045 56.8154 28.8046 56.8155 29.1895 56.4964ZM66.7742 54.4964C66.7742 55.3248 66.1026 55.9964 65.2742 55.9964V56.9964C66.6549 56.9964 67.7742 55.8771 67.7742 54.4964H66.7742ZM65.2742 44.549C66.1026 44.549 66.7742 45.2206 66.7742 46.049H67.7742C67.7742 44.6683 66.6549 43.549 65.2742 43.549V44.549ZM30.447 43.549C29.0663 43.549 27.947 44.6683 27.947 46.049H28.947C28.947 45.2206 29.6186 44.549 30.447 44.549V43.549ZM66.7742 62.7995C66.7742 63.4809 66.2217 64.0334 65.5403 64.0334V65.0334C66.774 65.0334 67.7742 64.0332 67.7742 62.7995H66.7742ZM65.5403 61.5656C66.2217 61.5656 66.7742 62.118 66.7742 62.7995H67.7742C67.7742 61.5657 66.774 60.5656 65.5403 60.5656V61.5656ZM50.7544 29.9684H65.8701V28.9684H50.7544V29.9684ZM65.8701 32.4362H50.7544V33.4362H65.8701V32.4362ZM50.7544 32.4362C50.0729 32.4362 49.5205 31.8838 49.5205 31.2023H48.5205C48.5205 32.436 49.5207 33.4362 50.7544 33.4362V32.4362ZM67.104 31.2023C67.104 31.8838 66.5516 32.4362 65.8701 32.4362V33.4362C67.1039 33.4362 68.104 32.436 68.104 31.2023H67.104ZM65.8701 29.9684C66.5516 29.9684 67.104 30.5208 67.104 31.2023H68.104C68.104 29.9686 67.1039 28.9684 65.8701 28.9684V29.9684ZM50.7544 28.9684C49.5207 28.9684 48.5205 29.9686 48.5205 31.2023H49.5205C49.5205 30.5208 50.0729 29.9684 50.7544 29.9684V28.9684ZM50.7544 36.0915H65.8701V35.0915H50.7544V36.0915ZM65.8701 38.5592H50.7544V39.5592H65.8701V38.5592ZM50.7544 38.5592C50.0729 38.5592 49.5205 38.0068 49.5205 37.3254H48.5205C48.5205 38.5591 49.5207 39.5592 50.7544 39.5592V38.5592ZM67.104 37.3254C67.104 38.0068 66.5516 38.5592 65.8701 38.5592V39.5592C67.1039 39.5592 68.104 38.5591 68.104 37.3254H67.104ZM65.8701 36.0915C66.5516 36.0915 67.104 36.6439 67.104 37.3254H68.104C68.104 36.0916 67.1039 35.0915 65.8701 35.0915V36.0915ZM50.7544 35.0915C49.5207 35.0915 48.5205 36.0916 48.5205 37.3254H49.5205C49.5205 36.6439 50.0729 36.0915 50.7544 36.0915V35.0915ZM38.447 28.617C38.447 29.5763 37.6694 30.3539 36.7101 30.3539V31.3539C38.2217 31.3539 39.447 30.1285 39.447 28.617H38.447ZM36.7101 30.3539C35.7508 30.3539 34.9731 29.5763 34.9731 28.617H33.9731C33.9731 30.1285 35.1985 31.3539 36.7101 31.3539V30.3539ZM34.9731 28.617C34.9731 27.6577 35.7508 26.88 36.7101 26.88V25.88C35.1985 25.88 33.9731 27.1054 33.9731 28.617H34.9731ZM36.7101 26.88C37.6694 26.88 38.447 27.6577 38.447 28.617H39.447C39.447 27.1054 38.2217 25.88 36.7101 25.88V26.88ZM40.692 36.3826V36.4466H41.692V36.3826H40.692ZM41.192 35.9466H32.228V36.9466H41.192V35.9466ZM32.728 36.4466V36.3826H31.728V36.4466H32.728ZM36.71 32.4005C38.9092 32.4005 40.692 34.1834 40.692 36.3826H41.692C41.692 33.6311 39.4615 31.4005 36.71 31.4005V32.4005ZM36.71 31.4005C33.9586 31.4005 31.728 33.6311 31.728 36.3826H32.728C32.728 34.1834 34.5108 32.4005 36.71 32.4005V31.4005ZM65.5403 64.0334H56.3547V65.0334H65.5403V64.0334ZM56.9055 61.5656H65.5403V60.5656H56.9055V61.5656ZM65.2742 55.9964H56.1894V56.9964H65.2742V55.9964ZM50.5215 59.9326C51.4312 59.086 51.4823 57.6623 50.6357 56.7527L49.9037 57.434C50.374 57.9393 50.3456 58.7303 49.8402 59.2006L50.5215 59.9326ZM43.308 66.6461L50.5215 59.9326L49.8402 59.2006L42.6267 65.9141L43.308 66.6461ZM38.7157 66.4822C39.9387 67.7952 41.9945 67.8686 43.308 66.6461L42.6267 65.9141C41.7173 66.7604 40.2941 66.7096 39.4474 65.8006L38.7157 66.4822ZM35.4244 62.9487L38.7157 66.4822L39.4474 65.8006L36.1561 62.2671L35.4244 62.9487ZM35.5372 59.7687C34.628 60.6157 34.5774 62.0394 35.4244 62.9487L36.1561 62.2671C35.6856 61.7619 35.7137 60.971 36.2188 60.5004L35.5372 59.7687ZM38.7172 59.8815C37.8703 58.9723 36.4465 58.9217 35.5372 59.7687L36.2188 60.5004C36.724 60.0299 37.5149 60.058 37.9855 60.5631L38.7172 59.8815ZM41.4975 62.8665L38.7172 59.8815L37.9855 60.5631L40.7658 63.548L41.4975 62.8665ZM47.4558 56.6385L40.791 62.8412L41.4723 63.5733L48.137 57.3705L47.4558 56.6385ZM50.6357 56.7527C49.7891 55.843 48.3654 55.7919 47.4558 56.6385L48.137 57.3705C48.6424 56.9002 49.4334 56.9286 49.9037 57.434L50.6357 56.7527ZM66.2957 70.4447C66.2957 71.0991 65.7245 71.6786 64.9576 71.6786V72.6786C66.221 72.6786 67.2957 71.7056 67.2957 70.4447H66.2957ZM64.9576 69.2108C65.7245 69.2108 66.2957 69.7904 66.2957 70.4447H67.2957C67.2957 69.1839 66.221 68.2108 64.9576 68.2108V69.2108ZM54.7849 69.2108H64.9576V68.2108H54.7849V69.2108ZM64.9576 71.6786H51.2874V72.6786H64.9576V71.6786ZM66.2956 77.5595C66.2956 78.2409 65.7432 78.7934 65.0617 78.7934V79.7934C66.2955 79.7934 67.2956 78.7932 67.2956 77.5595H66.2956ZM65.0617 76.3256C65.7432 76.3256 66.2956 76.878 66.2956 77.5595H67.2956C67.2956 76.3257 66.2955 75.3256 65.0617 75.3256V76.3256ZM65.0617 78.7934H47.7441V79.7934H65.0617V78.7934ZM47.7441 76.3256H65.0617V75.3256H47.7441V76.3256ZM47.7441 75.3256C46.5104 75.3256 45.5103 76.3257 45.5103 77.5595H46.5103C46.5103 76.878 47.0627 76.3256 47.7441 76.3256V75.3256ZM47.7441 78.7934C47.0627 78.7934 46.5103 78.2409 46.5103 77.5595H45.5103C45.5103 78.7932 46.5104 79.7934 47.7441 79.7934V78.7934ZM54.6729 67.6723C50.9021 74.2035 42.5507 76.4412 36.0196 72.6705L35.5196 73.5365C42.529 77.5834 51.492 75.1818 55.5389 68.1723L54.6729 67.6723ZM36.0196 72.6705C29.4884 68.8997 27.2507 60.5483 31.0215 54.0172L30.1554 53.5172C26.1085 60.5266 28.5101 69.4896 35.5196 73.5365L36.0196 72.6705ZM31.0215 54.0172C34.7922 47.486 43.1436 45.2483 49.6747 49.019L50.1747 48.153C43.1653 44.1061 34.2023 46.5077 30.1554 53.5172L31.0215 54.0172ZM49.6747 49.019C56.2059 52.7898 58.4436 61.1412 54.6729 67.6723L55.5389 68.1723C59.5858 61.1629 57.1842 52.1999 50.1747 48.153L49.6747 49.019ZM52.3241 66.4816C49.2794 71.7552 42.5361 73.5621 37.2625 70.5174L36.7625 71.3834C42.5144 74.7042 49.8693 72.7335 53.1901 66.9816L52.3241 66.4816ZM37.2625 70.5174C31.9889 67.4727 30.182 60.7293 33.2267 55.4557L32.3607 54.9557C29.0398 60.7076 31.0106 68.0625 36.7625 71.3834L37.2625 70.5174ZM33.2267 55.4557C36.2714 50.1821 43.0147 48.3753 48.2883 51.42L48.7883 50.554C43.0365 47.2331 35.6815 49.2038 32.3607 54.9557L33.2267 55.4557ZM48.2883 51.42C53.5619 54.4647 55.3688 61.208 52.3241 66.4816L53.1901 66.9816C56.511 61.2297 54.5402 53.8748 48.7883 50.554L48.2883 51.42ZM34.8556 81.4915L26.6227 95.7514L27.4887 96.2514L35.7217 81.9915L34.8556 81.4915ZM20.7292 92.3488L28.9622 78.0889L28.0962 77.5889L19.8632 91.8488L20.7292 92.3488ZM21.9747 96.9968C20.3472 96.0572 19.7896 93.9762 20.7292 92.3488L19.8632 91.8488C18.6475 93.9545 19.3689 96.6471 21.4747 97.8629L21.9747 96.9968ZM26.6227 95.7514C25.6831 97.3788 23.6021 97.9364 21.9747 96.9968L21.4747 97.8629C23.5804 99.0786 26.273 98.3571 27.4887 96.2514L26.6227 95.7514ZM33.6102 76.8435C35.2376 77.7831 35.7952 79.864 34.8556 81.4915L35.7217 81.9915C36.9374 79.8857 36.2159 77.1932 34.1102 75.9774L33.6102 76.8435ZM34.1102 75.9774C32.0045 74.7617 29.3119 75.4832 28.0962 77.5889L28.9622 78.0889C29.9018 76.4615 31.9828 75.9039 33.6102 76.8435L34.1102 75.9774ZM36.6379 73.243L34.4513 77.0302L35.3173 77.5302L37.5039 73.743L36.6379 73.243ZM33.0282 76.2086L35.2148 72.4213L34.3487 71.9213L32.1621 75.7086L33.0282 76.2086Z" fill="#017EC6"/>
</svg>
