<svg width="100" height="100" viewBox="0 0 100 100" fill="none" xmlns="http://www.w3.org/2000/svg">
<path d="M24.2456 25.0582L24.0203 24.6118L23.5978 24.825L23.7875 25.2586L24.2456 25.0582ZM26.4704 30.1438L26.0123 30.3442L26.0945 30.5319L26.2848 30.608L26.4704 30.1438ZM20.1331 29.6882L19.9476 29.2239L18.7019 29.7215L19.9694 30.1606L20.1331 29.6882ZM24.2456 31.113L24.7226 31.2628L24.8681 30.7995L24.4092 30.6405L24.2456 31.113ZM22.8877 35.4347L22.4107 35.2849L22.0978 36.2805L23.0698 35.9004L22.8877 35.4347ZM31.3888 32.1103L31.5709 32.576L32.7484 32.1155L31.5744 31.646L31.3888 32.1103ZM39.2251 28.0909L39.2294 27.5908L39.2208 27.5909L39.2251 28.0909ZM54.2046 25.0582L54.6627 25.2586L54.8524 24.825L54.4299 24.6118L54.2046 25.0582ZM51.9798 30.1438L52.1654 30.608L52.3557 30.5319L52.4379 30.3442L51.9798 30.1438ZM58.3171 29.6882L58.4808 30.1606L59.7483 29.7215L58.5026 29.2239L58.3171 29.6882ZM54.2046 31.113L54.041 30.6405L53.582 30.7995L53.7276 31.2628L54.2046 31.113ZM55.5625 35.4347L55.3804 35.9004L56.3523 36.2805L56.0395 35.2849L55.5625 35.4347ZM47.0614 32.1103L46.8758 31.646L45.7018 32.1155L46.8793 32.576L47.0614 32.1103ZM23.9105 50.0913C23.6344 50.0913 23.4105 50.3152 23.4105 50.5913C23.4105 50.8675 23.6344 51.0913 23.9105 51.0913V50.0913ZM54.5397 51.0913C54.8158 51.0913 55.0397 50.8675 55.0397 50.5913C55.0397 50.3152 54.8158 50.0913 54.5397 50.0913V51.0913ZM23.9105 56.719C23.6344 56.719 23.4105 56.9429 23.4105 57.219C23.4105 57.4951 23.6344 57.719 23.9105 57.719V56.719ZM54.5397 57.719C54.8158 57.719 55.0397 57.4951 55.0397 57.219C55.0397 56.9429 54.8158 56.719 54.5397 56.719V57.719ZM23.9106 63.0806C23.6345 63.0806 23.4106 63.3044 23.4106 63.5806C23.4106 63.8567 23.6345 64.0806 23.9106 64.0806V63.0806ZM45.0595 64.0806C45.3357 64.0806 45.5595 63.8567 45.5595 63.5806C45.5595 63.3044 45.3357 63.0806 45.0595 63.0806V64.0806ZM23.9106 69.7085C23.6345 69.7085 23.4106 69.9324 23.4106 70.2085C23.4106 70.4846 23.6345 70.7085 23.9106 70.7085V69.7085ZM45.0595 70.7085C45.3357 70.7085 45.5595 70.4846 45.5595 70.2085C45.5595 69.9324 45.3357 69.7085 45.0595 69.7085V70.7085ZM23.9106 76.677C23.6345 76.677 23.4106 76.9009 23.4106 77.177C23.4106 77.4531 23.6345 77.677 23.9106 77.677V76.677ZM45.0595 77.677C45.3357 77.677 45.5595 77.4531 45.5595 77.177C45.5595 76.9009 45.3357 76.677 45.0595 76.677V77.677ZM86.5889 73.1998L86.7141 73.6838L86.7141 73.6838L86.5889 73.1998ZM71.0864 76.6929C70.819 76.762 70.6583 77.0348 70.7275 77.3021C70.7966 77.5695 71.0694 77.7301 71.3368 77.661L71.0864 76.6929ZM66.9117 77.6611C67.179 77.7301 67.4517 77.5692 67.5207 77.3019C67.5897 77.0345 67.4289 76.7618 67.1615 76.6928L66.9117 77.6611ZM51.6228 73.1992L51.7477 72.715L51.7477 72.715L51.6228 73.1992ZM62.5383 61.8191C62.5383 62.0952 62.7622 62.3191 63.0383 62.3191C63.3145 62.3191 63.5383 62.0952 63.5383 61.8191H62.5383ZM74.6724 61.8191C74.6724 62.0952 74.8962 62.3191 75.1724 62.3191C75.4485 62.3191 75.6724 62.0952 75.6724 61.8191H74.6724ZM23.7875 25.2586L24.8999 27.8014L25.8161 27.4006L24.7036 24.8578L23.7875 25.2586ZM24.8999 27.8014L26.0123 30.3442L26.9285 29.9433L25.8161 27.4006L24.8999 27.8014ZM25.1725 27.1366L19.9476 29.2239L20.3186 30.1525L25.5435 28.0653L25.1725 27.1366ZM19.9694 30.1606L24.0819 31.5854L24.4092 30.6405L20.2968 29.2157L19.9694 30.1606ZM23.7685 30.9631L22.4107 35.2849L23.3647 35.5846L24.7226 31.2628L23.7685 30.9631ZM23.0698 35.9004L31.5709 32.576L31.2067 31.6446L22.7056 34.9691L23.0698 35.9004ZM31.5744 31.646L26.656 29.6795L26.2848 30.608L31.2031 32.5746L31.5744 31.646ZM26.6187 30.6212C30.7058 29.3516 34.997 28.6276 39.2294 28.5909L39.2208 27.5909C34.882 27.6285 30.4938 28.3703 26.3221 29.6663L26.6187 30.6212ZM39.2251 21.3171C34.4655 21.317 28.4649 22.3692 24.0203 24.6118L24.4708 25.5046C28.7397 23.3507 34.5761 22.317 39.2251 22.3171L39.2251 21.3171ZM53.7466 24.8578L52.6341 27.4006L53.5503 27.8014L54.6627 25.2586L53.7466 24.8578ZM52.6341 27.4006L51.5217 29.9433L52.4379 30.3442L53.5503 27.8014L52.6341 27.4006ZM52.9067 28.0653L58.1316 30.1525L58.5026 29.2239L53.2777 27.1366L52.9067 28.0653ZM58.1534 29.2157L54.041 30.6405L54.3683 31.5854L58.4808 30.1606L58.1534 29.2157ZM53.7276 31.2628L55.0855 35.5846L56.0395 35.2849L54.6816 30.9631L53.7276 31.2628ZM55.7446 34.9691L47.2435 31.6446L46.8793 32.576L55.3804 35.9004L55.7446 34.9691ZM47.2471 32.5746L52.1654 30.608L51.7942 29.6795L46.8758 31.646L47.2471 32.5746ZM52.1281 29.6663C47.9564 28.3703 43.5682 27.6285 39.2294 27.5909L39.2208 28.5909C43.4532 28.6276 47.7443 29.3516 51.8314 30.6212L52.1281 29.6663ZM39.2251 22.3171C43.8741 22.3173 49.7105 23.3507 53.9794 25.5046L54.4299 24.6118C49.9853 22.3692 43.9846 21.3173 39.2251 21.3171L39.2251 22.3171ZM23.9105 51.0913H54.5397V50.0913H23.9105V51.0913ZM23.9105 57.719H54.5397V56.719H23.9105V57.719ZM23.9106 64.0806H45.0595V63.0806H23.9106V64.0806ZM23.9106 70.7085H45.0595V69.7085H23.9106V70.7085ZM23.9106 77.677H45.0595V76.677H23.9106V77.677ZM48.6204 40.0263C48.6204 40.983 47.7642 42.0062 46.0117 42.8194C44.3006 43.6134 41.9017 44.1178 39.2251 44.1178V45.1178C42.0135 45.1178 44.5622 44.5944 46.4326 43.7265C48.2614 42.878 49.6204 41.6054 49.6204 40.0263H48.6204ZM39.2251 44.1178C36.5484 44.1178 34.1496 43.6134 32.4385 42.8194C30.686 42.0062 29.8298 40.983 29.8298 40.0263H28.8298C28.8298 41.6054 30.1888 42.878 32.0176 43.7265C33.888 44.5944 36.4367 45.1178 39.2251 45.1178V44.1178ZM29.8298 40.0263C29.8298 39.0696 30.686 38.0464 32.4385 37.2332C34.1496 36.4393 36.5484 35.9348 39.2251 35.9348V34.9348C36.4367 34.9348 33.888 35.4582 32.0176 36.3261C30.1888 37.1747 28.8298 38.4472 28.8298 40.0263H29.8298ZM39.2251 35.9348C41.9017 35.9348 44.3006 36.4393 46.0117 37.2332C47.7642 38.0464 48.6204 39.0696 48.6204 40.0263H49.6204C49.6204 38.4472 48.2614 37.1747 46.4326 36.3261C44.5622 35.4582 42.0135 34.9348 39.2251 34.9348V35.9348ZM52.1226 62.3193H86.0881V61.3193H52.1226V62.3193ZM87.5881 63.8193V71.2635H88.5881V63.8193H87.5881ZM50.6226 71.2626V63.8193H49.6226V71.2626H50.6226ZM86.4637 72.7157L71.0864 76.6929L71.3368 77.661L86.7141 73.6838L86.4637 72.7157ZM67.1615 76.6928L51.7477 72.715L51.4979 73.6833L66.9117 77.6611L67.1615 76.6928ZM49.6226 71.2626C49.6226 72.4027 50.3939 73.3984 51.4979 73.6833L51.7477 72.715C51.0854 72.5441 50.6226 71.9467 50.6226 71.2626H49.6226ZM87.5881 71.2635C87.5881 71.9472 87.1257 72.5445 86.4637 72.7157L86.7141 73.6838C87.8174 73.3985 88.5881 72.4031 88.5881 71.2635H87.5881ZM86.0881 62.3193C86.9166 62.3193 87.5881 62.9909 87.5881 63.8193H88.5881C88.5881 62.4386 87.4688 61.3193 86.0881 61.3193V62.3193ZM52.1226 61.3193C50.7419 61.3193 49.6226 62.4386 49.6226 63.8193H50.6226C50.6226 62.9909 51.2941 62.3193 52.1226 62.3193V61.3193ZM63.5383 61.8191V59.0691H62.5383V61.8191H63.5383ZM65.0383 57.5691H73.1724V56.5691H65.0383V57.5691ZM74.6724 59.0691V61.8191H75.6724V59.0691H74.6724ZM73.1724 57.5691C74.0008 57.5691 74.6724 58.2407 74.6724 59.0691H75.6724C75.6724 57.6884 74.5531 56.5691 73.1724 56.5691V57.5691ZM63.5383 59.0691C63.5383 58.2407 64.2099 57.5691 65.0383 57.5691V56.5691C63.6576 56.5691 62.5383 57.6884 62.5383 59.0691H63.5383ZM70.6409 75.7637V79.1227H71.6409V75.7637H70.6409ZM67.5696 79.1227V75.7637H66.5696V79.1227H67.5696ZM69.1052 80.6583C68.2571 80.6583 67.5696 79.9708 67.5696 79.1227H66.5696C66.5696 80.5231 67.7048 81.6583 69.1052 81.6583V80.6583ZM70.6409 79.1227C70.6409 79.9708 69.9533 80.6583 69.1052 80.6583V81.6583C70.5056 81.6583 71.6409 80.5231 71.6409 79.1227H70.6409ZM69.1052 74.228C69.9533 74.228 70.6409 74.9156 70.6409 75.7637H71.6409C71.6409 74.3633 70.5056 73.228 69.1052 73.228V74.228ZM69.1052 73.228C67.7048 73.228 66.5696 74.3633 66.5696 75.7637H67.5696C67.5696 74.9156 68.2571 74.228 69.1052 74.228V73.228ZM85.6372 73.135V86.4868H86.6372V73.135H85.6372ZM84.1372 87.9868H54.0735V88.9868H84.1372V87.9868ZM52.5735 86.4868V73.135H51.5735V86.4868H52.5735ZM54.0735 87.9868C53.2451 87.9868 52.5735 87.3152 52.5735 86.4868H51.5735C51.5735 87.8675 52.6928 88.9868 54.0735 88.9868V87.9868ZM85.6372 86.4868C85.6372 87.3152 84.9656 87.9868 84.1372 87.9868V88.9868C85.5179 88.9868 86.6372 87.8675 86.6372 86.4868H85.6372ZM19.5625 17.3784H58.8877V16.3784H19.5625V17.3784ZM18.0625 81.0062V18.8784H17.0625V81.0062H18.0625ZM60.3877 18.8784V61.9493H61.3877V18.8784H60.3877ZM52.0495 82.5062H19.5625V83.5062H52.0495V82.5062ZM17.0625 81.0062C17.0625 82.3869 18.1818 83.5062 19.5625 83.5062V82.5062C18.7341 82.5062 18.0625 81.8347 18.0625 81.0062H17.0625ZM58.8877 17.3784C59.7161 17.3784 60.3877 18.05 60.3877 18.8784H61.3877C61.3877 17.4977 60.2684 16.3784 58.8877 16.3784V17.3784ZM19.5625 16.3784C18.1818 16.3784 17.0625 17.4977 17.0625 18.8784H18.0625C18.0625 18.05 18.7341 17.3784 19.5625 17.3784V16.3784ZM14.9116 12.0132H63.5386V11.0132H14.9116V12.0132ZM12.4116 85.4868V14.5132H11.4116V85.4868H12.4116ZM55.0164 87.9868H14.9116V88.9868H55.0164V87.9868ZM66.0386 14.5132V56.8607H67.0386V14.5132H66.0386ZM11.4116 85.4868C11.4116 87.4198 12.9786 88.9868 14.9116 88.9868V87.9868C13.5309 87.9868 12.4116 86.8675 12.4116 85.4868H11.4116ZM63.5386 12.0132C64.9193 12.0132 66.0386 13.1325 66.0386 14.5132H67.0386C67.0386 12.5802 65.4716 11.0132 63.5386 11.0132V12.0132ZM14.9116 11.0132C12.9786 11.0132 11.4116 12.5802 11.4116 14.5132H12.4116C12.4116 13.1325 13.5309 12.0132 14.9116 12.0132V11.0132Z" fill="#017EC6"/>
</svg>
