<svg width="100" height="101" viewBox="0 0 100 101" fill="none" xmlns="http://www.w3.org/2000/svg">
<path d="M63.7384 11.8177L64.0828 11.4554L63.9381 11.3177H63.7384V11.8177ZM78.5918 25.9371H79.0918V25.7226L78.9363 25.5747L78.5918 25.9371ZM58.9008 75.8443C58.6818 75.6762 58.3679 75.7175 58.1998 75.9366C58.0317 76.1556 58.073 76.4695 58.292 76.6376L58.9008 75.8443ZM59.8398 77.1952L60.1442 76.7985L60.1442 76.7985L59.8398 77.1952ZM63.8987 74.9899L64.3971 74.9503L64.3971 74.9503L63.8987 74.9899ZM63.785 73.5574L63.2865 73.5969L63.2865 73.5969L63.785 73.5574ZM67.0496 72.6906L67.502 72.4777L67.502 72.4777L67.0496 72.6906ZM67.6964 74.0652L67.244 74.2781L67.244 74.2781L67.6964 74.0652ZM69.4275 73.891L68.9418 73.7725L68.9418 73.7725L69.4275 73.891ZM69.8896 71.9966L69.4038 71.8781L69.4038 71.8781L69.8896 71.9966ZM70.2549 71.0854L69.852 70.7893L69.852 70.7893L70.2549 71.0854ZM72.6062 71.0773C72.8494 71.2081 73.1526 71.1169 73.2833 70.8736C73.4141 70.6304 73.3229 70.3272 73.0796 70.1965L72.6062 71.0773ZM68.9793 74.4789L69.2221 74.916L69.2221 74.916L68.9793 74.4789ZM65.2141 71.7282L65.1319 71.235L65.1319 71.235L65.2141 71.7282ZM63.0613 77.0763L62.7285 76.7032L62.7285 76.7032L63.0613 77.0763ZM47.1063 37.4561V37.9561H47.6063V37.4561H47.1063ZM38.1423 37.4561H37.6423V37.9561H38.1423V37.4561ZM74.5918 81.5421H32.6279V82.5421H74.5918V81.5421ZM29.1279 78.0421V15.8177H28.1279V78.0421H29.1279ZM32.6279 12.3177H63.7384V11.3177H32.6279V12.3177ZM63.2384 11.8177V21.9371H64.2384V11.8177H63.2384ZM78.0918 25.9371V78.0421H79.0918V25.9371H78.0918ZM67.7384 26.4371H78.5918V25.4371H67.7384V26.4371ZM78.9363 25.5747L64.0828 11.4554L63.3939 12.1801L78.2473 26.2995L78.9363 25.5747ZM63.2384 21.9371C63.2384 24.4224 65.2531 26.4371 67.7384 26.4371V25.4371C65.8054 25.4371 64.2384 23.8701 64.2384 21.9371H63.2384ZM32.6279 81.5421C30.6949 81.5421 29.1279 79.9751 29.1279 78.0421H28.1279C28.1279 80.5274 30.1426 82.5421 32.6279 82.5421V81.5421ZM74.5918 82.5421C77.0771 82.5421 79.0918 80.5274 79.0918 78.0421H78.0918C78.0918 79.9751 76.5248 81.5421 74.5918 81.5421V82.5421ZM29.1279 15.8177C29.1279 13.8848 30.6949 12.3177 32.6279 12.3177V11.3177C30.1426 11.3177 28.1279 13.3325 28.1279 15.8177H29.1279ZM36.3613 24.4335H48.8875V23.4335H36.3613V24.4335ZM50.3875 25.9335V38.4899H51.3875V25.9335H50.3875ZM48.8875 39.9899H36.3613V40.9899H48.8875V39.9899ZM34.8613 38.4899V25.9335H33.8613V38.4899H34.8613ZM36.3613 39.9899C35.5329 39.9899 34.8613 39.3183 34.8613 38.4899H33.8613C33.8613 39.8706 34.9806 40.9899 36.3613 40.9899V39.9899ZM50.3875 38.4899C50.3875 39.3183 49.7159 39.9899 48.8875 39.9899V40.9899C50.2682 40.9899 51.3875 39.8706 51.3875 38.4899H50.3875ZM48.8875 24.4335C49.7159 24.4335 50.3875 25.105 50.3875 25.9335H51.3875C51.3875 24.5528 50.2682 23.4335 48.8875 23.4335V24.4335ZM36.3613 23.4335C34.9806 23.4335 33.8613 24.5528 33.8613 25.9335H34.8613C34.8613 25.105 35.5329 24.4335 36.3613 24.4335V23.4335ZM36.3613 45.5585H71.1885V44.5585H36.3613V45.5585ZM72.6885 47.0585V55.5059H73.6885V47.0585H72.6885ZM71.1885 57.0059H36.3613V58.0059H71.1885V57.0059ZM34.8613 55.5059V47.0585H33.8613V55.5059H34.8613ZM36.3613 57.0059C35.5329 57.0059 34.8613 56.3343 34.8613 55.5059H33.8613C33.8613 56.8866 34.9806 58.0059 36.3613 58.0059V57.0059ZM72.6885 55.5059C72.6885 56.3343 72.0169 57.0059 71.1885 57.0059V58.0059C72.5692 58.0059 73.6885 56.8866 73.6885 55.5059H72.6885ZM71.1885 45.5585C72.0169 45.5585 72.6885 46.23 72.6885 47.0585H73.6885C73.6885 45.6778 72.5692 44.5585 71.1885 44.5585V45.5585ZM36.3613 44.5585C34.9806 44.5585 33.8613 45.6778 33.8613 47.0585H34.8613C34.8613 46.23 35.5329 45.5585 36.3613 45.5585V44.5585ZM58.292 76.6376L59.5354 77.5919L60.1442 76.7985L58.9008 75.8443L58.292 76.6376ZM64.3971 74.9503L64.2834 73.5178L63.2865 73.5969L63.4002 75.0295L64.3971 74.9503ZM66.5971 72.9035L67.244 74.2781L68.1488 73.8523L67.502 72.4777L66.5971 72.9035ZM69.9133 74.0095L70.3753 72.115L69.4038 71.8781L68.9418 73.7725L69.9133 74.0095ZM70.6578 71.3814C71.1355 70.7313 71.9657 70.7331 72.6062 71.0773L73.0796 70.1965C72.2038 69.7258 70.7434 69.5761 69.852 70.7893L70.6578 71.3814ZM70.3753 72.115C70.4539 71.7931 70.5277 71.5585 70.6578 71.3814L69.852 70.7893C69.5913 71.1441 69.4817 71.5588 69.4038 71.8781L70.3753 72.115ZM69.2221 74.916C69.5688 74.7234 69.8193 74.3948 69.9133 74.0095L68.9418 73.7725C68.9139 73.887 68.8394 73.9846 68.7364 74.0418L69.2221 74.916ZM67.244 74.2781C67.5946 75.0231 68.5024 75.3158 69.2221 74.916L68.7364 74.0418C68.5226 74.1606 68.253 74.0736 68.1488 73.8523L67.244 74.2781ZM65.2963 72.2214C65.8337 72.1319 66.3652 72.4105 66.5971 72.9035L67.502 72.4777C67.0793 71.5795 66.1111 71.0719 65.1319 71.235L65.2963 72.2214ZM64.2834 73.5178C64.2334 72.8883 64.6734 72.3252 65.2963 72.2214L65.1319 71.235C63.997 71.4241 63.1955 72.45 63.2865 73.5969L64.2834 73.5178ZM63.3941 77.4495C64.1009 76.8191 64.472 75.8944 64.3971 74.9503L63.4002 75.0295C63.4504 75.6617 63.2019 76.281 62.7285 76.7032L63.3941 77.4495ZM59.5354 77.5919C60.6889 78.4772 62.309 78.4174 63.3941 77.4495L62.7285 76.7032C62.0017 77.3514 60.9168 77.3915 60.1442 76.7985L59.5354 77.5919ZM35.7654 62.5751H71.4546V61.5751H35.7654V62.5751ZM71.4546 65.0428H35.7654V66.0428H71.4546V65.0428ZM35.7654 65.0428C35.0839 65.0428 34.5315 64.4904 34.5315 63.809H33.5315C33.5315 65.0427 34.5316 66.0428 35.7654 66.0428V65.0428ZM72.6885 63.809C72.6885 64.4904 72.136 65.0428 71.4546 65.0428V66.0428C72.6883 66.0428 73.6885 65.0427 73.6885 63.809H72.6885ZM71.4546 62.5751C72.136 62.5751 72.6885 63.1275 72.6885 63.809H73.6885C73.6885 62.5752 72.6883 61.5751 71.4546 61.5751V62.5751ZM35.7654 61.5751C34.5316 61.5751 33.5315 62.5752 33.5315 63.809H34.5315C34.5315 63.1275 35.0839 62.5751 35.7654 62.5751V61.5751ZM35.7654 71.1473H54.0271V70.1473H35.7654V71.1473ZM54.0271 73.6151H35.7654V74.6151H54.0271V73.6151ZM35.7654 73.6151C35.0839 73.6151 34.5315 73.0627 34.5315 72.3812H33.5315C33.5315 73.615 34.5316 74.6151 35.7654 74.6151V73.6151ZM55.261 72.3812C55.261 73.0627 54.7086 73.6151 54.0271 73.6151V74.6151C55.2608 74.6151 56.261 73.615 56.261 72.3812H55.261ZM54.0271 71.1473C54.7086 71.1473 55.261 71.6998 55.261 72.3812H56.261C56.261 71.1475 55.2608 70.1473 54.0271 70.1473V71.1473ZM35.7654 70.1473C34.5316 70.1473 33.5315 71.1475 33.5315 72.3812H34.5315C34.5315 71.6998 35.0839 71.1473 35.7654 71.1473V70.1473ZM56.6687 30.9779H71.7844V29.9779H56.6687V30.9779ZM71.7844 33.4457H56.6687V34.4457H71.7844V33.4457ZM56.6687 33.4457C55.9872 33.4457 55.4348 32.8932 55.4348 32.2118H54.4348C54.4348 33.4455 55.435 34.4457 56.6687 34.4457V33.4457ZM73.0183 32.2118C73.0183 32.8932 72.4659 33.4457 71.7844 33.4457V34.4457C73.0182 34.4457 74.0183 33.4455 74.0183 32.2118H73.0183ZM71.7844 30.9779C72.4659 30.9779 73.0183 31.5303 73.0183 32.2118H74.0183C74.0183 30.9781 73.0182 29.9779 71.7844 29.9779V30.9779ZM56.6687 29.9779C55.435 29.9779 54.4348 30.9781 54.4348 32.2118H55.4348C55.4348 31.5303 55.9872 30.9779 56.6687 30.9779V29.9779ZM56.6687 37.101H71.7844V36.101H56.6687V37.101ZM71.7844 39.5687H56.6687V40.5687H71.7844V39.5687ZM56.6687 39.5687C55.9872 39.5687 55.4348 39.0163 55.4348 38.3348H54.4348C54.4348 39.5686 55.435 40.5687 56.6687 40.5687V39.5687ZM73.0183 38.3348C73.0183 39.0163 72.4659 39.5687 71.7844 39.5687V40.5687C73.0182 40.5687 74.0183 39.5686 74.0183 38.3348H73.0183ZM71.7844 37.101C72.4659 37.101 73.0183 37.6534 73.0183 38.3348H74.0183C74.0183 37.1011 73.0182 36.101 71.7844 36.101V37.101ZM56.6687 36.101C55.435 36.101 54.4348 37.1011 54.4348 38.3348H55.4348C55.4348 37.6534 55.9872 37.101 56.6687 37.101V36.101ZM67.3721 88.3883H25.4082V89.3883H67.3721V88.3883ZM21.9082 84.8883V22.6639H20.9082V84.8883H21.9082ZM25.4082 19.1639H28.6085V18.1639H25.4082V19.1639ZM70.8721 82.0295V84.8883H71.8721V82.0295H70.8721ZM25.4082 88.3883C23.4752 88.3883 21.9082 86.8213 21.9082 84.8883H20.9082C20.9082 87.3736 22.9229 89.3883 25.4082 89.3883V88.3883ZM67.3721 89.3883C69.8574 89.3883 71.8721 87.3736 71.8721 84.8883H70.8721C70.8721 86.8213 69.3051 88.3883 67.3721 88.3883V89.3883ZM21.9082 22.6639C21.9082 20.7309 23.4752 19.1639 25.4082 19.1639V18.1639C22.9229 18.1639 20.9082 20.1787 20.9082 22.6639H21.9082ZM44.3613 29.6265C44.3613 30.5857 43.5837 31.3634 42.6244 31.3634V32.3634C44.136 32.3634 45.3613 31.138 45.3613 29.6265H44.3613ZM42.6244 31.3634C41.6651 31.3634 40.8875 30.5857 40.8875 29.6265H39.8875C39.8875 31.138 41.1128 32.3634 42.6244 32.3634V31.3634ZM40.8875 29.6265C40.8875 28.6672 41.6651 27.8895 42.6244 27.8895V26.8895C41.1128 26.8895 39.8875 28.1149 39.8875 29.6265H40.8875ZM42.6244 27.8895C43.5837 27.8895 44.3613 28.6672 44.3613 29.6265H45.3613C45.3613 28.1149 44.136 26.8895 42.6244 26.8895V27.8895ZM46.6063 37.392V37.4561H47.6063V37.392H46.6063ZM47.1063 36.9561H38.1423V37.9561H47.1063V36.9561ZM38.6423 37.4561V37.392H37.6423V37.4561H38.6423ZM42.6243 33.41C44.8235 33.41 46.6063 35.1928 46.6063 37.392H47.6063C47.6063 34.6406 45.3758 32.41 42.6243 32.41V33.41ZM42.6243 32.41C39.8729 32.41 37.6423 34.6406 37.6423 37.392H38.6423C38.6423 35.1928 40.4251 33.41 42.6243 33.41V32.41Z" fill="#017EC6"/>
</svg>
