<svg width="201" height="201" viewBox="0 0 201 201" fill="none" xmlns="http://www.w3.org/2000/svg">
<path d="M69.4474 71.6523L68.8263 72.4361L68.8263 72.4361L69.4474 71.6523ZM95.8598 92.5798L95.2387 93.3636L95.2387 93.3636L95.8598 92.5798ZM97.7541 96.4255L98.754 96.4109L98.754 96.4109L97.7541 96.4255ZM129.89 71.6359L130.531 72.4034L130.531 72.4034L129.89 71.6359ZM104.852 92.5542L105.494 93.3216L105.494 93.3216L104.852 92.5542ZM102.058 111.36C102.058 111.912 102.506 112.36 103.058 112.36C103.611 112.36 104.058 111.912 104.058 111.36H102.058ZM57.3163 66.2533L58.316 66.2269L57.3163 66.2533ZM60.4253 72.3751L59.8142 73.1667L59.8142 73.1667L60.4253 72.3751ZM93.1352 97.6236L92.5241 98.4152L92.5241 98.4152L93.1352 97.6236ZM93.2367 102.915L92.5749 102.165L92.5749 102.165L93.2367 102.915ZM59.5439 132.658L58.882 131.909L59.5439 132.658ZM56.8383 138.656L57.8383 138.656L57.8383 138.656L56.8383 138.656ZM142.265 65.561L143.265 65.5889L143.265 65.5889L142.265 65.561ZM139.456 71.4278L138.808 70.6666L138.808 70.6666L139.456 71.4278ZM108.277 97.9865L107.629 97.2252L107.629 97.2252L108.277 97.9865ZM108.22 103.273L108.897 102.537L108.897 102.537L108.22 103.273ZM140.169 132.67L140.846 131.934L140.846 131.934L140.169 132.67ZM96.2263 136.631C95.674 136.631 95.2263 137.078 95.2263 137.631C95.2263 138.183 95.674 138.631 96.2263 138.631V136.631ZM99.5156 140.387C99.5156 140.939 99.9633 141.387 100.516 141.387C101.068 141.387 101.516 140.939 101.516 140.387H99.5156ZM104.805 126.535C105.357 126.535 105.805 126.087 105.805 125.535C105.805 124.983 105.357 124.535 104.805 124.535V126.535ZM101.516 122.507C101.516 121.955 101.068 121.507 100.516 121.507C99.9633 121.507 99.5156 121.955 99.5156 122.507H101.516ZM68.8263 72.4361L95.2387 93.3636L96.4808 91.796L70.0684 70.8685L68.8263 72.4361ZM96.7542 96.4402L96.9729 111.374L98.9727 111.345L98.754 96.4109L96.7542 96.4402ZM129.249 70.8685L104.211 91.7867L105.494 93.3216L130.531 72.4034L129.249 70.8685ZM102.058 96.3912V111.36H104.058V96.3912H102.058ZM130.531 72.4034C131.966 71.2048 131.119 68.8685 129.249 68.8685V70.8685L129.249 70.8685L130.531 72.4034ZM95.2387 93.3636C96.1802 94.1095 96.7366 95.2391 96.7542 96.4402L98.754 96.4109C98.7276 94.6093 97.893 92.9149 96.4808 91.796L95.2387 93.3636ZM104.211 91.7867C102.847 92.9267 102.058 94.6132 102.058 96.3912H104.058C104.058 95.2059 104.584 94.0816 105.494 93.3216L104.211 91.7867ZM70.0684 70.8685L70.0684 70.8685V68.8685C68.1731 68.8685 67.3409 71.2591 68.8263 72.4361L70.0684 70.8685ZM51.6379 33.4431H148.877V31.4431H51.6379V33.4431ZM151.877 36.4431V48.5554H153.877V36.4431H151.877ZM48.6379 48.5554V36.4431H46.6379V48.5554H48.6379ZM51.6379 51.5554C49.9811 51.5554 48.6379 50.2123 48.6379 48.5554H46.6379C46.6379 51.3168 48.8765 53.5554 51.6379 53.5554V51.5554ZM151.877 48.5554C151.877 50.2123 150.534 51.5554 148.877 51.5554V53.5554C151.639 53.5554 153.877 51.3168 153.877 48.5554H151.877ZM148.877 33.4431C150.534 33.4431 151.877 34.7863 151.877 36.4431H153.877C153.877 33.6817 151.639 31.4431 148.877 31.4431V33.4431ZM51.6379 31.4431C48.8765 31.4431 46.6379 33.6817 46.6379 36.4431H48.6379C48.6379 34.7863 49.9811 33.4431 51.6379 33.4431V31.4431ZM51.6379 155.924H148.877V153.924H51.6379V155.924ZM151.877 158.924V171.036H153.877V158.924H151.877ZM148.877 174.036H51.6379V176.036H148.877V174.036ZM48.6379 171.036V158.924H46.6379V171.036H48.6379ZM51.6379 174.036C49.9811 174.036 48.6379 172.693 48.6379 171.036H46.6379C46.6379 173.797 48.8765 176.036 51.6379 176.036V174.036ZM151.877 171.036C151.877 172.693 150.534 174.036 148.877 174.036V176.036C151.639 176.036 153.877 173.797 153.877 171.036H151.877ZM148.877 155.924C150.534 155.924 151.877 157.267 151.877 158.924H153.877C153.877 156.162 151.639 153.924 148.877 153.924V155.924ZM51.6379 153.924C48.8765 153.924 46.6379 156.162 46.6379 158.924H48.6379C48.6379 157.267 49.9811 155.924 51.6379 155.924V153.924ZM59.8142 73.1667L92.5241 98.4152L93.7462 96.832L61.0363 71.5835L59.8142 73.1667ZM92.9131 99.2068V101.415H94.9131V99.2068H92.9131ZM92.5749 102.165L58.882 131.909L60.2057 133.408L93.8985 103.664L92.5749 102.165ZM55.8383 138.656L55.8383 154.924L57.8383 154.924L57.8383 138.656L55.8383 138.656ZM138.808 70.6666L107.629 97.2252L108.926 98.7477L140.105 72.1891L138.808 70.6666ZM106.574 99.509V101.801H108.574V99.509H106.574ZM107.543 104.009L139.492 133.406L140.846 131.934L108.897 102.537L107.543 104.009ZM141.752 138.557V154.924H143.752V138.557H141.752ZM106.574 101.801C106.574 102.64 106.925 103.441 107.543 104.009L108.897 102.537C108.691 102.348 108.574 102.081 108.574 101.801H106.574ZM107.629 97.2252C106.959 97.7952 106.574 98.63 106.574 99.509H108.574C108.574 99.216 108.702 98.9377 108.926 98.7477L107.629 97.2252ZM141.266 65.5331C141.21 67.5152 140.317 69.3808 138.808 70.6666L140.105 72.1891C142.045 70.5359 143.194 68.1373 143.265 65.5889L141.266 65.5331ZM58.882 131.909C56.9468 133.617 55.8383 136.074 55.8383 138.656L57.8383 138.656C57.8383 136.648 58.7005 134.737 60.2057 133.408L58.882 131.909ZM92.9131 101.415C92.9131 101.702 92.7899 101.975 92.5749 102.165L93.8985 103.664C94.5436 103.095 94.9131 102.276 94.9131 101.415H92.9131ZM92.5241 98.4152C92.7694 98.6046 92.9131 98.897 92.9131 99.2068H94.9131C94.9131 98.2772 94.4821 97.4001 93.7462 96.832L92.5241 98.4152ZM139.492 133.406C140.932 134.731 141.752 136.6 141.752 138.557H143.752C143.752 136.04 142.698 133.638 140.846 131.934L139.492 133.406ZM56.3167 66.2796C56.388 68.9843 57.6724 71.5134 59.8142 73.1667L61.0363 71.5835C59.3705 70.2976 58.3715 68.3305 58.316 66.2269L56.3167 66.2796ZM119.603 131.447C119.603 141.988 111.057 150.534 100.516 150.534V152.534C112.162 152.534 121.603 143.093 121.603 131.447H119.603ZM100.516 150.534C89.9741 150.534 81.4285 141.988 81.4285 131.447H79.4285C79.4285 143.093 88.8695 152.534 100.516 152.534V150.534ZM81.4285 131.447C81.4285 120.905 89.9741 112.36 100.516 112.36V110.36C88.8695 110.36 79.4285 119.801 79.4285 131.447H81.4285ZM100.516 112.36C111.057 112.36 119.603 120.905 119.603 131.447H121.603C121.603 119.801 112.162 110.36 100.516 110.36V112.36ZM113.731 131.447C113.731 138.746 107.815 144.663 100.516 144.663V146.663C108.919 146.663 115.731 139.85 115.731 131.447H113.731ZM100.516 144.663C93.2169 144.663 87.3 138.746 87.3 131.447H85.3C85.3 139.85 92.1123 146.663 100.516 146.663V144.663ZM87.3 131.447C87.3 124.148 93.2169 118.231 100.516 118.231V116.231C92.1123 116.231 85.3 123.043 85.3 131.447H87.3ZM100.516 118.231C107.815 118.231 113.731 124.148 113.731 131.447H115.731C115.731 123.043 108.919 116.231 100.516 116.231V118.231ZM99.2288 132.54H101.76V130.54H99.2288V132.54ZM101.76 136.631H100.516V138.631H101.76V136.631ZM100.516 136.631H96.2263V138.631H100.516V136.631ZM99.5156 137.631V140.387H101.516V137.631H99.5156ZM104.805 124.535H100.516V126.535H104.805V124.535ZM100.516 124.535H99.2288V126.535H100.516V124.535ZM101.516 125.535V122.507H99.5156V125.535H101.516ZM103.805 134.585C103.805 135.715 102.889 136.631 101.76 136.631V138.631C103.994 138.631 105.805 136.819 105.805 134.585H103.805ZM101.76 132.54C102.889 132.54 103.805 133.456 103.805 134.585H105.805C105.805 132.351 103.994 130.54 101.76 130.54V132.54ZM95.2263 128.537C95.2263 130.748 97.0183 132.54 99.2288 132.54V130.54C98.1229 130.54 97.2263 129.643 97.2263 128.537H95.2263ZM97.2263 128.537C97.2263 127.431 98.1229 126.535 99.2288 126.535V124.535C97.0183 124.535 95.2263 126.327 95.2263 128.537H97.2263ZM70.0684 70.8685H129.249V68.8685H70.0684V70.8685ZM55.9553 52.5818L56.3167 66.2796L58.316 66.2269L57.9546 52.529L55.9553 52.5818ZM56.9549 51.5554H51.6379V53.5554H56.9549V51.5554ZM148.877 51.5554H142.628V53.5554H148.877V51.5554ZM141.629 52.5275L141.266 65.5331L143.265 65.5889L143.628 52.5833L141.629 52.5275ZM142.628 51.5554H99.7917V53.5554H142.628V51.5554ZM99.7917 51.5554H56.9549V53.5554H99.7917V51.5554Z" fill="#017EC6"/>
</svg>
