<svg width="101" height="101" viewBox="0 0 101 101" fill="none" xmlns="http://www.w3.org/2000/svg">
<path d="M34.6871 32.6476C22.9163 35.0862 14.3826 42.3082 14.3826 50.838C14.3826 56.9596 18.7777 62.4075 25.6102 65.8972C25.6102 65.8972 27.7312 68.6079 19.6506 74.3145C33.2498 79.0521 35.7114 69.294 38.0579 69.5828C38.6868 69.6601 39.3228 69.7242 39.9652 69.7746M34.6871 32.6476C37.4516 32.0749 40.3946 31.7661 43.4476 31.7661C57.6338 31.7661 69.4462 38.4351 72.0007 47.256M34.6871 32.6476C34.6871 23.1497 46.371 14.4337 60.8455 14.4337C75.32 14.4337 87.0539 22.1333 87.0539 31.6312C87.0539 38.4553 80.7796 44.4772 72.0007 47.256M72.0007 47.256C72.3367 48.4162 72.5126 49.6136 72.5126 50.838C72.5126 51.4075 72.4745 51.9712 72.4 52.5279M39.9652 69.7746C42.2009 76.7389 51.6185 81.9669 62.8971 81.9669C64.382 81.9669 65.8346 81.8763 67.2428 81.703C69.1348 81.4702 71.1196 89.3382 82.0847 85.5182C75.5693 80.917 77.2794 78.7313 77.2794 78.7313C82.7886 75.9175 86.3324 71.5248 86.3324 66.589C86.3324 60.3159 80.6081 54.92 72.4 52.5279M39.9652 69.7746C41.107 69.864 42.2691 69.91 43.4476 69.91C58.6319 69.91 71.0966 62.2696 72.4 52.5279M35.5676 50.5C35.5676 52.0895 34.2791 53.3781 32.6896 53.3781C31.1001 53.3781 29.8115 52.0895 29.8115 50.5C29.8115 48.9105 31.1001 47.6219 32.6896 47.6219C34.2791 47.6219 35.5676 48.9105 35.5676 50.5ZM45.1249 50.5C45.1249 52.0895 43.8363 53.3781 42.2468 53.3781C40.6573 53.3781 39.3688 52.0895 39.3688 50.5C39.3688 48.9105 40.6573 47.6219 42.2468 47.6219C43.8363 47.6219 45.1249 48.9105 45.1249 50.5ZM54.6823 50.5C54.6823 52.0895 53.3937 53.3781 51.8042 53.3781C50.2147 53.3781 48.9261 52.0895 48.9261 50.5C48.9261 48.9105 50.2147 47.6219 51.8042 47.6219C53.3937 47.6219 54.6823 48.9105 54.6823 50.5Z" stroke="#017EC6"/>
</svg>
