<svg width="101" height="101" viewBox="0 0 101 101" fill="none" xmlns="http://www.w3.org/2000/svg">
<path d="M26.8329 30.4291L25.7546 27.9644C29.9776 25.8336 35.7144 24.8227 40.2743 24.8228C44.8342 24.823 50.571 25.8336 54.794 27.9644L53.7157 30.4291M26.8329 30.4291L27.9112 32.8938M26.8329 30.4291L21.7684 32.4523L25.7546 33.8333L24.4384 38.0224L32.6785 34.8L27.9112 32.8938M27.9112 32.8938C31.9138 31.6504 36.1202 30.94 40.2743 30.904C44.4283 30.94 48.6348 31.6504 52.6374 32.8938M53.7157 30.4291L52.6374 32.8938M53.7157 30.4291L58.7802 32.4523L54.794 33.8333L56.1102 38.0224L47.8701 34.8L52.6374 32.8938M25.4299 52.7137H55.1187M25.4299 59.1379H55.1187M25.43 65.3042H45.9296M25.43 71.7286H45.9296M25.43 78.4832H45.9296M86.1841 74.628L71.2788 78.4831M86.1841 74.628C87.0396 74.4068 87.6373 73.6349 87.6373 72.7512V65.5356C87.6373 64.4649 86.7693 63.597 85.6987 63.597H52.7758C51.7051 63.597 50.8372 64.4649 50.8372 65.5356V72.7504C50.8372 73.6345 51.4353 74.4066 52.2914 74.6275M86.1841 74.628L85.7462 87.5072C85.7462 88.5779 84.8783 89.4458 83.8076 89.4458H55.5808M67.232 78.4831L52.2914 74.6275M52.2914 74.6275L52.7282 87.5072C52.7282 88.5779 54.5101 89.4458 55.5808 89.4458M63.3565 63.5968V60.9312C63.3565 59.8605 64.2244 58.9926 65.2951 58.9926H73.1794C74.2501 58.9926 75.118 59.8605 75.118 60.9312V63.5968M55.5808 89.4458H16.7072C15.1012 89.4458 13.7993 88.1439 13.7993 86.5379V17.7431C13.7993 16.1371 15.1012 14.8352 16.7072 14.8352H63.8414C65.4473 14.8352 66.7493 16.1371 66.7493 17.7431V58.7906M61.2719 63.723V21.9743C61.2719 20.9037 60.4039 20.0357 59.3333 20.0357H21.2153C20.1447 20.0357 19.2767 20.9037 19.2767 21.9743V82.1949C19.2767 83.2655 20.1447 84.1335 21.2153 84.1335H52.7049M49.8658 42.473C49.8658 44.931 45.5715 46.9235 40.2743 46.9235C34.9771 46.9235 30.6828 44.931 30.6828 42.473C30.6828 40.015 34.9771 38.0225 40.2743 38.0225C45.5715 38.0225 49.8658 40.015 49.8658 42.473ZM69.2371 82.3423C68.1474 82.3423 67.264 81.4589 67.264 80.3691V77.1132C67.264 76.0235 68.1474 75.1401 69.2371 75.1401C70.3269 75.1401 71.2103 76.0235 71.2103 77.1132V80.3691C71.2103 81.4589 70.3269 82.3423 69.2371 82.3423Z" stroke="#017EC6" stroke-linecap="round"/>
</svg>
