<svg width="201" height="201" viewBox="0 0 201 201" fill="none" xmlns="http://www.w3.org/2000/svg">
<path d="M157.408 151.002H169.113C175.74 151.002 181.113 145.629 181.113 139.002V49.0959C181.113 42.4685 175.74 37.0959 169.113 37.0959H31.6932C25.0658 37.0959 19.6932 42.4477 19.6932 49.0751V139.036C19.6932 145.663 25.0658 151.002 31.6932 151.002H118.705M155.814 125.843C157.855 123.524 160.843 122.06 164.158 122.06L164.08 65.4796C157.967 65.4796 153.012 60.503 153.012 54.364H47.4721C47.4721 60.503 42.5166 65.4796 36.4037 65.4796L36.4429 122.244C42.5558 122.244 47.4907 127.036 47.4907 133.175L116.614 133.175M129.61 161.197V181.999C129.61 182.775 130.456 183.255 131.122 182.858L136.785 179.482C137.09 179.3 137.47 179.294 137.781 179.466L144.052 182.938C144.719 183.307 145.536 182.825 145.536 182.063V161.197M87.1536 73.1219H112.372C115.078 73.1219 117.27 70.9291 117.27 68.2241C117.27 65.519 115.078 63.3262 112.372 63.3262H87.1536C84.4486 63.3262 82.2557 65.519 82.2557 68.2241C82.2557 70.9291 84.4486 73.1219 87.1536 73.1219ZM60.2647 89.9677H143.633C146.338 89.9677 148.53 87.7748 148.53 85.0698C148.53 82.3647 146.338 80.1719 143.633 80.1719H60.2647C57.5597 80.1719 55.3668 82.3647 55.3668 85.0698C55.3668 87.7748 57.5597 89.9677 60.2647 89.9677ZM60.2647 106.813H143.633C146.338 106.813 148.53 104.62 148.53 101.915C148.53 99.2104 146.338 97.0176 143.633 97.0176H60.2647C57.5597 97.0176 55.3668 99.2104 55.3668 101.915C55.3668 104.62 57.5597 106.813 60.2647 106.813ZM60.2647 123.659H107.37C110.075 123.659 112.268 121.466 112.268 118.761C112.268 116.056 110.075 113.863 107.37 113.863H60.2647C57.5597 113.863 55.3668 116.056 55.3668 118.761C55.3668 121.466 57.5597 123.659 60.2647 123.659ZM151.451 138.838C151.451 146.205 145.479 152.177 138.112 152.177C130.746 152.177 124.774 146.205 124.774 138.838C124.774 131.471 130.746 125.499 138.112 125.499C145.479 125.499 151.451 131.471 151.451 138.838ZM129.777 118.375L128.323 117.915C125.937 117.159 123.451 118.757 123.146 121.242L122.961 122.755C122.763 124.37 121.607 125.704 120.037 126.13L118.565 126.528C116.149 127.183 114.921 129.872 116.009 132.126L116.671 133.5C117.378 134.965 117.126 136.712 116.036 137.919L115.013 139.051C113.335 140.908 113.755 143.833 115.889 145.142L117.189 145.939C118.575 146.79 119.309 148.396 119.043 150.001L118.795 151.505C118.387 153.975 120.322 156.208 122.825 156.156L124.35 156.124C125.976 156.09 127.461 157.045 128.106 158.538L128.71 159.938C129.702 162.236 132.538 163.069 134.615 161.672L135.88 160.821C137.23 159.913 138.995 159.913 140.345 160.821L141.61 161.672C143.687 163.069 146.523 162.236 147.515 159.938L148.119 158.538C148.764 157.045 150.249 156.09 151.875 156.124L153.4 156.156C155.902 156.208 157.838 153.975 157.43 151.505L157.181 150.001C156.916 148.396 157.649 146.79 159.036 145.939L160.336 145.142C162.469 143.833 162.89 140.908 161.211 139.051L160.189 137.919C159.098 136.712 158.847 134.965 159.554 133.5L160.216 132.126C161.303 129.872 160.076 127.183 157.659 126.528L156.188 126.13C154.618 125.704 153.462 124.37 153.264 122.755L153.079 121.242C152.774 118.757 150.288 117.159 147.901 117.915L146.448 118.375C144.897 118.866 143.203 118.368 142.164 117.117L141.189 115.944C139.59 114.018 136.635 114.018 135.035 115.944L134.061 117.117C133.022 118.368 131.328 118.866 129.777 118.375Z" stroke="#017EC6" stroke-width="2"/>
</svg>
