<svg width="100" height="101" viewBox="0 0 100 101" fill="none" xmlns="http://www.w3.org/2000/svg">
<path d="M23.0273 36.2918H28.4625C30.7566 36.2918 32.9403 35.3069 34.4589 33.5874L35.7707 32.1019C37.2893 30.3824 39.473 29.3975 41.7671 29.3975H51.7821C52.9861 29.3975 54.1497 29.832 55.059 30.6211L61.7748 36.4487C62.9576 37.4751 62.5553 39.4011 61.0606 39.8682L59.8344 40.2514C58.2607 40.7432 56.5457 40.4276 55.2502 39.4077L53.3618 37.9211C53.1991 37.793 53.0007 37.7186 52.794 37.7081L43.863 37.254C43.024 37.2113 42.2055 37.5224 41.6066 38.1116L37.746 41.9101M76.9727 36.4698H71.6874C69.5251 36.4698 67.4549 35.5945 65.9484 34.0434L64.8258 32.8874C63.3193 31.3363 61.2491 30.461 59.0869 30.461H55.0459M77.0339 54.9073H71.4402M44.5444 52.3889L33.3069 63.6264C32.1175 64.8158 30.189 64.8158 28.9996 63.6264C27.8102 62.437 27.8102 60.5085 28.9996 59.3191L40.2371 48.0816M50.1755 55.406L38.938 66.6435C37.7486 67.8329 35.8201 67.8329 34.6307 66.6435C33.4413 65.4541 33.4413 63.5256 34.6307 62.3362L45.8682 51.0987M48.4801 65.9845L44.6601 69.6331C43.4496 70.7893 41.5375 70.7673 40.3539 69.5837C39.1508 68.3806 39.1508 66.4301 40.3539 65.227L51.5667 54.0142M42.4089 45.9002L31.1714 57.1376C29.982 58.3271 28.0535 58.3271 26.8641 57.1376C25.6747 55.9482 25.6747 54.0197 26.8641 52.8303L38.1016 41.5928M10.9397 33.7999V56.2435C10.9397 56.7958 11.3874 57.2435 11.9397 57.2435H19.7586C21.4155 57.2435 22.7586 55.9004 22.7586 54.2435V35.7999C22.7586 34.143 21.4155 32.7999 19.7586 32.7999H11.9397C11.3874 32.7999 10.9397 33.2476 10.9397 33.7999ZM89.0603 33.9781V56.4218C89.0603 56.974 88.6126 57.4218 88.0603 57.4218H80.2413C78.5845 57.4218 77.2413 56.0786 77.2413 54.4218V35.9781C77.2413 34.3212 78.5845 32.9781 80.2413 32.9781H88.0603C88.6126 32.9781 89.0603 33.4258 89.0603 33.9781ZM60.4047 51.2212L68.5108 59.346C69.6973 60.5353 69.701 62.4594 68.5192 63.6533C67.3321 64.8525 65.3977 64.8623 64.1985 63.6752L56.0421 55.601C54.8291 54.4003 54.8189 52.4437 56.0193 51.2305C57.2254 50.0113 59.1935 50.0072 60.4047 51.2212ZM65.4045 47.6371L70.4012 52.6661C71.5848 53.8573 71.5865 55.7799 70.4052 56.9733C69.2169 58.1737 67.2805 58.1835 66.0801 56.9952L61.0418 52.0078C59.8301 50.8083 59.8199 48.8536 61.0192 47.6416C62.2259 46.4221 64.1953 46.42 65.4045 47.6371ZM56.7344 56.468L63.1636 62.9245C64.3487 64.1147 64.3515 66.0381 63.1699 67.2318C61.9823 68.4315 60.0469 68.4413 58.8472 67.2537L52.3717 60.8435C51.1593 59.6434 51.1492 57.6877 52.349 56.475C53.5554 55.2557 55.5241 55.2525 56.7344 56.468ZM53.1014 61.5032L57.1963 65.6318C58.3786 66.8238 58.3795 68.7459 57.1984 69.939C56.0096 71.1399 54.0723 71.1498 52.8714 69.9609L48.7388 65.87C47.5276 64.671 47.5175 62.7172 48.7162 61.5057C49.9231 60.2861 51.8931 60.2849 53.1014 61.5032Z" stroke="#017EC6" stroke-linecap="round"/>
</svg>
