<svg width="201" height="201" viewBox="0 0 201 201" fill="none" xmlns="http://www.w3.org/2000/svg">
<path d="M157.543 150.733H169.248C175.875 150.733 181.248 145.36 181.248 138.733V48.8269C181.248 42.1995 175.875 36.8269 169.248 36.8269H31.8284C25.201 36.8269 19.8284 42.1786 19.8284 48.806C19.8284 76.5512 19.8284 118.409 19.8284 138.767C19.8284 145.394 25.2009 150.733 31.8284 150.733H118.84" stroke="#017EC6" stroke-width="2"/>
<path d="M155.949 125.574C157.99 123.255 160.978 121.791 164.293 121.791L164.215 65.2106C158.102 65.2106 153.147 60.234 153.147 54.095H47.6072C47.6072 60.234 42.6517 65.2106 36.5388 65.2106L36.578 121.975C42.6909 121.975 47.6258 126.767 47.6258 132.906L116.749 132.906" stroke="#017EC6" stroke-width="2"/>
<rect x="82.3909" y="63.0571" width="35.0146" height="9.79578" rx="4.89789" stroke="#017EC6" stroke-width="2"/>
<rect x="55.502" y="79.9028" width="93.1636" height="9.79578" rx="4.89789" stroke="#017EC6" stroke-width="2"/>
<rect x="55.502" y="96.7485" width="93.1636" height="9.79578" rx="4.89789" stroke="#017EC6" stroke-width="2"/>
<rect x="55.502" y="113.594" width="56.9014" height="9.79578" rx="4.89789" stroke="#017EC6" stroke-width="2"/>
<circle cx="138.247" cy="138.569" r="13.3388" stroke="#017EC6" stroke-width="2"/>
<path d="M135.17 115.675C136.77 113.749 139.725 113.749 141.325 115.675L142.299 116.848C143.338 118.099 145.032 118.596 146.583 118.106L148.036 117.646C150.423 116.89 152.909 118.488 153.214 120.973L153.399 122.486C153.597 124.101 154.753 125.435 156.323 125.861L157.795 126.259C160.211 126.914 161.438 129.603 160.351 131.857L159.689 133.231C158.982 134.696 159.233 136.443 160.324 137.65L161.347 138.781C163.025 140.639 162.605 143.564 160.471 144.873L159.171 145.67C157.785 146.521 157.051 148.127 157.316 149.732L157.565 151.236C157.973 153.706 156.038 155.939 153.535 155.887L152.01 155.855C150.384 155.821 148.899 156.776 148.254 158.269L147.65 159.669C146.658 161.967 143.822 162.8 141.745 161.403L140.48 160.552C139.13 159.644 137.365 159.644 136.015 160.552L134.75 161.403C132.673 162.8 129.837 161.967 128.845 159.669L128.241 158.269C127.596 156.776 126.111 155.821 124.485 155.855L122.96 155.887C120.457 155.939 118.522 153.706 118.93 151.236L119.179 149.732C119.444 148.127 118.71 146.521 117.324 145.67L116.024 144.873C113.89 143.564 113.47 140.639 115.148 138.781L116.171 137.65C117.261 136.443 117.513 134.696 116.806 133.231L116.144 131.857C115.057 129.603 116.284 126.914 118.7 126.259L120.172 125.861C121.742 125.435 122.898 124.101 123.096 122.486L123.281 120.973C123.586 118.488 126.072 116.89 128.459 117.646L129.912 118.106C131.463 118.596 133.157 118.099 134.196 116.848L135.17 115.675Z" stroke="#017EC6" stroke-width="2"/>
<path d="M129.745 160.928V181.73C129.745 182.506 130.591 182.986 131.257 182.589L136.92 179.213C137.226 179.031 137.605 179.025 137.916 179.197L144.187 182.669C144.854 183.038 145.672 182.556 145.672 181.794V160.928" stroke="#017EC6" stroke-width="2"/>
</svg>
