<svg width="100" height="101" viewBox="0 0 100 101" fill="none" xmlns="http://www.w3.org/2000/svg">
<path d="M77.6934 75.8437H83.2094C86.5231 75.8437 89.2094 73.1574 89.2094 69.8437V26.5073C89.2094 23.1936 86.5231 20.5073 83.2094 20.5073H16.7906C13.4769 20.5073 10.7906 23.1824 10.7906 26.4961V69.8563C10.7906 73.17 13.4769 75.8437 16.7906 75.8437H58.8915M76.9192 63.6213C77.9105 62.4947 79.3622 61.7836 80.9728 61.7836L80.9348 34.2963C77.9651 34.2963 75.5577 31.8787 75.5577 28.8963H24.2858C24.2858 31.8787 21.8784 34.2963 18.9087 34.2963L18.9278 61.8727C21.8974 61.8727 24.2948 64.2009 24.2948 67.1833L57.8754 67.1833M64.1889 80.7967V89.9972C64.1889 90.7732 65.0344 91.2535 65.701 90.8561L67.4206 89.831C67.7262 89.6488 68.1056 89.6427 68.417 89.815L70.4417 90.9359C71.1082 91.3048 71.926 90.8228 71.926 90.061V80.7967M43.5633 38.009H55.8148C57.1289 38.009 58.1943 36.9437 58.1943 35.6296C58.1943 34.3155 57.1289 33.2502 55.8148 33.2502H43.5633C42.2492 33.2502 41.1839 34.3155 41.1839 35.6296C41.1839 36.9437 42.2492 38.009 43.5633 38.009ZM30.5005 46.1928H71.0012C72.3153 46.1928 73.3806 45.1275 73.3806 43.8134C73.3806 42.4992 72.3153 41.4339 71.0012 41.4339H30.5005C29.1864 41.4339 28.121 42.4992 28.121 43.8134C28.121 45.1275 29.1864 46.1928 30.5005 46.1928ZM30.5005 54.3766H71.0012C72.3153 54.3766 73.3806 53.3113 73.3806 51.9971C73.3806 50.683 72.3153 49.6177 71.0012 49.6177H30.5005C29.1864 49.6177 28.121 50.683 28.121 51.9971C28.121 53.3113 29.1864 54.3766 30.5005 54.3766ZM30.5005 62.5602H53.3847C54.6988 62.5602 55.7641 61.4949 55.7641 60.1808C55.7641 58.8667 54.6988 57.8014 53.3847 57.8014H30.5005C29.1864 57.8014 28.121 58.8667 28.121 60.1808C28.121 61.4949 29.1864 62.5602 30.5005 62.5602ZM74.7995 69.9344C74.7995 73.5132 71.8983 76.4145 68.3194 76.4145C64.7406 76.4145 61.8393 73.5132 61.8393 69.9344C61.8393 66.3555 64.7406 63.4543 68.3194 63.4543C71.8983 63.4543 74.7995 66.3555 74.7995 69.9344ZM64.017 59.913C64.9235 60.1999 65.9134 59.9092 66.5209 59.1778C67.4558 58.0522 69.1831 58.0522 70.118 59.1778C70.7255 59.9092 71.7154 60.1999 72.6219 59.913C74.0169 59.4716 75.47 60.4054 75.6479 61.8577C75.7635 62.8015 76.4392 63.5812 77.3569 63.83C78.7691 64.2128 79.4866 65.784 78.8511 67.1019C78.4381 67.9584 78.585 68.9796 79.2225 69.685C80.2036 70.7705 79.9578 72.4803 78.7106 73.2454C77.9002 73.7427 77.4716 74.6811 77.6265 75.6192C77.865 77.0628 76.7338 78.3683 75.271 78.3377C74.3204 78.3178 73.4524 78.8756 73.0756 79.7486C72.4957 81.0919 70.8384 81.5786 69.6243 80.762C68.8353 80.2313 67.8036 80.2313 67.0146 80.762C65.8005 81.5786 64.1432 81.0919 63.5633 79.7486C63.1865 78.8756 62.3185 78.3178 61.3679 78.3377C59.9051 78.3683 58.7739 77.0628 59.0124 75.6192C59.1673 74.6811 58.7387 73.7427 57.9283 73.2454C56.6811 72.4803 56.4353 70.7705 57.4164 69.685C58.0539 68.9796 58.2007 67.9584 57.7878 67.1019C57.1523 65.784 57.8698 64.2128 59.282 63.83C60.1997 63.5812 60.8754 62.8015 60.991 61.8577C61.1689 60.4054 62.622 59.4716 64.017 59.913Z" stroke="#017EC6"/>
</svg>
