<svg width="100" height="100" viewBox="0 0 100 100" fill="none" xmlns="http://www.w3.org/2000/svg">
<path d="M33.9696 32.1476C22.1988 34.5861 13.665 41.8081 13.665 50.338C13.665 56.4595 18.0602 61.9074 24.8927 65.3971C24.8927 65.3971 27.0137 68.1079 18.9331 73.8144C32.5322 78.552 34.9939 68.794 37.3404 69.0827C37.9692 69.1601 38.6052 69.2242 39.2477 69.2745M33.9696 32.1476C36.7341 31.5749 39.6771 31.266 42.73 31.266C56.9163 31.266 68.7287 37.9351 71.2832 46.7559M33.9696 32.1476C33.9696 22.6496 45.6535 13.9336 60.128 13.9336C74.6025 13.9336 86.3364 21.6332 86.3364 31.1311C86.3364 37.9552 80.062 43.9772 71.2832 46.7559M71.2832 46.7559C71.6192 47.9161 71.795 49.1136 71.795 50.338C71.795 50.9075 71.757 51.4711 71.6825 52.0279M39.2477 69.2745C41.4833 76.2388 50.901 81.4668 62.1795 81.4668C63.6644 81.4668 65.117 81.3762 66.5253 81.2029C68.4172 80.9702 70.4021 88.8381 81.3672 85.0182C74.8517 80.4169 76.5619 78.2312 76.5619 78.2312C82.071 75.4175 85.6149 71.0248 85.6149 66.0889C85.6149 59.8158 79.8905 54.42 71.6825 52.0279M39.2477 69.2745C40.3894 69.3639 41.5516 69.41 42.73 69.41C57.9143 69.41 70.3791 61.7695 71.6825 52.0279M34.8501 49.9999C34.8501 51.5894 33.5616 52.878 31.972 52.878C30.3825 52.878 29.094 51.5894 29.094 49.9999C29.094 48.4104 30.3825 47.1219 31.972 47.1219C33.5616 47.1219 34.8501 48.4104 34.8501 49.9999ZM44.4073 49.9999C44.4073 51.5894 43.1188 52.878 41.5293 52.878C39.9398 52.878 38.6512 51.5894 38.6512 49.9999C38.6512 48.4104 39.9398 47.1219 41.5293 47.1219C43.1188 47.1219 44.4073 48.4104 44.4073 49.9999ZM53.9647 49.9999C53.9647 51.5894 52.6762 52.878 51.0867 52.878C49.4972 52.878 48.2086 51.5894 48.2086 49.9999C48.2086 48.4104 49.4972 47.1219 51.0867 47.1219C52.6762 47.1219 53.9647 48.4104 53.9647 49.9999Z" stroke="#017EC6"/>
</svg>
