<svg width="100" height="100" viewBox="0 0 100 100" fill="none" xmlns="http://www.w3.org/2000/svg">
<path d="M39.0365 34.8463C39.0365 31.5552 36.3686 28.8874 33.0776 28.8874C29.7866 28.8874 27.1187 31.5552 27.1187 34.8463M27.405 14.1681V11.4021C27.405 8.31479 29.9078 5.81201 32.9951 5.81201H76.4516C79.5389 5.81201 82.0417 8.31479 82.0417 11.4021V80.2801C82.0417 83.3675 79.5389 85.8702 76.4516 85.8702H73.2056M51.2329 82.4423L52.623 83.5091C53.6997 84.3355 55.2118 84.2797 56.2247 83.3762C56.8844 82.7879 57.2308 81.9247 57.1609 81.0435L57.0338 79.4419C56.955 78.4489 57.649 77.5607 58.6316 77.3969C59.4793 77.2556 60.3177 77.6952 60.6837 78.4729L61.4069 80.0097C61.661 80.5499 62.3193 80.7621 62.8411 80.4722C63.0925 80.3326 63.2742 80.0943 63.3423 79.8149L63.8589 77.6969C63.9463 77.3384 64.0488 76.9755 64.2673 76.6782C65.0327 75.6365 66.3132 75.7213 67.1608 76.1768M59.947 14.1578H22.4302C19.9603 14.1578 17.9581 16.16 17.9581 18.6299V88.0266C17.9581 90.788 20.1966 93.0266 22.9581 93.0266H68.7007C71.1435 93.0266 73.1343 91.0665 73.1723 88.624L74.1386 26.4178M59.947 14.1578L74.1386 26.4178M59.947 14.1578V23.4178C59.947 25.0747 61.2902 26.4178 62.947 26.4178H74.1386M55.3702 56.752H62.3998C64.8696 56.752 66.8719 54.7498 66.8719 52.2799V47.4473C66.8719 44.9774 64.8696 42.9752 62.3998 42.9752H29.1289C26.659 42.9752 24.6568 44.9774 24.6568 47.4473V52.752C24.6568 54.9611 26.4477 56.752 28.6568 56.752H55.3702ZM28.3706 18.9607H37.3741C39.8439 18.9607 41.8462 20.9629 41.8462 23.4328V32.8155C41.8462 35.2853 39.8439 37.2876 37.3741 37.2876H28.3706C25.9007 37.2876 23.8985 35.2853 23.8985 32.8155V23.4328C23.8985 20.9629 25.9007 18.9607 28.3706 18.9607ZM48.8411 36.9553H65.7777C66.7549 36.9553 67.5472 36.1631 67.5472 35.1858C67.5472 34.2086 66.7549 33.4163 65.7777 33.4163H48.8411C47.8638 33.4163 47.0716 34.2086 47.0716 35.1858C47.0716 36.1631 47.8638 36.9553 48.8411 36.9553ZM36.0607 24.6918C36.0607 26.3393 34.7251 27.6748 33.0777 27.6748C31.4302 27.6748 30.0947 26.3393 30.0947 24.6918C30.0947 23.0443 31.4302 21.7088 33.0777 21.7088C34.7251 21.7088 36.0607 23.0443 36.0607 24.6918ZM25.7072 66.6045H65.6086C66.6792 66.6045 67.5471 67.4724 67.5471 68.543C67.5471 69.6136 66.6792 70.4815 65.6086 70.4815H25.7072C24.6366 70.4815 23.7687 69.6136 23.7687 68.543C23.7687 67.4724 24.6366 66.6045 25.7072 66.6045ZM25.7072 76.1885H46.1242C47.1949 76.1885 48.0628 77.0564 48.0628 78.127C48.0628 79.1976 47.1949 80.0655 46.1242 80.0655H25.7072C24.6366 80.0655 23.7687 79.1976 23.7687 78.127C23.7687 77.0564 24.6366 76.1885 25.7072 76.1885Z" stroke="#017EC6"/>
</svg>
