<svg width="100" height="100" viewBox="0 0 100 100" fill="none" xmlns="http://www.w3.org/2000/svg">
<path d="M24.3889 35.9839L33.6405 24.4182M39.0866 23.42L46.6217 28.7108M52.1417 27.6867L61.5404 15.9545M66.8551 15.3097L74.4772 19.5327M15.1388 77.4843H42.969C44.1885 77.4843 45.1771 76.4957 45.1771 75.2762C45.1771 74.0567 44.1885 73.0681 42.969 73.0681H15.1388C13.9193 73.0681 12.9307 74.0567 12.9307 75.2762C12.9307 76.4957 13.9193 77.4843 15.1388 77.4843ZM54.0656 68.6521H81.8959C83.1154 68.6521 84.104 67.6635 84.104 66.444C84.104 65.2245 83.1154 64.2359 81.8959 64.2359H54.0656C52.8461 64.2359 51.8575 65.2245 51.8575 66.444C51.8575 67.6635 52.8461 68.6521 54.0656 68.6521ZM61.0614 61.0244H67.0574C68.2347 61.0244 69.189 60.0701 69.189 58.8929V25.5231C69.189 24.3459 68.2347 23.3916 67.0574 23.3916H61.0614C59.8841 23.3916 58.9298 24.3459 58.9298 25.5231V58.8929C58.9298 60.0701 59.8841 61.0244 61.0614 61.0244ZM75.0597 61.0246H81.0557C82.233 61.0246 83.1873 60.0703 83.1873 58.893V33.5295C83.1873 32.3523 82.233 31.398 81.0557 31.398H75.0597C73.8824 31.398 72.9281 32.3523 72.9281 33.5295V58.893C72.9281 60.0703 73.8824 61.0246 75.0597 61.0246ZM46.8601 61.0246H52.8562C54.0334 61.0246 54.9878 60.0703 54.9878 58.893V41.8804C54.9878 40.7032 54.0334 39.7489 52.8562 39.7489H46.8601C45.6829 39.7489 44.7285 40.7032 44.7285 41.8804V58.893C44.7285 60.0703 45.6829 61.0246 46.8601 61.0246ZM32.8621 61.0246H38.8581C40.0354 61.0246 40.9897 60.0703 40.9897 58.893V33.5295C40.9897 32.3523 40.0354 31.398 38.8581 31.398H32.8621C31.6848 31.398 30.7305 32.3523 30.7305 33.5295V58.893C30.7305 60.0703 31.6848 61.0246 32.8621 61.0246ZM18.864 61.0243H24.8601C26.0373 61.0243 26.9917 60.07 26.9917 58.8928V50.5956C26.9917 49.4184 26.0373 48.464 24.8601 48.464H18.864C17.6868 48.464 16.7325 49.4184 16.7325 50.5956V58.8928C16.7325 60.07 17.6868 61.0243 18.864 61.0243ZM54.0656 86.3166H81.8959C83.1154 86.3166 84.104 85.328 84.104 84.1085C84.104 82.889 83.1154 81.9004 81.8959 81.9004H54.0656C52.8461 81.9004 51.8575 82.889 51.8575 84.1085C51.8575 85.328 52.8461 86.3166 54.0656 86.3166ZM18.1045 81.9005H45.9348C47.1543 81.9005 48.1429 80.9119 48.1429 79.6924C48.1429 78.4729 47.1543 77.4843 45.9348 77.4843H18.1045C16.885 77.4843 15.8964 78.4729 15.8964 79.6924C15.8964 80.9119 16.885 81.9005 18.1045 81.9005ZM57.0314 73.0682H84.8617C86.0812 73.0682 87.0698 72.0796 87.0698 70.8601C87.0698 69.6406 86.0812 68.652 84.8617 68.652H57.0314C55.8119 68.652 54.8233 69.6406 54.8233 70.8601C54.8233 72.0796 55.8119 73.0682 57.0314 73.0682ZM57.0314 90.7327H84.8617C86.0812 90.7327 87.0698 89.7441 87.0698 88.5246C87.0698 87.3051 86.0812 86.3165 84.8617 86.3165H57.0314C55.8119 86.3165 54.8233 87.3051 54.8233 88.5246C54.8233 89.7441 55.8119 90.7327 57.0314 90.7327ZM15.1388 86.3166H42.969C44.1885 86.3166 45.1771 85.328 45.1771 84.1085C45.1771 82.889 44.1885 81.9004 42.969 81.9004H15.1388C13.9193 81.9004 12.9307 82.889 12.9307 84.1085C12.9307 85.328 13.9193 86.3166 15.1388 86.3166ZM54.0656 77.4843H81.8959C83.1154 77.4843 84.104 76.4957 84.104 75.2762C84.104 74.0567 83.1154 73.0681 81.8959 73.0681H54.0656C52.8461 73.0681 51.8575 74.0567 51.8575 75.2762C51.8575 76.4957 52.8461 77.4843 54.0656 77.4843ZM18.1045 90.7327H45.9348C47.1543 90.7327 48.1429 89.7441 48.1429 88.5246C48.1429 87.3051 47.1543 86.3165 45.9348 86.3165H18.1045C16.885 86.3165 15.8964 87.3051 15.8964 88.5246C15.8964 89.7441 16.885 90.7327 18.1045 90.7327ZM57.0314 81.9005H84.8617C86.0812 81.9005 87.0698 80.9119 87.0698 79.6924C87.0698 78.4729 86.0812 77.4843 84.8617 77.4843H57.0314C55.8119 77.4843 54.8233 78.4729 54.8233 79.6924C54.8233 80.9119 55.8119 81.9005 57.0314 81.9005ZM25.7555 38.972C25.7555 41.0371 24.0814 42.7113 22.0162 42.7113C19.9511 42.7113 18.277 41.0371 18.277 38.972C18.277 36.9069 19.9511 35.2328 22.0162 35.2328C24.0814 35.2328 25.7555 36.9069 25.7555 38.972ZM39.5992 21.4251C39.5992 23.4902 37.9251 25.1643 35.86 25.1643C33.7949 25.1643 32.1208 23.4902 32.1208 21.4251C32.1208 19.36 33.7949 17.6859 35.86 17.6859C37.9251 17.6859 39.5992 19.36 39.5992 21.4251ZM53.5975 30.5535C53.5975 32.6186 51.9234 34.2927 49.8583 34.2927C47.7932 34.2927 46.1191 32.6186 46.1191 30.5535C46.1191 28.4884 47.7932 26.8143 49.8583 26.8143C51.9234 26.8143 53.5975 28.4884 53.5975 30.5535ZM67.5438 13.0066C67.5438 15.0717 65.8697 16.7458 63.8045 16.7458C61.7394 16.7458 60.0653 15.0717 60.0653 13.0066C60.0653 10.9414 61.7394 9.26733 63.8045 9.26733C65.8697 9.26733 67.5438 10.9414 67.5438 13.0066ZM81.4614 21.4251C81.4614 23.4902 79.7873 25.1643 77.7222 25.1643C75.6571 25.1643 73.983 23.4902 73.983 21.4251C73.983 19.36 75.6571 17.6859 77.7222 17.6859C79.7873 17.6859 81.4614 19.36 81.4614 21.4251Z" stroke="#0180C9" stroke-linecap="round"/>
</svg>
