<svg width="100" height="100" viewBox="0 0 100 100" fill="none" xmlns="http://www.w3.org/2000/svg">
<path d="M82.6327 73.794H89.1326C93.0374 73.794 96.2028 70.6285 96.2028 66.7238V15.6574C96.2028 11.7526 93.0374 8.58716 89.1326 8.58716H10.8666C6.96184 8.58716 3.79639 11.7395 3.79639 15.6443V66.7386C3.79639 70.6434 6.96183 73.794 10.8666 73.794H60.477M81.7204 59.3915C82.8885 58.0639 84.5991 57.226 86.497 57.226L86.4523 24.8358C82.9529 24.8358 80.1161 21.9869 80.1161 18.4726H19.6987C19.6987 21.9869 16.8619 24.8358 13.3625 24.8358L13.3849 57.331C16.8843 57.331 19.7093 60.0745 19.7093 63.5888L59.2797 63.5889M66.7194 79.6305V90.4721C66.7194 91.3866 67.7157 91.9525 68.5011 91.4843L70.5275 90.2763C70.8876 90.0615 71.3347 90.0544 71.7016 90.2575L74.0875 91.5782C74.8729 92.013 75.8365 91.4449 75.8365 90.5472V79.6305M42.4148 29.2108H56.8516C58.4001 29.2108 59.6554 27.9554 59.6554 26.4069C59.6554 24.8584 58.4001 23.6031 56.8516 23.6031H42.4148C40.8662 23.6031 39.6109 24.8584 39.6109 26.4069C39.6109 27.9554 40.8662 29.2108 42.4148 29.2108ZM27.0219 38.8543H74.7467C76.2952 38.8543 77.5506 37.5989 77.5506 36.0504C77.5506 34.5019 76.2952 33.2466 74.7467 33.2466H27.0219C25.4734 33.2466 24.218 34.5019 24.218 36.0504C24.218 37.5989 25.4734 38.8543 27.0219 38.8543ZM27.0219 48.4978H74.7467C76.2952 48.4978 77.5506 47.2425 77.5506 45.6939C77.5506 44.1454 76.2952 42.8901 74.7467 42.8901H27.0219C25.4734 42.8901 24.218 44.1454 24.218 45.6939C24.218 47.2425 25.4734 48.4978 27.0219 48.4978ZM27.0219 58.1412H53.988C55.5365 58.1412 56.7919 56.8858 56.7919 55.3373C56.7919 53.7888 55.5365 52.5334 53.988 52.5334H27.0219C25.4734 52.5334 24.218 53.7888 24.218 55.3373C24.218 56.8858 25.4734 58.1412 27.0219 58.1412ZM79.2226 66.8307C79.2226 71.0479 75.8039 74.4666 71.5867 74.4666C67.3694 74.4666 63.9507 71.0479 63.9507 66.8307C63.9507 62.6135 67.3694 59.1947 71.5867 59.1947C75.8039 59.1947 79.2226 62.6135 79.2226 66.8307ZM66.5168 55.0218C67.585 55.3598 68.7515 55.0173 69.4674 54.1554C70.569 52.8291 72.6044 52.8291 73.706 54.1554C74.4218 55.0173 75.5884 55.3598 76.6565 55.0218C78.3003 54.5016 80.0127 55.602 80.2223 57.3134C80.3586 58.4255 81.1547 59.3443 82.2361 59.6374C83.9002 60.0885 84.7457 61.94 83.9969 63.493C83.5103 64.5022 83.6833 65.7056 84.4345 66.5368C85.5906 67.816 85.3009 69.8307 83.8313 70.7323C82.8763 71.3182 82.3713 72.4241 82.5538 73.5295C82.8348 75.2306 81.5019 76.7689 79.7781 76.7329C78.658 76.7095 77.6352 77.3668 77.1912 78.3954C76.5079 79.9784 74.5549 80.5518 73.1242 79.5896C72.1946 78.9643 70.9788 78.9643 70.0491 79.5896C68.6185 80.5518 66.6655 79.9784 65.9822 78.3954C65.5381 77.3668 64.5154 76.7095 63.3952 76.7329C61.6714 76.7689 60.3385 75.2306 60.6195 73.5295C60.8021 72.4241 60.297 71.3182 59.342 70.7323C57.8724 69.8307 57.5828 67.816 58.7388 66.5368C59.4901 65.7056 59.6631 64.5022 59.1765 63.493C58.4276 61.94 59.2732 60.0885 60.9373 59.6374C62.0186 59.3443 62.8148 58.4255 62.951 57.3134C63.1607 55.602 64.873 54.5016 66.5168 55.0218Z" stroke="#017EC6"/>
</svg>
