<svg width="200" height="201" viewBox="0 0 200 201" fill="none" xmlns="http://www.w3.org/2000/svg">
<path d="M157.005 151.074H168.71C175.337 151.074 180.71 145.702 180.71 139.074V49.1682C180.71 42.5408 175.337 37.1682 168.71 37.1682H31.29C24.6626 37.1682 19.29 42.5199 19.29 49.1473V139.108C19.29 145.735 24.6626 151.074 31.29 151.074H118.302M155.411 125.915C157.452 123.596 160.44 122.132 163.755 122.132L163.677 65.5519C157.564 65.5519 152.609 60.5753 152.609 54.4363H47.0689C47.0689 60.5753 42.1134 65.5519 36.0005 65.5519L36.0397 122.316C42.1526 122.316 47.0875 127.108 47.0875 133.247L116.211 133.247M129.207 161.27V182.071C129.207 182.847 130.053 183.328 130.719 182.93L136.382 179.555C136.687 179.372 137.067 179.366 137.378 179.539L143.649 183.01C144.315 183.379 145.133 182.897 145.133 182.135V161.27M86.7504 73.1942H111.969C114.674 73.1942 116.867 71.0014 116.867 68.2963C116.867 65.5913 114.674 63.3984 111.969 63.3984H86.7504C84.0454 63.3984 81.8525 65.5913 81.8525 68.2963C81.8525 71.0014 84.0454 73.1942 86.7504 73.1942ZM59.8615 90.0399H143.229C145.934 90.0399 148.127 87.8471 148.127 85.142C148.127 82.437 145.934 80.2441 143.229 80.2441H59.8615C57.1565 80.2441 54.9636 82.437 54.9636 85.142C54.9636 87.8471 57.1565 90.0399 59.8615 90.0399ZM59.8615 106.886H143.229C145.934 106.886 148.127 104.693 148.127 101.988C148.127 99.2827 145.934 97.0898 143.229 97.0898H59.8615C57.1565 97.0898 54.9636 99.2827 54.9636 101.988C54.9636 104.693 57.1565 106.886 59.8615 106.886ZM59.8615 123.731H106.967C109.672 123.731 111.865 121.538 111.865 118.833C111.865 116.128 109.672 113.935 106.967 113.935H59.8615C57.1565 113.935 54.9636 116.128 54.9636 118.833C54.9636 121.538 57.1565 123.731 59.8615 123.731ZM151.048 138.91C151.048 146.277 145.076 152.249 137.709 152.249C130.342 152.249 124.37 146.277 124.37 138.91C124.37 131.544 130.342 125.572 137.709 125.572C145.076 125.572 151.048 131.544 151.048 138.91ZM129.374 118.447L127.92 117.987C125.534 117.232 123.047 118.829 122.743 121.314L122.558 122.828C122.36 124.442 121.204 125.776 119.634 126.202L118.162 126.601C115.746 127.256 114.518 129.944 115.606 132.199L116.268 133.572C116.974 135.037 116.723 136.785 115.632 137.992L114.61 139.123C112.932 140.98 113.352 143.905 115.486 145.214L116.786 146.012C118.172 146.862 118.905 148.468 118.64 150.073L118.392 151.577C117.984 154.047 119.919 156.281 122.422 156.228L123.946 156.197C125.573 156.163 127.058 157.117 127.702 158.61L128.307 160.01C129.299 162.309 132.134 163.141 134.212 161.744L135.477 160.893C136.827 159.985 138.592 159.985 139.942 160.893L141.207 161.744C143.284 163.141 146.12 162.309 147.112 160.01L147.716 158.61C148.361 157.117 149.846 156.163 151.472 156.197L152.996 156.228C155.499 156.281 157.435 154.047 157.027 151.577L156.778 150.073C156.513 148.468 157.246 146.862 158.633 146.012L159.932 145.214C162.066 143.905 162.487 140.98 160.808 139.123L159.786 137.992C158.695 136.785 158.444 135.037 159.15 133.572L159.813 132.199C160.9 129.944 159.672 127.256 157.256 126.601L155.785 126.202C154.214 125.776 153.059 124.442 152.861 122.828L152.675 121.314C152.371 118.829 149.885 117.232 147.498 117.987L146.044 118.447C144.493 118.938 142.8 118.44 141.76 117.189L140.786 116.016C139.187 114.09 136.232 114.09 134.632 116.016L133.658 117.189C132.619 118.44 130.925 118.938 129.374 118.447Z" stroke="#017EC6" stroke-width="2"/>
</svg>
