<svg width="100" height="100" viewBox="0 0 100 100" fill="none" xmlns="http://www.w3.org/2000/svg">
<path d="M29.7348 89.7631H69.4557C71.7738 89.7631 73.6631 87.903 73.6991 85.5851L74.7298 19.2281C74.7666 16.8587 72.8561 14.9182 70.4864 14.9182H25.5459C23.202 14.9182 21.3019 16.8183 21.3019 19.1622V87.6274M52.2474 72.1314H65.5311C66.7401 72.1314 67.7201 71.1513 67.7201 69.9424C67.7201 68.7335 66.7401 67.7534 65.5311 67.7534H55.7257M57.6448 63.9752H65.5611C66.7535 63.9752 67.7201 63.0086 67.7201 61.8162C67.7201 60.6238 66.7535 59.6572 65.5611 59.6572H58.3645M56.8052 55.3393H63.4762C65.82 55.3393 67.7201 53.4392 67.7201 51.0953V46.5093C67.7201 44.1655 65.82 42.2654 63.4762 42.2654H31.9028C29.559 42.2654 27.6589 44.1655 27.6589 46.5093V58.109M31.2599 75.836L33.4187 72.0968M36.1485 73.6729L33.9898 77.4121M41.305 34.5512C41.305 31.4281 38.7732 28.8963 35.6501 28.8963C32.527 28.8963 29.9952 31.4281 29.9952 34.5512M30.2669 14.9281V12.3032C30.2669 9.37338 32.6419 6.99829 35.5718 6.99829H76.811C79.7409 6.99829 82.1159 9.37338 82.1159 12.3032V77.667C82.1159 80.5968 79.7409 82.9719 76.811 82.9719H73.7307M49.9014 58.8176L43.9665 64.7525C42.3091 66.4099 39.622 66.4099 37.9647 64.7525L35.2382 62.0261C34.493 61.2809 34.493 60.0726 35.2382 59.3274C35.9835 58.5822 37.1917 58.5822 37.937 59.3274L39.7454 61.2533C40.1572 61.6918 40.8506 61.7006 41.2735 61.2729L46.7828 55.6991C47.644 54.8379 49.0402 54.8379 49.9014 55.6991C50.7625 56.5602 50.7625 57.9565 49.9014 58.8176ZM48.2892 75.7297H66.0409C66.9683 75.7297 67.7201 76.4815 67.7201 77.4089C67.7201 78.3363 66.9683 79.0881 66.0409 79.0881H48.2892C47.3618 79.0881 46.61 78.3363 46.61 77.4089C46.61 76.4815 47.3618 75.7297 48.2892 75.7297ZM31.1832 19.4761H39.7273C42.0712 19.4761 43.9713 21.3762 43.9713 23.72V32.624C43.9713 34.9679 42.0712 36.8679 39.7273 36.8679H31.1832C28.8393 36.8679 26.9392 34.9679 26.9392 32.624V23.72C26.9392 21.3762 28.8393 19.4761 31.1832 19.4761ZM50.808 29.9112H66.8805C67.8079 29.9112 68.5597 29.1594 68.5597 28.232C68.5597 27.3046 67.8079 26.5528 66.8805 26.5528H50.808C49.8806 26.5528 49.1288 27.3046 49.1288 28.232C49.1288 29.1594 49.8806 29.9112 50.808 29.9112ZM50.6093 36.5526H66.6817C67.6091 36.5526 68.361 35.8008 68.361 34.8734C68.361 33.946 67.6091 33.1942 66.6817 33.1942H50.6093C49.6819 33.1942 48.9301 33.946 48.9301 34.8734C48.9301 35.8008 49.6819 36.5526 50.6093 36.5526ZM18.4206 92.8798L27.0363 77.957C28.1403 76.0448 30.5855 75.3896 32.4978 76.4936C34.4101 77.5977 35.0653 80.0429 33.9612 81.9552L25.3456 96.8779C24.2415 98.7902 21.7963 99.4454 19.884 98.3414C17.9717 97.2373 17.3165 94.7921 18.4206 92.8798ZM57.5823 60.4378C57.5823 68.7504 50.8436 75.4891 42.5311 75.4891C34.2185 75.4891 27.4798 68.7504 27.4798 60.4378C27.4798 52.1252 34.2185 45.3866 42.5311 45.3866C50.8436 45.3866 57.5823 52.1252 57.5823 60.4378ZM38.4809 24.9148C38.4809 26.4782 37.2135 27.7456 35.6501 27.7456C34.0867 27.7456 32.8194 26.4782 32.8194 24.9148C32.8194 23.3514 34.0867 22.084 35.6501 22.084C37.2135 22.084 38.4809 23.3514 38.4809 24.9148ZM53.8265 60.4904C53.8265 66.7778 48.7296 71.8747 42.4422 71.8747C36.1549 71.8747 31.0579 66.7778 31.0579 60.4904C31.0579 54.203 36.1549 49.1061 42.4422 49.1061C48.7296 49.1061 53.8265 54.203 53.8265 60.4904Z" stroke="#017EC6"/>
</svg>
