<svg width="200" height="201" viewBox="0 0 200 201" fill="none" xmlns="http://www.w3.org/2000/svg">
<path d="M97.9471 111.08L97.7285 96.1455C97.7065 94.6442 97.011 93.2322 95.8341 92.2997L69.4217 71.3723C68.679 70.7838 69.0951 69.5885 70.0427 69.5885H129.224C130.158 69.5885 130.582 70.7567 129.865 71.3559L104.827 92.2741C103.69 93.2241 103.033 94.6295 103.033 96.1112V111.08M56.8127 154.644L56.8127 138.376C56.8127 136.081 57.798 133.897 59.5182 132.378L93.2111 102.635C93.6411 102.255 93.8874 101.709 93.8874 101.135V98.9268C93.8874 98.307 93.6001 97.7223 93.1095 97.3436L60.3996 72.095C58.4958 70.6255 57.3541 68.3774 57.2907 65.9732L56.9293 52.2754M142.726 154.644V138.277C142.726 136.04 141.789 133.905 140.143 132.39L108.194 102.993C107.783 102.614 107.548 102.08 107.548 101.521V99.229C107.548 98.6429 107.805 98.0864 108.251 97.7064L139.43 71.1478C141.156 69.6783 142.176 67.5462 142.24 65.281L142.603 52.2754M100.49 137.351H101.734C103.416 137.351 104.779 135.987 104.779 134.305C104.779 132.623 103.416 131.26 101.734 131.26H99.2031C97.5449 131.26 96.2007 129.916 96.2007 128.257C96.2007 126.599 97.5449 125.255 99.2031 125.255H100.49M100.49 137.351H96.2007M100.49 137.351V140.107M104.779 125.255H100.49M100.49 125.255V122.227M56.9293 52.2754H51.6123C49.4032 52.2754 47.6123 50.4845 47.6123 48.2754V36.1631C47.6123 33.9539 49.4032 32.1631 51.6123 32.1631H148.852C151.061 32.1631 152.852 33.9539 152.852 36.1631V48.2754C152.852 50.4845 151.061 52.2754 148.852 52.2754H142.603M56.9293 52.2754H99.766H142.603M51.6123 174.756H148.852C151.061 174.756 152.852 172.965 152.852 170.756V158.644C152.852 156.434 151.061 154.644 148.852 154.644H51.6123C49.4032 154.644 47.6123 156.434 47.6123 158.644V170.756C47.6123 172.965 49.4032 174.756 51.6123 174.756ZM120.577 131.167C120.577 142.261 111.584 151.254 100.49 151.254C89.3962 151.254 80.4028 142.261 80.4028 131.167C80.4028 120.073 89.3962 111.08 100.49 111.08C111.584 111.08 120.577 120.073 120.577 131.167ZM114.706 131.167C114.706 139.018 108.341 145.383 100.49 145.383C92.639 145.383 86.2744 139.018 86.2744 131.167C86.2744 123.316 92.639 116.951 100.49 116.951C108.341 116.951 114.706 123.316 114.706 131.167Z" stroke="#017EC6" stroke-width="2" stroke-linecap="round"/>
</svg>
