<svg width="100" height="100" viewBox="0 0 100 100" fill="none" xmlns="http://www.w3.org/2000/svg">
<path d="M26.945 15.9725H23.4718C21.0886 15.9725 19.1567 17.9044 19.1567 20.2875V87.4123C19.1567 89.7954 21.0886 91.7273 23.4718 91.7273H68.7404C71.1235 91.7273 73.0554 89.7954 73.0554 87.4123L73.0554 20.2875C73.0554 17.9044 71.1235 15.9725 68.7404 15.9725L26.945 15.9725ZM26.945 15.9725V15.9861M26.945 15.9725L26.945 12.9022C26.945 10.5191 28.8769 8.58716 31.2601 8.58716L76.5287 8.58716C78.9118 8.58716 80.8437 10.5191 80.8437 12.9022L80.8437 80.0269C80.8437 82.4101 78.9118 84.342 76.5287 84.342H73.0764M42.8438 72.069L34.5611 80.1849C34.3481 80.3937 34.0055 80.3905 33.8041 80.1706C31.0928 77.2099 29.4384 73.2653 29.4384 68.9343C29.4384 64.4728 31.194 60.4213 34.0521 57.433C34.252 57.2239 34.5823 57.2206 34.7934 57.4185L36.744 59.2467L43.2512 65.7845M46.0807 64.4461V52.8313C46.0807 52.5334 46.3234 52.2911 46.6212 52.3006C55.3829 52.5801 62.4349 59.6321 62.7144 68.3938C62.7239 68.6916 62.4816 68.9343 62.1837 68.9343H50.6995M49.9015 69.276H58.2863C58.5842 69.276 58.827 69.5181 58.814 69.8157C58.5394 76.1351 53.4651 81.2094 47.1457 81.484C46.8481 81.4969 46.606 81.2542 46.606 80.9563V72.6674M46.5651 73.1219L46.5651 82.5287C46.5651 82.8265 46.3233 83.0692 46.0256 83.0572C42.2472 82.9047 38.754 81.1606 36.3653 78.4734M36.8657 59.3254C39.293 56.973 42.604 55.6725 46.0216 55.7836M26.2099 32.0242H42.516C43.549 32.0242 44.3865 31.1868 44.3865 30.1538C44.3865 29.1208 43.549 28.2834 42.516 28.2834H26.2099C25.1769 28.2834 24.3395 29.1208 24.3395 30.1538C24.3395 31.1868 25.1769 32.0242 26.2099 32.0242ZM26.2012 38.7101H65.9602C66.9884 38.7101 67.822 37.8766 67.822 36.8483C67.822 35.8201 66.9884 34.9866 65.9602 34.9866H26.2012C25.173 34.9866 24.3395 35.8201 24.3395 36.8483C24.3395 37.8766 25.173 38.7101 26.2012 38.7101ZM26.2012 45.2953H65.9602C66.9884 45.2953 67.822 44.4618 67.822 43.4336C67.822 42.4054 66.9884 41.5718 65.9602 41.5718H26.2012C25.173 41.5718 24.3395 42.4054 24.3395 43.4336C24.3395 44.4618 25.173 45.2953 26.2012 45.2953ZM50.5078 68.934C50.5078 71.379 48.5257 73.3611 46.0807 73.3611C43.6357 73.3611 41.6536 71.379 41.6536 68.934C41.6536 66.489 43.6357 64.5069 46.0807 64.5069C48.5257 64.5069 50.5078 66.489 50.5078 68.934Z" stroke="#0180C9"/>
</svg>
