<svg width="100" height="100" viewBox="0 0 100 100" fill="none" xmlns="http://www.w3.org/2000/svg">
<path d="M30.0234 87.8922H69.3271C71.6209 87.8922 73.4904 86.0516 73.526 83.7581L74.5459 18.0979C74.5823 15.7535 72.6918 13.8334 70.3471 13.8334H25.8785C23.5592 13.8334 21.6791 15.7135 21.6791 18.0327V85.7789M52.2996 70.4456H65.4438C66.6401 70.4456 67.6098 69.4759 67.6098 68.2797C67.6098 67.0834 66.6401 66.1137 65.4438 66.1137H55.7414M57.6403 62.3751H65.4735C66.6534 62.3751 67.6098 61.4187 67.6098 60.2388C67.6098 59.059 66.6534 58.1025 65.4735 58.1025H58.3525M56.8096 53.8299H63.4105C65.7297 53.8299 67.6098 51.9498 67.6098 49.6305V45.0927C67.6098 42.7734 65.7297 40.8933 63.4105 40.8933H32.1687C29.8495 40.8933 27.9693 42.7734 27.9693 45.0927V56.5705M31.5325 74.1113L33.6686 70.4115M36.3698 71.971L34.2337 75.6709M41.4721 33.2601C41.4721 30.1698 38.9669 27.6646 35.8766 27.6646C32.7863 27.6646 30.2811 30.1698 30.2811 33.2601M30.5499 13.8431V11.2458C30.5499 8.34673 32.9 5.99658 35.7991 5.99658H76.6053C79.5043 5.99658 81.8545 8.34673 81.8545 11.2458V75.9231C81.8545 78.8221 79.5043 81.1723 76.6053 81.1723H73.5573M49.9782 57.2717L44.1056 63.1443C42.4657 64.7842 39.8068 64.7842 38.1668 63.1443L35.4691 60.4465C34.7317 59.7091 34.7317 58.5135 35.4691 57.7761C36.2065 57.0387 37.4021 57.0387 38.1395 57.7761L39.9289 59.6818C40.3363 60.1156 41.0225 60.1244 41.4409 59.7012L46.8924 54.1859C47.7445 53.3338 49.1261 53.3338 49.9782 54.1859C50.8303 55.038 50.8303 56.4196 49.9782 57.2717ZM48.383 74.0062H65.9482C66.8659 74.0062 67.6098 74.7501 67.6098 75.6677C67.6098 76.5854 66.8659 77.3293 65.9482 77.3293H48.383C47.4653 77.3293 46.7214 76.5854 46.7214 75.6677C46.7214 74.7501 47.4653 74.0062 48.383 74.0062ZM31.4566 18.3433H39.911C42.2303 18.3433 44.1104 20.2235 44.1104 22.5427V31.3532C44.1104 33.6724 42.2303 35.5525 39.911 35.5525H31.4566C29.1374 35.5525 27.2572 33.6724 27.2572 31.3532V22.5427C27.2572 20.2234 29.1374 18.3433 31.4566 18.3433ZM50.8754 28.6689H66.779C67.6967 28.6689 68.4406 27.9249 68.4406 27.0073C68.4406 26.0896 67.6967 25.3457 66.779 25.3457H50.8754C49.9577 25.3457 49.2138 26.0896 49.2138 27.0073C49.2138 27.9249 49.9577 28.6689 50.8754 28.6689ZM50.6787 35.2405H66.5824C67.5 35.2405 68.2439 34.4966 68.2439 33.579C68.2439 32.6613 67.5 31.9174 66.5824 31.9174H50.6787C49.761 31.9174 49.0171 32.6613 49.0171 33.579C49.0171 34.4966 49.761 35.2405 50.6787 35.2405ZM18.828 90.9762L27.3532 76.2101C28.4457 74.3179 30.8652 73.6696 32.7574 74.762C34.6496 75.8545 35.2979 78.274 34.2055 80.1662L25.6803 94.9323C24.5878 96.8245 22.1683 97.4728 20.2761 96.3804C18.3839 95.2879 17.7356 92.8684 18.828 90.9762ZM57.5785 58.8749C57.5785 67.1001 50.9106 73.768 42.6853 73.768C34.4601 73.768 27.7922 67.1001 27.7922 58.8749C27.7922 50.6496 34.4601 43.9817 42.6853 43.9817C50.9106 43.9817 57.5785 50.6496 57.5785 58.8749ZM38.6777 23.7249C38.6777 25.2719 37.4236 26.526 35.8767 26.526C34.3297 26.526 33.0756 25.2719 33.0756 23.7249C33.0756 22.178 34.3297 20.9239 35.8767 20.9239C37.4236 20.9239 38.6777 22.178 38.6777 23.7249ZM53.8622 58.9269C53.8622 65.1483 48.8188 70.1916 42.5974 70.1916C36.3761 70.1916 31.3327 65.1483 31.3327 58.9269C31.3327 52.7056 36.3761 47.6622 42.5974 47.6622C48.8188 47.6622 53.8622 52.7056 53.8622 58.9269Z" stroke="#017EC6"/>
</svg>
