<svg width="200" height="200" viewBox="0 0 200 200" fill="none" xmlns="http://www.w3.org/2000/svg">
<path d="M116.374 71.3534L142.499 45.7927C145.776 42.5866 145.804 37.3219 142.563 34.0801C139.346 30.8633 134.13 30.8633 130.913 34.0801L93.6401 71.3534M84.4972 71.3534L58.3721 45.7927C55.0951 42.5866 55.0664 37.3219 58.3081 34.0802C61.525 30.8633 66.7406 30.8633 69.9574 34.0802L100.385 64.5079M144.792 124.449C144.792 149.238 124.697 169.333 99.9088 169.333C75.1204 169.333 55.0254 149.238 55.0254 124.449C55.0254 105.535 66.7244 90.3538 83.2809 83.7465H116.537C133.093 90.3538 144.792 105.535 144.792 124.449ZM81.2144 83.7465H118.603C120.812 83.7465 122.603 81.9556 122.603 79.7465V75.3563C122.603 73.1472 120.812 71.3563 118.603 71.3563H81.2144C79.0052 71.3563 77.2144 73.1472 77.2144 75.3563V79.7465C77.2144 81.9556 79.0052 83.7465 81.2144 83.7465ZM135.685 126.039C135.685 145.798 119.667 161.815 99.9087 161.815C80.1502 161.815 64.1327 145.798 64.1327 126.039C64.1327 106.281 80.1502 90.2634 99.9087 90.2634C119.667 90.2634 135.685 106.281 135.685 126.039ZM89.7091 116.069L78.4112 118.685C76.2082 119.196 75.3402 121.867 76.8225 123.575L84.4247 132.332C84.9573 132.946 85.2183 133.749 85.148 134.558L84.1453 146.112C83.9498 148.365 86.2222 150.016 88.3044 149.134L98.9826 144.61C99.7306 144.293 100.575 144.293 101.323 144.61L112.001 149.134C114.083 150.016 116.356 148.365 116.16 146.112L115.158 134.558C115.087 133.749 115.348 132.946 115.881 132.332L123.483 123.575C124.965 121.867 124.097 119.196 121.895 118.685L110.597 116.069C109.805 115.886 109.122 115.389 108.703 114.693L102.723 104.757C101.557 102.819 98.7484 102.819 97.5824 104.757L91.6026 114.693C91.1837 115.389 90.5005 115.886 89.7091 116.069Z" stroke="#017EC6" stroke-width="2"/>
</svg>
