<svg width="100" height="100" viewBox="0 0 100 100" fill="none" xmlns="http://www.w3.org/2000/svg">
<path d="M16.2937 32.7174H23.0857C25.9525 32.7174 28.6813 31.4867 30.579 29.3378L32.2183 27.4816C34.116 25.3328 36.8448 24.1021 39.7116 24.1021H52.2267C53.7313 24.1021 55.1854 24.645 56.3218 25.6311L64.7141 32.9135C66.1921 34.1961 65.6894 36.6029 63.8215 37.1867L62.2892 37.6655C60.3226 38.2801 58.1795 37.8856 56.5606 36.6112L54.2008 34.7534C53.9975 34.5934 53.7496 34.5004 53.4913 34.4873L42.3307 33.9198C41.2823 33.8665 40.2595 34.2553 39.5111 34.9916L34.6867 39.7382M83.7059 32.9399H77.1012C74.3991 32.9399 71.8121 31.8461 69.9296 29.9077L68.5267 28.4632C66.6442 26.5248 64.0572 25.431 61.3551 25.431H56.3053M83.7825 55.9801H76.7923M43.1822 52.833L29.1394 66.8758C27.6531 68.3622 25.2432 68.3622 23.7568 66.8758C22.2705 65.3895 22.2705 62.9796 23.7568 61.4932L37.7996 47.4504M50.2191 56.6033L36.1763 70.6461C34.6899 72.1325 32.2801 72.1325 30.7937 70.6461C29.3073 69.1597 29.3073 66.7499 30.7937 65.2635L44.8365 51.2207M48.1005 69.8226L43.3268 74.3821C41.8142 75.8268 39.4247 75.7994 37.9456 74.3203C36.4422 72.8169 36.4422 70.3794 37.9456 68.876L51.9575 54.8641M40.5136 44.7244L26.4708 58.7672C24.9845 60.2536 22.5746 60.2536 21.0882 58.7672C19.6019 57.2808 19.6019 54.871 21.0882 53.3846L35.131 39.3418M1.18848 29.6034V57.6499C1.18848 58.3401 1.74796 58.8995 2.43812 58.8995H12.209C14.2795 58.8995 15.9579 57.2211 15.9579 55.1506V32.1027C15.9579 30.0322 14.2795 28.3538 12.209 28.3538H2.43812C1.74796 28.3538 1.18848 28.9132 1.18848 29.6034ZM98.8111 29.8261V57.8726C98.8111 58.5628 98.2516 59.1223 97.5615 59.1223H87.7906C85.7201 59.1223 84.0417 57.4438 84.0417 55.3733V32.3254C84.0417 30.2549 85.7201 28.5765 87.7906 28.5765H97.5615C98.2516 28.5765 98.8111 29.136 98.8111 29.8261ZM63.002 51.3738L73.1316 61.5269C74.6143 63.0131 74.619 65.4175 73.1421 66.9094C71.6587 68.408 69.2414 68.4202 67.7428 66.9368L57.5502 56.847C56.0344 55.3465 56.0217 52.9015 57.5217 51.3854C59.0289 49.8619 61.4883 49.8567 63.002 51.3738ZM69.2498 46.8949L75.494 53.1794C76.973 54.6679 76.9752 57.0706 75.4989 58.5619C74.014 60.0619 71.5942 60.0742 70.0941 58.5892L63.7981 52.3567C62.2838 50.8578 62.2712 48.4151 63.7698 46.9006C65.2777 45.3766 67.7388 45.3741 69.2498 46.8949ZM58.4153 57.9304L66.4495 65.9987C67.9305 67.486 67.9341 69.8896 66.4575 71.3812C64.9733 72.8805 62.5548 72.8927 61.0556 71.4086L52.9636 63.3982C51.4485 61.8985 51.4358 59.4546 52.9352 57.9391C54.4428 56.4155 56.9029 56.4115 58.4153 57.9304ZM53.8755 64.2226L58.9926 69.3819C60.47 70.8715 60.4712 73.2733 58.9952 74.7643C57.5096 76.2651 55.0887 76.2773 53.588 74.7917L48.4237 69.6796C46.9101 68.1812 46.8975 65.7397 48.3955 64.2258C49.9037 62.7016 52.3655 62.7002 53.8755 64.2226Z" stroke="#017EC6" stroke-linecap="round"/>
</svg>
