<svg width="100" height="100" viewBox="0 0 100 100" fill="none" xmlns="http://www.w3.org/2000/svg">
<path d="M47.6484 27.1474C47.3723 27.1474 47.1484 27.3713 47.1484 27.6474C47.1484 27.9236 47.3723 28.1474 47.6484 28.1474V27.1474ZM68.2354 28.1474C68.5115 28.1474 68.7354 27.9236 68.7354 27.6474C68.7354 27.3713 68.5115 27.1474 68.2354 27.1474V28.1474ZM47.6484 44.9788C47.3723 44.9788 47.1484 45.2027 47.1484 45.4788C47.1484 45.755 47.3723 45.9788 47.6484 45.9788V44.9788ZM68.2354 45.9788C68.5115 45.9788 68.7354 45.755 68.7354 45.4788C68.7354 45.2027 68.5115 44.9788 68.2354 44.9788V45.9788ZM47.6484 62.8106C47.3723 62.8106 47.1484 63.0345 47.1484 63.3106C47.1484 63.5868 47.3723 63.8106 47.6484 63.8106V62.8106ZM68.2354 63.8106C68.5115 63.8106 68.7354 63.5868 68.7354 63.3106C68.7354 63.0345 68.5115 62.8106 68.2354 62.8106V63.8106ZM47.6484 32.5458C47.3723 32.5458 47.1484 32.7696 47.1484 33.0458C47.1484 33.3219 47.3723 33.5458 47.6484 33.5458V32.5458ZM64.0262 33.5458C64.3023 33.5458 64.5262 33.3219 64.5262 33.0458C64.5262 32.7696 64.3023 32.5458 64.0262 32.5458V33.5458ZM47.6484 50.3772C47.3723 50.3772 47.1484 50.601 47.1484 50.8772C47.1484 51.1533 47.3723 51.3772 47.6484 51.3772V50.3772ZM64.0262 51.3772C64.3023 51.3772 64.5262 51.1533 64.5262 50.8772C64.5262 50.601 64.3023 50.3772 64.0262 50.3772V51.3772ZM47.6484 68.209C47.3723 68.209 47.1484 68.4328 47.1484 68.709C47.1484 68.9851 47.3723 69.209 47.6484 69.209V68.209ZM64.0262 69.209C64.3023 69.209 64.5262 68.9851 64.5262 68.709C64.5262 68.4328 64.3023 68.209 64.0262 68.209V69.209ZM34.9206 31.742C34.7297 31.5425 34.4132 31.5355 34.2136 31.7264C34.0141 31.9173 34.0071 32.2338 34.198 32.4333L34.9206 31.742ZM36.269 33.8748L36.6303 33.5292L36.6303 33.5292L36.269 33.8748ZM36.8792 33.8779L36.5214 33.5286L36.5214 33.5286L36.8792 33.8779ZM40.6815 30.6985C40.8744 30.5009 40.8706 30.1844 40.673 29.9915C40.4754 29.7986 40.1588 29.8024 39.9659 30L40.6815 30.6985ZM42.1794 8.06112L42.6794 8.07216V8.06112H42.1794ZM34.9206 49.5734C34.7297 49.3739 34.4132 49.3669 34.2136 49.5578C34.0141 49.7487 34.0071 50.0652 34.198 50.2647L34.9206 49.5734ZM36.269 51.7062L36.6303 51.3606L36.6303 51.3606L36.269 51.7062ZM36.8792 51.7093L36.5214 51.36L36.5214 51.36L36.8792 51.7093ZM40.6815 48.53C40.8744 48.3323 40.8706 48.0158 40.673 47.8229C40.4754 47.63 40.1588 47.6338 39.9659 47.8314L40.6815 48.53ZM34.9206 67.4052C34.7297 67.2057 34.4132 67.1987 34.2136 67.3896C34.0141 67.5805 34.0071 67.897 34.198 68.0965L34.9206 67.4052ZM36.269 69.538L35.9077 69.8837L35.9077 69.8837L36.269 69.538ZM36.8792 69.5411L36.5214 69.1918L36.5214 69.1918L36.8792 69.5411ZM40.6815 66.3618C40.8744 66.1642 40.8706 65.8476 40.673 65.6547C40.4754 65.4618 40.1588 65.4656 39.9659 65.6632L40.6815 66.3618ZM79.045 12.1843V86.8839H80.045V12.1843H79.045ZM76.1508 89.7781H23.8488V90.7781H76.1508V89.7781ZM20.9546 86.8839V12.1843H19.9546V86.8839H20.9546ZM58.5612 9.29014H76.1508V8.29014H58.5612V9.29014ZM23.8488 9.29014H41.9545V8.29014H23.8488V9.29014ZM23.8488 89.7781C22.2504 89.7781 20.9546 88.4823 20.9546 86.8839H19.9546C19.9546 89.0346 21.6981 90.7781 23.8488 90.7781V89.7781ZM79.045 86.8839C79.045 88.4823 77.7492 89.7781 76.1508 89.7781V90.7781C78.3015 90.7781 80.045 89.0346 80.045 86.8839H79.045ZM80.045 12.1843C80.045 10.0336 78.3015 8.29014 76.1508 8.29014V9.29014C77.7492 9.29014 79.045 10.5859 79.045 12.1843H80.045ZM20.9546 12.1843C20.9546 10.5859 22.2504 9.29014 23.8488 9.29014V8.29014C21.6981 8.29014 19.9546 10.0336 19.9546 12.1843H20.9546ZM73.7245 17.7581V81.0996H74.7245V17.7581H73.7245ZM71.6789 83.1452H29.8139V84.1452H71.6789V83.1452ZM27.7683 81.0996V17.7581H26.7683V81.0996H27.7683ZM65.9959 15.7125H71.6789V14.7125H65.9959V15.7125ZM29.8139 15.7125H34.8432V14.7125H29.8139V15.7125ZM29.8139 83.1452C28.6842 83.1452 27.7683 82.2294 27.7683 81.0996H26.7683C26.7683 82.7816 28.1319 84.1452 29.8139 84.1452V83.1452ZM73.7245 81.0996C73.7245 82.2294 72.8087 83.1452 71.6789 83.1452V84.1452C73.3609 84.1452 74.7245 82.7816 74.7245 81.0996H73.7245ZM74.7245 17.7581C74.7245 16.0761 73.361 14.7125 71.6789 14.7125V15.7125C72.8087 15.7125 73.7245 16.6284 73.7245 17.7581H74.7245ZM27.7683 17.7581C27.7683 16.6284 28.6842 15.7125 29.8139 15.7125V14.7125C28.1319 14.7125 26.7683 16.0761 26.7683 17.7581H27.7683ZM47.6484 28.1474H68.2354V27.1474H47.6484V28.1474ZM47.6484 45.9788H68.2354V44.9788H47.6484V45.9788ZM47.6484 63.8106H68.2354V62.8106H47.6484V63.8106ZM47.6484 33.5458H64.0262V32.5458H47.6484V33.5458ZM47.6484 51.3772H64.0262V50.3772H47.6484V51.3772ZM47.6484 69.209H64.0262V68.209H47.6484V69.209ZM33.4253 26.4893H41.4579V25.4893H33.4253V26.4893ZM42.655 27.6864V35.719H43.655V27.6864H42.655ZM41.4579 36.9161H33.4253V37.9161H41.4579V36.9161ZM32.2282 35.719V27.6864H31.2282V35.719H32.2282ZM33.4253 36.9161C32.7641 36.9161 32.2282 36.3802 32.2282 35.719H31.2282C31.2282 36.9325 32.2118 37.9161 33.4253 37.9161V36.9161ZM42.655 35.719C42.655 36.3802 42.1191 36.9161 41.4579 36.9161V37.9161C42.6713 37.9161 43.655 36.9325 43.655 35.719H42.655ZM41.4579 26.4893C42.1191 26.4893 42.655 27.0252 42.655 27.6864H43.655C43.655 26.4729 42.6713 25.4893 41.4579 25.4893V26.4893ZM33.4253 25.4893C32.2118 25.4893 31.2282 26.4729 31.2282 27.6864H32.2282C32.2282 27.0252 32.7641 26.4893 33.4253 26.4893V25.4893ZM34.198 32.4333L35.9077 34.2205L36.6303 33.5292L34.9206 31.742L34.198 32.4333ZM37.237 34.2272L40.6815 30.6985L39.9659 30L36.5214 33.5286L37.237 34.2272ZM35.9077 34.2205C36.2692 34.5983 36.8718 34.6013 37.237 34.2272L36.5214 33.5286C36.5513 33.498 36.6007 33.4982 36.6303 33.5292L35.9077 34.2205ZM65.6513 13.7971V16.1389H66.6513V13.7971H65.6513ZM64.4542 17.336H36.3073V18.336H64.4542V17.336ZM35.1102 16.1389V13.7971H34.1102V16.1389H35.1102ZM36.3073 12.6H38.0503V11.6H36.3073V12.6ZM62.3684 12.6H64.4542V11.6H62.3684V12.6ZM36.3073 17.336C35.6462 17.336 35.1102 16.8001 35.1102 16.1389H34.1102C34.1102 17.3524 35.0939 18.336 36.3073 18.336V17.336ZM65.6513 16.1389C65.6513 16.8001 65.1153 17.336 64.4542 17.336V18.336C65.6676 18.336 66.6513 17.3524 66.6513 16.1389H65.6513ZM66.6513 13.7971C66.6513 12.5837 65.6676 11.6 64.4542 11.6V12.6C65.1153 12.6 65.6513 13.136 65.6513 13.7971H66.6513ZM35.1102 13.7971C35.1102 13.136 35.6462 12.6 36.3073 12.6V11.6C35.0939 11.6 34.1102 12.5837 34.1102 13.7971H35.1102ZM43.7127 6.86401H56.6324V5.86401H43.7127V6.86401ZM56.6324 6.86401C57.2936 6.86401 57.8295 7.39998 57.8295 8.06112H58.8295C58.8295 6.84769 57.8458 5.86401 56.6324 5.86401V6.86401ZM43.7127 5.86401C42.4345 5.86401 41.6794 6.91727 41.6794 8.06112H42.6794C42.6794 7.3304 43.1163 6.86401 43.7127 6.86401V5.86401ZM62.3684 11.6C60.4139 11.6 58.8295 10.0156 58.8295 8.06112H57.8295C57.8295 10.5679 59.8617 12.6 62.3684 12.6V11.6ZM38.0503 12.6C40.5676 12.6 42.6237 10.5888 42.6793 8.07216L41.6795 8.05008C41.6359 10.0232 40.0239 11.6 38.0503 11.6V12.6ZM33.4253 44.3207H41.4579V43.3207H33.4253V44.3207ZM42.655 45.5178V53.5504H43.655V45.5178H42.655ZM41.4579 54.7475H33.4253V55.7475H41.4579V54.7475ZM32.2282 53.5504V45.5178H31.2282V53.5504H32.2282ZM33.4253 54.7475C32.7641 54.7475 32.2282 54.2116 32.2282 53.5504H31.2282C31.2282 54.7639 32.2118 55.7475 33.4253 55.7475V54.7475ZM42.655 53.5504C42.655 54.2116 42.1191 54.7475 41.4579 54.7475V55.7475C42.6713 55.7475 43.655 54.7639 43.655 53.5504H42.655ZM41.4579 44.3207C42.1191 44.3207 42.655 44.8566 42.655 45.5178H43.655C43.655 44.3043 42.6713 43.3207 41.4579 43.3207V44.3207ZM33.4253 43.3207C32.2118 43.3207 31.2282 44.3043 31.2282 45.5178H32.2282C32.2282 44.8566 32.7641 44.3207 33.4253 44.3207V43.3207ZM34.198 50.2647L35.9077 52.0519L36.6303 51.3606L34.9206 49.5734L34.198 50.2647ZM37.237 52.0586L40.6815 48.53L39.9659 47.8314L36.5214 51.36L37.237 52.0586ZM35.9077 52.0519C36.2692 52.4297 36.8718 52.4327 37.237 52.0586L36.5214 51.36C36.5513 51.3294 36.6007 51.3296 36.6303 51.3606L35.9077 52.0519ZM33.4253 62.1525H41.4579V61.1525H33.4253V62.1525ZM42.655 63.3496V71.3822H43.655V63.3496H42.655ZM41.4579 72.5794H33.4253V73.5794H41.4579V72.5794ZM32.2282 71.3822V63.3496H31.2282V71.3822H32.2282ZM33.4253 72.5794C32.7641 72.5794 32.2282 72.0434 32.2282 71.3822H31.2282C31.2282 72.5957 32.2118 73.5794 33.4253 73.5794V72.5794ZM42.655 71.3822C42.655 72.0434 42.1191 72.5794 41.4579 72.5794V73.5794C42.6713 73.5794 43.655 72.5957 43.655 71.3822H42.655ZM41.4579 62.1525C42.1191 62.1525 42.655 62.6884 42.655 63.3496H43.655C43.655 62.1362 42.6713 61.1525 41.4579 61.1525V62.1525ZM33.4253 61.1525C32.2118 61.1525 31.2282 62.1362 31.2282 63.3496H32.2282C32.2282 62.6884 32.7641 62.1525 33.4253 62.1525V61.1525ZM34.198 68.0965L35.9077 69.8837L36.6303 69.1924L34.9206 67.4052L34.198 68.0965ZM37.237 69.8904L40.6815 66.3618L39.9659 65.6632L36.5214 69.1918L37.237 69.8904ZM35.9077 69.8837C36.2692 70.2615 36.8718 70.2645 37.237 69.8904L36.5214 69.1918C36.5513 69.1612 36.6007 69.1614 36.6303 69.1924L35.9077 69.8837Z" fill="#017EC6"/>
</svg>
