<svg width="100" height="100" viewBox="0 0 100 100" fill="none" xmlns="http://www.w3.org/2000/svg">
<path d="M58.5612 8.79014H76.1508C78.0253 8.79014 79.545 10.3098 79.545 12.1843V86.8839C79.545 88.7584 78.0253 90.2781 76.1508 90.2781H23.8488C21.9742 90.2781 20.4546 88.7584 20.4546 86.8839V12.1843C20.4546 10.3098 21.9742 8.79014 23.8488 8.79014H41.9545M65.9959 15.2125H71.6789C73.0848 15.2125 74.2245 16.3522 74.2245 17.7581V81.0996C74.2245 82.5055 73.0848 83.6452 71.6789 83.6452H29.8139C28.408 83.6452 27.2683 82.5055 27.2683 81.0996V17.7581C27.2683 16.3522 28.408 15.2125 29.8139 15.2125H34.8432M47.6484 27.6474H68.2354M47.6484 45.4788H68.2354M47.6484 63.3106H68.2354M47.6484 33.0458H64.0262M47.6484 50.8772H64.0262M47.6484 68.709H64.0262M34.5593 32.0877L36.269 33.8748C36.4349 34.0482 36.7116 34.0496 36.8792 33.8779L40.3237 30.3493M34.5593 49.9191L36.269 51.7062C36.4349 51.8796 36.7116 51.881 36.8792 51.7093L40.3237 48.1807M34.5593 67.7509L36.269 69.538C36.4349 69.7115 36.7116 69.7128 36.8792 69.5411L40.3237 66.0125M33.4253 37.4161H41.4579C42.3952 37.4161 43.155 36.6563 43.155 35.719V27.6864C43.155 26.7491 42.3952 25.9893 41.4579 25.9893H33.4253C32.488 25.9893 31.7282 26.7491 31.7282 27.6864V35.719C31.7282 36.6563 32.488 37.4161 33.4253 37.4161ZM66.1513 13.7971V16.1389C66.1513 17.0762 65.3915 17.836 64.4542 17.836H36.3074C35.3701 17.836 34.6102 17.0762 34.6102 16.1389V13.7971C34.6102 12.8598 35.3701 12.1 36.3074 12.1H38.0503C40.2958 12.1 42.1298 10.306 42.1794 8.06112C42.1794 7.12383 42.7754 6.36401 43.7127 6.36401H56.6324C57.5697 6.36401 58.3295 7.12383 58.3295 8.06112C58.3295 10.2917 60.1378 12.1 62.3684 12.1H64.4542C65.3915 12.1 66.1513 12.8598 66.1513 13.7971ZM33.4253 55.2475H41.4579C42.3952 55.2475 43.155 54.4877 43.155 53.5504V45.5178C43.155 44.5805 42.3952 43.8207 41.4579 43.8207H33.4253C32.488 43.8207 31.7282 44.5805 31.7282 45.5178V53.5504C31.7282 54.4877 32.488 55.2475 33.4253 55.2475ZM33.4253 73.0794H41.4579C42.3952 73.0794 43.155 72.3195 43.155 71.3822V63.3496C43.155 62.4123 42.3952 61.6525 41.4579 61.6525H33.4253C32.488 61.6525 31.7282 62.4123 31.7282 63.3496V71.3822C31.7282 72.3195 32.488 73.0794 33.4253 73.0794Z" stroke="#017EC6"/>
</svg>
