<svg width="200" height="200" viewBox="0 0 200 200" fill="none" xmlns="http://www.w3.org/2000/svg">
<path d="M59.1689 133.313H68.6587C71.4201 133.313 73.6587 131.075 73.6587 128.313V127.806C73.6587 125.045 71.4201 122.806 68.6587 122.806H64.1689C61.4075 122.806 59.1689 120.567 59.1689 117.806V117.214C59.1689 114.453 61.4075 112.214 64.1689 112.214H72.9807M66.1172 133.582V138.313M66.1172 107.483V112.214M115.365 159.039H76.7773M113.843 145.334H96.0713M114.318 130.651H102.652M114.318 115.431H102.652M113.685 100.229H96.0713M93.5665 122.981C93.5665 138.46 81.0186 151.007 65.5399 151.007C50.0612 151.007 37.5133 138.46 37.5133 122.981C37.5133 107.502 50.0612 94.9542 65.5399 94.9542C81.0186 94.9542 93.5665 107.502 93.5665 122.981ZM103.205 122.981C103.205 143.783 86.3417 160.646 65.5399 160.646C44.7382 160.646 27.875 143.783 27.875 122.981C27.875 102.179 44.7382 85.3159 65.5399 85.3159C86.3417 85.3159 103.205 102.179 103.205 122.981ZM119.318 160.646H167.126C169.887 160.646 172.126 158.407 172.126 155.646V90.3159C172.126 87.5545 169.887 85.3159 167.126 85.3159H119.318C116.556 85.3159 114.318 87.5545 114.318 90.3159V155.646C114.318 158.407 116.556 160.646 119.318 160.646ZM125.139 111.494H162.548C164.205 111.494 165.548 110.151 165.548 108.494V95.6147C165.548 93.9579 164.205 92.6147 162.548 92.6147H125.139C123.482 92.6147 122.139 93.9579 122.139 95.6147V108.494C122.139 110.151 123.482 111.494 125.139 111.494ZM55.9033 85.3159H128.314C131.076 85.3159 133.314 83.0773 133.314 80.3159V74.9954C133.314 72.2339 131.076 69.9954 128.314 69.9954H55.9033C53.1419 69.9954 50.9033 72.2339 50.9033 74.9954V80.3159C50.9033 83.0773 53.1419 85.3159 55.9033 85.3159ZM64.8196 69.9954H137.231C139.992 69.9954 142.231 67.7568 142.231 64.9954V59.6748C142.231 56.9134 139.992 54.6748 137.231 54.6748H64.8196C62.0582 54.6748 59.8196 56.9134 59.8196 59.6748V64.9954C59.8196 67.7568 62.0582 69.9954 64.8196 69.9954ZM54.9119 54.6748H127.323C130.084 54.6748 132.323 52.4362 132.323 49.6748V44.3542C132.323 41.5928 130.084 39.3542 127.323 39.3542H54.9119C52.1504 39.3542 49.9119 41.5928 49.9119 44.3542V49.6748C49.9119 52.4362 52.1504 54.6748 54.9119 54.6748ZM124.152 126.377H131.314C132.419 126.377 133.314 125.482 133.314 124.377V119.42C133.314 118.315 132.419 117.42 131.314 117.42H124.152C123.047 117.42 122.152 118.315 122.152 119.42V124.377C122.152 125.482 123.047 126.377 124.152 126.377ZM124.152 140.334H131.314C132.419 140.334 133.314 139.439 133.314 138.334V133.377C133.314 132.273 132.419 131.377 131.314 131.377H124.152C123.047 131.377 122.152 132.273 122.152 133.377V138.334C122.152 139.439 123.047 140.334 124.152 140.334ZM139.965 140.334H147.127C148.232 140.334 149.127 139.439 149.127 138.334V133.377C149.127 132.273 148.232 131.377 147.127 131.377H139.965C138.86 131.377 137.965 132.273 137.965 133.377V138.334C137.965 139.439 138.86 140.334 139.965 140.334ZM139.965 154.292H147.127C148.232 154.292 149.127 153.396 149.127 152.292V147.335C149.127 146.23 148.232 145.335 147.127 145.335H139.965C138.86 145.335 137.965 146.23 137.965 147.335V152.292C137.965 153.396 138.86 154.292 139.965 154.292ZM124.152 154.292H131.314C132.419 154.292 133.314 153.396 133.314 152.292V147.335C133.314 146.23 132.419 145.335 131.314 145.335H124.152C123.047 145.335 122.152 146.23 122.152 147.335V152.292C122.152 153.396 123.047 154.292 124.152 154.292ZM139.965 126.377H147.127C148.232 126.377 149.127 125.482 149.127 124.377V119.42C149.127 118.315 148.232 117.42 147.127 117.42H139.965C138.86 117.42 137.965 118.315 137.965 119.42V124.377C137.965 125.482 138.86 126.377 139.965 126.377ZM155.791 126.377H162.953C164.058 126.377 164.953 125.482 164.953 124.377V119.42C164.953 118.315 164.058 117.42 162.953 117.42H155.791C154.686 117.42 153.791 118.315 153.791 119.42V124.377C153.791 125.482 154.686 126.377 155.791 126.377ZM155.791 153.292H162.953C164.058 153.292 164.953 152.396 164.953 151.292V133.377C164.953 132.273 164.058 131.377 162.953 131.377H155.791C154.686 131.377 153.791 132.273 153.791 133.377V151.292C153.791 152.396 154.686 153.292 155.791 153.292Z" stroke="#017EC6" stroke-width="2" stroke-linecap="round"/>
</svg>
