<svg width="239" height="59" viewBox="0 0 239 59" fill="none" xmlns="http://www.w3.org/2000/svg">
<path d="M57.7874 8.23248V11.9954L0.664551 32.6816V8.23248C0.664551 7.12791 1.55998 6.23248 2.66455 6.23248H55.7874C56.892 6.23248 57.7874 7.12791 57.7874 8.23248Z" fill="url(#paint0_linear_61_2)"/>
<path d="M57.8001 33.6406C57.8001 27.8648 52.1754 23.7623 46.6758 25.5268C42.2681 26.941 39.2784 31.04 39.2784 35.669V58.423H55.8001C56.9047 58.423 57.8001 57.5276 57.8001 56.423V33.6406Z" fill="url(#paint1_linear_61_2)"/>
<path d="M32.7255 39.1084C32.7255 34.4933 28.2364 31.2115 23.8388 32.6118C20.0674 33.8127 17.5064 37.3159 17.5064 41.2739V58.4226H32.7255V39.1084Z" fill="url(#paint2_linear_61_2)"/>
<path d="M11.8876 43.2364C11.8876 39.8586 8.61748 37.4457 5.38995 38.442C2.58574 39.3076 0.673076 41.8998 0.673076 44.8346L0.673076 56.4384C0.673076 57.5429 1.56851 58.4384 2.67308 58.4384H11.8876V43.2364Z" fill="url(#paint3_linear_61_2)"/>
<path d="M147.674 58.3676V36.5503H150.479V55.3755L160.453 36.5503H163.258V58.3676H160.453V39.5735L150.479 58.3676H147.674Z" fill="white"/>
<path d="M126.06 58.3676V56.965H127.462C127.795 55.5729 128.148 53.8794 128.522 51.8847C129.81 45.4019 130.621 41.5163 130.953 40.2281C131.285 38.9398 131.691 38.0567 132.169 37.5788C132.917 36.8931 133.81 36.5503 134.849 36.5503H141.737V56.965H143.139V58.3676H126.06ZM138.932 37.9528H134.849C134.205 37.9528 133.696 38.2022 133.322 38.7008C133.114 38.9502 132.885 39.5839 132.636 40.6021C132.407 41.6202 131.867 44.2383 131.015 48.4563L129.239 56.965H138.932V37.9528Z" fill="white"/>
<path d="M97.1958 36.5502H100.001V46.2122H103.18C103.45 44.5499 103.855 43.1681 104.396 42.0669C104.957 40.9656 105.767 39.9371 106.827 38.9813C108.863 37.132 111.284 36.2074 114.089 36.2074C117.143 36.2074 119.73 37.2982 121.849 39.48C123.99 41.6617 125.06 44.3213 125.06 47.4589C125.06 50.5756 123.99 53.2352 121.849 55.4377C119.709 57.6403 117.122 58.7415 114.089 58.7415C111.138 58.7415 108.593 57.6922 106.453 55.5936C105.123 54.2638 104.188 52.7262 103.647 50.9808C103.398 50.2535 103.222 49.1315 103.118 47.6147H100.001V58.3675H97.1958V36.5502ZM119.605 40.5708C118.047 38.5761 116.218 37.5787 114.12 37.5787C112.021 37.5787 110.182 38.5761 108.603 40.5708C107.024 42.5655 106.234 44.8823 106.234 47.5212C106.234 50.1808 107.014 52.4872 108.572 54.4404C110.13 56.3728 111.98 57.339 114.12 57.339C116.239 57.339 118.068 56.3728 119.605 54.4404C121.164 52.508 121.943 50.2224 121.943 47.5835C121.943 44.9031 121.164 42.5655 119.605 40.5708Z" fill="white"/>
<path d="M78.662 58.3676H76.8854L77.5399 55.1573C78.9944 48.3213 79.7217 44.8617 79.7217 44.7785C80.2203 41.9942 80.6047 40.1761 80.8749 39.3242C81.145 38.4515 81.5398 37.8178 82.0592 37.423C82.8072 36.8412 83.6384 36.5503 84.5526 36.5503H91.4407V58.3676H88.6356V37.9529H84.5526C84.0124 37.9529 83.5656 38.1295 83.2124 38.4827C82.9423 38.732 82.693 39.2619 82.4644 40.0722C82.2566 40.8826 81.9138 42.5449 81.4359 45.0591C80.7086 48.6329 79.784 53.0691 78.662 58.3676Z" fill="white"/>
<path d="M227.38 6.06371H238.725V7.46625H230.186V15.7257H237.728V17.1282H230.186V26.4785H238.725V27.881H227.38V6.06371Z" fill="white"/>
<path d="M206.591 27.881V6.06371H209.396V12.8894H210.705C213.323 12.8894 215.349 13.5543 216.783 14.8841C218.237 16.2139 218.965 18.0944 218.965 20.5255C218.965 22.915 218.258 24.7435 216.845 26.011C215.453 27.2577 213.427 27.881 210.768 27.881H206.591ZM209.396 26.4785H210.768C212.409 26.4785 213.697 25.9382 214.632 24.8577C215.588 23.7773 216.066 22.2916 216.066 20.4008C216.066 18.5515 215.495 17.0555 214.352 15.9127C213.313 14.8322 212.097 14.2919 210.705 14.2919H209.396V26.4785ZM220.523 6.06371H223.328V27.881H220.523V6.06371Z" fill="white"/>
<path d="M188.091 6.06371V15.7257H198.065V6.06371H200.87V27.881H198.065V17.1282H188.091V27.881H185.286V6.06371H188.091Z" fill="white"/>
<path d="M169.785 6.06371V16.5048L178.854 6.06371H180.974L173.057 15.1023L181.286 27.881H177.795L170.969 17.4399L169.785 18.6866V27.881H166.98V18.6866L165.795 17.4399L158.97 27.881H155.479L163.707 15.1023L155.79 6.06371H157.91L166.98 16.5048V6.06371H169.785Z" fill="white"/>
<path d="M118.904 27.881V26.4785H120.306C120.639 25.0863 120.992 23.3929 121.366 21.3982C122.654 14.9153 123.464 11.0297 123.797 9.74149C124.129 8.45323 124.535 7.57014 125.012 7.09224C125.76 6.40656 126.654 6.06371 127.693 6.06371H134.581V26.4785H135.983V27.881H118.904ZM131.776 7.46625H127.693C127.049 7.46625 126.54 7.71559 126.166 8.21427C125.958 8.46362 125.729 9.09736 125.48 10.1155C125.251 11.1336 124.711 13.7517 123.859 17.9697L122.083 26.4785H131.776V7.46625Z" fill="white"/>
<path d="M105.174 6.06371H107.668L115.179 27.881H112.187L110.067 21.8345H101.808L99.9068 27.881H98.3796C100.104 22.2916 101.237 18.6658 101.777 17.0035C102.026 16.1724 102.379 15.0296 102.837 13.5751C103.294 12.1206 103.709 10.7804 104.083 9.55448C104.478 8.30778 104.842 7.14419 105.174 6.06371ZM102.151 20.4008H109.6L105.704 9.2428C103.979 14.7075 102.795 18.4268 102.151 20.4008Z" fill="white"/>
<path d="M81.8764 6.06371V15.7257H91.85V6.06371H94.6551V27.881H91.85V17.1282H81.8764V27.881H79.0713V6.06371H81.8764Z" fill="white"/>
<path d="M140.655 6.06371H152V7.46625H143.46V15.7257H151.003V17.1282H143.46V26.4785H152V27.881H140.655V6.06371Z" fill="white"/>
<path d="M142.92 0.940186H144.649V3.28432H142.92V0.940186Z" fill="white"/>
<path d="M147.824 0.940186H149.553V3.28432H147.824V0.940186Z" fill="white"/>
<defs>
<linearGradient id="paint0_linear_61_2" x1="0.664547" y1="1.34949" x2="8.55574" y2="93.3598" gradientUnits="userSpaceOnUse">
<stop stop-color="#5FC1FF"/>
<stop offset="1" stop-color="#185C95"/>
</linearGradient>
<linearGradient id="paint1_linear_61_2" x1="0.664547" y1="1.34949" x2="8.55574" y2="93.3598" gradientUnits="userSpaceOnUse">
<stop stop-color="#5FC1FF"/>
<stop offset="1" stop-color="#185C95"/>
</linearGradient>
<linearGradient id="paint2_linear_61_2" x1="0.664547" y1="1.34949" x2="8.55574" y2="93.3598" gradientUnits="userSpaceOnUse">
<stop stop-color="#5FC1FF"/>
<stop offset="1" stop-color="#185C95"/>
</linearGradient>
<linearGradient id="paint3_linear_61_2" x1="0.664547" y1="1.34949" x2="8.55574" y2="93.3598" gradientUnits="userSpaceOnUse">
<stop stop-color="#5FC1FF"/>
<stop offset="1" stop-color="#185C95"/>
</linearGradient>
</defs>
</svg>
