<svg width="119" height="119" viewBox="0 0 119 119" fill="none" xmlns="http://www.w3.org/2000/svg">
<path d="M76.2597 104.676C76.2707 104.676 76.2797 104.667 76.2797 104.656V86.8259C76.2797 86.2736 75.832 85.8259 75.2797 85.8259H72.6797C72.1274 85.8259 71.6797 85.3782 71.6797 84.8259V77.4446C71.6797 76.9128 72.0959 76.4739 72.6271 76.4457C73.428 76.403 74.2634 76.3584 75.0532 76.3175C75.2023 76.3098 75.35 76.2718 75.4741 76.1888C76.3246 75.6193 76.2897 74.795 76.2897 73.9359C76.2704 68.7453 76.2791 63.5454 76.2797 58.3542C76.2797 58.0181 76.4446 57.6869 76.7662 57.5894C78.0518 57.1996 79.6554 58.0867 80.7511 56.7679C80.876 56.6176 80.9297 56.4218 80.9297 56.2265V48.6545C80.9297 48.4534 80.8728 48.2524 80.7418 48.0998C79.7701 46.968 78.4519 47.4519 77.116 47.3804C76.6645 47.3562 76.3597 46.9518 76.3597 46.4997V39.4639C76.3597 39.257 76.2981 39.051 76.1644 38.8931C75.0296 37.5517 73.6684 38.0639 72.3961 37.9697C71.9668 37.938 71.6897 37.5455 71.6897 37.1151V34.3759C71.6897 33.8236 72.1374 33.3759 72.6897 33.3759H75.2797C75.832 33.3759 76.2797 32.9282 76.2797 32.3759V29.5259C76.2797 28.9736 76.7274 28.5259 77.2797 28.5259H79.5661C79.8369 28.5259 80.0959 28.6358 80.2856 28.8289C80.4336 28.9794 80.59 29.1377 80.7643 29.3149C80.9475 29.5011 81.0497 29.7521 81.0497 30.0134V41.6259C81.0497 42.1782 81.4974 42.6259 82.0497 42.6259H93.6655C93.9307 42.6259 94.1851 42.7313 94.3726 42.9188C94.4956 43.0418 94.6119 43.1581 94.7368 43.2829C94.9243 43.4705 95.0297 43.7249 95.0297 43.9901V46.2959C95.0297 46.8482 94.582 47.2959 94.0297 47.2959H86.8097C86.2574 47.2959 85.8097 47.7436 85.8097 48.2959V51.7159C85.8097 52.2682 86.2574 52.7159 86.8097 52.7159H89.3797C89.932 52.7159 90.3797 53.1636 90.3797 53.7159V56.4659C90.3797 57.0182 90.8274 57.4659 91.3797 57.4659H94.0797C94.632 57.4659 95.0797 57.9136 95.0797 58.4659V60.4259C95.0797 60.9782 94.632 61.4259 94.0797 61.4259H91.5297C90.9774 61.4259 90.5297 61.8736 90.5297 62.4259V65.1759C90.5297 65.7282 90.082 66.1759 89.5297 66.1759H86.7797C86.2274 66.1759 85.7797 66.6236 85.7797 67.1759V69.9259C85.7797 70.4782 85.332 70.9259 84.7797 70.9259H82.1297C81.5774 70.9259 81.1297 71.3736 81.1297 71.9259V75.2959C81.1297 75.8482 81.5774 76.2959 82.1297 76.2959H93.7855C94.0507 76.2959 94.305 76.1905 94.4926 76.003C94.5838 75.9118 94.6766 75.8189 94.7768 75.7188C94.9643 75.5313 95.0697 75.2769 95.0697 75.0117V72.7959C95.0697 72.2436 95.5174 71.7959 96.0697 71.7959H98.8197C99.372 71.7959 99.8197 72.2436 99.8197 72.7959V75.2359C99.8197 75.7882 100.267 76.2359 100.82 76.2359H103.549C104.09 76.2359 104.533 76.6656 104.545 77.206C104.627 80.8561 104.56 84.4202 104.57 87.9759C104.579 91.5704 104.571 95.1734 104.57 98.9557C104.57 99.508 105.017 99.9559 105.57 99.9559H108.29C108.842 99.9559 109.29 100.404 109.29 100.956V103.242C109.29 103.513 109.18 103.772 108.987 103.962C108.836 104.11 108.678 104.266 108.501 104.441C108.314 104.624 108.063 104.726 107.802 104.726H100.93C100.377 104.726 99.9297 105.174 99.9297 105.726V108.356C99.9297 108.908 100.377 109.356 100.93 109.356H103.5C104.052 109.356 104.5 109.804 104.5 110.356V113.106C104.5 113.658 104.052 114.106 103.5 114.106H96.1297C95.5774 114.106 95.1297 113.658 95.1297 113.106V105.656C95.1297 105.104 94.682 104.656 94.1297 104.656H91.3797C90.8274 104.656 90.3797 104.208 90.3797 103.656V101.036C90.3797 100.484 89.932 100.036 89.3797 100.036H82.0297C81.4774 100.036 81.0297 100.484 81.0297 101.036V103.182C81.0297 103.447 80.924 103.701 80.7375 103.89C80.5637 104.065 80.41 104.222 80.2646 104.372C80.0758 104.566 79.8169 104.676 79.5461 104.676H76.2597V104.676ZM82.1097 81.1459C81.5574 81.1459 81.1097 81.5936 81.1097 82.1459V94.2346C81.1097 94.7952 81.5704 95.2459 82.1309 95.2392C86.2047 95.1903 90.19 95.3415 94.0868 95.1732C94.6163 95.1503 95.0297 94.7117 95.0297 94.1817V82.1459C95.0297 81.5936 94.582 81.1459 94.0297 81.1459H82.1097Z" fill="white"/>
<path d="M4.84922 76.3559C4.84922 76.3669 4.85817 76.3759 4.86922 76.3759H8.39922C8.9515 76.3759 9.39922 75.9282 9.39922 75.3759V72.0659C9.39922 71.5136 8.9515 71.0659 8.39922 71.0659H5.99922C5.44693 71.0659 4.99922 70.6182 4.99922 70.0659V67.9859C4.99922 67.4336 5.44693 66.9859 5.99922 66.9859H8.43922C8.9915 66.9859 9.43922 66.5382 9.43922 65.9859V58.0159C9.43922 57.4636 8.9915 57.0159 8.43922 57.0159H6.09343C5.82822 57.0159 5.57389 57.1212 5.38635 57.3088C5.33002 57.3651 5.26883 57.4263 5.20219 57.4929C5.01465 57.6805 4.90922 57.9349 4.90922 58.2001V65.1259C4.90922 65.6782 4.4615 66.1259 3.90922 66.1259H1.19922C0.646933 66.1259 0.199219 65.6782 0.199219 65.1259V53.9059C0.199219 53.3536 0.646934 52.9059 1.19922 52.9059H8.55922C9.1115 52.9059 9.55922 52.4581 9.55922 51.9058C9.55922 50.6426 9.55922 49.4293 9.55922 48.2159C9.55922 46.6459 9.55922 45.0759 9.55922 43.4959V39.3901C9.55922 39.1249 9.66461 38.8705 9.85215 38.683C9.97322 38.5619 10.0839 38.4512 10.1963 38.3388C10.3839 38.1513 10.6382 38.0459 10.9034 38.0459H13.1492C13.7015 38.0459 14.1492 38.4936 14.1492 39.0459V46.5328C14.1492 46.815 14.2684 47.0841 14.4774 47.2736C14.659 47.4382 14.8268 47.59 14.9953 47.7416C15.1778 47.9057 15.4149 47.9959 15.6604 47.9959H17.9392C18.4915 47.9959 18.9392 47.5482 18.9392 46.9959V39.4501C18.9392 39.1849 19.0446 38.9305 19.2321 38.743C19.357 38.6181 19.4733 38.5018 19.5963 38.3788C19.7838 38.1913 20.0382 38.0859 20.3034 38.0859H22.6192C23.1715 38.0859 23.6192 38.5336 23.6192 39.0859V46.5517C23.6192 46.8169 23.7247 47.0714 23.9122 47.2589C24.0849 47.4315 24.2226 47.5693 24.3563 47.703C24.5439 47.8906 24.7982 47.9959 25.0634 47.9959H32.0192C32.5715 47.9959 33.0192 47.5482 33.0192 46.9959V44.229C33.0192 43.9468 33.1386 43.6779 33.3466 43.4872C33.5263 43.3225 33.6919 43.1698 33.8566 43.0202C34.0378 42.8555 34.2745 42.7659 34.5194 42.7659H41.5292C42.0815 42.7659 42.5292 43.2136 42.5292 43.7659V46.5917C42.5292 46.8569 42.6346 47.1113 42.8221 47.2988L43.1863 47.663C43.3739 47.8505 43.6282 47.9559 43.8934 47.9559H55.6392C56.1915 47.9559 56.6392 48.4036 56.6392 48.9559V51.3523C56.6392 51.7595 56.8861 52.1268 57.2522 52.3052C57.7189 52.5326 58.1291 52.7418 58.5392 52.7559C60.8919 52.8324 63.2446 52.79 65.4923 52.7862C65.6924 52.7858 65.892 52.729 66.0458 52.6011C67.2579 51.5922 66.7973 50.2708 66.8508 48.9821C66.8695 48.5308 67.273 48.2259 67.7247 48.2259H69.8392C70.3915 48.2259 70.8392 48.6736 70.8392 49.2259V51.3017C70.8392 51.5669 70.9446 51.8213 71.1321 52.0088L71.4963 52.373C71.6839 52.5605 71.9382 52.6659 72.2034 52.6659H75.1192C75.6715 52.6659 76.1192 53.1136 76.1192 53.6659V55.7459C76.1192 56.2982 75.6715 56.7459 75.1192 56.7459H72.3934C72.1282 56.7459 71.8739 56.8513 71.6863 57.0388L71.1921 57.533C71.0046 57.7205 70.8992 57.9749 70.8992 58.2401V60.3659C70.8992 60.9182 70.4515 61.3659 69.8992 61.3659H67.9392C67.3869 61.3659 66.9392 60.9182 66.9392 60.3659V58.3401C66.9392 58.0749 66.8338 57.8205 66.6463 57.633C66.4385 57.4252 66.2499 57.2366 66.0422 57.0288C65.8546 56.8413 65.6002 56.7359 65.335 56.7359H53.7092C53.1569 56.7359 52.7092 56.2882 52.7092 55.7359V53.4958C52.7092 53.2877 52.6474 53.0805 52.5111 52.9233C51.4245 51.6701 50.089 52.1781 48.9085 52.1382C48.5581 52.1263 48.1976 52.2175 47.9497 52.4655L47.6021 52.813C47.4146 53.0005 47.3092 53.2549 47.3092 53.5201V55.8631C47.3092 56.3321 46.9833 56.7437 46.5166 56.7902C45.6205 56.8794 44.7093 56.8186 43.7682 56.8221C43.182 56.8243 42.6792 56.362 42.6792 55.7758V53.1998C42.6792 52.6383 42.2164 52.1808 41.6561 52.1437C40.4613 52.0648 39.3093 51.9316 38.2222 52.7077C37.9935 52.871 37.8792 53.146 37.8792 53.4271V55.7159C37.8792 56.2682 37.4315 56.7159 36.8792 56.7159H34.2392C33.6869 56.7159 33.2392 56.2682 33.2392 55.7159V53.2059C33.2392 52.6536 32.7915 52.2059 32.2392 52.2059H29.7634C29.4982 52.2059 29.2439 52.3113 29.0563 52.4988C28.9516 52.6035 28.8428 52.7123 28.7321 52.823C28.5446 53.0105 28.4392 53.2649 28.4392 53.5301V55.6559C28.4392 56.2082 27.9915 56.6559 27.4392 56.6559H24.8092C24.2569 56.6559 23.8092 56.2082 23.8092 55.6559V53.2659C23.8092 52.7136 23.3615 52.2659 22.8092 52.2659H20.2734C20.0082 52.2659 19.7539 52.3712 19.5663 52.5588C19.4963 52.6289 19.4254 52.6997 19.3521 52.773C19.1646 52.9605 19.0592 53.2149 19.0592 53.4801V56.1417C19.0592 56.4069 19.1646 56.6613 19.3521 56.8488C19.4472 56.9439 19.5431 57.0398 19.6463 57.143C19.8338 57.3305 20.0882 57.4359 20.3534 57.4359H22.5692C23.1215 57.4359 23.5692 57.8836 23.5692 58.4359V60.5159C23.5692 61.0682 23.1215 61.5159 22.5692 61.5159H15.7334C15.4682 61.5159 15.2138 61.6213 15.0263 61.8088C14.9069 61.9282 14.7963 62.0388 14.6821 62.153C14.4946 62.3405 14.3892 62.5949 14.3892 62.8601V65.6017C14.3892 65.8669 14.4945 66.1212 14.6821 66.3088C14.782 66.4086 14.8875 66.5142 14.9963 66.623C15.1838 66.8105 15.4382 66.9159 15.7034 66.9159H31.9692C32.5215 66.9159 32.9692 67.3636 32.9692 67.9159V69.8659C32.9692 70.4182 32.5215 70.8659 31.9692 70.8659H25.2434C24.9782 70.8659 24.7239 70.9713 24.5363 71.1588L23.9321 71.763C23.7446 71.9505 23.6392 72.2049 23.6392 72.4701V75.2859C23.6392 75.8382 23.1915 76.2859 22.6392 76.2859H20.3534C20.0882 76.2859 19.8339 76.1805 19.6463 75.993C19.56 75.9067 19.4703 75.8169 19.3722 75.7188C19.1846 75.5313 19.0792 75.2769 19.0792 75.0117V72.0644C19.0792 71.4935 18.6012 71.0318 18.0314 70.9966C16.8454 70.9234 15.7062 70.7708 14.6684 71.53C14.4473 71.6918 14.3392 71.961 14.3392 72.235V75.2559C14.3392 75.8082 14.7869 76.2559 15.3392 76.2559H17.8392C18.3915 76.2559 18.8392 76.7036 18.8392 77.2559V79.9859C18.8392 80.5382 18.3915 80.9859 17.8392 80.9859H6.18343C5.91822 80.9859 5.66387 80.8806 5.47634 80.693C5.36696 80.5836 5.2554 80.4721 5.14212 80.3588C4.95458 80.1713 4.84922 79.9169 4.84922 79.6517C4.84922 78.5516 4.84922 77.4577 4.84922 76.3559V76.3559Z" fill="white"/>
<path d="M32.0999 0.335938C32.6522 0.335938 33.0999 0.783653 33.0999 1.33594V32.1259C33.0999 32.6782 32.6522 33.1259 32.0999 33.1259H1.29613C0.812099 33.1259 0.404376 32.7867 0.36267 32.3044C0.0223124 28.369 -0.103023 14.8742 0.0991754 5.13092C0.154836 2.44881 2.35872 0.335938 5.04141 0.335938H32.0999ZM28.4306 5.27594C28.4316 5.27594 28.4329 5.27478 28.432 5.27463C25.747 4.83225 10.0838 4.81613 5.7848 5.17904C5.30511 5.21953 4.96988 5.62488 4.96988 6.10628V27.5259C4.96988 28.0782 5.41766 28.5259 5.96995 28.5259C13.3575 28.5259 20.6483 28.5259 27.9299 28.5259C28.0299 28.5259 28.1299 28.4659 28.2099 28.4059V28.4059C28.3852 28.289 28.4299 28.0498 28.4299 27.8391V5.2767C28.4299 5.27628 28.4302 5.27594 28.4306 5.27594V5.27594Z" fill="white"/>
<path d="M85.8398 1.28613C85.8398 0.733849 86.2876 0.286133 86.8398 0.286133H113.62C116.381 0.286133 118.62 2.52471 118.62 5.28613V32.0766C118.62 32.5576 118.285 32.964 117.806 33.0081C113.403 33.4132 97.067 33.529 86.7999 33.1808C86.2628 33.1625 85.8398 32.7211 85.8398 32.1837V1.28613ZM91.5499 4.99613C90.9976 4.99613 90.5499 5.44385 90.5499 5.99613V27.5261C90.5499 28.0784 90.9976 28.5261 91.5499 28.5261C98.9367 28.5261 106.219 28.5261 113.51 28.5261C113.61 28.5261 113.71 28.4761 113.8 28.4161V28.4161C113.86 28.3761 113.91 28.1726 113.91 28.1004V5.99613C113.91 5.44385 113.462 4.99613 112.91 4.99613H91.5499Z" fill="white"/>
<path d="M33.0402 117.776C33.0402 118.328 32.5925 118.776 32.0402 118.776H5.24024C2.47881 118.776 0.240234 116.537 0.240234 113.776V86.9759C0.240234 86.4903 0.581794 86.0819 1.06576 86.0415C5.62057 85.6615 23.0274 85.5525 32.085 85.8877C32.6199 85.9075 33.0402 86.348 33.0402 86.8833V117.776ZM28.3802 91.6361C28.3802 91.0838 27.9325 90.6361 27.3802 90.6361H5.85023C5.29795 90.6361 4.85023 91.0838 4.85023 91.6361C4.85023 99.0137 4.85023 106.295 4.85023 113.586C4.85023 113.686 4.90023 113.796 4.95023 113.876V113.876C4.98481 113.928 5.19248 114.006 5.25481 114.006H27.3802C27.9325 114.006 28.3802 113.558 28.3802 113.006V91.6361Z" fill="white"/>
<path d="M47.8589 67.0033C47.8597 67.0049 47.8613 67.0058 47.863 67.0058H50.9302C51.4824 67.0058 51.9302 67.4536 51.9302 68.0058V70.1416C51.9302 70.4068 52.0355 70.6612 52.223 70.8487L52.8173 71.4429C53.0048 71.6305 53.2592 71.7358 53.5244 71.7358H55.6602C56.2124 71.7358 56.6602 72.1836 56.6602 72.7358V75.2458C56.6602 75.7981 56.2124 76.2458 55.6602 76.2458H53.0769C52.5458 76.2458 52.1055 76.6608 52.0687 77.1906C52.0438 77.5498 52.021 77.8928 52.0102 78.2358C51.9944 78.7484 52.0035 79.2672 52.008 79.6991C52.0103 79.9114 52.0746 80.1226 52.216 80.2811C53.3138 81.5115 54.6393 81.0128 55.8028 81.0464C56.1521 81.0565 56.511 80.965 56.7581 80.7179C56.8363 80.6397 56.9147 80.5613 56.9972 80.4788C57.1848 80.2912 57.2902 80.0368 57.2902 79.7716V77.5358C57.2902 76.9836 57.7379 76.5358 58.2902 76.5358H60.3602C60.9124 76.5358 61.3602 76.9836 61.3602 77.5358V79.5716C61.3602 79.8368 61.4656 80.0912 61.6531 80.2788C61.8563 80.482 62.044 80.6697 62.2472 80.8729C62.4348 81.0604 62.6892 81.1658 62.9544 81.1658H65.0902C65.6424 81.1658 66.0902 81.6136 66.0902 82.1658V84.6758C66.0902 85.2281 65.6424 85.6758 65.0902 85.6758H62.6202C62.0679 85.6758 61.6202 86.1236 61.6202 86.6758V89.37C61.6202 89.5818 61.6825 89.7932 61.8283 89.9467C62.7912 90.9598 64.0835 90.4473 65.2328 90.477C65.5821 90.486 65.941 90.395 66.1881 90.1479C66.2663 90.0697 66.3447 89.9913 66.4272 89.9088C66.6148 89.7212 66.7202 89.4668 66.7202 89.2016V86.9658C66.7202 86.4136 67.1679 85.9658 67.7202 85.9658H69.7802C70.3324 85.9658 70.7802 86.4136 70.7802 86.9658V103.496C70.7802 104.048 70.3324 104.496 69.7802 104.496H67.9302C67.3779 104.496 66.9302 104.048 66.9302 103.496V96.3058C66.9302 95.7536 66.4824 95.3058 65.9302 95.3058H58.4802C57.9279 95.3058 57.4802 94.8581 57.4802 94.3058V91.5658C57.4802 91.0136 57.0324 90.5658 56.4802 90.5658H53.7302C53.1779 90.5658 52.7302 90.1181 52.7302 89.5658V86.8158C52.7302 86.2636 52.2824 85.8158 51.7302 85.8158H48.9802C48.4279 85.8158 47.9802 85.3681 47.9802 84.8158V82.1858C47.9802 81.6336 47.5324 81.1858 46.9802 81.1858H44.1144C43.8492 81.1858 43.5947 81.0804 43.4072 80.8929C43.2408 80.7264 43.0916 80.5773 42.953 80.4387C42.7655 80.2512 42.6602 79.9968 42.6602 79.7316V72.6958C42.6602 72.1436 43.1079 71.6958 43.6602 71.6958H46.4859C46.7512 71.6958 47.0055 71.5905 47.1931 71.4029L47.6133 70.9827C47.7649 70.8311 47.8502 70.6253 47.8502 70.4108V67.0054C47.8502 67.0005 47.8567 66.9989 47.8589 67.0033V67.0033Z" fill="white"/>
<path d="M113.894 42.6776C113.897 42.6764 113.901 42.6758 113.905 42.6758C115.101 42.6758 116.212 42.6758 117.305 42.6758C117.57 42.6758 117.825 42.781 118.011 42.9698C118.125 43.0855 118.237 43.1999 118.348 43.3116C118.534 43.5005 118.639 43.7548 118.639 44.02V51.0758C118.639 51.6281 118.192 52.0758 117.639 52.0758H115.139C114.587 52.0758 114.139 52.5235 114.139 53.0758V56.3758C114.139 56.9281 114.587 57.3758 115.139 57.3758H117.619C118.172 57.3758 118.619 57.8235 118.619 58.3758V69.8958C118.619 70.4481 118.172 70.8958 117.619 70.8958H115.079C114.527 70.8958 114.079 71.3435 114.079 71.8958V74.8816C114.079 75.1468 113.974 75.4012 113.786 75.5887C113.606 75.7689 113.446 75.9286 113.292 76.0829C113.105 76.2704 112.85 76.3758 112.585 76.3758H110.399C109.847 76.3758 109.399 75.9281 109.399 75.3758V72.5292C109.399 72.3251 109.339 72.1221 109.209 71.9646C108.066 70.5766 106.7 71.0853 105.414 70.996C104.981 70.9659 104.699 70.5716 104.699 70.1376V67.9558C104.699 67.4035 105.147 66.9558 105.699 66.9558H112.879C113.432 66.9558 113.879 66.5081 113.879 65.9558V62.86C113.879 62.5948 113.774 62.3404 113.586 62.1529L113.212 61.7787C113.025 61.5911 112.77 61.4858 112.505 61.4858H110.309C109.757 61.4858 109.309 61.0381 109.309 60.4858V53.58C109.309 53.3148 109.204 53.0604 109.016 52.8729C108.892 52.7486 108.776 52.633 108.652 52.5087C108.465 52.3212 108.21 52.2158 107.945 52.2158H105.709C105.157 52.2158 104.709 51.7681 104.709 51.2158V49.1358C104.709 48.5835 105.157 48.1358 105.709 48.1358H112.505C112.77 48.1358 113.025 48.0304 113.212 47.8429C113.336 47.7186 113.452 47.603 113.576 47.4787C113.764 47.2912 113.869 47.0368 113.869 46.7716V42.7116C113.869 42.6962 113.879 42.6825 113.894 42.6776V42.6776Z" fill="white"/>
<path d="M37.9199 23.9261C37.9254 23.9261 37.9299 23.9216 37.9299 23.9161V20.4488C37.9299 20.0031 38.223 19.6045 38.64 19.447C39.074 19.2829 39.5149 19.1226 39.9599 19.1161C43.5544 19.061 47.1574 19.0819 50.9398 19.0856C51.4921 19.0861 51.9399 19.5338 51.9399 20.0861V22.7261C51.9399 23.2784 52.3876 23.7261 52.9399 23.7261H55.5899C56.1422 23.7261 56.5899 24.1738 56.5899 24.7261V27.4661C56.5899 28.0184 56.1422 28.4661 55.5899 28.4661H53.4941C53.2289 28.4661 52.9746 28.5715 52.787 28.759L52.4228 29.1232C52.2353 29.3108 52.1299 29.5651 52.1299 29.8303V32.1261C52.1299 32.6784 52.5776 33.1261 53.1299 33.1261H55.6199C56.1722 33.1261 56.6199 33.5738 56.6199 34.1261V36.7961C56.6199 37.3484 56.1722 37.7961 55.6199 37.7961H43.6799C43.1276 37.7961 42.6799 37.3484 42.6799 36.7961V34.5603C42.6799 34.2951 42.7853 34.0408 42.9728 33.8532C43.0857 33.7404 43.2136 33.6125 43.357 33.4691C43.5445 33.2815 43.7989 33.1761 44.0641 33.1761H46.8899C47.4422 33.1761 47.8899 32.7284 47.8899 32.1761V25.1503C47.8899 24.8851 47.7846 24.6308 47.5971 24.4433C47.5274 24.3735 47.4533 24.2994 47.3729 24.219C47.1853 24.0315 46.9309 23.9261 46.6657 23.9261H37.9199V23.9261Z" fill="white"/>
<path d="M95.1509 114.116V117.402C95.1509 117.673 95.0408 117.932 94.848 118.122C94.735 118.233 94.6232 118.344 94.5139 118.453C94.3261 118.64 94.0719 118.746 93.8066 118.746H77.3309C76.7786 118.746 76.3309 118.298 76.3309 117.746V115.146C76.3309 114.593 75.8831 114.146 75.3309 114.146H72.6309C72.0786 114.146 71.6309 113.698 71.6309 113.146V105.676C71.6309 105.123 72.0786 104.676 72.6309 104.676H75.2809C75.8331 104.676 76.2809 105.123 76.2809 105.676V108.486C76.2809 109.038 76.7286 109.486 77.2809 109.486H80.0809C80.6331 109.486 81.0809 109.933 81.0809 110.486V113.106C81.0809 113.658 81.5286 114.106 82.0809 114.106H95.1409C95.1464 114.106 95.1509 114.11 95.1509 114.116V114.116Z" fill="white"/>
<path d="M109.301 99.8462V82.0478C109.301 81.5794 109.626 81.1682 110.092 81.1183C111.328 80.9859 112.598 81.1292 113.841 81.0962C115.077 81.0643 116.321 81.0833 117.621 81.0923C118.173 81.0961 118.621 81.5439 118.621 82.0962V89.222C118.621 89.4872 118.515 89.7415 118.328 89.929C118.218 90.0386 118.094 90.1634 117.954 90.3033C117.766 90.4908 117.512 90.5962 117.247 90.5962H115.091C114.538 90.5962 114.091 91.0439 114.091 91.5962V94.2262C114.091 94.7785 114.538 95.2262 115.091 95.2262H117.671C118.223 95.2262 118.671 95.6739 118.671 96.2262V98.8562C118.671 99.4085 118.223 99.8562 117.671 99.8562H109.311C109.305 99.8562 109.301 99.8517 109.301 99.8462V99.8462Z" fill="white"/>
<path d="M76.1812 28.5273C76.1803 28.5263 76.179 28.5258 76.1777 28.5258H72.3143C72.0371 28.5258 71.7723 28.6407 71.5832 28.8434C71.4444 28.9921 71.2935 29.1543 71.1225 29.3397C70.9532 29.5234 70.8598 29.7644 70.8598 30.0142V32.1458C70.8598 32.6981 70.4121 33.1458 69.8598 33.1458H67.9198C67.3675 33.1458 66.9198 32.6981 66.9198 32.1458V30.02C66.9198 29.7548 66.8143 29.5003 66.6268 29.3128C66.45 29.136 66.3062 28.9923 66.1627 28.8487C65.9751 28.6612 65.7208 28.5558 65.4556 28.5558H63.2598C62.7075 28.5558 62.2598 28.1081 62.2598 27.5558V24.8258C62.2598 24.2735 62.7075 23.8258 63.2598 23.8258H65.8298C66.3821 23.8258 66.8298 23.3781 66.8298 22.8258V15.4458C66.8298 14.8935 67.2775 14.4458 67.8298 14.4458H69.8798C70.432 14.4458 70.8798 14.8935 70.8798 15.4458V18.0758C70.8798 18.6281 71.3275 19.0758 71.8798 19.0758H74.8456C75.1108 19.0758 75.3652 19.1812 75.5527 19.3687C75.6703 19.4864 75.781 19.597 75.8969 19.7129C76.0844 19.9004 76.1898 20.1548 76.1898 20.42V28.5237C76.1898 28.5282 76.1844 28.5304 76.1812 28.5273V28.5273Z" fill="white"/>
<path d="M63.1895 9.54602C62.6372 9.54602 62.1895 9.0983 62.1895 8.54602V5.95602C62.1895 5.40373 62.6372 4.95602 63.1895 4.95602H70.5395C71.0917 4.95602 71.5395 4.5083 71.5395 3.95602V1.40039C71.5395 0.764591 72.1332 0.266579 72.7684 0.238556C73.9135 0.188032 75.0327 -0.0345461 75.9851 0.91391C76.1461 1.07432 76.2195 1.29989 76.2195 1.52721V8.54601C76.2195 9.0983 75.7717 9.54602 75.2195 9.54602H63.1895Z" fill="white"/>
<path d="M62.0985 43.1112C61.6912 43.264 61.4105 43.6515 61.4105 44.0865V46.3062C61.4105 46.8585 60.9628 47.3062 60.4105 47.3062H58.5605C58.0083 47.3062 57.5605 46.8585 57.5605 46.3062V39.0562C57.5605 38.5039 58.0083 38.0562 58.5605 38.0562H61.0405C61.5928 38.0562 62.0405 37.6085 62.0405 37.0562V34.3462C62.0405 33.7939 62.4883 33.3462 63.0405 33.3462H65.0205C65.5728 33.3462 66.0205 33.7939 66.0205 34.3462V41.6762C66.0205 42.2285 65.5729 42.668 65.0209 42.6523C64.5104 42.6378 63.9918 42.634 63.4805 42.7062C63.0154 42.7669 62.5639 42.9366 62.0985 43.1112Z" fill="white"/>
<path d="M114.141 109.506C114.135 109.506 114.131 109.51 114.131 109.516V113.096C114.131 113.648 114.579 114.096 115.131 114.096H117.843C118.272 114.096 118.621 114.444 118.621 114.874V114.874C118.621 117.024 116.879 118.766 114.729 118.766H110.461C109.909 118.766 109.461 118.318 109.461 117.766V110.506C109.461 109.954 109.909 109.506 110.461 109.506H114.141V109.506Z" fill="white"/>
<path d="M55.6806 0.326172C56.2329 0.326172 56.6806 0.773887 56.6806 1.32617V8.52617C56.6806 9.07846 56.2329 9.52617 55.6806 9.52617H53.7206C53.1683 9.52617 52.7206 9.07846 52.7206 8.52617V6.39039C52.7206 6.12517 52.6152 5.87079 52.4277 5.68325C52.3106 5.56613 52.2007 5.45621 52.0835 5.33909C51.896 5.15156 51.6416 5.04617 51.3764 5.04617H49.1406C48.5883 5.04617 48.1406 4.59846 48.1406 4.04617V1.32617C48.1406 0.773887 48.5883 0.326172 49.1406 0.326172H55.6806Z" fill="white"/>
<path d="M50.9702 9.76611C51.5224 9.76611 51.9702 10.2138 51.9702 10.7661V13.2661C51.9702 13.8184 51.5224 14.2661 50.9702 14.2661H43.6602C43.1079 14.2661 42.6602 13.8184 42.6602 13.2661V11.0203C42.6602 10.7551 42.7655 10.5008 42.953 10.3132C43.0336 10.2326 43.1168 10.1494 43.2072 10.059C43.3948 9.8715 43.6492 9.76611 43.9144 9.76611H50.9702Z" fill="white"/>
<path d="M47.1895 98.906C47.1895 99.4583 46.7418 99.906 46.1895 99.906H39.1489C38.9474 99.906 38.746 99.8487 38.5929 99.7177C37.6138 98.8798 37.821 97.8013 37.8666 96.6963C37.8936 96.0438 38.4051 95.416 39.0581 95.416H46.1895C46.7418 95.416 47.1895 95.8637 47.1895 96.416V98.906Z" fill="white"/>
<path d="M0.230469 38.8761C0.230469 38.8697 0.23307 38.8635 0.237597 38.859C0.447919 38.6487 0.61717 38.4794 0.767578 38.329C0.955114 38.1415 1.20946 38.0361 1.47468 38.0361C2.22001 38.0361 2.96889 38.0361 3.74043 38.0361C4.29271 38.0361 4.74047 38.4838 4.74047 39.0361V46.2361C4.74047 46.7884 4.29275 47.2361 3.74047 47.2361H1.23047C0.678184 47.2361 0.230469 46.7884 0.230469 46.2361V38.8761V38.8761Z" fill="white"/>
<path d="M37.77 80.9361C37.77 80.9306 37.7655 80.9261 37.76 80.9261C35.0031 80.9262 32.1366 80.9461 29.28 80.8961C29.1181 80.8961 28.9608 80.696 28.7804 80.4736C28.6098 80.2632 28.5 80.0032 28.5 79.7323V77.5161C28.5 76.9638 28.9477 76.5161 29.5 76.5161H36.77C37.3223 76.5161 37.77 76.9638 37.77 77.5161V80.9361V80.9361Z" fill="white"/>
<path d="M42.4705 69.926C42.4705 70.4783 42.0228 70.926 41.4705 70.926H38.9805C38.4282 70.926 37.9805 70.4783 37.9805 69.926V63.1537C37.9805 62.6871 38.3036 62.277 38.7686 62.2366C39.5942 62.165 40.4695 62.2287 41.3808 62.2283C41.9673 62.228 42.4705 62.6903 42.4705 63.2768V69.926Z" fill="white"/>
<path d="M99.9805 58.5659C99.9805 58.0136 100.428 57.5659 100.98 57.5659H103.47C104.023 57.5659 104.47 58.0136 104.47 58.5659V65.3439C104.47 65.808 104.151 66.2168 103.689 66.2585C102.861 66.333 101.984 66.2662 101.07 66.2649C100.484 66.264 99.9805 65.8017 99.9805 65.2152V58.5659Z" fill="white"/>
<path d="M56.6308 103.616C56.6308 104.168 56.1831 104.616 55.6308 104.616H53.8008C53.2485 104.616 52.8008 104.168 52.8008 103.616V96.416C52.8008 95.8637 53.2485 95.416 53.8008 95.416H55.6308C56.1831 95.416 56.6308 95.8637 56.6308 96.416V103.616Z" fill="white"/>
<path d="M115.119 109.296C114.567 109.296 114.119 108.848 114.119 108.296V105.746C114.119 105.194 114.567 104.746 115.119 104.746H117.599C118.151 104.746 118.599 105.194 118.599 105.746V108.296C118.599 108.848 118.151 109.296 117.599 109.296H115.119Z" fill="white"/>
<path d="M4.75945 75.2761C4.75945 75.8284 4.31174 76.2761 3.75945 76.2761H1.46367C1.19845 76.2761 0.944069 76.1707 0.756533 75.9832C0.662202 75.8889 0.572899 75.7996 0.482348 75.709C0.294811 75.5215 0.189453 75.2671 0.189453 75.0019V72.7861C0.189453 72.2338 0.637168 71.7861 1.18945 71.7861H3.75945C4.31174 71.7861 4.75945 72.2338 4.75945 72.7861V75.2761Z" fill="white"/>
<path d="M113.931 41.5862C113.931 42.1385 113.483 42.5862 112.931 42.5862H110.391C109.838 42.5862 109.391 42.1385 109.391 41.5862V39.1162C109.391 38.5639 109.838 38.1162 110.391 38.1162H112.756C113.022 38.1162 113.276 38.2215 113.463 38.4091C113.518 38.4637 113.576 38.5215 113.638 38.5833C113.825 38.7708 113.931 39.0252 113.931 39.2904V41.5862Z" fill="white"/>
<path d="M42.5891 84.8059C42.5891 85.3582 42.1414 85.8059 41.5891 85.8059H39.3118C39.0594 85.8059 38.8162 85.7107 38.6319 85.5383C38.4969 85.4119 38.349 85.2727 38.1785 85.1108C37.9806 84.9229 37.8691 84.6616 37.8691 84.3887V82.0859C37.8691 81.5337 38.3169 81.0859 38.8691 81.0859H41.5891C42.1414 81.0859 42.5891 81.5337 42.5891 82.0859V84.8059Z" fill="white"/>
<path d="M98.9703 38.073C98.9703 38.0749 98.9711 38.0767 98.9724 38.078C99.1824 38.288 99.3528 38.4584 99.5074 38.6131C99.695 38.8006 99.8003 39.0549 99.8003 39.3201V41.5759C99.8003 42.1282 99.3526 42.5759 98.8003 42.5759H96.3203C95.768 42.5759 95.3203 42.1282 95.3203 41.5759V39.0659C95.3203 38.5136 95.768 38.0659 96.3203 38.0659H98.9632C98.9671 38.0659 98.9703 38.0691 98.9703 38.073V38.073Z" fill="white"/>
<path d="M42.6797 86.896C42.6797 86.3437 43.1274 85.896 43.6797 85.896H46.2197C46.772 85.896 47.2197 86.3437 47.2197 86.896V89.366C47.2197 89.9183 46.772 90.366 46.2197 90.366H43.8539C43.5887 90.366 43.3344 90.2607 43.1468 90.0731C43.0922 90.0185 43.0344 89.9607 42.9726 89.8989C42.7851 89.7114 42.6797 89.457 42.6797 89.1918V86.896Z" fill="white"/>
<path d="M33.0505 42.6161C33.0505 42.6216 33.0461 42.6261 33.0405 42.6261H29.5605C29.0083 42.6261 28.5605 42.1784 28.5605 41.6261V39.2852C28.5605 38.9995 28.6822 38.7272 28.8949 38.5365C28.9859 38.4548 29.0877 38.3638 29.1982 38.2656C29.3797 38.1043 29.6144 38.0161 29.8573 38.0161H32.0505C32.6028 38.0161 33.0505 38.4638 33.0505 39.0161V42.6161V42.6161Z" fill="white"/>
<path d="M38.5497 28.8287C38.709 28.6683 38.9335 28.5962 39.1595 28.5962H41.5004C42.0527 28.5962 42.5004 29.0439 42.5004 29.5962V32.0762C42.5004 32.6285 42.0527 33.0762 41.5004 33.0762H39.0682C38.4346 33.0762 37.9288 32.4857 37.8925 31.8531C37.832 30.7975 37.6585 29.7257 38.5497 28.8287Z" fill="white"/>
<path d="M42.5116 104.804C42.5148 104.801 42.5202 104.804 42.5202 104.808V108.276C42.5202 108.828 42.0724 109.276 41.5202 109.276H39.1961C38.895 109.276 38.6102 109.14 38.4176 108.909C38.3388 108.814 38.2487 108.706 38.148 108.587C37.995 108.405 37.9102 108.175 37.9102 107.938V105.806C37.9102 105.254 38.3579 104.806 38.9102 104.806H42.5081C42.5094 104.806 42.5107 104.805 42.5116 104.804V104.804Z" fill="white"/>
<path d="M38.9199 9.54607C38.3676 9.54607 37.9199 9.09836 37.9199 8.54607V6.24053C37.9199 6.04831 37.9722 5.85586 38.092 5.70554C38.8872 4.70775 39.9082 4.89569 40.9457 4.92924C41.6589 4.9523 42.4199 5.5125 42.4199 6.22607V8.54608C42.4199 9.09836 41.9722 9.54607 41.4199 9.54607H38.9199Z" fill="white"/>
<path d="M38.7695 118.729C38.7695 118.727 38.7687 118.725 38.7674 118.724C38.5502 118.507 38.3814 118.338 38.2323 118.189C38.0448 118.001 37.9395 117.747 37.9395 117.482V115.216C37.9395 114.664 38.3872 114.216 38.9395 114.216H41.4195C41.9717 114.216 42.4195 114.664 42.4195 115.216V117.736C42.4195 118.288 41.9717 118.736 41.4195 118.736H38.7765C38.7726 118.736 38.7695 118.733 38.7695 118.729V118.729Z" fill="white"/>
<path d="M94.0894 67.0562C94.6417 67.0562 95.0894 67.5039 95.0894 68.0562V69.8661C95.0894 70.4184 94.6417 70.8661 94.0894 70.8661H91.6094C91.0571 70.8661 90.6094 70.4184 90.6094 69.8661V68.0562C90.6094 67.5039 91.0571 67.0562 91.6094 67.0562H94.0894Z" fill="white"/>
<path d="M32.0994 57.6162C32.6517 57.6162 33.0994 58.0639 33.0994 58.6162V60.4362C33.0994 60.9885 32.6517 61.4362 32.0994 61.4362H29.6094C29.0571 61.4362 28.6094 60.9885 28.6094 60.4362V58.6162C28.6094 58.0639 29.0571 57.6162 29.6094 57.6162H32.0994Z" fill="white"/>
<path d="M96.2109 52.0058C95.6587 52.0058 95.2109 51.5581 95.2109 51.0058V49.1758C95.2109 48.6235 95.6587 48.1758 96.2109 48.1758H98.7009C99.2532 48.1758 99.7009 48.6235 99.7009 49.1758V51.0058C99.7009 51.5581 99.2532 52.0058 98.7009 52.0058H96.2109Z" fill="white"/>
<path d="M61.3393 32.1861C61.3393 32.7383 60.8916 33.1861 60.3393 33.1861H58.5293C57.977 33.1861 57.5293 32.7383 57.5293 32.1861V29.7061C57.5293 29.1538 57.977 28.7061 58.5293 28.7061H60.3393C60.8916 28.7061 61.3393 29.1538 61.3393 29.7061V32.1861Z" fill="white"/>
<path d="M61.3495 22.7459C61.3495 23.2981 60.9018 23.7459 60.3495 23.7459H58.5195C57.9672 23.7459 57.5195 23.2981 57.5195 22.7459V20.2559C57.5195 19.7036 57.9672 19.2559 58.5195 19.2559H60.3495C60.9018 19.2559 61.3495 19.7036 61.3495 20.2559V22.7459Z" fill="white"/>
<path d="M61.3395 13.3162C61.3395 13.8685 60.8918 14.3162 60.3395 14.3162H58.5195C57.9672 14.3162 57.5195 13.8685 57.5195 13.3162V10.8262C57.5195 10.2739 57.9672 9.82617 58.5195 9.82617H60.3395C60.8918 9.82617 61.3395 10.2739 61.3395 10.8262V13.3162Z" fill="white"/>
<path d="M63.1895 109.286C62.6372 109.286 62.1895 108.838 62.1895 108.286V105.796C62.1895 105.244 62.6372 104.796 63.1895 104.796H65.2517C65.7184 104.796 66.1286 105.119 66.1689 105.584C66.2405 106.409 66.1766 107.283 66.1772 108.197C66.1776 108.783 65.7156 109.286 65.1293 109.286H63.1895Z" fill="white"/>
<path d="M52.8008 110.456C52.8008 109.904 53.2485 109.456 53.8008 109.456H55.6308C56.1831 109.456 56.6308 109.904 56.6308 110.456V112.946C56.6308 113.498 56.1831 113.946 55.6308 113.946H53.8008C53.2485 113.946 52.8008 113.498 52.8008 112.946V110.456Z" fill="white"/>
<path d="M49.0293 118.716C48.477 118.716 48.0293 118.268 48.0293 117.716V115.226C48.0293 114.674 48.477 114.226 49.0293 114.226H50.8493C51.4016 114.226 51.8493 114.674 51.8493 115.226V117.716C51.8493 118.268 51.4016 118.716 50.8493 118.716H49.0293Z" fill="white"/>
<path d="M57.5293 115.166C57.5293 114.614 57.977 114.166 58.5293 114.166H60.3493C60.9016 114.166 61.3493 114.614 61.3493 115.166V117.775C61.3493 118.304 60.9383 118.747 60.4111 118.783C60.1501 118.801 59.8788 118.817 59.6093 118.826C59.2575 118.837 58.9028 118.836 58.5293 118.833C57.977 118.828 57.5293 118.378 57.5293 117.826V115.166Z" fill="white"/>
<path d="M65.1208 67.0562C65.6731 67.0562 66.1208 67.5039 66.1208 68.0562V69.8762C66.1208 70.4284 65.6731 70.8762 65.1208 70.8762H63.3008C62.7485 70.8762 62.3008 70.4284 62.3008 69.8762V68.0562C62.3008 67.5039 62.7485 67.0562 63.3008 67.0562H65.1208Z" fill="white"/>
<path d="M48.0898 58.5659C48.0898 58.0136 48.5376 57.5659 49.0898 57.5659H50.9098C51.4621 57.5659 51.9098 58.0136 51.9098 58.5659V60.3859C51.9098 60.9382 51.4621 61.3859 50.9098 61.3859H49.0898C48.5376 61.3859 48.0898 60.9382 48.0898 60.3859V58.5659Z" fill="white"/>
<path d="M53.75 66.1459C53.1977 66.1459 52.75 65.6982 52.75 65.1459V63.3359C52.75 62.7837 53.1977 62.3359 53.75 62.3359H55.56C56.1123 62.3359 56.56 62.7837 56.56 63.3359V65.1459C56.56 65.6982 56.1123 66.1459 55.56 66.1459H53.75Z" fill="white"/>
<path d="M89.4701 90.4794C89.4701 90.4776 89.4686 90.4761 89.4668 90.4761H86.8301C86.2778 90.4761 85.8301 90.0284 85.8301 89.4761V86.7411C85.8301 86.2803 86.1454 85.8731 86.6042 85.83C87.3844 85.7569 88.2212 85.8134 89.1382 85.8168C89.8137 85.8192 90.3907 86.4485 90.4255 87.1231C90.488 88.3327 90.7029 89.4974 89.4755 90.4818C89.4734 90.4835 89.4701 90.4821 89.4701 90.4794V90.4794Z" fill="white"/>
<path d="M23.5997 23.7563H10.6797C10.1274 23.7563 9.67969 23.3085 9.67969 22.7563V10.6674C9.67969 10.1186 10.1219 9.67224 10.6708 9.66872C14.5589 9.64381 18.5413 9.67012 22.6054 9.65963C23.1593 9.6582 23.6097 10.1065 23.6097 10.6605V23.7463C23.6097 23.7518 23.6052 23.7563 23.5997 23.7563V23.7563Z" fill="white"/>
<path d="M109.19 22.756C109.19 23.3083 108.742 23.756 108.19 23.756H96.2695C95.7172 23.756 95.2695 23.3083 95.2695 22.756V10.6876C95.2695 10.1466 95.6998 9.70328 96.2408 9.69194C100.131 9.61035 104.115 9.69564 108.175 9.65809C108.733 9.65293 109.19 10.1028 109.19 10.6608V22.756Z" fill="white"/>
<path d="M10.6191 109.286C10.0669 109.286 9.61914 108.838 9.61914 108.286V96.356C9.61914 95.8037 10.0669 95.356 10.6191 95.356H22.6628C23.1937 95.356 23.6327 95.7707 23.6547 96.3011C23.8166 100.206 23.6723 104.198 23.7223 108.265C23.7291 108.825 23.2784 109.286 22.7179 109.286H10.6191Z" fill="white"/>
</svg>
