<svg width="121" height="121" viewBox="0 0 121 121" fill="none" xmlns="http://www.w3.org/2000/svg">
<path d="M41.7794 45.6686C41.7762 45.6654 41.7785 45.66 41.7829 45.66H44.6584C45.1918 45.66 45.6312 45.2415 45.6571 44.7088C45.6878 44.0762 45.7192 43.432 45.7525 42.7683C45.7792 42.2369 46.2182 41.82 46.7503 41.82H48.5709C49.1231 41.82 49.5709 42.2678 49.5709 42.82V57.16C49.5709 57.7123 50.0186 58.16 50.5709 58.16H57.2209C57.7731 58.16 58.2209 58.6078 58.2209 59.16V61.11C58.2209 61.6623 57.7731 62.11 57.2209 62.11H55.3433C54.8099 62.11 54.3704 62.5286 54.343 63.0612C54.3094 63.7146 54.2738 64.3872 54.2375 65.1076C54.2107 65.6407 53.7711 66.06 53.2373 66.06H50.6708C50.1186 66.06 49.6708 65.6123 49.6708 65.06V63.11C49.6708 62.5578 49.2231 62.11 48.6708 62.11H46.7209C46.1686 62.11 45.7209 61.6623 45.7209 61.11V55.28C45.7209 54.7278 45.2731 54.28 44.7209 54.28H42.8909C42.3386 54.28 41.8909 54.7278 41.8909 55.28V56.99C41.8909 57.5423 41.4431 57.99 40.8909 57.99H38.9309C38.3786 57.99 37.9309 57.5423 37.9309 56.99V55.38C37.9309 54.8278 37.4831 54.38 36.9309 54.38H34.3209C33.7686 54.38 33.3209 54.8278 33.3209 55.38V61C33.3209 61.5523 32.8731 62 32.3209 62H26.3209C25.7686 62 25.3209 62.4478 25.3209 63V65.2294C25.3209 65.7109 24.9748 66.1259 24.4935 66.1116C23.2954 66.0759 22.0221 65.7124 20.9981 66.7505C20.8413 66.9095 20.7709 67.1313 20.7709 67.3546V69.2939C20.7709 69.6923 21.0046 70.0587 21.3578 70.2429C21.7002 70.4213 22.0495 70.592 22.4109 70.63C23.0441 70.7092 23.6861 70.697 24.3311 70.6795C24.8832 70.6645 25.3309 71.1078 25.3309 71.66V73.5473C25.3309 74.0808 25.7496 74.5203 26.2825 74.5461C26.9168 74.5768 27.5596 74.6082 28.2225 74.6416C28.754 74.6684 29.1709 75.1074 29.1709 75.6395V77.48C29.1709 78.0323 28.7231 78.48 28.1709 78.48H26.4008C25.8486 78.48 25.4009 78.9278 25.4009 79.48V81.37C25.4009 81.9223 24.9531 82.37 24.4009 82.37H22.4309C21.8786 82.37 21.4309 81.9223 21.4309 81.37V80.0143C21.4309 79.749 21.3255 79.4947 21.1379 79.3071C20.997 79.1662 20.8598 79.029 20.6938 78.863C20.5063 78.6755 20.2519 78.57 19.9866 78.57H17.7312C17.1827 78.57 16.7365 78.1282 16.732 77.5798C16.7036 74.1302 16.7011 70.6737 16.7009 67.21C16.7008 66.6578 16.2531 66.21 15.7009 66.21H13.8473C13.2848 66.21 12.8333 66.6739 12.8408 67.2363C12.888 70.7738 12.7262 74.2188 12.9117 77.6431C12.94 78.166 13.376 78.57 13.8997 78.57H15.7836C16.3229 78.57 16.7656 78.9977 16.7752 79.5369C16.789 80.3082 16.7906 81.0794 16.7908 81.8506C16.7909 82.0565 16.7422 82.2858 16.5709 82.4V82.4C16.4909 82.46 16.3909 82.51 16.2909 82.51C12.7315 82.51 9.18138 82.51 5.68504 82.51C5.41982 82.51 5.16548 82.6154 4.97795 82.8029C4.88063 82.9003 4.78529 82.9956 4.68375 83.0971C4.49621 83.2847 4.39085 83.539 4.39085 83.8043V85.95C4.39085 86.5023 3.94314 86.95 3.39085 86.95H1.42085C0.868566 86.95 0.420851 86.5023 0.420851 85.95V79.6179C0.420851 79.0864 0.836522 78.6477 1.36734 78.6209C1.97221 78.5903 2.61676 78.559 3.30866 78.5257C3.84172 78.5001 4.26035 78.0605 4.26159 77.5268C4.26315 76.8537 4.26802 76.1813 4.28325 75.4999C4.29495 74.9757 4.71654 74.5554 5.24068 74.5443C6.06127 74.527 6.89429 74.522 7.73085 74.5206C8.28313 74.5197 8.73085 74.0723 8.73085 73.52V71.73C8.73085 71.1778 8.28313 70.73 7.73085 70.73H5.36085C4.80857 70.73 4.3614 71.1778 4.36004 71.7301C4.35845 72.3796 4.35371 73.0161 4.33966 73.6383C4.3279 74.1591 3.90995 74.5768 3.38915 74.5887C2.73964 74.6034 2.08225 74.608 1.37745 74.6094C0.83444 74.6105 0.390414 74.1767 0.377826 73.6338C0.356051 72.6948 0.335696 71.7502 0.320851 70.8C0.311702 69.6108 0.319292 68.4215 0.320652 67.4083C0.320896 67.2262 0.367682 67.044 0.475897 66.8975C1.29439 65.7894 2.37606 66.095 3.41299 66.0528C3.85163 66.0349 4.14085 65.6405 4.14085 65.2015V63.177C4.14085 62.6459 3.7257 62.2075 3.19539 62.178C2.61926 62.146 2.00999 62.1116 1.37225 62.0749C0.843649 62.0444 0.430851 61.6066 0.430851 61.0771V59.24C0.430851 58.6878 0.878566 58.24 1.43085 58.24H3.18085C3.73314 58.24 4.18085 57.7923 4.18085 57.24V50.65C4.18085 50.0978 3.73314 49.65 3.18085 49.65H1.39085C0.838566 49.65 0.390851 49.2023 0.390851 48.65V42.83C0.390851 42.2778 0.838566 41.83 1.39085 41.83H3.20488C3.73967 41.83 4.17992 42.2507 4.20632 42.7849C4.2348 43.3612 4.26603 43.9695 4.29659 44.6041C4.32234 45.1387 4.76256 45.56 5.29771 45.56H11.6709C12.2231 45.56 12.6709 45.1123 12.6709 44.56V42.76C12.6709 42.2078 12.2231 41.76 11.6709 41.76H5.71506C5.44985 41.76 5.19547 41.6547 5.00793 41.4671C4.89351 41.3527 4.78645 41.2456 4.67375 41.1329C4.48621 40.9454 4.38085 40.691 4.38085 40.4258V38.86C4.38085 38.3078 4.82857 37.86 5.38085 37.86H7.38256C7.58964 37.86 7.79576 37.7984 7.95366 37.6644C9.26569 36.5512 8.77129 35.2259 8.865 33.9898C8.89731 33.5635 9.28805 33.29 9.71553 33.29H15.6609C16.2131 33.29 16.6609 33.7378 16.6609 34.29V36.68C16.6609 37.2323 17.1086 37.68 17.6609 37.68H19.5709C20.1231 37.68 20.5709 38.1278 20.5709 38.68V40.67C20.5709 41.2223 20.1231 41.67 19.5709 41.67H17.8108C17.2586 41.67 16.8109 42.1178 16.8109 42.67V48.6C16.8109 49.1523 16.3631 49.6 15.8109 49.6H13.8309C13.2786 49.6 12.8309 50.0478 12.8308 50.6001C12.8302 53.175 12.8251 55.6779 12.7809 58.22C11.8827 58.2568 10.9521 58.2666 10.0209 58.2691C9.46857 58.2706 9.02085 58.7178 9.02085 59.27V61.05C9.02085 61.6023 9.46857 62.05 10.0209 62.05H11.7309C12.2831 62.05 12.7303 61.6023 12.7317 61.05C12.7341 60.076 12.7435 59.1313 12.7809 58.22C13.7436 58.1815 14.6766 58.1727 15.708 58.1706C16.2415 58.1696 16.6811 58.5888 16.7069 59.1217C16.7377 59.756 16.7691 60.3988 16.8024 61.0617C16.8292 61.5932 17.2682 62.01 17.8003 62.01H20.2809C20.8331 62.01 21.2809 61.5623 21.2809 61.01V42.72C21.2809 42.1678 21.7286 41.72 22.2809 41.72H28.2809C28.8331 41.72 29.2809 42.1678 29.2809 42.72V44.633C29.2809 45.1642 28.8655 45.6026 28.3352 45.6317C27.641 45.6699 26.9983 45.7054 26.3968 45.7384C25.8663 45.7676 25.4509 46.2061 25.4509 46.7374V48.62C25.4509 49.1723 25.8986 49.62 26.4509 49.62C31.4546 49.62 36.3671 49.62 41.2709 49.62C41.3609 49.62 41.4708 49.57 41.5508 49.51V49.51C41.7246 49.3942 41.7808 49.1627 41.7808 48.9539V45.6721C41.7808 45.6708 41.7803 45.6695 41.7794 45.6686V45.6686ZM25.3808 57.05C25.3808 57.6023 25.8286 58.05 26.3808 58.05H28.1109C28.6631 58.05 29.1109 57.6023 29.1109 57.05V55.32C29.1109 54.7678 28.6631 54.32 28.1109 54.32H26.3808C25.8286 54.32 25.3808 54.7678 25.3808 55.32V57.05Z" fill="white"/>
<path d="M79.6093 94.9998C79.057 94.9998 78.6093 94.5521 78.6093 93.9998V88.1198C78.6093 87.5676 78.1616 87.1198 77.6093 87.1198H75.7793C75.227 87.1198 74.7793 86.6721 74.7793 86.1198V84.2172C74.7793 83.6859 75.1947 83.2475 75.7253 83.2202C76.3278 83.1892 76.9719 83.1568 77.6639 83.1205C78.1942 83.0927 78.6093 82.6542 78.6093 82.1231V79.5498C78.6093 78.9976 79.057 78.5498 79.6093 78.5498H82.2193C82.7716 78.5498 83.2193 78.102 83.2193 77.5497C83.2193 73.7672 83.2193 70.1628 83.2193 66.5498C83.2193 66.4598 83.2693 66.3498 83.3293 66.2698V66.2698C83.4435 66.0985 83.6728 66.0498 83.8788 66.0498H90.1093C90.6616 66.0498 91.1093 66.4976 91.1093 67.0498V69.7298C91.1093 70.2821 90.6616 70.7298 90.1093 70.7298H88.2293C87.677 70.7298 87.2293 71.1776 87.2293 71.7298V77.5498C87.2293 78.1021 87.677 78.5493 88.2293 78.5507C88.8992 78.5523 89.5621 78.5572 90.2298 78.5721C90.7538 78.5838 91.1739 79.0054 91.185 79.5294C91.2024 80.3501 91.2073 81.1832 91.2087 82.0198C91.2097 82.5721 91.657 83.0198 92.2093 83.0198H93.9993C94.5516 83.0198 94.9993 82.5721 94.9993 82.0198V79.6498C94.9993 79.0976 94.5516 78.6504 93.9993 78.649C93.3504 78.6474 92.7146 78.6427 92.093 78.6287C91.5713 78.6169 91.1534 78.1977 91.1417 77.6761C91.1264 76.991 91.1216 76.3065 91.12 75.5999C91.1188 75.0476 91.567 74.5998 92.1193 74.5998H102.512C103.082 74.5998 103.537 75.0764 103.523 75.6468C103.507 76.2746 103.502 76.9077 103.5 77.5598C103.499 78.1121 103.052 78.5598 102.499 78.5598H100.34C100.144 78.5598 99.9483 78.6143 99.7958 78.7381C98.7148 79.6159 99.0048 80.7109 99.0327 81.716C99.041 82.0161 99.1424 82.313 99.3547 82.5253L99.5864 82.757C99.7739 82.9445 100.028 83.0498 100.294 83.0498H106.549C107.102 83.0498 107.549 82.6021 107.549 82.0498C107.549 80.9087 107.549 79.8142 107.549 78.7198C107.549 77.6745 107.549 76.6291 107.545 75.5925C107.543 75.0431 107.096 74.5998 106.547 74.5998H104.598C104.027 74.5998 103.572 74.1228 103.586 73.5522C103.601 72.9452 103.607 72.3329 103.608 71.7098C103.61 71.1576 103.162 70.7098 102.609 70.7098H96.5235C96.2583 70.7098 96.0039 70.6045 95.8164 70.4169C95.6479 70.2485 95.4856 70.0862 95.3122 69.9128C95.1247 69.7252 95.0193 69.4708 95.0193 69.2056V67.0398C95.0193 66.4876 94.5716 66.0398 94.0193 66.0398H92.1093C91.557 66.0398 91.1093 65.5921 91.1093 65.0398V63.0898C91.1093 62.5376 91.557 62.0898 92.1093 62.0898H98.0093C98.5616 62.0898 99.0093 62.5376 99.0093 63.0898V65.0598C99.0093 65.6121 99.457 66.0598 100.009 66.0598H106.589C107.142 66.0598 107.589 66.5076 107.589 67.0598V69.4998C107.589 70.0521 108.037 70.4998 108.589 70.4998H110.419C110.972 70.4998 111.419 70.0521 111.419 69.4998V63.0098C111.419 62.4576 110.972 62.0098 110.419 62.0098H108.469C107.917 62.0098 107.469 61.5621 107.469 61.0098V55.2267C107.469 54.6916 107.048 54.2513 106.513 54.227C105.845 54.1965 105.198 54.1661 104.561 54.1356C104.028 54.1102 103.609 53.6706 103.609 53.1371V50.5898C103.609 50.0376 104.057 49.5898 104.609 49.5898H110.437C110.97 49.5898 111.41 50.0084 111.437 50.541C111.478 51.329 111.521 52.1188 111.56 52.8949C111.573 53.1426 111.676 53.377 111.852 53.5524C111.943 53.6437 112.036 53.7368 112.136 53.8369C112.324 54.0245 112.578 54.1298 112.844 54.1298H118.919C119.472 54.1298 119.919 54.5776 119.919 55.1298V61.0398C119.919 61.5921 119.472 62.0398 118.919 62.0398H117.159C116.607 62.0398 116.159 62.4876 116.159 63.0398V73.5498C116.159 74.1021 115.712 74.5498 115.159 74.5498H112.639C112.087 74.5498 111.639 74.9976 111.639 75.5498V86.0598C111.639 86.6121 112.087 87.0598 112.639 87.0598H118.939C119.492 87.0598 119.939 87.5076 119.939 88.0598V90.0298C119.939 90.5821 119.492 91.0298 118.939 91.0298H117.119C116.567 91.0298 116.119 91.4776 116.119 92.0298V93.9898C116.119 94.5421 115.672 94.9898 115.119 94.9898H112.584C112.054 94.9898 111.616 94.576 111.587 94.0466C111.553 93.41 111.52 92.7623 111.483 92.0913C111.454 91.5626 111.016 91.1498 110.486 91.1498H108.561C108.012 91.1498 107.566 91.5925 107.563 92.1415C107.555 93.9672 107.564 95.8667 107.562 97.8236C107.561 98.3744 107.114 98.8198 106.563 98.8198H104.789C104.237 98.8198 103.789 99.2676 103.789 99.8198V102.54C103.789 103.092 104.237 103.54 104.789 103.54H106.569C107.122 103.54 107.569 103.988 107.569 104.54V106.49C107.569 107.042 107.122 107.49 106.569 107.49H100.413C100.142 107.49 99.8827 107.6 99.6972 107.797C99.5609 107.942 99.4148 108.099 99.2456 108.279C99.069 108.466 98.9693 108.714 98.9693 108.971V114.96C98.9693 115.512 98.5216 115.96 97.9693 115.96H96.3735C96.1083 115.96 95.8541 115.854 95.6662 115.667C95.5672 115.568 95.4658 115.468 95.3622 115.366C95.1694 115.176 95.0593 114.917 95.0593 114.646C95.0593 111.386 95.0593 108.121 95.0593 104.73C95.0593 104.178 94.6116 103.73 94.0593 103.73H92.2093C91.657 103.73 91.2093 104.178 91.2093 104.73V106.34C91.2093 106.892 90.7616 107.34 90.2093 107.34H88.2293C87.677 107.34 87.2293 106.892 87.2293 106.34V104.61C87.2293 104.058 86.7816 103.61 86.2293 103.61H84.2593C83.707 103.61 83.2593 103.162 83.2593 102.61V96.4441C83.2593 96.1788 83.1539 95.9245 82.9664 95.7369C82.8269 95.5975 82.6885 95.459 82.5223 95.2928C82.3347 95.1053 82.0803 94.9998 81.8151 94.9998H79.6093ZM87.2593 87.1598C87.2648 87.1598 87.2693 87.1643 87.2693 87.1698V98.5498C87.2693 99.1021 87.717 99.5498 88.2693 99.5498H98.4445C98.7506 99.5498 99.0477 99.4135 99.2049 99.1507C100.229 97.4386 99.4988 95.4669 99.6193 93.6498C99.7379 91.829 99.6771 90.0011 99.6557 88.1598C99.6493 87.6076 99.2016 87.1598 98.6493 87.1598H87.2593V87.1598Z" fill="white"/>
<path d="M66.1131 45.6657C66.1113 45.662 66.1103 45.658 66.1103 45.654V42.7666C66.1103 42.2236 65.677 41.7797 65.1341 41.7671C64.1956 41.7453 63.2529 41.725 62.3103 41.7101C61.3231 41.7025 60.3358 41.7065 59.3004 41.7088C58.7481 41.7101 58.3003 42.1579 58.3003 42.7101V44.5101C58.3003 45.0624 57.8526 45.5101 57.3003 45.5101H55.3203C54.768 45.5101 54.3203 45.0624 54.3203 44.5101V38.5644C54.3203 38.2991 54.215 38.0448 54.0274 37.8572L53.6832 37.513C53.4957 37.3255 53.2413 37.2201 52.9761 37.2201H50.8203C50.268 37.2201 49.8203 36.7724 49.8203 36.2201V34.3417C49.8203 33.9663 50.0284 33.6151 50.3796 33.4826C52.4494 32.7018 54.6941 33.271 57.018 33.1794C57.6312 33.1552 58.1803 33.6244 58.1803 34.2382V36.7001C58.1803 37.2524 58.628 37.7001 59.1803 37.7001H64.9903C65.5426 37.7001 65.9903 37.2524 65.9903 36.7001V26.4401C65.9903 25.8879 66.438 25.4401 66.9903 25.4401H69.6203C70.1726 25.4401 70.6203 25.8879 70.6203 26.4401V28.0601C70.6203 28.6124 71.068 29.0601 71.6203 29.0601H73.6003C74.1526 29.0601 74.6003 28.6124 74.6003 28.0601V22.3601C74.6003 21.8079 75.048 21.3601 75.6003 21.3601H77.5803C78.1326 21.3601 78.5803 20.9124 78.5803 20.3601V13.8901C78.5803 13.3379 79.028 12.8901 79.5803 12.8901H81.4929C82.0242 12.8901 82.4628 13.3056 82.4918 13.8361C82.5235 14.4163 82.5569 15.0288 82.5909 15.6711C82.6191 16.2028 83.0581 16.6201 83.5905 16.6201H86.0103C86.5626 16.6201 87.0103 17.0679 87.0103 17.6201V28.1201C87.0103 28.6724 86.5626 29.1201 86.0103 29.1201H84.2703C83.718 29.1201 83.2703 28.6724 83.2703 28.1201V26.3401C83.2703 25.7879 82.8226 25.3401 82.2703 25.3401H79.7403C79.188 25.3401 78.7403 25.7879 78.7403 26.3401V32.0832C78.7403 32.6143 79.1555 33.0527 79.6858 33.0822C80.2619 33.1142 80.8712 33.1486 81.5089 33.1853C82.0375 33.2158 82.4503 33.6536 82.4503 34.183V36.2559C82.4503 36.5211 82.5557 36.7755 82.7432 36.963C82.8985 37.1183 83.038 37.2578 83.1675 37.3873C83.355 37.5748 83.6093 37.6801 83.8745 37.6801H90.0803C90.6326 37.6801 91.0803 37.2324 91.0803 36.6801V34.2901C91.0803 33.7379 91.528 33.2901 92.0803 33.2901H93.9934C94.5245 33.2901 94.9629 33.7053 94.9924 34.2356C95.0322 34.9492 95.0766 35.7249 95.1277 36.5799C95.1479 36.9169 95.3345 37.2276 95.644 37.3626C97.8584 38.3282 100.29 37.5104 102.692 37.779C103.157 37.8309 103.48 38.2419 103.48 38.7092V40.6801C103.48 41.2324 103.033 41.6801 102.48 41.6801H92.2503C91.698 41.6801 91.2503 42.1279 91.2503 42.6801V44.6501C91.2503 45.2024 91.698 45.6501 92.2503 45.6501H102.62C103.173 45.6501 103.62 46.0979 103.62 46.6501V48.6101C103.62 49.1624 103.173 49.6101 102.62 49.6101H92.1203C91.568 49.6101 91.1203 50.0579 91.1203 50.6101V53.2201C91.1203 53.7724 90.6726 54.2201 90.1203 54.2201H88.1603C87.608 54.2201 87.1603 53.7724 87.1603 53.2201V50.5801C87.1603 50.0279 86.7126 49.5801 86.1603 49.5801H84.3103C83.758 49.5801 83.3103 49.1324 83.3103 48.5801V46.6001C83.3103 46.0479 83.758 45.6001 84.3103 45.6001H86.0703C86.6226 45.6001 87.0703 45.1524 87.0703 44.6001V42.7201C87.0703 42.1679 86.6226 41.7201 86.0703 41.7201C84.9357 41.7201 83.843 41.7201 82.7503 41.7201C81.6809 41.7124 80.6055 41.6926 79.4868 41.6748C78.9399 41.6661 78.5003 41.2206 78.5003 40.6736V38.1001C78.5003 37.5479 78.0526 37.1001 77.5003 37.1001H75.6303C75.078 37.1001 74.6303 36.6524 74.6303 36.1001V34.2601C74.6303 33.7079 74.1826 33.2601 73.6303 33.2601H71.8703C71.318 33.2601 70.8703 33.7079 70.8703 34.2601V36.8701C70.8703 37.4224 71.318 37.8701 71.8703 37.8701H73.6703C74.2226 37.8701 74.6704 38.3179 74.6716 38.8702C74.674 39.9056 74.6779 40.8929 74.6703 41.8801C74.6629 42.8214 74.639 43.7682 74.6149 44.7042C74.601 45.2469 74.157 45.6801 73.614 45.6801H66.1365C66.1266 45.6801 66.1175 45.6745 66.1131 45.6657V45.6657Z" fill="white"/>
<path d="M0.429688 5.31983C0.429688 2.5584 2.66826 0.319824 5.42969 0.319824H28.1497C28.702 0.319824 29.1497 0.76754 29.1497 1.31982V28.055C29.1497 28.5384 28.8114 28.9469 28.33 28.9908C24.2386 29.3643 10.2851 29.4634 1.38814 29.1464C0.852082 29.1273 0.429688 28.6863 0.429688 28.1499V5.31983ZM24.2097 25.2098C24.762 25.2098 25.2097 24.7621 25.2097 24.2098V5.26982C25.2097 4.71754 24.762 4.26982 24.2097 4.26982H5.64221C5.24567 4.26982 4.87756 4.49996 4.68038 4.844C4.48694 5.18153 4.29969 5.53267 4.29969 5.87982C4.25226 11.9789 4.26781 18.069 4.26954 24.2098C4.2697 24.7621 4.7174 25.2098 5.26969 25.2098H24.2097Z" fill="white"/>
<path d="M29.1514 119.942C29.1545 119.945 29.1523 119.95 29.1479 119.95H5.41992C2.6585 119.95 0.419922 117.712 0.419922 114.95V92.2152C0.419922 91.7273 0.763983 91.3167 1.25019 91.2762C5.44662 90.9262 20.0781 90.8264 28.1974 91.1312C28.732 91.1513 29.1499 91.5916 29.1499 92.1265V119.938C29.1499 119.939 29.1504 119.941 29.1514 119.942V119.942ZM25.2599 95.1102C25.2599 95.1157 25.2554 95.1202 25.2499 95.1202H5.31992C4.76764 95.1202 4.31992 95.5679 4.31992 96.1202V114.764C4.31992 115.183 4.57918 115.561 4.98074 115.678C8.09989 116.588 11.3441 115.899 14.5099 116.02C17.7484 116.147 21.0034 116.068 24.2599 116.053C24.8122 116.05 25.2599 115.602 25.2599 115.05V95.1102V95.1102Z" fill="white"/>
<path d="M119.951 29.16C119.951 29.1545 119.946 29.15 119.941 29.15H92.2109C91.6587 29.15 91.2109 28.7023 91.2109 28.15V1.42503C91.2109 0.937135 91.555 0.52667 92.0412 0.486389C95.6452 0.187827 106.965 0.0774158 115.178 0.243256C117.851 0.297225 119.951 2.49495 119.951 5.16819V29.16V29.16ZM116.011 25.2C116.005 25.2 116.001 25.1956 116.001 25.19V5.49426C116.001 5.22904 115.896 4.97466 115.708 4.78712C115.631 4.71022 115.56 4.63952 115.494 4.5729C115.306 4.38536 115.052 4.28004 114.787 4.28004H96.1909C95.6387 4.28004 95.1909 4.72776 95.1909 5.28004V24.2C95.1909 24.7523 95.6387 25.2 96.1909 25.2H116.011V25.2Z" fill="white"/>
<path d="M78.6082 78.5657C78.6094 78.5632 78.6076 78.5602 78.6048 78.5602H75.6609C75.1087 78.5602 74.6609 78.1125 74.6609 77.5602V75.6826C74.6609 75.1492 74.2424 74.7098 73.7097 74.684C73.0751 74.6532 72.4281 74.6217 71.7596 74.5883C71.228 74.5617 70.8109 74.1226 70.8109 73.5903V71.7602C70.8109 71.2079 70.3632 70.7602 69.8109 70.7602H67.4264C67.0542 70.7602 66.7061 70.5555 66.5671 70.2102C65.6662 67.9719 66.3112 65.7307 66.1394 63.6332C66.1134 63.3158 66.2139 62.9972 66.4391 62.772C66.55 62.6611 66.6643 62.5468 66.798 62.4131C66.9855 62.2256 67.2399 62.1201 67.5051 62.1203C68.4696 62.121 69.5925 62.1266 70.7609 62.1702C70.7977 63.0683 70.8075 63.9989 70.81 64.9302C70.8115 65.4825 71.2587 65.9302 71.8109 65.9302H73.5909C74.1432 65.9302 74.5909 65.4825 74.5909 64.9302V63.2202C74.5909 62.6679 74.1432 62.2207 73.5909 62.2194C72.6169 62.217 71.6722 62.2075 70.7609 62.1702C70.7224 61.207 70.7136 60.2676 70.7115 59.2331C70.7105 58.6996 70.2921 58.2598 69.7593 58.2344C69.006 58.1984 68.2527 58.1633 67.5085 58.1315C67.1895 58.1178 66.8897 57.9563 66.7446 57.6719C66.4205 57.0366 66.2056 56.2543 66.0999 55.3252C66.0389 54.7892 65.6029 54.3602 65.0634 54.3602H63.1709C62.6187 54.3602 62.1709 54.8079 62.1709 55.3602V57.1802C62.1709 57.7325 61.7232 58.1802 61.1709 58.1802H59.2109C58.6587 58.1802 58.2109 57.7325 58.2109 57.1802V50.7002C58.2109 50.1479 58.6587 49.7002 59.2109 49.7002H61.0709C61.6232 49.7002 62.0709 49.2525 62.0709 48.7002V46.6802C62.0709 46.1279 62.5187 45.6802 63.0709 45.6802H65.1009C65.6532 45.6802 66.1009 46.1279 66.1009 46.6802V48.6402C66.1009 49.1925 66.5487 49.6402 67.1009 49.6402H69.2707C69.4477 49.6402 69.6248 49.6846 69.7696 49.7863C71.3461 50.8937 70.3669 52.5328 70.852 53.864C70.9629 54.1683 71.2833 54.3202 71.6072 54.3202H81.5207C82.0532 54.3202 82.4924 54.7375 82.5174 55.2693C82.5492 55.942 82.5775 56.5901 82.6065 57.2284C82.6307 57.7614 83.0702 58.1802 83.6037 58.1802H90.1009C90.6532 58.1802 91.1009 58.6279 91.1009 59.1802V61.1302C91.1009 61.6825 90.6532 62.1302 90.1009 62.1302H79.6009C79.0487 62.1302 78.6009 62.5779 78.6009 63.1302V78.564C78.6009 78.568 78.6064 78.5693 78.6082 78.5657V78.5657Z" fill="white"/>
<path d="M49.6603 107.51V115.06C49.6603 115.612 49.2126 116.06 48.6603 116.06H46.7103C46.158 116.06 45.7103 115.612 45.7103 115.06V112.083C45.7103 111.883 45.6553 111.657 45.4803 111.56V111.56C45.4003 111.51 45.2903 111.46 45.2003 111.46C41.5961 111.46 38.0003 111.46 34.3204 111.46C33.7681 111.46 33.3203 111.012 33.3203 110.46V104.72C33.3203 104.168 33.768 103.72 34.3203 103.72H36.1103C36.6626 103.72 37.1103 104.168 37.1103 104.72V106.38C37.1103 106.932 37.558 107.38 38.1103 107.38H40.7003C41.2526 107.38 41.7003 106.932 41.7003 106.38V104.68C41.7003 104.128 41.2526 103.68 40.7003 103.68H38.8869C38.3518 103.68 37.9117 103.259 37.8871 102.725C37.8464 101.838 37.8057 100.993 37.7649 100.195C37.7554 100.009 37.697 99.825 37.5759 99.6835C36.5951 98.5385 35.2892 99.0531 34.0524 98.9779C33.6205 98.9517 33.3403 98.5575 33.3403 98.1249V84.2402C33.3403 83.6879 33.788 83.2402 34.3403 83.2402H36.0403C36.5926 83.2402 37.0403 83.6879 37.0403 84.2402V85.606C37.0403 85.8712 37.1456 86.1257 37.3339 86.3125C37.4917 86.469 37.6324 86.6078 37.7624 86.7378C37.9543 86.9296 38.2135 87.0402 38.4848 87.0402H40.7203C41.2726 87.0402 41.7203 86.5925 41.7203 86.0402V79.7002C41.7203 79.1479 42.168 78.7002 42.7203 78.7002H44.7003C45.2526 78.7002 45.7003 79.1479 45.7003 79.7002V94.0202C45.7003 94.5725 46.148 95.0202 46.7003 95.0202H48.6603C49.2126 95.0202 49.6603 95.4679 49.6603 96.0202V97.9302C49.6603 98.4825 49.2126 98.9302 48.6603 98.9302H47.1545C46.8893 98.9302 46.6349 99.0356 46.4474 99.2231C46.3098 99.3607 46.1862 99.4843 46.0732 99.5974C45.8856 99.7849 45.7803 100.039 45.7803 100.304V106.53C45.7803 107.082 46.228 107.53 46.7803 107.53H49.6403C49.6514 107.53 49.6603 107.521 49.6603 107.51V107.51Z" fill="white"/>
<path d="M49.6708 12.7599C49.6653 12.7599 49.6608 12.7644 49.6608 12.7699V15.6356C49.6608 16.1657 50.0743 16.6037 50.6035 16.6335C51.3901 16.6778 52.1827 16.7211 52.9656 16.7607C53.2135 16.7732 53.448 16.8771 53.6235 17.0526C53.7041 17.1332 53.7875 17.2166 53.8779 17.307C54.0654 17.4945 54.1708 17.7489 54.1708 18.0141V20.2199C54.1708 20.7722 54.6185 21.2199 55.1708 21.2199H57.2208C57.7731 21.2199 58.2208 21.6676 58.2208 22.2199V24.2699C58.2208 24.8222 57.7731 25.2699 57.2208 25.2699H55.3237C54.7942 25.2699 54.3564 25.6826 54.3259 26.2112C54.2926 26.7873 54.2604 27.3609 54.2309 27.9161C54.2177 28.1632 54.1139 28.3967 53.939 28.5717C53.8467 28.664 53.7569 28.7538 53.6637 28.847C53.4762 29.0345 53.2218 29.1399 52.9566 29.1399H50.8008C50.2485 29.1399 49.8008 28.6922 49.8008 28.1399V21.7524C49.8008 21.2231 49.3883 20.7854 48.8599 20.7548C48.1607 20.7143 47.4742 20.6752 46.7721 20.6347C46.2435 20.6042 45.8308 20.1665 45.8308 19.637V17.8799C45.8308 17.3276 45.3831 16.8799 44.8308 16.8799H42.8708C42.3185 16.8799 41.8708 17.3276 41.8708 17.8799V20.2799C41.8708 20.8322 42.3185 21.2799 42.8708 21.2799H44.6508C45.2031 21.2799 45.6508 21.7276 45.6508 22.2799V36.017C45.6508 36.5543 45.2152 36.9899 44.6779 36.9899H42.1816C42.117 36.9899 41.9266 36.9537 41.8908 36.8999V36.8999C41.8308 36.8199 41.7808 36.7199 41.7808 36.6199C41.7808 33.2337 41.7808 29.8474 41.7808 26.37C41.7808 25.8177 41.3331 25.3699 40.7808 25.3699H38.9108C38.3585 25.3699 37.9108 24.9222 37.9108 24.3699V17.7799C37.9108 17.2276 37.4631 16.7799 36.9108 16.7799H34.3608C33.8085 16.7799 33.3608 16.3322 33.3608 15.7799V13.7999C33.3608 13.2476 33.8085 12.7999 34.3608 12.7999H36.7008C37.2531 12.7999 37.7008 12.3522 37.7008 11.7999V9.87731C37.7008 9.346 37.2853 8.90743 36.7547 8.88037C36.027 8.84326 35.2641 8.80616 34.5155 8.76905C34.2679 8.75677 34.0337 8.65282 33.8584 8.47749C33.7711 8.39023 33.6842 8.30331 33.5937 8.21281C33.4062 8.02528 33.3008 7.77091 33.3008 7.50569V1.3999C33.3008 0.847617 33.7485 0.399902 34.3008 0.399902H36.1508C36.7031 0.399902 37.1508 0.847618 37.1508 1.3999V3.2099C37.1508 3.76219 37.5985 4.2099 38.1508 4.2099H44.7208C45.2731 4.2099 45.7208 4.65762 45.7208 5.2099V11.7599C45.7208 12.3122 46.1685 12.7599 46.7208 12.7599H49.6708V12.7599Z" fill="white"/>
<path d="M74.7099 111.41C72.1829 111.454 69.6948 111.459 67.1699 111.46C66.6177 111.46 66.1699 111.012 66.1699 110.46V104.59C66.1699 104.038 66.6176 103.59 67.1699 103.59H69.6999C70.2522 103.59 70.6999 103.142 70.6999 102.59V100.74C70.6999 100.188 71.1476 99.74 71.6999 99.74H73.5399C74.0922 99.74 74.5399 99.2923 74.5399 98.74V96.02C74.5399 95.4677 74.9876 95.02 75.5399 95.02H77.6099C78.1622 95.02 78.6099 95.4677 78.6099 96.02V102.517C78.6099 103.051 79.0287 103.49 79.5617 103.514C80.2006 103.543 80.8506 103.57 81.5236 103.599C82.0584 103.622 82.4799 104.062 82.4799 104.597V110.566C82.4799 110.905 82.6481 111.238 82.9719 111.34C84.2971 111.756 85.8859 110.876 86.9899 112.271C87.1083 112.42 87.1599 112.611 87.1599 112.802V114.96C87.1599 115.512 87.6076 115.96 88.1599 115.96H89.9499C90.5022 115.96 90.9499 116.408 90.9499 116.96V118.92C90.9499 119.472 90.5022 119.92 89.9499 119.92H79.6399C79.0876 119.92 78.6399 119.472 78.6399 118.92V117.08C78.6399 116.528 78.1922 116.08 77.6399 116.08H75.6499C75.0976 116.08 74.6496 115.632 74.6504 115.08C74.6521 113.836 74.6604 112.635 74.6999 111.41C75.598 111.373 76.5287 111.364 77.4599 111.361C78.0122 111.359 78.4599 110.912 78.4599 110.36V108.58C78.4599 108.028 78.0122 107.58 77.4599 107.58H75.7499C75.1976 107.58 74.7505 108.028 74.7491 108.58C74.7467 109.554 74.7373 110.499 74.6999 111.41H74.7099Z" fill="white"/>
<path d="M58.2058 62.1149C58.209 62.1117 58.2133 62.1099 58.2179 62.1099H61.1042C61.627 62.1099 62.0626 62.5125 62.0911 63.0344C62.2799 66.4864 62.0822 69.9633 62.1782 73.5814C62.1924 74.1172 62.6337 74.5399 63.1697 74.5399H65.0208C65.5731 74.5399 66.0208 74.9876 66.0208 75.5399V77.4799C66.0208 78.0322 65.5731 78.4799 65.0208 78.4799H63.1608C62.6085 78.4799 62.1608 78.9276 62.1608 79.4799V86.1099C62.1608 86.6621 61.7131 87.1099 61.1608 87.1099H55.3355C54.8053 87.1099 54.3672 86.696 54.3389 86.1666C54.2965 85.3744 54.2561 84.5803 54.2124 83.8C54.1987 83.5551 54.095 83.324 53.9215 83.1506C53.8323 83.0614 53.7417 82.9708 53.6437 82.8728C53.4561 82.6852 53.2018 82.5799 52.9366 82.5799H50.8008C50.2485 82.5799 49.8008 82.1321 49.8008 81.5799V79.8241C49.8008 79.5589 49.9061 79.3045 50.0937 79.117C50.1716 79.039 50.2517 78.9589 50.3379 78.8728C50.5254 78.6852 50.7798 78.5799 51.045 78.5799H53.1408C53.6931 78.5799 54.1408 78.1321 54.1408 77.5799V75.6864C54.1408 75.1514 54.5619 74.7112 55.0964 74.6867C55.8061 74.6542 56.5092 74.6211 57.2489 74.5856C57.7819 74.5601 58.2008 74.1205 58.2008 73.587V62.1269C58.2008 62.1224 58.2026 62.1181 58.2058 62.1149V62.1149Z" fill="white"/>
<path d="M70.8193 16.7101H67.1817C66.6484 16.7101 66.2089 17.1286 66.1814 17.6613C66.1487 18.293 66.1141 18.9359 66.0789 19.6015C66.0508 20.133 65.6117 20.5501 65.0794 20.5501H59.2719C58.7265 20.5501 58.2813 20.113 58.2689 19.5677C58.2493 18.701 58.2265 17.7855 58.2193 16.8701C58.2117 15.8833 58.2156 14.9023 58.218 13.8702C58.2192 13.3179 58.667 12.8701 59.2193 12.8701H65.0611C65.6048 12.8701 66.0489 12.4357 66.061 11.8921C66.0833 10.8926 66.1042 9.93349 66.1193 8.9801C66.1281 7.82952 66.1213 6.68677 66.1196 5.61425C66.1192 5.34904 66.2246 5.09474 66.4122 4.9072C66.5222 4.79719 66.6264 4.69301 66.7364 4.58299C66.9239 4.39546 67.1783 4.2901 67.4435 4.2901H69.6593C70.2116 4.2901 70.6593 3.84238 70.6593 3.2901V1.3501C70.6593 0.797812 71.107 0.350098 71.6593 0.350098H77.4793C78.0316 0.350098 78.4793 0.797813 78.4793 1.3501V3.1601C78.4793 3.71238 78.0316 4.1601 77.4793 4.1601H75.5428C75.193 4.1601 74.8516 4.33977 74.7595 4.67727C74.3996 5.99632 75.2555 7.56505 73.8573 8.65359C73.7083 8.76959 73.5191 8.8201 73.3303 8.8201H71.8393C71.287 8.8201 70.8393 9.26781 70.8393 9.8201V16.6901C70.8393 16.7011 70.8303 16.7101 70.8193 16.7101V16.7101Z" fill="white"/>
<path d="M32.21 33.1602C32.7623 33.1602 33.21 33.6079 33.21 34.1602V36.3656C33.21 36.6428 33.325 36.9075 33.5276 37.0968C33.6656 37.2257 33.8136 37.364 33.9818 37.5211C34.1669 37.694 34.4109 37.7902 34.6642 37.7902H40.76C41.3123 37.7902 41.76 38.2379 41.76 38.7902V44.6602C41.76 45.2124 41.3123 45.6602 40.76 45.6602H38.8471C38.3159 45.6602 37.8774 45.2448 37.8483 44.7145C37.8083 43.9886 37.7705 43.3112 37.7334 42.6533C37.7036 42.124 37.2655 41.7102 36.7353 41.7102H30.26C29.7077 41.7102 29.26 41.2624 29.26 40.7102V38.1402C29.26 37.5879 28.8123 37.1402 28.26 37.1402H22.5C21.9477 37.1402 21.5 36.6924 21.5 36.1402V34.1602C21.5 33.6079 21.9477 33.1602 22.5 33.1602H32.21Z" fill="white"/>
<path d="M45.6992 4.21008C45.7047 4.21008 45.7092 4.2056 45.7092 4.20008V1.33008C45.7092 0.777794 46.1569 0.330078 46.7092 0.330078H57.0492C57.6015 0.330078 58.0492 0.777793 58.0492 1.33008V7.57586C58.0492 7.84108 57.9439 8.09535 57.7564 8.28289C57.686 8.35327 57.6055 8.43376 57.5121 8.52718C57.3246 8.71472 57.0702 8.82008 56.805 8.82008H55.2592C54.7069 8.82008 54.2592 8.37236 54.2592 7.82008V5.61429C54.2592 5.34907 54.1538 5.09465 53.9662 4.90711C53.8212 4.76207 53.6957 4.63652 53.5621 4.503C53.3746 4.31547 53.1202 4.21008 52.855 4.21008H45.6992V4.21008Z" fill="white"/>
<path d="M61.1598 91.0601C61.7121 91.0601 62.1598 91.5078 62.1598 92.0601V93.9377C62.1598 94.471 62.5783 94.9104 63.1109 94.938C63.7427 94.9707 64.3855 95.0053 65.0511 95.0405C65.5827 95.0686 65.9998 95.5076 65.9998 96.0399V97.8001C65.9998 98.3523 65.5521 98.8001 64.9998 98.8001H55.2598C54.7075 98.8001 54.2598 98.3523 54.2598 97.8001V96.0101C54.2598 95.4578 54.7075 95.0101 55.2598 95.0101H57.1374C57.6707 95.0101 58.1101 94.5915 58.1378 94.0589C58.1718 93.4035 58.2086 92.7287 58.2481 92.0057C58.2771 91.4754 58.7157 91.0601 59.2468 91.0601H61.1598Z" fill="white"/>
<path d="M116.09 41.6002C116.101 41.6002 116.11 41.5912 116.11 41.5802V38.5043C116.11 38.2332 116 37.9736 115.805 37.7856C115.66 37.6462 115.504 37.497 115.327 37.33C115.143 37.1561 114.899 37.0602 114.646 37.0602H112.58C112.028 37.0602 111.58 36.6124 111.58 36.0602V34.4744C111.58 34.2092 111.685 33.9548 111.873 33.7673C111.976 33.6645 112.081 33.5593 112.187 33.4531C112.375 33.2655 112.629 33.1602 112.894 33.1602C114.92 33.1602 116.948 33.1602 119.102 33.1602C119.564 33.1602 119.972 33.4769 120.023 33.9363C120.142 35.0291 120.016 36.1561 120.04 37.2702C120.063 38.3646 120.051 39.459 120.044 40.6001C120.04 41.1524 119.592 41.6002 119.04 41.6002H116.09V41.6002Z" fill="white"/>
<path d="M44.7096 116.14C45.2619 116.14 45.7096 116.588 45.7096 117.14V118.941C45.7096 119.465 45.3056 119.901 44.7827 119.929C41.3579 120.115 37.9069 119.953 34.376 120C33.8135 120.008 33.3496 119.556 33.3496 118.994V117.14C33.3496 116.588 33.7973 116.14 34.3496 116.14H44.7096Z" fill="white"/>
<path d="M58.3008 108.51C58.3008 107.957 58.7485 107.51 59.3008 107.51H61.1019C61.6256 107.51 62.0616 107.914 62.0899 108.437C62.2754 111.862 62.1137 115.312 62.1608 118.843C62.1683 119.406 61.7168 119.87 61.1543 119.87H59.3008C58.7485 119.87 58.3008 119.422 58.3008 118.87V108.51Z" fill="white"/>
<path d="M116 118.716C116 118.981 115.895 119.235 115.707 119.423C115.624 119.506 115.548 119.582 115.476 119.654C115.293 119.837 115.045 119.945 114.786 119.94C113.681 119.918 112.761 119.724 112.027 119.357C111.731 119.209 111.57 118.891 111.57 118.56V112.712C111.57 112.515 111.624 112.318 111.75 112.167C112.592 111.156 113.68 111.448 114.681 111.48C114.979 111.49 115.272 111.591 115.482 111.802L115.707 112.027C115.895 112.214 116 112.469 116 112.734V118.716Z" fill="white"/>
<path d="M116.11 44.66C116.11 45.2122 115.663 45.66 115.11 45.66H108.73C108.178 45.66 107.73 45.2122 107.73 44.66V42.71C107.73 42.1577 108.178 41.71 108.73 41.71H115.11C115.663 41.71 116.11 42.1577 116.11 42.71V44.66Z" fill="white"/>
<path d="M62.1602 88.1099C62.1602 87.5576 62.6079 87.1099 63.1602 87.1099H69.5402C70.0924 87.1099 70.5402 87.5576 70.5402 88.1099V90.0599C70.5402 90.6121 70.0924 91.0599 69.5402 91.0599H63.1602C62.6079 91.0599 62.1602 90.6121 62.1602 90.0599V88.1099Z" fill="white"/>
<path d="M106.47 111.56C107.022 111.56 107.47 112.008 107.47 112.56V118.93C107.47 119.482 107.022 119.93 106.47 119.93H104.75C104.198 119.93 103.75 119.482 103.75 118.93V112.56C103.75 112.008 104.198 111.56 104.75 111.56H106.47Z" fill="white"/>
<path d="M49.6602 107.51V104.511C49.6602 104.043 49.985 103.632 50.4507 103.585C51.5454 103.476 52.6675 103.594 53.7702 103.57C54.8836 103.546 55.9909 103.56 57.2101 103.567C57.7623 103.57 58.2102 104.018 58.2102 104.57V106.52C58.2102 107.072 57.7624 107.52 57.2102 107.52H49.6702C49.6646 107.52 49.6602 107.516 49.6602 107.51V107.51Z" fill="white"/>
<path d="M74.5612 78.6384C74.5603 78.6394 74.5598 78.6406 74.5598 78.642V81.4399C74.5598 81.9922 74.112 82.4399 73.5598 82.4399H67.2598C66.7075 82.4399 66.2598 81.9922 66.2598 81.4399V79.8041C66.2598 79.5389 66.3651 79.2845 66.5527 79.097C66.6078 79.0419 66.6656 78.9841 66.7268 78.9228C66.9144 78.7353 67.1688 78.6299 67.434 78.6299H74.5577C74.5621 78.6299 74.5644 78.6353 74.5612 78.6384V78.6384Z" fill="white"/>
<path d="M119.951 110.39C119.951 110.942 119.503 111.39 118.951 111.39H117.211C116.659 111.39 116.211 110.942 116.211 110.39V104.72C116.211 104.168 116.659 103.72 117.211 103.72H118.951C119.503 103.72 119.951 104.168 119.951 104.72V110.39Z" fill="white"/>
<path d="M34.3008 33.0598C33.7485 33.0598 33.3008 32.6121 33.3008 32.0598V26.3398C33.3008 25.7876 33.7485 25.3398 34.3008 25.3398H36.0208C36.5731 25.3398 37.0208 25.7876 37.0208 26.3398V32.0598C37.0208 32.6121 36.5731 33.0598 36.0208 33.0598H34.3008Z" fill="white"/>
<path d="M45.7102 65.0599C45.7102 65.6121 45.2625 66.0599 44.7102 66.0599H38.9902C38.4379 66.0599 37.9902 65.6121 37.9902 65.0599V63.1099C37.9902 62.5576 38.4379 62.1099 38.9902 62.1099H44.7102C45.2625 62.1099 45.7102 62.5576 45.7102 63.1099V65.0599Z" fill="white"/>
<path d="M48.6609 66.0601C49.2132 66.0601 49.6609 66.5078 49.6609 67.0601V69.4901C49.6609 70.0423 49.2132 70.4901 48.6609 70.4901H46.7109C46.1587 70.4901 45.7109 70.0423 45.7109 69.4901V67.0601C45.7109 66.5078 46.1587 66.0601 46.7109 66.0601H48.6609Z" fill="white"/>
<path d="M53.2702 8.81982C53.8224 8.81982 54.2702 9.26754 54.2702 9.81982V11.3656C54.2702 11.6308 54.1648 11.8852 53.9772 12.0727C53.8367 12.2132 53.7112 12.3387 53.5731 12.4769C53.3855 12.6645 53.1312 12.7698 52.8659 12.7698H50.6602C50.1079 12.7698 49.6602 12.3221 49.6602 11.7698V9.81983C49.6602 9.26754 50.1079 8.81982 50.6602 8.81982H53.2702Z" fill="white"/>
<path d="M25.3203 67.2616C25.3203 66.6366 25.8953 66.1205 26.5182 66.0685C27.4224 65.9931 28.3387 65.8888 29.0404 66.7622C29.1596 66.9107 29.2103 67.1013 29.2103 67.2918V69.6701C29.2103 70.2224 28.7626 70.6701 28.2103 70.6701H26.3203C25.768 70.6701 25.3203 70.2224 25.3203 69.6701V67.2616Z" fill="white"/>
<path d="M54.2702 94C54.2702 94.5523 53.8224 95 53.2702 95H50.6602C50.1079 95 49.6602 94.5523 49.6602 94V92.23C49.6602 91.6777 50.1079 91.23 50.6602 91.23H53.0459C53.3112 91.23 53.5654 91.3352 53.7529 91.5228C53.8174 91.5873 53.8916 91.6614 53.9772 91.747C54.1647 91.9345 54.2702 92.189 54.2702 92.4542V94Z" fill="white"/>
<path d="M49.755 116.135C49.7532 116.137 49.7545 116.14 49.7571 116.14H53.19C53.7423 116.14 54.19 116.588 54.19 117.14V118.676C54.19 118.941 54.0847 119.195 53.8971 119.383C53.8161 119.464 53.7339 119.546 53.6529 119.627C53.4653 119.815 53.211 119.92 52.9458 119.92H50.76C50.2077 119.92 49.76 119.472 49.76 118.92V116.137C49.76 116.134 49.7568 116.133 49.755 116.135V116.135Z" fill="white"/>
<path d="M70.6097 118.95C70.6097 119.502 70.162 119.95 69.6097 119.95H67.3639C67.1781 119.95 66.9923 119.902 66.8454 119.788C65.9903 119.125 66.0517 118.257 66.1009 117.348C66.1335 116.745 66.6257 116.21 67.2297 116.21H69.6097C70.162 116.21 70.6097 116.658 70.6097 117.21V118.95Z" fill="white"/>
<path d="M37.0605 70.6101H34.5548C34.2895 70.6101 34.0352 70.5048 33.8477 70.3172C33.7697 70.2393 33.6896 70.1592 33.6035 70.073C33.4159 69.8855 33.3105 69.6311 33.3105 69.3659V67.3594C33.3105 67.0853 33.4231 66.8233 33.6204 66.6331C33.6955 66.5607 33.7758 66.4831 33.8595 66.4021C34.0462 66.2214 34.2959 66.1201 34.5558 66.1201H36.0505C36.6028 66.1201 37.0505 66.5678 37.0505 67.1201V70.6001C37.0505 70.6056 37.055 70.6101 37.0605 70.6101V70.6101Z" fill="white"/>
<path d="M106.5 33.27C107.052 33.27 107.5 33.7177 107.5 34.27V36C107.5 36.5523 107.052 37 106.5 37H104.77C104.217 37 103.77 36.5523 103.77 36V34.27C103.77 33.7177 104.217 33.27 104.77 33.27H106.5Z" fill="white"/>
<path d="M0.429688 33.21H4.14969V36.93H0.429688V33.21Z" fill="white"/>
<path d="M25.4297 84.2202C25.4297 83.6679 25.8774 83.2202 26.4297 83.2202H28.1497C28.702 83.2202 29.1497 83.6679 29.1497 84.2202V85.9402C29.1497 86.4925 28.702 86.9402 28.1497 86.9402H26.4297C25.8774 86.9402 25.4297 86.4925 25.4297 85.9402V84.2202Z" fill="white"/>
<path d="M58.3105 26.3599C58.3105 25.8076 58.7583 25.3599 59.3105 25.3599H61.0905C61.6428 25.3599 62.0905 25.8076 62.0905 26.3599V28.0699C62.0905 28.6221 61.6428 29.0699 61.0905 29.0699H59.3105C58.7583 29.0699 58.3105 28.6221 58.3105 28.0699V26.3599Z" fill="white"/>
<path d="M70.8105 17.8101C70.8105 17.2578 71.2583 16.8101 71.8105 16.8101H73.5905C74.1428 16.8101 74.5905 17.2578 74.5905 17.8101V19.5201C74.5905 20.0723 74.1428 20.5201 73.5905 20.5201H71.8105C71.2583 20.5201 70.8105 20.0723 70.8105 19.5201V17.8101Z" fill="white"/>
<path d="M87.0501 11.7102C87.0501 12.2625 86.6024 12.7102 86.0501 12.7102H84.3301C83.7778 12.7102 83.3301 12.2625 83.3301 11.7102V9.99023C83.3301 9.43795 83.7778 8.99023 84.3301 8.99023H86.0501C86.6024 8.99023 87.0501 9.43795 87.0501 9.99023V11.7102Z" fill="white"/>
<path d="M83.3203 1.31982C83.3203 0.767539 83.768 0.319824 84.3203 0.319824H86.0503C86.6026 0.319824 87.0503 0.767539 87.0503 1.31982V3.03982C87.0503 3.59211 86.6026 4.03982 86.0503 4.03982H84.3203C83.768 4.03982 83.3203 3.59211 83.3203 3.03982V1.31982Z" fill="white"/>
<path d="M62.2695 1.31982C62.2695 0.767539 62.7172 0.319824 63.2695 0.319824H64.9995C65.5518 0.319824 65.9995 0.767539 65.9995 1.31982V3.03982C65.9995 3.59211 65.5518 4.03982 64.9995 4.03982H63.2695C62.7172 4.03982 62.2695 3.59211 62.2695 3.03982V1.31982Z" fill="white"/>
<path d="M116.199 96.1001C116.199 95.5478 116.647 95.1001 117.199 95.1001H118.979C119.532 95.1001 119.979 95.5478 119.979 96.1001V97.8101C119.979 98.3624 119.532 98.8101 118.979 98.8101H117.199C116.647 98.8101 116.199 98.3624 116.199 97.8101V96.1001Z" fill="white"/>
<path d="M108.65 103.46C108.098 103.46 107.65 103.012 107.65 102.46V100.68C107.65 100.128 108.098 99.6802 108.65 99.6802H110.36C110.913 99.6802 111.36 100.128 111.36 100.68V102.46C111.36 103.012 110.913 103.46 110.36 103.46H108.65Z" fill="white"/>
<path d="M107.561 108.51C107.561 107.957 108.008 107.51 108.561 107.51H110.331C110.883 107.51 111.331 107.957 111.331 108.51V110.46C111.331 111.012 110.883 111.46 110.331 111.46H108.561C108.008 111.46 107.561 111.012 107.561 110.46V108.51Z" fill="white"/>
<path d="M116.199 46.75C116.199 46.1977 116.647 45.75 117.199 45.75H118.979C119.532 45.75 119.979 46.1977 119.979 46.75V48.46C119.979 49.0123 119.532 49.46 118.979 49.46H117.199C116.647 49.46 116.199 49.0123 116.199 48.46V46.75Z" fill="white"/>
<path d="M100.721 62C100.168 62 99.7207 61.5523 99.7207 61V59.27C99.7207 58.7177 100.168 58.27 100.721 58.27H102.451C103.003 58.27 103.451 58.7177 103.451 59.27V61C103.451 61.5523 103.003 62 102.451 62H100.721Z" fill="white"/>
<path d="M92.1094 58.16C91.5571 58.16 91.1094 57.7122 91.1094 57.16V55.21C91.1094 54.6577 91.5571 54.21 92.1094 54.21H93.8794C94.4317 54.21 94.8794 54.6577 94.8794 55.21V57.16C94.8794 57.7122 94.4317 58.16 93.8794 58.16H92.1094Z" fill="white"/>
<path d="M93.9993 91.1699C94.5516 91.1699 94.9993 91.6176 94.9993 92.1699V93.8899C94.9993 94.4422 94.5516 94.8899 93.9993 94.8899H92.2793C91.727 94.8899 91.2793 94.4422 91.2793 93.8899V92.1699C91.2793 91.6176 91.727 91.1699 92.2793 91.1699H93.9993Z" fill="white"/>
<path d="M20.6005 20.5998H9.98047C9.42818 20.5998 8.98047 20.1521 8.98047 19.5998V9.85042C8.98047 9.3178 9.39785 8.878 9.93013 8.85891C13.0616 8.74664 16.2758 8.84212 19.5728 8.81305C20.1319 8.80812 20.5905 9.25835 20.5905 9.8175V20.5898C20.5905 20.5953 20.5949 20.5998 20.6005 20.5998V20.5998Z" fill="white"/>
<path d="M9.92969 111.34C9.3774 111.34 8.92969 110.892 8.92969 110.34V100.73C8.92969 100.178 9.3774 99.73 9.92969 99.73H19.6814C20.2171 99.73 20.6582 100.152 20.6743 100.688C20.7678 103.817 20.6846 107.034 20.716 110.322C20.7214 110.881 20.2711 111.34 19.7119 111.34H9.92969Z" fill="white"/>
<path d="M111.39 20.6001C111.39 20.6056 111.385 20.6101 111.38 20.6101H100.77C100.217 20.6101 99.7695 20.1623 99.7695 19.6101V9.82685C99.7695 9.27975 100.209 8.83405 100.756 8.82914C103.887 8.80104 107.093 8.83078 110.382 8.81605C110.937 8.81357 111.39 9.26238 111.39 9.81761V20.6001V20.6001Z" fill="white"/>
</svg>
