<svg width="14" height="15" viewBox="0 0 14 15" fill="none" xmlns="http://www.w3.org/2000/svg">
<path d="M4.35449 3.66187L7.26211 3.66187" stroke="white" stroke-linecap="round"/>
<path d="M4.35449 9.47729L7.26211 9.4773" stroke="white" stroke-linecap="round"/>
<path d="M4.35449 6.56958L8.71592 6.56958" stroke="white" stroke-linecap="round"/>
<path d="M11.6239 6.56957V2.75433C11.6239 1.81152 11.6239 1.34012 11.331 1.04722C11.0382 0.754331 10.5667 0.754331 9.62394 0.754331H3.44727C2.50446 0.754331 2.03305 0.754331 1.74016 1.04722C1.44727 1.34012 1.44727 1.81152 1.44727 2.75433V11.8386C1.44727 12.7814 1.44727 13.2528 1.74016 13.5457C2.03305 13.8386 2.50446 13.8386 3.44727 13.8386H6.5356" stroke="white" stroke-linecap="round"/>
<circle cx="10.5341" cy="11.2946" r="1.81726" stroke="white" stroke-linecap="round"/>
<path d="M13.0786 13.8386L11.9883 12.7483" stroke="white" stroke-linecap="round"/>
</svg>
