<svg width="18" height="19" viewBox="0 0 18 19" fill="none" xmlns="http://www.w3.org/2000/svg">
<path fill-rule="evenodd" clip-rule="evenodd" d="M5.78986 0.725911C6.67434 0.683666 6.95627 0.673828 9.20838 0.673828C11.461 0.673828 11.7424 0.684245 12.6263 0.725911C13.5092 0.768157 14.1128 0.915726 14.6402 1.12927C15.1933 1.34736 15.6943 1.689 16.1084 2.13042C16.5302 2.56406 16.8566 3.08879 17.0648 3.66804C17.2699 4.22012 17.4103 4.85148 17.4506 5.77567C17.491 6.7016 17.5004 6.99673 17.5004 9.35437C17.5004 11.712 17.491 12.0071 17.4506 12.9331C17.4103 13.8573 17.2699 14.4886 17.0653 15.0407C16.857 15.6197 16.5306 16.1442 16.109 16.5777C15.6944 17.0199 15.193 17.3613 14.6402 17.5789C14.1128 17.7936 13.5097 17.9406 12.6269 17.9828C11.7424 18.0251 11.4605 18.0349 9.20838 18.0349C6.95627 18.0349 6.67434 18.0251 5.78986 17.9828C4.90704 17.9406 4.30394 17.7936 3.77657 17.5795C3.2235 17.3614 2.72246 17.0197 2.30833 16.5783C1.88599 16.1443 1.55984 15.6194 1.35199 15.0407C1.1469 14.4886 1.00649 13.8573 0.966134 12.9331C0.925779 12.0071 0.916382 11.7126 0.916382 9.35437C0.916382 6.99615 0.926332 6.7016 0.966134 5.77625C1.00649 4.85206 1.14745 4.22012 1.35144 3.66804C1.55976 3.08904 1.88612 2.56453 2.30778 2.131C2.72238 1.68887 3.22377 1.34744 3.77657 1.12985C4.30394 0.915147 4.90704 0.768157 5.78986 0.725911ZM4.0773 9.38017C6.82964 8.12482 8.66496 7.29723 9.58327 6.89737C12.2052 5.75571 12.7501 5.55739 13.1052 5.55077C13.1833 5.5494 13.3579 5.56966 13.471 5.66575C13.5665 5.74689 13.5928 5.85649 13.6054 5.93341C13.618 6.01034 13.6336 6.18558 13.6212 6.3225C13.4791 7.88536 12.8643 11.678 12.5515 13.4284C12.4192 14.1691 12.1586 14.4174 11.9063 14.4417C11.4721 14.4836 11.1207 14.2213 10.7295 13.9293L10.7294 13.9293C10.6266 13.8526 10.5211 13.7738 10.4106 13.698C9.97687 13.4003 9.64161 13.1613 9.30548 12.9217C8.9977 12.7023 8.68919 12.4823 8.30365 12.2164C7.50137 11.6629 7.83721 11.324 8.28505 10.872C8.35755 10.7989 8.43299 10.7227 8.507 10.6423C8.54004 10.6063 8.70167 10.449 8.92953 10.2273C9.66044 9.51589 11.0729 8.14125 11.1085 7.98218C11.1144 7.95608 11.1198 7.8588 11.0646 7.80743C11.0094 7.75607 10.9279 7.77363 10.8691 7.7876C10.7858 7.8074 9.45828 8.72593 6.88668 10.5432C6.50988 10.814 6.16859 10.946 5.86281 10.9391C5.5257 10.9315 4.87725 10.7396 4.39519 10.5755C4.3244 10.5514 4.25534 10.5287 4.18869 10.5068C3.69872 10.3455 3.3389 10.227 3.37492 9.92623C3.39623 9.74825 3.63036 9.56623 4.0773 9.38017Z" fill="white"/>
</svg>
