<svg width="100" height="100" viewBox="0 0 100 100" fill="none" xmlns="http://www.w3.org/2000/svg">
<path d="M51.1673 91.5701H98.3974M79.6911 57.8461C82.3205 59.4059 86.7905 64.1032 83.6352 70.4138M76.2018 40.3689L81.8574 42.1803C84.5447 43.041 85.3622 46.4446 83.3588 48.4318L65.3816 66.2648C63.3782 68.252 59.9813 67.4071 59.1423 64.713L57.3766 59.043M76.2018 40.3689L57.3766 59.043M76.2018 40.3689L52.767 16.7444M33.9418 35.4184L28.2862 33.6071C25.5989 32.7464 24.7814 29.3428 26.7847 27.3555L44.762 9.5226C46.7653 7.53538 50.1623 8.38024 51.0013 11.0744L52.767 16.7444M33.9418 35.4184L52.767 16.7444M33.9418 35.4184L45.6592 47.2307L57.3766 59.043M48.3842 49.5549L43.2205 54.7186M38.2473 49.7455L43.411 44.5818M54.7668 91.57H94.7976C95.4899 91.57 96.0512 91.0087 96.0512 90.3164V83.7467C96.0512 83.0544 95.4899 82.4932 94.7976 82.4932H54.7668C54.0745 82.4932 53.5132 83.0544 53.5132 83.7467V90.3164C53.5132 91.0087 54.0745 91.57 54.7668 91.57ZM60.8248 82.4932H88.6294C89.3218 82.4932 89.883 81.9319 89.883 81.2396V75.0548C89.883 74.3625 89.3218 73.8012 88.6294 73.8012H60.8248C60.1325 73.8012 59.5712 74.3625 59.5712 75.0548V81.2396C59.5712 81.9319 60.1325 82.4932 60.8248 82.4932ZM3.40796 89.5577C0.99943 87.1492 0.99943 83.2442 3.40796 80.8356L34.2678 49.9758C35.2469 48.9967 36.8344 48.9967 37.8135 49.9758L42.9898 55.1522C43.969 56.1313 43.969 57.7188 42.9898 58.6979L12.13 89.5577C9.72149 91.9662 5.81649 91.9662 3.40796 89.5577Z" stroke="#017EC6"/>
</svg>
