<svg width="100" height="100" viewBox="0 0 100 100" fill="none" xmlns="http://www.w3.org/2000/svg">
<path d="M16.2937 36.7174H23.0857C25.9525 36.7174 28.6813 35.4867 30.579 33.3378L32.2183 31.4816C34.116 29.3328 36.8448 28.1021 39.7116 28.1021H52.2267C53.7313 28.1021 55.1854 28.645 56.3218 29.6311L64.7141 36.9135C66.1921 38.1961 65.6894 40.6029 63.8215 41.1867L62.2892 41.6655C60.3226 42.2801 58.1795 41.8856 56.5606 40.6112L54.2008 38.7534C53.9975 38.5934 53.7496 38.5004 53.4913 38.4873L42.3307 37.9198C41.2823 37.8665 40.2595 38.2553 39.5111 38.9916L34.6867 43.7382M83.7059 36.9399H77.1012C74.3991 36.9399 71.8121 35.8461 69.9296 33.9077L68.5267 32.4632C66.6442 30.5248 64.0572 29.431 61.3551 29.431H56.3053M83.7825 59.9801H76.7923M43.1822 56.833L29.1394 70.8758C27.6531 72.3622 25.2432 72.3622 23.7568 70.8758C22.2705 69.3895 22.2705 66.9796 23.7568 65.4932L37.7996 51.4504M50.2191 60.6033L36.1763 74.6461C34.6899 76.1325 32.2801 76.1325 30.7937 74.6461C29.3073 73.1597 29.3073 70.7499 30.7937 69.2635L44.8365 55.2207M48.1005 73.8226L43.3268 78.3821C41.8142 79.8268 39.4247 79.7994 37.9456 78.3203C36.4422 76.8169 36.4422 74.3794 37.9456 72.876L51.9575 58.8641M40.5136 48.7244L26.4708 62.7672C24.9845 64.2536 22.5746 64.2536 21.0882 62.7672C19.6019 61.2808 19.6019 58.871 21.0882 57.3846L35.131 43.3418M1.18848 33.6034V61.6499C1.18848 62.3401 1.74796 62.8995 2.43812 62.8995H12.209C14.2795 62.8995 15.9579 61.2211 15.9579 59.1506V36.1027C15.9579 34.0322 14.2795 32.3538 12.209 32.3538H2.43812C1.74796 32.3538 1.18848 32.9132 1.18848 33.6034ZM98.8111 33.8261V61.8726C98.8111 62.5628 98.2516 63.1223 97.5615 63.1223H87.7906C85.7201 63.1223 84.0417 61.4438 84.0417 59.3733V36.3254C84.0417 34.2549 85.7201 32.5765 87.7906 32.5765H97.5615C98.2516 32.5765 98.8111 33.136 98.8111 33.8261ZM63.002 55.3738L73.1316 65.5269C74.6143 67.0131 74.619 69.4175 73.1421 70.9094C71.6587 72.408 69.2414 72.4202 67.7428 70.9368L57.5502 60.847C56.0344 59.3465 56.0217 56.9015 57.5217 55.3854C59.0289 53.8619 61.4883 53.8567 63.002 55.3738ZM69.2498 50.8949L75.494 57.1794C76.973 58.6679 76.9752 61.0706 75.4989 62.5619C74.014 64.0619 71.5942 64.0742 70.0941 62.5892L63.7981 56.3567C62.2838 54.8578 62.2712 52.4151 63.7698 50.9006C65.2777 49.3766 67.7388 49.3741 69.2498 50.8949ZM58.4153 61.9304L66.4495 69.9987C67.9305 71.486 67.9341 73.8896 66.4575 75.3812C64.9733 76.8805 62.5548 76.8927 61.0556 75.4086L52.9636 67.3982C51.4485 65.8985 51.4358 63.4546 52.9352 61.9391C54.4428 60.4155 56.9029 60.4115 58.4153 61.9304ZM53.8755 68.2226L58.9926 73.3819C60.47 74.8715 60.4712 77.2733 58.9952 78.7643C57.5096 80.2651 55.0887 80.2773 53.588 78.7917L48.4237 73.6796C46.9101 72.1812 46.8975 69.7397 48.3955 68.2258C49.9037 66.7016 52.3655 66.7002 53.8755 68.2226Z" stroke="#017EC6" stroke-linecap="round"/>
</svg>
