<svg width="100" height="100" viewBox="0 0 100 100" fill="none" xmlns="http://www.w3.org/2000/svg">
<path d="M24.293 24.0402L23.0325 21.1591C27.9689 18.6684 34.6748 17.4867 40.005 17.4869C45.3352 17.487 52.0411 18.6684 56.9775 21.1591L55.7171 24.0402M24.293 24.0402L25.5534 26.9213M24.293 24.0402L18.3729 26.4051L23.0325 28.0194L21.494 32.9162L31.1261 29.1495L25.5534 26.9213M25.5534 26.9213C30.2322 25.4678 35.1492 24.6374 40.005 24.5953C44.8608 24.6374 49.7779 25.4678 54.4566 26.9213M55.7171 24.0402L54.4566 26.9213M55.7171 24.0402L61.6371 26.4051L56.9775 28.0194L58.5161 32.9162L48.8839 29.1495L54.4566 26.9213M22.6529 50.0893H57.3571M22.6529 57.5988H57.3571M22.653 64.8067H46.6157M22.653 72.3165H46.6157M22.653 80.2121H46.6157M93.6704 75.7057L76.2471 80.212M93.6704 75.7057C94.6705 75.447 95.369 74.5448 95.369 73.5118V65.0772C95.369 63.8257 94.3545 62.8112 93.1029 62.8112H54.6184C53.3669 62.8112 52.3523 63.8257 52.3523 65.0772V73.5108C52.3523 74.5443 53.0515 75.4468 54.0522 75.705M93.6704 75.7057L93.1586 90.7605C93.1586 92.0121 92.144 93.0266 90.8925 93.0266H57.8972M71.5167 80.212L54.0522 75.705M54.0522 75.705L54.5628 90.7605C54.5628 92.0121 56.6457 93.0266 57.8972 93.0266M66.9865 62.8109V59.695C66.9865 58.4435 68.001 57.4289 69.2526 57.4289H78.4688C79.7203 57.4289 80.7349 58.4435 80.7349 59.695V62.8109M57.8972 93.0266H12.4568C10.5795 93.0266 9.05762 91.5048 9.05762 89.6275V9.21115C9.05762 7.33386 10.5795 5.81201 12.4568 5.81201H67.5533C69.4306 5.81201 70.9524 7.33386 70.9524 9.21115V57.1928M64.5497 62.9584V14.1572C64.5497 12.9056 63.5352 11.8911 62.2836 11.8911H17.7264C16.4749 11.8911 15.4603 12.9056 15.4603 14.1572V84.5508C15.4603 85.8023 16.4749 86.8169 17.7264 86.8169H54.5356M51.2168 38.1187C51.2168 40.9919 46.1971 43.321 40.005 43.321C33.8129 43.321 28.7932 40.9919 28.7932 38.1187C28.7932 35.2455 33.8129 32.9163 40.005 32.9163C46.1971 32.9163 51.2168 35.2455 51.2168 38.1187ZM73.8606 84.7231C72.5867 84.7231 71.5541 83.6905 71.5541 82.4166V78.6107C71.5541 77.3369 72.5867 76.3042 73.8606 76.3042C75.1344 76.3042 76.167 77.3369 76.167 78.6107V82.4166C76.167 83.6905 75.1344 84.7231 73.8606 84.7231Z" stroke="#017EC6" stroke-linecap="round"/>
</svg>
