<svg width="26" height="21" viewBox="0 0 26 21" fill="none" xmlns="http://www.w3.org/2000/svg">
<path d="M7.81494 0.973877C7.81494 0.697735 7.59108 0.473877 7.31494 0.473877C7.0388 0.473877 6.81494 0.697735 6.81494 0.973877H7.81494ZM6.81494 5.88064C6.81494 6.15679 7.0388 6.38064 7.31494 6.38064C7.59108 6.38064 7.81494 6.15679 7.81494 5.88064H6.81494ZM21.7434 10.3751C22.0196 10.3751 22.2434 10.1513 22.2434 9.87514C22.2434 9.59899 22.0196 9.37514 21.7434 9.37514V10.3751ZM4.54015 9.37514C4.26401 9.37514 4.04015 9.59899 4.04015 9.87514C4.04015 10.1513 4.26401 10.3751 4.54015 10.3751V9.37514ZM13.1054 12.6349H13.6054V12.1349H13.1054V12.6349ZM18.1472 0.973877C18.1472 0.697735 17.9234 0.473877 17.6472 0.473877C17.3711 0.473877 17.1472 0.697735 17.1472 0.973877H18.1472ZM17.1472 5.88064C17.1472 6.15679 17.3711 6.38064 17.6472 6.38064C17.9234 6.38064 18.1472 6.15679 18.1472 5.88064H17.1472ZM2.08008 4.7775H24.2037V3.7775H2.08008V4.7775ZM24.7037 5.2775V19.4298H25.7037V5.2775H24.7037ZM24.2037 19.9298H2.08008V20.9298H24.2037V19.9298ZM1.58008 19.4298V5.2775H0.580078V19.4298H1.58008ZM2.08008 19.9298C1.80394 19.9298 1.58008 19.706 1.58008 19.4298H0.580078C0.580078 20.2583 1.25165 20.9298 2.08008 20.9298V19.9298ZM24.7037 19.4298C24.7037 19.706 24.4799 19.9298 24.2037 19.9298V20.9298C25.0322 20.9298 25.7037 20.2583 25.7037 19.4298H24.7037ZM24.2037 4.7775C24.4799 4.7775 24.7037 5.00135 24.7037 5.2775H25.7037C25.7037 4.44907 25.0322 3.7775 24.2037 3.7775V4.7775ZM2.08008 3.7775C1.25165 3.7775 0.580078 4.44907 0.580078 5.2775H1.58008C1.58008 5.00135 1.80394 4.7775 2.08008 4.7775V3.7775ZM6.81494 0.973877V5.88064H7.81494V0.973877H6.81494ZM21.7434 9.37514H4.54015V10.3751H21.7434V9.37514ZM11.5341 13.1349H13.1054V12.1349H11.5341V13.1349ZM12.6054 12.6349V16.6602H13.6054V12.6349H12.6054ZM13.1054 16.1602H11.196V17.1602H13.1054V16.1602ZM13.1054 17.1602H15.0987V16.1602H13.1054V17.1602ZM17.1472 0.973877V5.88064H18.1472V0.973877H17.1472Z" fill="#017EC6"/>
</svg>
