<svg width="29" height="30" viewBox="0 0 29 30" fill="none" xmlns="http://www.w3.org/2000/svg">
<path d="M11.9417 12.0316C11.9417 11.9064 12.0431 11.805 12.1683 11.805H14.2551C14.3803 11.805 14.4817 11.9064 14.4817 12.0316V14.1184C14.4817 14.2436 14.3803 14.345 14.2551 14.345H12.1683C12.0431 14.345 11.9417 14.2436 11.9417 14.1184V12.0316Z" fill="#017EC6"/>
<path d="M12.1683 17.8532C12.0431 17.8532 11.9417 17.9546 11.9417 18.0798V20.1666C11.9417 20.2918 12.0431 20.3932 12.1683 20.3932H14.2551C14.3803 20.3932 14.4817 20.2918 14.4817 20.1666V18.0798C14.4817 17.9546 14.3803 17.8532 14.2551 17.8532H12.1683Z" fill="#017EC6"/>
<path fill-rule="evenodd" clip-rule="evenodd" d="M9.69458 7.0249C8.59001 7.0249 7.69458 7.92033 7.69458 9.0249V27.219C7.69458 28.3236 8.59001 29.219 9.69458 29.219H26.8638C27.9683 29.219 28.8638 28.3236 28.8638 27.219V9.0249C28.8638 7.92033 27.9683 7.0249 26.8638 7.0249H9.69458ZM14.2551 10.605H12.1683C11.3804 10.605 10.7417 11.2437 10.7417 12.0316V14.1184C10.7417 14.9063 11.3804 15.545 12.1683 15.545H14.2551C15.043 15.545 15.6817 14.9063 15.6817 14.1184V12.0316C15.6817 11.2437 15.043 10.605 14.2551 10.605ZM18.6706 10.88C18.3392 10.88 18.0706 11.1486 18.0706 11.48C18.0706 11.8114 18.3392 12.08 18.6706 12.08H25.2165C25.5479 12.08 25.8165 11.8114 25.8165 11.48C25.8165 11.1486 25.5479 10.88 25.2165 10.88H18.6706ZM18.6706 15.545C18.3392 15.545 18.0706 15.8136 18.0706 16.145C18.0706 16.4764 18.3392 16.745 18.6706 16.745H25.2165C25.5479 16.745 25.8165 16.4764 25.8165 16.145C25.8165 15.8136 25.5479 15.545 25.2165 15.545H18.6706ZM18.0706 20.8098C18.0706 20.4784 18.3392 20.2098 18.6706 20.2098H25.2165C25.5479 20.2098 25.8165 20.4784 25.8165 20.8098C25.8165 21.1412 25.5479 21.4098 25.2165 21.4098H18.6706C18.3392 21.4098 18.0706 21.1412 18.0706 20.8098ZM11.4318 24.4386C11.1004 24.4386 10.8318 24.7072 10.8318 25.0386C10.8318 25.3699 11.1004 25.6386 11.4318 25.6386L25.2167 25.6386C25.5481 25.6386 25.8167 25.3699 25.8167 25.0386C25.8167 24.7072 25.5481 24.4386 25.2167 24.4386L11.4318 24.4386ZM12.1683 16.6532H14.2551C15.043 16.6532 15.6817 17.2919 15.6817 18.0798V20.1666C15.6817 20.9545 15.043 21.5932 14.2551 21.5932H12.1683C11.3804 21.5932 10.7417 20.9545 10.7417 20.1666V18.0798C10.7417 17.2919 11.3804 16.6532 12.1683 16.6532Z" fill="#017EC6"/>
<path d="M20.6533 2.59685C20.3689 2.90824 20 3.0788 19.7519 3.19296L19.7408 3.19806L12.3568 6.0249H20.6692V2.85034C20.6692 2.76447 20.6638 2.67987 20.6533 2.59685Z" fill="#017EC6"/>
<path d="M8.93492 6.12192C7.64591 6.4583 6.69458 7.6305 6.69458 9.0249V20.9668H2.51392C1.40935 20.9668 0.513916 20.0714 0.513916 18.9668V2.85034C0.513916 1.74577 1.40935 0.850342 2.51392 0.850342H18.6692C19.0906 0.850342 19.4815 0.980652 19.8039 1.20317C19.9244 1.32596 19.9328 1.41129 19.931 1.45806C19.9282 1.53178 19.8894 1.64413 19.7785 1.77475C19.6848 1.88516 19.5335 1.97206 19.2612 2.0978L8.93492 6.12192Z" fill="#017EC6"/>
</svg>
