<svg width="100" height="100" viewBox="0 0 100 100" fill="none" xmlns="http://www.w3.org/2000/svg">
<path d="M1.87256 92.1653H98.1266M95.8474 91.8448L92.5459 89.178C92.2828 88.9655 92.0801 88.6877 91.9581 88.3724L84.6996 69.6209C84.5403 69.2093 84.2449 68.8647 83.8625 68.6443L78.4466 65.5234C78.2509 65.4106 78.0765 65.2644 77.9313 65.0914L68.4836 53.8342C68.2399 53.5438 68.087 53.1882 68.044 52.8115L67.3649 46.8698C67.2959 46.2664 66.9474 45.7307 66.4238 45.4231L60.8579 42.1541C60.6386 42.0253 60.4469 41.8545 60.2938 41.6515L56.1915 36.2118C55.8264 35.7277 55.2552 35.4431 54.6489 35.4431H52.407M52.407 35.4431L50.1819 38.688C49.9613 39.0097 49.8432 39.3906 49.8432 39.7807V43.7752M52.407 35.4431L55.3565 44.5863C55.5195 45.0914 55.883 45.5072 56.3618 45.7362L59.3003 47.1415C60.0355 47.4931 60.4711 48.2682 60.3891 49.079L59.6603 56.2847C59.5998 56.8835 59.8216 57.4762 60.2604 57.888L65.6688 62.9636C66.1857 63.4486 66.3954 64.1778 66.2153 64.8634L63.8781 73.7598C63.5428 75.0362 64.5575 76.2657 65.8743 76.1786L75.0596 75.5713C75.7208 75.5276 76.3582 75.8257 76.7484 76.3611L84.2668 86.675C84.3904 86.8446 84.5408 86.9928 84.712 87.114L91.397 91.8448M49.8432 43.7752L52.2656 52.0517C52.3583 52.3683 52.3684 52.7034 52.2949 53.025L49.9892 63.112C49.8945 63.5263 49.9391 63.9602 50.1159 64.3466L55.1577 75.3634C55.4395 75.9792 55.3783 76.6976 54.9964 77.2569L45.0363 91.8448M49.8432 43.7752L40.0647 48.5204C39.6518 48.7208 39.3236 49.0617 39.1391 49.4819L36.6127 55.236M12.1523 91.8448L27.0924 76.6081C27.256 76.4412 27.388 76.2461 27.4819 76.0321L36.6127 55.236M36.6127 55.236L39.275 68.2516C39.3715 68.7234 39.2884 69.2141 39.0419 69.6278L36.4248 74.0204C36.1886 74.4168 36.1021 74.8846 36.1809 75.3393L37.1089 80.6929C37.2148 81.3041 37.0209 81.9289 36.5877 82.3727L27.3398 91.8448M36.6127 55.236L24.7684 61.4669C24.3703 61.6763 24.0578 62.018 23.8846 62.4332L21.4116 68.3634C21.3809 68.4369 21.3459 68.5082 21.3068 68.5768C20.9789 69.1517 20.5265 69.705 20.4653 70.3639L20.1752 73.4832C20.1215 74.0603 19.7353 74.5447 19.4145 75.0274V75.0274C17.6232 77.7223 14.4068 82.4831 14.0499 82.6973C13.6749 82.9223 7.11508 88.8894 3.39642 91.8448M53.7038 35.1829V28.3739M53.7038 28.3739V22.3614C53.7038 22.2547 53.7903 22.1682 53.897 22.1682H61.6193C61.7882 22.1682 61.8758 22.3698 61.7605 22.4933L59.2891 25.1392C59.2197 25.2134 59.2198 25.3287 59.2891 25.403L61.7605 28.0488C61.8758 28.1723 61.7882 28.3739 61.6193 28.3739H53.7038ZM80.6608 48.4079L90.8033 48.2537C92.6978 48.2249 94.2185 46.6809 94.2185 44.7862C94.2185 42.8709 92.6659 41.3183 90.7506 41.3183H90.1919C89.9759 41.3183 89.8008 41.1432 89.8008 40.9272C89.8008 38.9832 88.2249 37.4073 86.2809 37.4073H85.2049C83.2609 37.4073 81.6849 38.9832 81.6849 40.9272C81.6849 41.1432 81.5098 41.3183 81.2938 41.3183H80.6069C78.6491 41.3183 77.0619 42.9055 77.0619 44.8633C77.0619 46.8422 78.6821 48.438 80.6608 48.4079ZM22.5322 34.1486L32.6747 33.9943C34.5692 33.9655 36.0899 32.4216 36.0899 30.5269C36.0899 28.6116 34.5373 27.059 32.622 27.059H32.0633C31.8473 27.059 31.6722 26.8839 31.6722 26.6679C31.6722 24.7239 30.0963 23.148 28.1523 23.148H27.0763C25.1322 23.148 23.5563 24.7239 23.5563 26.6679C23.5563 26.8839 23.3812 27.059 23.1652 27.059H22.4783C20.5205 27.059 18.9333 28.6461 18.9333 30.604C18.9333 32.5829 20.5535 34.1786 22.5322 34.1486Z" stroke="#017EC6" stroke-linecap="round"/>
</svg>
