<svg width="100" height="100" viewBox="0 0 100 100" fill="none" xmlns="http://www.w3.org/2000/svg">
<path d="M72.2246 24.2225L71.6624 20.5398C71.4466 19.1263 71.9493 17.6501 73.0066 16.5928L83.7847 5.81477C83.9563 5.64317 84.2362 5.75123 84.2283 5.98604L84.0119 12.4352M75.4701 27.468L79.1528 28.0302C80.5663 28.246 82.0425 27.7432 83.0998 26.686L93.8778 15.9079C94.0494 15.7363 93.9414 15.4564 93.7066 15.4643L87.2574 15.6807M47.1819 49.292C45.8133 48.5433 44.2427 48.1176 42.5727 48.1176C37.2615 48.1176 32.9559 52.4232 32.9559 57.7344C32.9559 63.0456 37.2615 67.3512 42.5727 67.3512C47.8839 67.3512 52.1895 63.0456 52.1895 57.7344C52.1895 55.752 51.5897 53.9097 50.5616 52.3791M54.0854 42.4203C50.8804 40.0071 46.8936 38.5766 42.5726 38.5766C31.992 38.5766 23.4148 47.1538 23.4148 57.7344C23.4148 68.3149 31.992 76.8922 42.5726 76.8922C53.1532 76.8922 61.7304 68.3149 61.7304 57.7344C61.7304 53.1625 60.129 48.9648 57.4565 45.6714M63.5301 39.5303C67.7669 44.4039 70.3319 50.7696 70.3319 57.7344C70.3319 73.0655 57.9036 85.4938 42.5725 85.4938C27.2414 85.4938 14.8131 73.0655 14.8131 57.7344C14.8131 42.4033 27.2414 29.975 42.5725 29.975C49.1344 29.975 55.1645 32.2518 59.916 36.0585M69.5056 33.0479C75.4683 39.5497 79.1074 48.2171 79.1074 57.7344C79.1074 77.912 62.7502 94.2693 42.5725 94.2693C22.3948 94.2693 6.0376 77.912 6.0376 57.7344C6.0376 37.5567 22.3948 21.1995 42.5725 21.1995C51.7013 21.1995 60.0481 24.5475 66.4519 30.0827M40.6942 58.8923C41.5611 59.7592 43.0154 59.7104 43.9426 58.7833L88.8301 13.8957C89.7573 12.9686 89.8061 11.5142 88.9391 10.6473C88.0722 9.78036 86.6179 9.82916 85.6907 10.7563L40.8032 55.6439C39.876 56.571 39.8272 58.0253 40.6942 58.8923Z" stroke="#017EC6"/>
</svg>
