<svg width="100" height="100" viewBox="0 0 100 100" fill="none" xmlns="http://www.w3.org/2000/svg">
<path d="M50.5184 42.9819C50.5186 42.1761 50.5427 28.2803 56.3853 25.1575M50.5184 42.9819H49.3898M50.5184 42.9819H59.222M56.3853 25.1575H62.1986M56.3853 25.1575C56.3403 24.9547 55.773 23.9685 55.243 23.0591M62.1986 25.1575C63.9111 25.9633 67.2043 28.4818 66.5595 32.1083C65.5186 31.8061 62.523 31.27 61.4844 30.5926C59.8137 31.4054 57.9326 35.5677 59.222 42.9819M62.1986 25.1575L62.9794 22.4792C63.2284 21.8907 62.7964 21.2388 62.1574 21.2388H55.7463C55.05 21.2388 54.6204 22.0014 54.9743 22.6011C55.064 22.7531 55.1542 22.9067 55.243 23.0591M59.222 42.9819C59.715 42.9819 60.1147 43.3815 60.1147 43.8745V44.9146M49.3898 42.9819C49.3897 42.1761 49.4755 28.2803 43.6328 25.1575M49.3898 42.9819H40.7109M43.6328 25.1575H37.7722M43.6328 25.1575C43.6765 24.9606 44.1991 24.0186 44.7105 23.139M37.7722 25.1575C36.0597 25.9633 32.7958 28.4818 33.4405 32.1083C34.4814 31.8061 37.477 31.27 38.5156 30.5926C40.1864 31.4054 42.0004 35.5677 40.7109 42.9819M37.7722 25.1575L37.0206 22.4792C36.7716 21.8907 37.2036 21.2388 37.8427 21.2388H44.2537C44.9501 21.2388 45.3796 22.0014 45.0257 22.6011C44.9203 22.7797 44.8143 22.9606 44.7105 23.139M40.7109 42.9819C40.218 42.9819 39.8858 43.3815 39.8858 43.8745V45.3467M60.1147 44.9146C62.9647 47.2256 68.4901 45.8261 67.4318 41.0319C67.2051 40.005 67.3607 38.8935 68.0759 38.1225L85.512 19.3267C86.6787 22.8839 86.9803 31.3299 78.8531 36.657L87.4268 34.0223C87.0284 37.0102 84.4218 43.0716 77.1823 43.413C80.4263 44.9585 82.243 45.7802 86.5866 46.0739C85.363 48.4929 81.1059 52.7333 73.8664 50.3429C76.4088 53.2522 78.5889 54.2581 82.0792 54.8865C78.312 62.1858 66.1578 58.7683 60.1147 55.7465M60.1147 44.9146V56.3496C60.1147 56.6323 59.9807 56.8983 59.7535 57.0667L50.5317 63.9016C50.216 64.1355 49.7844 64.1355 49.4687 63.9016L40.2469 57.0667C40.0197 56.8983 39.8858 56.6323 39.8858 56.3496V45.3467M39.8858 45.3467C37.0358 47.6577 31.5099 45.8261 32.5682 41.0319C32.7949 40.005 32.6393 38.8935 31.9241 38.1225L14.4881 19.3267C13.3213 22.8839 13.0197 31.3299 21.147 36.657L12.5732 34.0223C12.9716 37.0102 15.6974 43.1656 22.9368 43.5071C19.6928 45.0526 17.7571 45.7802 13.4134 46.0739C14.637 48.4929 18.8942 52.7333 26.1336 50.3429C23.5912 53.2522 21.4111 54.2581 17.9208 54.8865C21.6881 62.1858 33.8426 58.3235 39.8858 55.3016M49.962 16.1277C49.962 18.6576 51.1003 23.0591 55.243 23.0591M49.962 16.1277C49.962 18.6576 48.8532 23.139 44.7105 23.139M49.962 16.1277H51.8555C52.2419 16.1277 52.5843 15.8791 52.7041 15.5118L53.1105 14.2659C53.5663 12.8687 53.1193 11.335 51.9843 10.4013L50.6476 9.30188C50.3132 9.02675 49.8294 9.03143 49.5003 9.31298L48.0673 10.539C47.0545 11.4055 46.6086 12.764 46.9111 14.0622L47.2316 15.4376C47.3257 15.8417 47.6859 16.1277 48.1009 16.1277H49.962ZM56.6361 59.3772L62.9241 63.4463C64.1789 64.1522 64.8742 65.5539 64.6769 66.98C64.4398 68.694 65.2327 70.3491 66.6336 71.2561M69.9708 76.1385L71.5196 74.3968C71.9478 73.9223 71.7532 73.1648 71.1494 72.9554L67.5803 71.7179C67.2411 71.6003 66.9242 71.4443 66.6336 71.2561M69.9708 76.1385C69.7587 76.3736 69.431 76.4609 69.121 76.397L63.993 75.3401C61.6118 74.8493 60.0615 72.5429 60.5062 70.1526L60.7589 68.7943C60.8469 68.3215 60.5445 67.864 60.075 67.7597L55.9354 66.8398C55.6427 66.7747 55.3337 66.8582 55.131 67.0791C54.1437 68.1548 53.9624 69.0272 53.6705 70.432L53.666 70.4538C53.6541 70.5111 53.647 70.5679 53.6494 70.6263C53.7378 72.8002 57.7866 77.5776 61.4467 78.5439C61.74 78.6213 60.7799 81.3781 60.0937 83.3772C59.8985 83.946 59.2085 84.1702 58.7185 83.8216L52.6627 79.5137C52.5865 79.4595 52.4888 79.5442 52.5316 79.6273L55.8766 86.1212C56.0767 86.5096 55.9662 86.9857 55.6155 87.2464L50.695 90.7366C50.3944 90.9498 49.9936 90.9563 49.6861 90.753L44.3845 87.2464C44.0339 86.9857 43.9234 86.5096 44.1234 86.1212L47.4684 79.6273C47.5113 79.5442 47.4136 79.4595 47.3373 79.5137L41.2815 83.8216C40.7915 84.1702 40.1015 83.946 39.9063 83.3772C39.2201 81.3781 38.26 78.6213 38.5533 78.5439C42.2135 77.5776 46.2622 72.8002 46.3507 70.6263C46.353 70.5679 46.346 70.5111 46.3341 70.4538L46.3295 70.432C46.0376 69.0272 45.8563 68.1548 44.869 67.0791C44.6663 66.8582 44.3573 66.7747 44.0647 66.8398L39.925 67.7597C39.4555 67.864 39.1531 68.3215 39.2411 68.7943L39.4938 70.1526C39.9385 72.5429 38.3882 74.8493 36.007 75.3401L30.8791 76.397C30.569 76.4609 30.2483 76.3558 30.0362 76.1208L28.4804 74.3968C28.0522 73.9223 28.254 73.1771 28.8578 72.9678M69.9708 76.1385C72.5723 77.2219 75.5619 74.3513 75.5619 71.7833C75.5619 69.2153 73.4801 67.1335 70.9121 67.1335C68.3441 67.1335 66.6336 69.1495 66.6336 71.2561M43.6686 59.6028L37.0759 63.4463C35.8211 64.1522 35.1258 65.5539 35.3231 66.98C35.6095 69.0497 34.3939 71.0334 32.4197 71.7179L28.8578 72.9678M28.8578 72.9678L25.9497 70.7576M25.9497 70.7576C27.1646 69.8796 27.4377 68.1831 26.5597 66.9682C25.6817 65.7534 23.9852 65.4803 22.7703 66.3583C21.5555 67.2362 21.2824 68.9328 22.1603 70.1476C23.0383 71.3625 24.7349 71.6356 25.9497 70.7576ZM50.5321 57.679L54.3757 54.8303C54.6028 54.6619 54.7368 54.3959 54.7368 54.1132V48.9852C54.7368 48.4922 54.3372 48.0926 53.8442 48.0926H46.157C45.664 48.0926 45.2644 48.4922 45.2644 48.9852V54.1132C45.2644 54.3959 45.3983 54.6619 45.6255 54.8303L49.4691 57.679C49.7848 57.913 50.2164 57.913 50.5321 57.679Z" stroke="#017EC6"/>
</svg>
