<svg width="200" height="200" viewBox="0 0 200 200" fill="none" xmlns="http://www.w3.org/2000/svg">
<path d="M111.324 145.127C116.483 145.127 120.665 149.31 120.665 154.468V165.055C120.665 166.566 119.44 167.791 117.93 167.791H83.4054C81.8947 167.791 80.6701 166.566 80.6701 165.055L80.6702 153.679C80.6702 148.956 84.4988 145.127 89.2216 145.127M61.3658 145.127C66.5247 145.127 70.7069 149.31 70.7069 154.468V165.055C70.7069 166.566 69.4822 167.791 67.9715 167.791H33.4473C31.9366 167.791 30.7119 166.566 30.7119 165.055L30.712 153.679C30.712 148.956 34.5406 145.127 39.2634 145.127M159.947 145.127C165.106 145.127 169.289 149.31 169.289 154.468V165.055C169.289 166.566 168.064 167.791 166.553 167.791H132.029C130.518 167.791 129.294 166.566 129.294 165.055L129.294 153.679C129.294 148.956 133.122 145.127 137.845 145.127M126.504 92.2235C126.504 78.6867 115.531 67.713 101.994 67.713H99.1735C85.6367 67.713 74.6629 78.6867 74.6629 92.2235M95.4411 67.7129L95.4411 69.8092C95.4411 72.6494 97.7435 74.9518 100.584 74.9518C103.424 74.9518 105.726 72.6494 105.726 69.8092V67.7129M119.52 109.627L125.566 133.796C126.862 138.975 122.945 143.993 117.606 143.993H111.489M80.6701 109.627L75.0963 133.955C73.9189 139.094 77.8232 143.993 83.0951 143.993H89.0924M95.0913 149.361H106.018C108.634 149.361 110.883 147.51 111.387 144.943L113.778 132.741C115.403 124.448 109.054 116.734 100.604 116.734C92.1951 116.734 85.8562 124.376 87.4097 132.639L89.7148 144.901C90.201 147.488 92.4597 149.361 95.0913 149.361ZM95.0074 64.8363H105.934C108.55 64.8363 110.8 62.9846 111.303 60.4178L113.694 48.2161C115.319 39.9232 108.97 32.209 100.52 32.209C92.1112 32.209 85.7723 39.8506 87.3258 48.1144L89.6309 60.3763C90.1171 62.9626 92.3759 64.8363 95.0074 64.8363ZM45.1331 149.361H56.0598C58.6755 149.361 60.9252 147.51 61.4283 144.943L63.8198 132.741C65.4451 124.448 59.0961 116.734 50.6454 116.734C42.2369 116.734 35.898 124.376 37.4515 132.639L39.7566 144.901C40.2428 147.488 42.5015 149.361 45.1331 149.361ZM143.715 149.361H154.641C157.257 149.361 159.507 147.51 160.01 144.943L162.401 132.741C164.027 124.448 157.678 116.734 149.227 116.734C140.819 116.734 134.48 124.376 136.033 132.639L138.338 144.901C138.825 147.488 141.083 149.361 143.715 149.361ZM72.4561 109.044H129.018C136.572 109.044 142.695 102.921 142.695 95.3673V94.9588C142.695 93.4481 141.47 92.2235 139.96 92.2235H61.5147C60.004 92.2235 58.7794 93.4481 58.7794 94.9588V95.3673C58.7794 102.921 64.9026 109.044 72.4561 109.044Z" stroke="#017EC6" stroke-width="2"/>
</svg>
