<svg width="100" height="100" viewBox="0 0 100 100" fill="none" xmlns="http://www.w3.org/2000/svg">
<path d="M30.5155 45.6322V77.3568M19.8305 77.3568V45.6322M33.264 39.7076V42.8028C33.264 44.3654 31.9972 45.6322 30.4346 45.6322H19.911C18.3484 45.6322 17.0817 44.3654 17.0817 42.8028V39.7076M17.0817 82.6095V79.5142C17.0817 77.9516 18.3484 76.6849 19.911 76.6849L30.4346 76.6849C31.9972 76.6849 33.264 77.9516 33.264 79.5142V82.6095M88.8459 29.6417V36.8783C88.8459 38.4408 87.5791 39.7076 86.0165 39.7076H13.9836C12.421 39.7076 11.1543 38.4408 11.1543 36.8783V29.6417M88.8459 29.6417L51.4613 7.09524C50.5625 6.55322 49.4376 6.55322 48.5389 7.09524L11.1543 29.6417M88.8459 29.6417H11.1543M55.3429 45.6322V77.3568M44.658 77.3568V45.6322M58.0914 39.7076V42.8028C58.0914 44.3654 56.8247 45.6322 55.2621 45.6322H44.7384C43.1758 45.6322 41.9091 44.3654 41.9091 42.8028V39.7076M41.9091 82.6095V79.5142C41.9091 77.9516 43.1758 76.6849 44.7384 76.6849L55.2621 76.6849C56.8247 76.6849 58.0914 77.9516 58.0914 79.5142V82.6095M80.9481 45.6322V77.3568M70.2632 77.3568V45.6322M83.6967 39.7076V42.8028C83.6967 44.3654 82.4299 45.6322 80.8673 45.6322H70.3437C68.7811 45.6322 67.5143 44.3654 67.5143 42.8028V39.7076M67.5143 82.6095V79.5142C67.5143 77.9516 68.7811 76.6849 70.3437 76.6849L80.8673 76.6849C82.4299 76.6849 83.6967 77.9516 83.6967 79.5142V82.6095M11.1543 92.6038L11.1543 86.0746C11.1543 84.512 12.421 83.2453 13.9836 83.2453L86.0165 83.2453C87.5791 83.2453 88.8459 84.512 88.8459 86.0746V92.6038C88.8459 92.9945 88.5292 93.3112 88.1385 93.3112L11.8616 93.3111C11.471 93.3111 11.1543 92.9945 11.1543 92.6038ZM66.4291 24.5391H33.5668C33.2147 24.5391 33.0789 24.0806 33.3742 23.8888L49.7701 13.2406C49.8871 13.1646 50.0377 13.1645 50.1548 13.2402L66.6211 23.8884C66.9171 24.0798 66.7816 24.5391 66.4291 24.5391Z" stroke="#017EC6"/>
</svg>
