<svg width="28" height="16" viewBox="0 0 28 16" fill="none" xmlns="http://www.w3.org/2000/svg">
<path d="M27.3984 15.5594L21.908 13.7739L26.1995 9.91177L27.3984 15.5594ZM17.2212 4.25045L16.9658 3.8206L17.3184 3.61105L17.5928 3.91598L17.2212 4.25045ZM9.12091 9.06365L9.37632 9.49349L9.04344 9.69129L8.76865 9.41849L9.12091 9.06365ZM0.818675 1.52623L0.463836 1.17396L1.16836 0.464285L1.5232 0.816548L0.818675 1.52623ZM24.0166 12.5489L16.8495 4.58491L17.5928 3.91598L24.7599 11.88L24.0166 12.5489ZM17.4766 4.68029L9.37632 9.49349L8.8655 8.63381L16.9658 3.8206L17.4766 4.68029ZM8.76865 9.41849L0.818675 1.52623L1.5232 0.816548L9.47317 8.70881L8.76865 9.41849Z" fill="url(#paint0_linear_398_16)"/>
<defs>
<linearGradient id="paint0_linear_398_16" x1="27.3984" y1="1.27327" x2="23.0895" y2="23.5102" gradientUnits="userSpaceOnUse">
<stop stop-color="#5FC1FF"/>
<stop offset="0.73" stop-color="#185C95"/>
</linearGradient>
</defs>
</svg>
