<svg width="61" height="61" viewBox="0 0 61 61" fill="none" xmlns="http://www.w3.org/2000/svg">
<mask id="mask0_261_144" style="mask-type:alpha" maskUnits="userSpaceOnUse" x="0" y="0" width="61" height="61">
<circle cx="30.6597" cy="30.4326" r="29.8867" fill="#0E0E0E"/>
</mask>
<g mask="url(#mask0_261_144)">
<path d="M60.5332 -2.57227V9.06391L0.690918 31.5178L2.24128 -2.66289C2.28974 -3.73112 3.1699 -4.57227 4.23923 -4.57227H58.5332C59.6378 -4.57227 60.5332 -3.67683 60.5332 -2.57227Z" fill="url(#paint0_linear_261_144)"/>
<path d="M60.5464 31.1191C60.5464 25.2339 54.8151 21.0537 49.2112 22.8516V22.8516C44.72 24.2926 41.6737 28.4693 41.6737 33.186L41.6737 64.1352L58.5464 64.1352C59.6509 64.1352 60.5464 63.2397 60.5464 62.1352L60.5464 31.1191Z" fill="url(#paint1_linear_261_144)"/>
<path d="M34.9966 36.6905C34.9966 31.988 30.4224 28.644 25.9415 30.0708V30.0708C22.0986 31.2945 19.489 34.864 19.489 38.8971L19.489 64.1348L34.9966 64.1348L34.9966 36.6905Z" fill="url(#paint2_linear_261_144)"/>
<path d="M13.7638 40.8963C13.7638 37.4545 10.4317 34.9959 7.14303 36.0111V36.0111C4.28568 36.8931 2.33677 39.5344 2.33677 42.5247L2.33677 54.3863C2.33677 55.4909 3.2322 56.3863 4.33677 56.3863L13.7638 56.3863L13.7638 40.8963Z" fill="url(#paint3_linear_261_144)"/>
</g>
<defs>
<linearGradient id="paint0_linear_261_144" x1="60.5333" y1="3.3826" x2="53.6493" y2="45.4728" gradientUnits="userSpaceOnUse">
<stop stop-color="#5FC1FF"/>
<stop offset="1" stop-color="#185C95"/>
</linearGradient>
<linearGradient id="paint1_linear_261_144" x1="60.5464" y1="19.478" x2="32.6181" y2="59.6376" gradientUnits="userSpaceOnUse">
<stop stop-color="#5FC1FF"/>
<stop offset="1" stop-color="#185C95"/>
</linearGradient>
<linearGradient id="paint2_linear_261_144" x1="34.9966" y1="27.3942" x2="13.4223" y2="59.8497" gradientUnits="userSpaceOnUse">
<stop stop-color="#5FC1FF"/>
<stop offset="1" stop-color="#185C95"/>
</linearGradient>
<linearGradient id="paint3_linear_261_144" x1="13.7638" y1="34.126" x2="-3.06681" y2="58.4122" gradientUnits="userSpaceOnUse">
<stop stop-color="#5FC1FF"/>
<stop offset="1" stop-color="#185C95"/>
</linearGradient>
</defs>
</svg>
