<svg width="136" height="24" viewBox="0 0 136 24" fill="none" xmlns="http://www.w3.org/2000/svg">
<path d="M11.4529 0.971445C11.5035 0.865005 11.655 0.865005 11.7057 0.971445L14.9977 7.88767C15.0169 7.92789 15.054 7.9566 15.0978 7.96499L22.0709 9.30236C22.1772 9.32273 22.2212 9.4508 22.1498 9.53215L17.2015 15.1757C17.1749 15.2059 17.1627 15.2461 17.1679 15.286L18.1765 23.0599C18.1912 23.1733 18.0711 23.2556 17.9706 23.2008L11.6463 19.7539C11.6045 19.7311 11.554 19.7311 11.5123 19.7539L5.18792 23.2008C5.0875 23.2556 4.96737 23.1733 4.98209 23.0599L5.99067 15.286C5.99585 15.2461 5.98362 15.2059 5.9571 15.1757L1.00874 9.53215C0.937408 9.4508 0.981377 9.32273 1.08763 9.30236L8.06078 7.96499C8.10453 7.9566 8.14167 7.92789 8.16082 7.88767L11.4529 0.971445Z" fill="white" fill-opacity="0.7"/>
<path d="M39.8993 0.971445C39.95 0.865005 40.1015 0.865005 40.1522 0.971445L43.4442 7.88767C43.4634 7.92789 43.5005 7.9566 43.5443 7.96499L50.5174 9.30236C50.6237 9.32273 50.6676 9.4508 50.5963 9.53215L45.6479 15.1757C45.6214 15.2059 45.6092 15.2461 45.6144 15.286L46.6229 23.0599C46.6377 23.1733 46.5175 23.2556 46.4171 23.2008L40.0928 19.7539C40.051 19.7311 40.0005 19.7311 39.9588 19.7539L33.6344 23.2008C33.534 23.2556 33.4138 23.1733 33.4286 23.0599L34.4371 15.286C34.4423 15.2461 34.4301 15.2059 34.4036 15.1757L29.4552 9.53215C29.3839 9.4508 29.4278 9.32273 29.5341 9.30236L36.5072 7.96499C36.551 7.9566 36.5881 7.92789 36.6073 7.88767L39.8993 0.971445Z" fill="white" fill-opacity="0.7"/>
<path d="M68.3458 0.971445C68.3964 0.865005 68.5479 0.865005 68.5986 0.971445L71.8906 7.88767C71.9098 7.92789 71.9469 7.9566 71.9907 7.96499L78.9638 9.30236C79.0701 9.32273 79.114 9.4508 79.0427 9.53215L74.0943 15.1757C74.0678 15.2059 74.0556 15.2461 74.0608 15.286L75.0694 23.0599C75.0841 23.1733 74.9639 23.2556 74.8635 23.2008L68.5392 19.7539C68.4974 19.7311 68.4469 19.7311 68.4052 19.7539L62.0808 23.2008C61.9804 23.2556 61.8603 23.1733 61.875 23.0599L62.8836 15.286C62.8887 15.2461 62.8765 15.2059 62.85 15.1757L57.9016 9.53215C57.8303 9.4508 57.8743 9.32273 57.9805 9.30236L64.9537 7.96499C64.9974 7.9566 65.0346 7.92789 65.0537 7.88767L68.3458 0.971445Z" fill="white" fill-opacity="0.7"/>
<path d="M96.7922 0.971445C96.8429 0.865005 96.9944 0.865005 97.045 0.971445L100.337 7.88767C100.356 7.92789 100.393 7.9566 100.437 7.96499L107.41 9.30236C107.517 9.32273 107.561 9.4508 107.489 9.53215L102.541 15.1757C102.514 15.2059 102.502 15.2461 102.507 15.286L103.516 23.0599C103.531 23.1733 103.41 23.2556 103.31 23.2008L96.9856 19.7539C96.9439 19.7311 96.8934 19.7311 96.8516 19.7539L90.5273 23.2008C90.4269 23.2556 90.3067 23.1733 90.3214 23.0599L91.33 15.286C91.3352 15.2461 91.323 15.2059 91.2965 15.1757L86.3481 9.53215C86.2768 9.4508 86.3207 9.32273 86.427 9.30236L93.4001 7.96499C93.4439 7.9566 93.481 7.92789 93.5002 7.88767L96.7922 0.971445Z" fill="white" fill-opacity="0.7"/>
<path d="M125.239 0.971431C125.289 0.864992 125.441 0.864992 125.492 0.971432L128.784 7.88765C128.803 7.92788 128.84 7.95659 128.884 7.96498L135.857 9.30234C135.963 9.32272 136.007 9.45078 135.936 9.53214L130.987 15.1757C130.961 15.2059 130.949 15.2461 130.954 15.286L131.962 23.0599C131.977 23.1733 131.857 23.2555 131.756 23.2008L125.432 19.7539C125.39 19.7311 125.34 19.7311 125.298 19.7539L118.974 23.2008C118.873 23.2555 118.753 23.1733 118.768 23.0599L119.776 15.286C119.782 15.2461 119.769 15.2059 119.743 15.1757L114.795 9.53214C114.723 9.45078 114.767 9.32272 114.873 9.30234L121.847 7.96498C121.89 7.95659 121.927 7.92788 121.947 7.88765L125.239 0.971431Z" fill="white" fill-opacity="0.7"/>
</svg>
