<svg width="100" height="100" viewBox="0 0 100 100" fill="none" xmlns="http://www.w3.org/2000/svg">
<path d="M51.1683 91.5701H98.3984M79.6921 57.8461C82.3215 59.4059 86.7915 64.1032 83.6362 70.4138M76.2028 40.3689L81.8584 42.1803C84.5457 43.041 85.3631 46.4446 83.3598 48.4318L65.3825 66.2648C63.3792 68.252 59.9823 67.4071 59.1433 64.713L57.3776 59.043M76.2028 40.3689L57.3776 59.043M76.2028 40.3689L52.7679 16.7444M33.9428 35.4184L28.2872 33.6071C25.5999 32.7464 24.7824 29.3428 26.7857 27.3555L44.763 9.5226C46.7663 7.53538 50.1632 8.38024 51.0022 11.0744L52.7679 16.7444M33.9428 35.4184L52.7679 16.7444M33.9428 35.4184L45.6602 47.2307L57.3776 59.043M48.3851 49.5549L43.2214 54.7186M38.2483 49.7455L43.412 44.5818M54.7678 91.57H94.7986C95.4909 91.57 96.0522 91.0087 96.0522 90.3164V83.7467C96.0522 83.0544 95.4909 82.4932 94.7986 82.4932H54.7678C54.0754 82.4932 53.5142 83.0544 53.5142 83.7467V90.3164C53.5142 91.0087 54.0754 91.57 54.7678 91.57ZM60.8258 82.4932H88.6304C89.3227 82.4932 89.884 81.9319 89.884 81.2396V75.0548C89.884 74.3625 89.3227 73.8012 88.6304 73.8012H60.8258C60.1334 73.8012 59.5722 74.3625 59.5722 75.0548V81.2396C59.5722 81.9319 60.1334 82.4932 60.8258 82.4932ZM3.40894 89.5577C1.00041 87.1492 1.00041 83.2442 3.40894 80.8356L34.2688 49.9758C35.2479 48.9967 36.8353 48.9967 37.8145 49.9758L42.9908 55.1522C43.9699 56.1313 43.9699 57.7188 42.9908 58.6979L12.131 89.5577C9.72246 91.9662 5.81747 91.9662 3.40894 89.5577Z" stroke="#017EC6"/>
</svg>
