<svg width="200" height="200" viewBox="0 0 200 200" fill="none" xmlns="http://www.w3.org/2000/svg">
<path d="M71.3867 93.586V140.173M55.696 140.173V93.586M75.4229 84.8858V89.4311C75.4229 91.7258 73.5627 93.586 71.2681 93.586H55.8142C53.5195 93.586 51.6593 91.7258 51.6593 89.4311V84.8858M51.6593 147.887V143.341C51.6593 141.047 53.5195 139.187 55.8142 139.187L71.2681 139.187C73.5627 139.187 75.4229 141.047 75.4229 143.341V147.887M157.044 70.1042V80.7309C157.044 83.0256 155.184 84.8858 152.889 84.8858H47.1099C44.8153 84.8858 42.9551 83.0256 42.9551 80.7309V70.1042M157.044 70.1042L102.145 36.9949C100.826 36.199 99.1737 36.199 97.854 36.9949L42.9551 70.1042M157.044 70.1042H42.9551M107.846 93.586V140.173M92.1549 140.173V93.586M111.882 84.8858V89.4311C111.882 91.7258 110.022 93.586 107.727 93.586H92.273C89.9784 93.586 88.1182 91.7258 88.1182 89.4311V84.8858M88.1182 147.887V143.341C88.1182 141.047 89.9784 139.187 92.273 139.187L107.727 139.187C110.022 139.187 111.882 141.047 111.882 143.341V147.887M145.447 93.586V140.173M129.756 140.173V93.586M149.483 84.8858V89.4311C149.483 91.7258 147.623 93.586 145.328 93.586H129.874C127.579 93.586 125.719 91.7258 125.719 89.4311V84.8858M125.719 147.887V143.341C125.719 141.047 127.579 139.187 129.874 139.187L145.328 139.187C147.623 139.187 149.483 141.047 149.483 143.341V147.887M42.9551 162.563L42.9551 152.975C42.9551 150.681 44.8153 148.82 47.1099 148.82L152.889 148.82C155.184 148.82 157.044 150.681 157.044 152.975V162.563C157.044 163.137 156.579 163.602 156.006 163.602L43.9938 163.602C43.4201 163.602 42.9551 163.137 42.9551 162.563ZM124.125 62.611H75.8676C75.3505 62.611 75.1511 61.9377 75.5847 61.6561L99.662 46.0193C99.8338 45.9078 100.055 45.9076 100.227 46.0187L124.408 61.6555C124.842 61.9366 124.643 62.611 124.125 62.611Z" stroke="#017EC6" stroke-width="2"/>
</svg>
