<svg width="200" height="200" viewBox="0 0 200 200" fill="none" xmlns="http://www.w3.org/2000/svg">
<path d="M38.1575 76.2908H50.619C55.8789 76.2908 60.8857 74.0327 64.3674 70.0902L67.3751 66.6845C70.8568 62.742 75.8636 60.4839 81.1234 60.4839H104.085C106.846 60.4839 109.514 61.48 111.599 63.2893L126.996 76.6506C129.708 79.0038 128.786 83.4198 125.359 84.4908L122.547 85.3693C118.939 86.4969 115.007 85.7732 112.037 83.4349L107.707 80.0264C107.334 79.7328 106.88 79.5622 106.406 79.5381L85.9288 78.4969C84.0051 78.3991 82.1285 79.1124 80.7555 80.4633L71.9039 89.1723M161.842 76.699H149.724C144.766 76.699 140.02 74.6922 136.566 71.1358L133.992 68.4854C130.538 64.929 125.791 62.9222 120.834 62.9222H111.569M161.982 118.972H149.157M87.4911 113.198L61.7262 138.963C58.9991 141.69 54.5776 141.69 51.8505 138.963C49.1234 136.236 49.1234 131.814 51.8505 129.087L77.6154 103.322M100.402 120.115L74.637 145.88C71.9099 148.607 67.4884 148.607 64.7613 145.88C62.0342 143.153 62.0342 138.732 64.7613 136.005L90.5262 110.24M96.5148 144.369L87.7563 152.735C84.981 155.386 80.597 155.335 77.8832 152.621C75.1249 149.863 75.1249 145.391 77.8832 142.632L103.591 116.924M82.5949 98.3206L56.83 124.085C54.1029 126.813 49.6814 126.813 46.9543 124.085C44.2272 121.358 44.2272 116.937 46.9543 114.21L72.7192 88.4449M10.4434 70.5774V122.036C10.4434 123.302 11.4699 124.328 12.7361 124.328H30.6631C34.4619 124.328 37.5414 121.249 37.5414 117.45V75.163C37.5414 71.3642 34.4619 68.2847 30.6631 68.2847H12.7361C11.4699 68.2847 10.4434 69.3112 10.4434 70.5774ZM189.556 70.9861V122.444C189.556 123.71 188.529 124.737 187.263 124.737H169.336C165.537 124.737 162.458 121.657 162.458 117.859V75.5716C162.458 71.7728 165.537 68.6933 169.336 68.6933H187.263C188.529 68.6933 189.556 69.7198 189.556 70.9861ZM123.855 110.521L142.44 129.149C145.161 131.876 145.169 136.287 142.46 139.024C139.738 141.774 135.303 141.796 132.553 139.075L113.853 120.562C111.072 117.809 111.048 113.324 113.8 110.542C116.566 107.746 121.078 107.737 123.855 110.521ZM135.318 102.303L146.775 113.833C149.488 116.564 149.492 120.973 146.784 123.709C144.059 126.461 139.62 126.483 136.867 123.759L125.316 112.324C122.538 109.574 122.514 105.092 125.264 102.313C128.031 99.5172 132.546 99.5126 135.318 102.303ZM115.44 122.55L130.181 137.353C132.898 140.082 132.904 144.492 130.195 147.229C127.472 149.98 123.035 150.002 120.284 147.279L105.437 132.582C102.658 129.831 102.634 125.347 105.385 122.566C108.151 119.771 112.665 119.763 115.44 122.55ZM107.11 134.095L116.499 143.561C119.21 146.294 119.212 150.7 116.504 153.436C113.778 156.19 109.336 156.212 106.583 153.486L97.1079 144.107C94.3308 141.358 94.3077 136.878 97.0562 134.101C99.8233 131.304 104.34 131.302 107.11 134.095Z" stroke="#017EC6" stroke-width="2" stroke-linecap="round"/>
</svg>
