<svg width="100" height="100" viewBox="0 0 100 100" fill="none" xmlns="http://www.w3.org/2000/svg">
<path d="M24.3889 35.1922L33.6405 23.6265M39.0866 22.6283L46.6217 27.919M52.1417 26.895L61.5404 15.1628M66.8551 14.518L74.4772 18.7409M15.1388 76.6926H42.969C44.1885 76.6926 45.1771 75.704 45.1771 74.4845C45.1771 73.265 44.1885 72.2764 42.969 72.2764H15.1388C13.9193 72.2764 12.9307 73.265 12.9307 74.4845C12.9307 75.704 13.9193 76.6926 15.1388 76.6926ZM54.0656 67.8603H81.8959C83.1154 67.8603 84.104 66.8717 84.104 65.6522C84.104 64.4327 83.1154 63.4441 81.8959 63.4441H54.0656C52.8461 63.4441 51.8575 64.4327 51.8575 65.6522C51.8575 66.8717 52.8461 67.8603 54.0656 67.8603ZM61.0614 60.2327H67.0574C68.2347 60.2327 69.189 59.2784 69.189 58.1011V24.7314C69.189 23.5542 68.2347 22.5998 67.0574 22.5998H61.0614C59.8841 22.5998 58.9298 23.5542 58.9298 24.7314V58.1011C58.9298 59.2784 59.8841 60.2327 61.0614 60.2327ZM75.0597 60.2328H81.0557C82.233 60.2328 83.1873 59.2785 83.1873 58.1013V32.7378C83.1873 31.5605 82.233 30.6062 81.0557 30.6062H75.0597C73.8824 30.6062 72.9281 31.5605 72.9281 32.7378V58.1013C72.9281 59.2785 73.8824 60.2328 75.0597 60.2328ZM46.8601 60.2328H52.8562C54.0334 60.2328 54.9878 59.2785 54.9878 58.1013V41.0887C54.9878 39.9114 54.0334 38.9571 52.8562 38.9571H46.8601C45.6829 38.9571 44.7285 39.9114 44.7285 41.0887V58.1013C44.7285 59.2785 45.6829 60.2328 46.8601 60.2328ZM32.8621 60.2328H38.8581C40.0354 60.2328 40.9897 59.2785 40.9897 58.1013V32.7378C40.9897 31.5605 40.0354 30.6062 38.8581 30.6062H32.8621C31.6848 30.6062 30.7305 31.5605 30.7305 32.7378V58.1013C30.7305 59.2785 31.6848 60.2328 32.8621 60.2328ZM18.864 60.2326H24.8601C26.0373 60.2326 26.9917 59.2783 26.9917 58.101V49.8038C26.9917 48.6266 26.0373 47.6723 24.8601 47.6723H18.864C17.6868 47.6723 16.7325 48.6266 16.7325 49.8039V58.101C16.7325 59.2783 17.6868 60.2326 18.864 60.2326ZM54.0656 85.5248H81.8959C83.1154 85.5248 84.104 84.5362 84.104 83.3167C84.104 82.0972 83.1154 81.1086 81.8959 81.1086H54.0656C52.8461 81.1086 51.8575 82.0972 51.8575 83.3167C51.8575 84.5362 52.8461 85.5248 54.0656 85.5248ZM18.1045 81.1087H45.9348C47.1543 81.1087 48.1429 80.1201 48.1429 78.9006C48.1429 77.6811 47.1543 76.6925 45.9348 76.6925H18.1045C16.885 76.6925 15.8964 77.6811 15.8964 78.9006C15.8964 80.1201 16.885 81.1087 18.1045 81.1087ZM57.0314 72.2764H84.8617C86.0812 72.2764 87.0698 71.2878 87.0698 70.0683C87.0698 68.8488 86.0812 67.8602 84.8617 67.8602H57.0314C55.8119 67.8602 54.8233 68.8488 54.8233 70.0683C54.8233 71.2878 55.8119 72.2764 57.0314 72.2764ZM57.0314 89.941H84.8617C86.0812 89.941 87.0698 88.9524 87.0698 87.7329C87.0698 86.5134 86.0812 85.5248 84.8617 85.5248H57.0314C55.8119 85.5248 54.8233 86.5134 54.8233 87.7329C54.8233 88.9524 55.8119 89.941 57.0314 89.941ZM15.1388 85.5248H42.969C44.1885 85.5248 45.1771 84.5362 45.1771 83.3167C45.1771 82.0972 44.1885 81.1086 42.969 81.1086H15.1388C13.9193 81.1086 12.9307 82.0972 12.9307 83.3167C12.9307 84.5362 13.9193 85.5248 15.1388 85.5248ZM54.0656 76.6926H81.8959C83.1154 76.6926 84.104 75.704 84.104 74.4845C84.104 73.265 83.1154 72.2764 81.8959 72.2764H54.0656C52.8461 72.2764 51.8575 73.265 51.8575 74.4845C51.8575 75.704 52.8461 76.6926 54.0656 76.6926ZM18.1045 89.941H45.9348C47.1543 89.941 48.1429 88.9524 48.1429 87.7329C48.1429 86.5134 47.1543 85.5248 45.9348 85.5248H18.1045C16.885 85.5248 15.8964 86.5134 15.8964 87.7329C15.8964 88.9524 16.885 89.941 18.1045 89.941ZM57.0314 81.1087H84.8617C86.0812 81.1087 87.0698 80.1201 87.0698 78.9006C87.0698 77.6811 86.0812 76.6925 84.8617 76.6925H57.0314C55.8119 76.6925 54.8233 77.6811 54.8233 78.9006C54.8233 80.1201 55.8119 81.1087 57.0314 81.1087ZM25.7555 38.1803C25.7555 40.2454 24.0814 41.9195 22.0162 41.9195C19.9511 41.9195 18.277 40.2454 18.277 38.1803C18.277 36.1152 19.9511 34.4411 22.0162 34.4411C24.0814 34.4411 25.7555 36.1152 25.7555 38.1803ZM39.5992 20.6334C39.5992 22.6985 37.9251 24.3726 35.86 24.3726C33.7949 24.3726 32.1208 22.6985 32.1208 20.6334C32.1208 18.5682 33.7949 16.8941 35.86 16.8941C37.9251 16.8941 39.5992 18.5682 39.5992 20.6334ZM53.5975 29.7617C53.5975 31.8269 51.9234 33.501 49.8583 33.501C47.7932 33.501 46.1191 31.8269 46.1191 29.7617C46.1191 27.6966 47.7932 26.0225 49.8583 26.0225C51.9234 26.0225 53.5975 27.6966 53.5975 29.7617ZM67.5438 12.2148C67.5438 14.2799 65.8697 15.954 63.8045 15.954C61.7394 15.954 60.0653 14.2799 60.0653 12.2148C60.0653 10.1497 61.7394 8.47559 63.8045 8.47559C65.8697 8.47559 67.5438 10.1497 67.5438 12.2148ZM81.4614 20.6334C81.4614 22.6985 79.7873 24.3726 77.7222 24.3726C75.6571 24.3726 73.983 22.6985 73.983 20.6334C73.983 18.5682 75.6571 16.8941 77.7222 16.8941C79.7873 16.8941 81.4614 18.5682 81.4614 20.6334Z" stroke="#0180C9" stroke-linecap="round"/>
</svg>
