<svg width="81" height="74" viewBox="0 0 81 74" fill="none" xmlns="http://www.w3.org/2000/svg">
<path d="M80.5127 2.03272V8.12586L0.29261 37.1763V2.03271C0.29261 0.928145 1.18804 0.0327148 2.29261 0.0327148H78.5127C79.6172 0.0327148 80.5127 0.928147 80.5127 2.03272Z" fill="white" fill-opacity="0.4"/>
<path d="M80.5302 38.5234C80.5302 30.4123 72.6312 24.651 64.9079 27.129C58.718 29.1149 54.5194 34.8714 54.5194 41.372L54.5194 73.3264L78.5302 73.3264C79.6348 73.3264 80.5302 72.431 80.5302 71.3264L80.5302 38.5234Z" fill="white" fill-opacity="0.4"/>
<path d="M45.3169 46.2023C45.3169 39.7211 39.0126 35.1124 32.837 37.0788C27.5405 38.7653 23.944 43.685 23.944 49.2434L23.944 73.3261L45.3169 73.3261L45.3169 46.2023Z" fill="white" fill-opacity="0.4"/>
<path d="M16.0533 51.9995C16.0533 47.2559 11.461 43.8673 6.9284 45.2665C2.99033 46.4821 0.304297 50.1224 0.304297 54.2438L0.304297 71.3482C0.304297 72.4528 1.19973 73.3482 2.3043 73.3482L16.0533 73.3482L16.0533 57.899L16.0533 51.9995Z" fill="white" fill-opacity="0.4"/>
</svg>
