<svg width="21" height="16" viewBox="0 0 21 16" fill="none" xmlns="http://www.w3.org/2000/svg">
<mask id="path-1-inside-1_1_104" fill="white">
<path fill-rule="evenodd" clip-rule="evenodd" d="M20.5666 3.12713C20.3258 2.19288 19.6188 1.4587 18.7192 1.20861C17.0903 0.754883 10.5555 0.754883 10.5555 0.754883C10.5555 0.754883 4.0209 0.754883 2.39196 1.20861C1.49235 1.4587 0.785387 2.19288 0.544572 3.12713C0.457468 3.46439 0.387729 3.87478 0.331894 4.31573L9.87632 9.07318C10.2239 9.24643 10.6323 9.24828 10.9814 9.0782L20.7774 4.30609C20.7218 3.8688 20.6527 3.46193 20.5666 3.12713ZM20.9219 5.90419L11.6383 10.4267C10.8702 10.8009 9.97183 10.7968 9.20717 10.4156L0.187531 5.91979C0.107666 7.21287 0.107666 8.35036 0.107666 8.35036C0.107666 8.35036 0.107666 11.8819 0.544572 13.5736C0.785387 14.5079 1.49235 15.242 2.39196 15.4921C4.0209 15.9458 10.5555 15.9458 10.5555 15.9458C10.5555 15.9458 17.0903 15.9458 18.7192 15.4921C19.6188 15.242 20.3258 14.5079 20.5666 13.5736C21.0035 11.8819 21.0035 8.35036 21.0035 8.35036C21.0035 8.35036 21.0029 7.20371 20.9219 5.90419Z"/>
</mask>
<path fill-rule="evenodd" clip-rule="evenodd" d="M20.5666 3.12713C20.3258 2.19288 19.6188 1.4587 18.7192 1.20861C17.0903 0.754883 10.5555 0.754883 10.5555 0.754883C10.5555 0.754883 4.0209 0.754883 2.39196 1.20861C1.49235 1.4587 0.785387 2.19288 0.544572 3.12713C0.457468 3.46439 0.387729 3.87478 0.331894 4.31573L9.87632 9.07318C10.2239 9.24643 10.6323 9.24828 10.9814 9.0782L20.7774 4.30609C20.7218 3.8688 20.6527 3.46193 20.5666 3.12713ZM20.9219 5.90419L11.6383 10.4267C10.8702 10.8009 9.97183 10.7968 9.20717 10.4156L0.187531 5.91979C0.107666 7.21287 0.107666 8.35036 0.107666 8.35036C0.107666 8.35036 0.107666 11.8819 0.544572 13.5736C0.785387 14.5079 1.49235 15.242 2.39196 15.4921C4.0209 15.9458 10.5555 15.9458 10.5555 15.9458C10.5555 15.9458 17.0903 15.9458 18.7192 15.4921C19.6188 15.242 20.3258 14.5079 20.5666 13.5736C21.0035 11.8819 21.0035 8.35036 21.0035 8.35036C21.0035 8.35036 21.0029 7.20371 20.9219 5.90419Z" fill="white"/>
<path d="M18.7192 1.20861L18.4911 2.02744L18.4915 2.02755L18.7192 1.20861ZM20.5666 3.12713L21.3898 2.91537L21.3897 2.915L20.5666 3.12713ZM2.39196 1.20861L2.61962 2.02756L2.62004 2.02744L2.39196 1.20861ZM0.544572 3.12713L1.36757 3.33969L1.36767 3.33929L0.544572 3.12713ZM0.331894 4.31573L-0.511372 4.20896L-0.587146 4.80738L-0.0472952 5.07647L0.331894 4.31573ZM9.87632 9.07318L10.2555 8.31244L10.2555 8.31244L9.87632 9.07318ZM10.9814 9.0782L11.3536 9.84235L11.3536 9.84235L10.9814 9.0782ZM20.7774 4.30609L21.1496 5.07024L21.6973 4.80343L21.6206 4.19904L20.7774 4.30609ZM20.9219 5.90419L21.7703 5.85131L21.6913 4.5839L20.5497 5.14004L20.9219 5.90419ZM11.6383 10.4267L11.2661 9.66255L11.2661 9.66255L11.6383 10.4267ZM9.20717 10.4156L8.82798 11.1764L8.82798 11.1764L9.20717 10.4156ZM0.187531 5.91979L0.56672 5.15905L-0.581747 4.5866L-0.660853 5.86739L0.187531 5.91979ZM0.107666 8.35036L0.957666 8.35036L0.107666 8.35036ZM0.544572 13.5736L1.36767 13.3614L1.36757 13.3611L0.544572 13.5736ZM2.39196 15.4921L2.62005 14.6732L2.61958 14.6731L2.39196 15.4921ZM10.5555 15.9458L10.5555 16.7958L10.5555 16.7958L10.5555 15.9458ZM18.7192 15.4921L18.4915 14.6731L18.4911 14.6733L18.7192 15.4921ZM20.5666 13.5736L19.7436 13.361L19.7435 13.3615L20.5666 13.5736ZM21.0035 8.35036L21.8535 8.35036L21.8535 8.34993L21.0035 8.35036ZM18.4915 2.02755C19.0867 2.19302 19.5754 2.68712 19.7435 3.33926L21.3897 2.915C21.0762 1.69864 20.1508 0.724377 18.9468 0.389666L18.4915 2.02755ZM10.5555 0.754883C10.5555 1.60488 10.5555 1.60488 10.5556 1.60488C10.5556 1.60488 10.5556 1.60488 10.5557 1.60488C10.5559 1.60488 10.5561 1.60488 10.5565 1.60488C10.5572 1.60488 10.5583 1.60488 10.5598 1.60488C10.5628 1.60489 10.5673 1.60489 10.5734 1.6049C10.5855 1.60491 10.6036 1.60494 10.6274 1.60499C10.675 1.6051 10.7452 1.60532 10.8354 1.60576C11.0157 1.60664 11.2756 1.6084 11.5926 1.61192C12.2271 1.61897 13.0889 1.63306 14.0003 1.66119C14.9131 1.68937 15.8685 1.73143 16.6922 1.79387C17.5405 1.85818 18.1752 1.93945 18.4911 2.02744L18.9472 0.389784C18.4487 0.250905 17.6557 0.162029 16.8207 0.098731C15.9609 0.0335598 14.9772 -0.00945799 14.0527 -0.0379965C13.1268 -0.0665788 12.2532 -0.0808455 11.6115 -0.0879753C11.2905 -0.0915421 11.0271 -0.0933273 10.8437 -0.0942209C10.752 -0.0946678 10.6802 -0.0948919 10.6313 -0.0950042C10.6068 -0.0950604 10.588 -0.0950886 10.5753 -0.0951028C10.5689 -0.0951099 10.5641 -0.0951135 10.5608 -0.0951154C10.5591 -0.0951163 10.5578 -0.0951167 10.557 -0.095117C10.5565 -0.0951171 10.5562 -0.0951171 10.556 -0.0951172C10.5558 -0.0951172 10.5557 -0.0951172 10.5557 -0.0951172C10.5556 -0.0951172 10.5555 -0.0951172 10.5555 0.754883ZM2.62004 2.02744C2.93592 1.93945 3.5706 1.85818 4.41898 1.79387C5.24266 1.73143 6.19804 1.68937 7.11083 1.66119C8.02221 1.63306 8.88405 1.61897 9.5185 1.61192C9.83554 1.6084 10.0954 1.60664 10.2757 1.60576C10.3659 1.60532 10.4361 1.6051 10.4837 1.60499C10.5075 1.60494 10.5256 1.60491 10.5377 1.6049C10.5437 1.60489 10.5483 1.60489 10.5513 1.60488C10.5528 1.60488 10.5539 1.60488 10.5546 1.60488C10.5549 1.60488 10.5552 1.60488 10.5554 1.60488C10.5554 1.60488 10.5555 1.60488 10.5555 1.60488C10.5555 1.60488 10.5555 1.60488 10.5555 0.754883C10.5555 -0.0951172 10.5555 -0.0951172 10.5554 -0.0951172C10.5554 -0.0951172 10.5552 -0.0951172 10.5551 -0.0951172C10.5549 -0.0951171 10.5546 -0.0951171 10.5541 -0.095117C10.5533 -0.0951167 10.552 -0.0951163 10.5503 -0.0951154C10.547 -0.0951135 10.5422 -0.0951099 10.5358 -0.0951028C10.5231 -0.0950886 10.5043 -0.0950604 10.4798 -0.0950042C10.4309 -0.0948919 10.3591 -0.0946678 10.2674 -0.0942209C10.084 -0.0933273 9.82064 -0.0915421 9.49961 -0.0879753C8.85791 -0.0808455 7.98428 -0.0665788 7.05838 -0.0379965C6.13389 -0.00945798 5.15019 0.0335598 4.29048 0.098731C3.45547 0.162029 2.66247 0.250905 2.16388 0.389782L2.62004 2.02744ZM1.36767 3.33929C1.53578 2.68709 2.02446 2.19301 2.61962 2.02755L2.1643 0.389666C0.960242 0.724387 0.034992 1.69867 -0.278524 2.91497L1.36767 3.33929ZM1.17516 4.42251C1.22879 3.99896 1.2931 3.628 1.36757 3.33969L-0.278422 2.91457C-0.378167 3.30078 -0.453333 3.75059 -0.511372 4.20896L1.17516 4.42251ZM-0.0472952 5.07647L9.49713 9.83391L10.2555 8.31244L0.711084 3.555L-0.0472952 5.07647ZM9.49713 9.83391C10.0811 10.125 10.7671 10.1281 11.3536 9.84235L10.6091 8.31405C10.4974 8.36848 10.3667 8.36788 10.2555 8.31244L9.49713 9.83391ZM11.3536 9.84235L21.1496 5.07024L20.4051 3.54194L10.6091 8.31405L11.3536 9.84235ZM19.7434 3.3389C19.817 3.6253 19.8808 3.99319 19.9341 4.41315L21.6206 4.19904C21.5629 3.7444 21.4883 3.29856 21.3898 2.91537L19.7434 3.3389ZM20.5497 5.14004L11.2661 9.66255L12.0106 11.1909L21.2942 6.66834L20.5497 5.14004ZM11.2661 9.66255C10.7354 9.92107 10.1147 9.91825 9.58635 9.65491L8.82798 11.1764C9.82899 11.6753 11.0051 11.6807 12.0106 11.1909L11.2661 9.66255ZM9.58636 9.65491L0.56672 5.15905L-0.191659 6.68052L8.82798 11.1764L9.58636 9.65491ZM0.107666 8.35036C0.957666 8.35036 0.957666 8.35038 0.957666 8.3504C0.957666 8.3504 0.957666 8.35042 0.957666 8.35042C0.957666 8.35042 0.957666 8.35041 0.957666 8.35038C0.957666 8.35032 0.957666 8.35019 0.957666 8.35C0.957666 8.3496 0.957667 8.34893 0.957668 8.348C0.95767 8.34613 0.957674 8.34318 0.957683 8.33918C0.957701 8.33119 0.957738 8.31902 0.957813 8.3029C0.957962 8.27065 0.958264 8.22264 0.958873 8.16078C0.96009 8.03702 0.962534 7.85801 0.967436 7.639C0.977256 7.20031 0.996869 6.60436 1.03591 5.97219L-0.660853 5.86739C-0.701672 6.5283 -0.721991 7.14763 -0.732138 7.60096C-0.737219 7.82795 -0.739767 8.01413 -0.741045 8.14406C-0.741684 8.20904 -0.742006 8.26 -0.742169 8.29501C-0.74225 8.31252 -0.742291 8.32605 -0.742312 8.33535C-0.742323 8.34 -0.742328 8.3436 -0.742331 8.34611C-0.742332 8.34736 -0.742333 8.34835 -0.742334 8.34906C-0.742334 8.34941 -0.742334 8.3497 -0.742334 8.34991C-0.742334 8.35002 -0.742334 8.35011 -0.742334 8.35019C-0.742334 8.35022 -0.742334 8.35027 -0.742334 8.35028C-0.742334 8.35032 -0.742334 8.35036 0.107666 8.35036ZM1.36757 13.3611C1.17328 12.6088 1.06598 11.3826 1.01122 10.2852C0.984458 9.74893 0.971045 9.26364 0.964338 8.91237C0.960988 8.73692 0.959319 8.59537 0.958488 8.49815C0.958073 8.44954 0.957867 8.41205 0.957766 8.38698C0.957715 8.37444 0.95769 8.36501 0.957678 8.35886C0.957672 8.35578 0.957669 8.35351 0.957667 8.35209C0.957667 8.35138 0.957666 8.35088 0.957666 8.35059C0.957666 8.35044 0.957666 8.35035 0.957666 8.35031C0.957666 8.35029 0.957666 8.3503 0.957666 8.35029C0.957666 8.35032 0.957666 8.35036 0.107666 8.35036C-0.742334 8.35036 -0.742334 8.35042 -0.742334 8.3505C-0.742334 8.35054 -0.742334 8.35063 -0.742334 8.35072C-0.742334 8.3509 -0.742334 8.35113 -0.742334 8.35141C-0.742333 8.35198 -0.742333 8.35276 -0.742332 8.35375C-0.74233 8.35574 -0.742326 8.35857 -0.742319 8.36222C-0.742305 8.36953 -0.742276 8.38014 -0.74222 8.39388C-0.742109 8.42136 -0.741888 8.4614 -0.74145 8.51267C-0.740574 8.61519 -0.738829 8.76276 -0.735352 8.94483C-0.728406 9.3086 -0.714513 9.81194 -0.686664 10.37C-0.6322 11.4614 -0.521042 12.8468 -0.278422 13.7862L1.36757 13.3611ZM2.61958 14.6731C2.02446 14.5077 1.53578 14.0136 1.36767 13.3614L-0.278523 13.7858C0.0349925 15.0021 0.960248 15.9764 2.16433 16.311L2.61958 14.6731ZM10.5555 15.9458C10.5555 15.0958 10.5555 15.0958 10.5555 15.0958C10.5555 15.0958 10.5554 15.0958 10.5554 15.0958C10.5552 15.0958 10.5549 15.0958 10.5546 15.0958C10.5539 15.0958 10.5528 15.0958 10.5513 15.0958C10.5483 15.0958 10.5437 15.0958 10.5377 15.0958C10.5256 15.0958 10.5075 15.0958 10.4837 15.0957C10.4361 15.0956 10.3659 15.0954 10.2757 15.095C10.0954 15.0941 9.83555 15.0923 9.5185 15.0888C8.88405 15.0817 8.02221 15.0676 7.11083 15.0395C6.19804 15.0113 5.24266 14.9693 4.41898 14.9068C3.5706 14.8425 2.93593 14.7612 2.62005 14.6732L2.16387 16.3109C2.66246 16.4498 3.45547 16.5387 4.29047 16.602C5.15018 16.6671 6.13389 16.7102 7.05838 16.7387C7.98428 16.7673 8.85791 16.7816 9.49961 16.7887C9.82064 16.7923 10.084 16.794 10.2674 16.7949C10.3591 16.7954 10.4309 16.7956 10.4798 16.7957C10.5043 16.7958 10.5231 16.7958 10.5358 16.7958C10.5422 16.7958 10.547 16.7958 10.5503 16.7958C10.552 16.7958 10.5533 16.7958 10.5541 16.7958C10.5546 16.7958 10.5549 16.7958 10.5551 16.7958C10.5552 16.7958 10.5554 16.7958 10.5554 16.7958C10.5555 16.7958 10.5555 16.7958 10.5555 15.9458ZM18.4911 14.6733C18.1752 14.7612 17.5405 14.8425 16.6922 14.9068C15.8685 14.9693 14.9131 15.0113 14.0003 15.0395C13.0889 15.0676 12.2271 15.0817 11.5926 15.0888C11.2756 15.0923 11.0157 15.0941 10.8354 15.095C10.7452 15.0954 10.675 15.0956 10.6274 15.0957C10.6036 15.0958 10.5855 15.0958 10.5734 15.0958C10.5673 15.0958 10.5628 15.0958 10.5598 15.0958C10.5583 15.0958 10.5572 15.0958 10.5565 15.0958C10.5561 15.0958 10.5559 15.0958 10.5557 15.0958C10.5556 15.0958 10.5556 15.0958 10.5556 15.0958C10.5555 15.0958 10.5555 15.0958 10.5555 15.9458C10.5555 16.7958 10.5556 16.7958 10.5557 16.7958C10.5557 16.7958 10.5558 16.7958 10.556 16.7958C10.5562 16.7958 10.5565 16.7958 10.557 16.7958C10.5578 16.7958 10.5591 16.7958 10.5608 16.7958C10.5641 16.7958 10.5689 16.7958 10.5753 16.7958C10.588 16.7958 10.6068 16.7958 10.6313 16.7957C10.6802 16.7956 10.752 16.7954 10.8437 16.7949C11.0271 16.794 11.2905 16.7923 11.6115 16.7887C12.2532 16.7816 13.1268 16.7673 14.0527 16.7387C14.9772 16.7102 15.961 16.6671 16.8207 16.602C17.6557 16.5387 18.4487 16.4498 18.9473 16.3109L18.4911 14.6733ZM19.7435 13.3615C19.5754 14.0136 19.0867 14.5077 18.4915 14.6731L18.9468 16.311C20.1508 15.9764 21.0762 15.0021 21.3897 13.7857L19.7435 13.3615ZM21.0035 8.35036C20.1535 8.35036 20.1535 8.35032 20.1535 8.35029C20.1535 8.3503 20.1535 8.35029 20.1535 8.35031C20.1535 8.35035 20.1535 8.35044 20.1535 8.35059C20.1535 8.35088 20.1535 8.35138 20.1535 8.35209C20.1535 8.35351 20.1535 8.35578 20.1535 8.35885C20.1535 8.36501 20.1534 8.37444 20.1534 8.38698C20.1533 8.41205 20.1531 8.44954 20.1527 8.49814C20.1518 8.59537 20.1502 8.73692 20.1468 8.91237C20.1401 9.26363 20.1267 9.74893 20.0999 10.2852C20.0452 11.3826 19.9379 12.6088 19.7436 13.361L21.3896 13.7862C21.6322 12.8468 21.7434 11.4614 21.7978 10.37C21.8257 9.81194 21.8396 9.3086 21.8465 8.94483C21.85 8.76276 21.8517 8.61519 21.8526 8.51267C21.8531 8.4614 21.8533 8.42136 21.8534 8.39388C21.8534 8.38014 21.8535 8.36953 21.8535 8.36222C21.8535 8.35857 21.8535 8.35574 21.8535 8.35375C21.8535 8.35276 21.8535 8.35198 21.8535 8.35141C21.8535 8.35113 21.8535 8.3509 21.8535 8.35072C21.8535 8.35064 21.8535 8.35054 21.8535 8.3505C21.8535 8.35042 21.8535 8.35036 21.0035 8.35036ZM20.0736 5.95707C20.1132 6.59241 20.1332 7.19223 20.1433 7.63402C20.1484 7.85458 20.1509 8.03494 20.1522 8.15966C20.1528 8.222 20.1532 8.2704 20.1533 8.30291C20.1534 8.31916 20.1535 8.33144 20.1535 8.3395C20.1535 8.34353 20.1535 8.3465 20.1535 8.34839C20.1535 8.34934 20.1535 8.35001 20.1535 8.35041C20.1535 8.35061 20.1535 8.35074 20.1535 8.3508C20.1535 8.35083 20.1535 8.35085 20.1535 8.35084C20.1535 8.35084 20.1535 8.35082 20.1535 8.35082C20.1535 8.3508 20.1535 8.35078 21.0035 8.35036C21.8535 8.34993 21.8535 8.3499 21.8535 8.34986C21.8535 8.34984 21.8535 8.3498 21.8535 8.34976C21.8535 8.34969 21.8535 8.3496 21.8535 8.34949C21.8535 8.34927 21.8535 8.34898 21.8535 8.34863C21.8535 8.34791 21.8535 8.34692 21.8535 8.34566C21.8535 8.34313 21.8535 8.33951 21.8535 8.33482C21.8534 8.32545 21.8534 8.31183 21.8533 8.29419C21.8531 8.25891 21.8528 8.20757 21.8521 8.14211C21.8507 8.01123 21.8481 7.82371 21.8429 7.59516C21.8324 7.13875 21.8117 6.51548 21.7703 5.85131L20.0736 5.95707Z" fill="white" mask="url(#path-1-inside-1_1_104)"/>
</svg>
