<svg width="17" height="22" viewBox="0 0 17 22" fill="none" xmlns="http://www.w3.org/2000/svg">
<path d="M2.07603 18.5888L2.07602 16.2908C2.07602 15.9667 2.21521 15.6582 2.45821 15.4436L7.2177 11.242C7.27845 11.1884 7.31325 11.1112 7.31325 11.0302V10.7182C7.31325 10.6307 7.27266 10.5481 7.20336 10.4946L2.58272 6.92795C2.31378 6.72035 2.15251 6.40279 2.14355 6.06317L2.09249 4.1282M14.2123 18.5888V16.2769C14.2123 15.9609 14.0799 15.6593 13.8474 15.4453L9.33422 11.2926C9.27608 11.2391 9.243 11.1637 9.243 11.0847V10.7609C9.243 10.6781 9.2793 10.5995 9.34232 10.5458L13.7467 6.79413C13.9904 6.58656 14.1346 6.28537 14.1435 5.96538L14.1948 4.1282M2.09249 4.1282H1.34141C1.02935 4.1282 0.776367 3.87522 0.776367 3.56315V1.85215C0.776367 1.54009 1.02935 1.28711 1.34141 1.28711H15.0775C15.3896 1.28711 15.6426 1.54009 15.6426 1.85215V3.56315C15.6426 3.87522 15.3896 4.1282 15.0775 4.1282H14.1948M2.09249 4.1282H8.14367H14.1948M1.34141 21.4299H15.0775C15.3896 21.4299 15.6426 21.177 15.6426 20.8649V19.1539C15.6426 18.8418 15.3896 18.5888 15.0775 18.5888H1.34141C1.02935 18.5888 0.776367 18.8418 0.776367 19.1539V20.8649C0.776367 21.177 1.02935 21.4299 1.34141 21.4299Z" stroke="#017EC6" stroke-linecap="round"/>
</svg>
