<svg width="16" height="19" viewBox="0 0 16 19" fill="none" xmlns="http://www.w3.org/2000/svg">
<path fill-rule="evenodd" clip-rule="evenodd" d="M1.40242 13.5981C0.74972 13.9109 0.733868 14.2585 0.733868 14.554C0.718017 14.8149 0.718017 15.0941 0.718017 15.3897C0.718017 15.6669 0.813126 16.1367 1.21128 16.5362C1.60849 16.9367 2.54745 18.0312 4.472 18.0312C6.39747 18.0312 8.25861 16.5016 8.51317 16.2926C8.76772 16.0847 12.8397 13.3372 14.4155 8.98962C15.72 5.37378 15.4654 4.64308 15.3852 3.86039C15.3059 3.07873 14.4472 1.33909 13.5241 0.974248C12.6177 0.626729 11.8224 0.626728 11.6629 0.730678C11.5044 0.834627 11.4084 1.13119 11.2014 1.54801C11.0112 1.98317 10.0563 4.06931 9.9286 4.4688C9.80179 4.86932 9.73838 5.14754 10.1197 5.42576C10.5179 5.70398 11.3925 6.52131 11.6471 6.78119C11.9016 7.02578 11.9333 7.28566 11.7422 7.70349C11.552 8.13764 11.138 9.51141 9.80179 11.1461C8.76679 12.4159 7.4791 13.2679 7.09773 13.5288C6.69958 13.7713 6.49258 13.5634 6.30143 13.3372C6.12707 13.1456 5.84081 12.902 5.61796 12.6931C5.39417 12.4852 5.21981 12.4159 4.96525 12.259C4.7107 12.1204 4.472 12.1897 4.28178 12.2936C4.10648 12.3986 2.18194 13.2149 1.40242 13.5981Z" fill="white"/>
</svg>
