<svg width="136" height="24" viewBox="0 0 136 24" fill="none" xmlns="http://www.w3.org/2000/svg">
<path d="M11.4563 0.782419C11.507 0.675979 11.6584 0.675979 11.7091 0.782419L15.0012 7.69864C15.0203 7.73886 15.0575 7.76758 15.1012 7.77597L22.0743 9.11333C22.1806 9.13371 22.2246 9.26177 22.1532 9.34312L17.2049 14.9867C17.1784 15.0169 17.1661 15.0571 17.1713 15.097L18.1799 22.8709C18.1946 22.9843 18.0745 23.0665 17.9741 23.0118L11.6497 19.5649C11.6079 19.5421 11.5575 19.5421 11.5157 19.5649L5.19134 23.0118C5.09091 23.0665 4.97079 22.9843 4.9855 22.8709L5.99409 15.097C5.99927 15.0571 5.98704 15.0169 5.96052 14.9867L1.01216 9.34312C0.940826 9.26177 0.984795 9.13371 1.09105 9.11333L8.06419 7.77597C8.10794 7.76758 8.14509 7.73886 8.16423 7.69864L11.4563 0.782419Z" fill="white" fill-opacity="0.7"/>
<path d="M39.9028 0.782419C39.9534 0.675979 40.1049 0.675979 40.1556 0.782419L43.4476 7.69864C43.4668 7.73886 43.5039 7.76758 43.5477 7.77597L50.5208 9.11333C50.6271 9.13371 50.671 9.26177 50.5997 9.34312L45.6513 14.9867C45.6248 15.0169 45.6126 15.0571 45.6178 15.097L46.6264 22.8709C46.6411 22.9843 46.521 23.0665 46.4205 23.0118L40.0962 19.5649C40.0544 19.5421 40.0039 19.5421 39.9622 19.5649L33.6378 23.0118C33.5374 23.0665 33.4173 22.9843 33.432 22.8709L34.4406 15.097C34.4457 15.0571 34.4335 15.0169 34.407 14.9867L29.4586 9.34312C29.3873 9.26177 29.4313 9.13371 29.5375 9.11333L36.5107 7.77597C36.5544 7.76758 36.5916 7.73886 36.6107 7.69864L39.9028 0.782419Z" fill="white" fill-opacity="0.7"/>
<path d="M68.3492 0.782419C68.3998 0.675979 68.5513 0.675979 68.602 0.782419L71.8941 7.69864C71.9132 7.73886 71.9503 7.76758 71.9941 7.77597L78.9672 9.11333C79.0735 9.13371 79.1175 9.26177 79.0461 9.34312L74.0978 14.9867C74.0712 15.0169 74.059 15.0571 74.0642 15.097L75.0728 22.8709C75.0875 22.9843 74.9674 23.0665 74.8669 23.0118L68.5426 19.5649C68.5008 19.5421 68.4503 19.5421 68.4086 19.5649L62.0842 23.0118C61.9838 23.0665 61.8637 22.9843 61.8784 22.8709L62.887 15.097C62.8921 15.0571 62.8799 15.0169 62.8534 14.9867L57.905 9.34312C57.8337 9.26177 57.8777 9.13371 57.9839 9.11333L64.9571 7.77597C65.0008 7.76758 65.038 7.73886 65.0571 7.69864L68.3492 0.782419Z" fill="white" fill-opacity="0.7"/>
<path d="M96.7956 0.782419C96.8463 0.675979 96.9978 0.675979 97.0485 0.782419L100.341 7.69864C100.36 7.73886 100.397 7.76758 100.441 7.77597L107.414 9.11333C107.52 9.13371 107.564 9.26177 107.493 9.34312L102.544 14.9867C102.518 15.0169 102.505 15.0571 102.511 15.097L103.519 22.8709C103.534 22.9843 103.414 23.0665 103.313 23.0118L96.9891 19.5649C96.9473 19.5421 96.8968 19.5421 96.8551 19.5649L90.5307 23.0118C90.4303 23.0665 90.3101 22.9843 90.3249 22.8709L91.3335 15.097C91.3386 15.0571 91.3264 15.0169 91.2999 14.9867L86.3515 9.34312C86.2802 9.26177 86.3241 9.13371 86.4304 9.11333L93.4035 7.77597C93.4473 7.76758 93.4844 7.73886 93.5036 7.69864L96.7956 0.782419Z" fill="white" fill-opacity="0.7"/>
<path d="M125.242 0.782406C125.293 0.675966 125.444 0.675966 125.495 0.782406L128.787 7.69863C128.806 7.73885 128.843 7.76756 128.887 7.77595L135.86 9.11332C135.966 9.1337 136.01 9.26176 135.939 9.34311L130.991 14.9867C130.964 15.0169 130.952 15.0571 130.957 15.097L131.966 22.8708C131.98 22.9843 131.86 23.0665 131.76 23.0118L125.436 19.5649C125.394 19.5421 125.343 19.5421 125.302 19.5649L118.977 23.0118C118.877 23.0665 118.757 22.9843 118.771 22.8708L119.78 15.097C119.785 15.0571 119.773 15.0169 119.746 14.9867L114.798 9.34311C114.727 9.26176 114.771 9.1337 114.877 9.11332L121.85 7.77595C121.894 7.76756 121.931 7.73885 121.95 7.69863L125.242 0.782406Z" fill="white" fill-opacity="0.7"/>
<path d="M135.86 9.11332L128.887 7.77595C128.843 7.76756 128.806 7.73885 128.787 7.69863L127.327 4.64629V20.596L131.76 23.0118C131.86 23.0665 131.98 22.9843 131.966 22.8708L130.957 15.097C130.952 15.0571 130.964 15.0169 130.991 14.9867L135.939 9.34311C136.01 9.26176 135.966 9.1337 135.86 9.11332Z" fill="#757575"/>
</svg>
