<svg width="25" height="17" viewBox="0 0 25 17" fill="none" xmlns="http://www.w3.org/2000/svg">
<path d="M0.810953 16.1057C0.619286 16.3044 0.625062 16.621 0.823855 16.8126C1.02265 17.0043 1.33918 16.9985 1.53084 16.7997L0.810953 16.1057ZM9.96386 7.33284L10.2886 6.95262L9.93061 6.64695L9.60391 6.9858L9.96386 7.33284ZM15.9101 12.4106L15.5854 12.7908L15.9846 13.1317L16.3057 12.7164L15.9101 12.4106ZM24.8879 0.795654L19.5461 2.98621L24.1141 6.51706L24.8879 0.795654ZM1.53084 16.7997L10.3238 7.67989L9.60391 6.9858L0.810953 16.1057L1.53084 16.7997ZM9.63916 7.71307L15.5854 12.7908L16.2347 12.0303L10.2886 6.95262L9.63916 7.71307ZM16.3057 12.7164L22.5315 4.66182L21.7403 4.05026L15.5145 12.1048L16.3057 12.7164Z" fill="url(#paint0_linear_398_18)"/>
<defs>
<linearGradient id="paint0_linear_398_18" x1="1.1709" y1="0.906527" x2="6.72356" y2="24.7185" gradientUnits="userSpaceOnUse">
<stop stop-color="#5FC1FF"/>
<stop offset="0.73" stop-color="#185C95"/>
</linearGradient>
</defs>
</svg>
