<svg width="19" height="19" viewBox="0 0 19 19" fill="none" xmlns="http://www.w3.org/2000/svg">
<path d="M5.55802 15.2777L5.8193 15.4326C6.91716 16.0841 8.17584 16.4287 9.4594 16.4294H9.4622C13.4042 16.4294 16.6124 13.2218 16.6139 9.2796C16.6146 7.36904 15.8714 5.57278 14.5211 4.22126C13.1707 2.86998 11.3753 2.12529 9.46476 2.1245C5.51982 2.1245 2.31154 5.33154 2.31005 9.27375C2.30953 10.6247 2.68743 11.9403 3.40345 13.0785L3.57363 13.3491L2.85097 15.9874L5.55802 15.2777ZM0.785156 18.0311L2.00587 13.5737C1.25292 12.2692 0.856813 10.7893 0.857433 9.27335C0.859268 4.5305 4.71903 0.671875 9.46238 0.671875C11.7641 0.672867 13.9245 1.56866 15.5491 3.1946C17.1735 4.82052 18.0678 6.98179 18.0671 9.28029C18.0651 14.0229 14.2045 17.8823 9.46238 17.8823C9.46255 17.8823 9.46203 17.8823 9.46238 17.8823H9.4587C8.01863 17.8818 6.60362 17.5205 5.34684 16.8351L0.785156 18.0311Z" fill="white"/>
<path fill-rule="evenodd" clip-rule="evenodd" d="M2.00572 13.5759C1.25277 12.2715 0.856668 10.7915 0.857189 9.27557C0.859173 4.53272 4.71889 0.673828 9.46199 0.673828C11.7637 0.67482 13.924 1.57071 15.5487 3.19655C17.1731 4.8224 18.0675 6.98362 18.0667 9.28224C18.0647 14.0248 14.2041 17.8842 9.46199 17.8842H9.45831C8.01824 17.8836 6.6033 17.5224 5.34645 16.837L0.784912 18.0331L2.00572 13.5759ZM6.57048 4.44836C6.7562 4.45599 6.96166 4.46468 7.15692 4.89872C7.29022 5.19514 7.51435 5.74741 7.69314 6.18796C7.82519 6.51336 7.93252 6.77781 7.96023 6.83319C8.02536 6.96356 8.06884 7.11577 7.98187 7.28972C7.96882 7.31583 7.95676 7.34046 7.94523 7.364C7.88001 7.49717 7.83209 7.59504 7.72158 7.72439C7.67805 7.77517 7.63305 7.8299 7.58805 7.88463C7.49828 7.99382 7.40851 8.103 7.33051 8.18079C7.19983 8.31074 7.06406 8.45191 7.21606 8.71251C7.36816 8.97346 7.8912 9.82656 8.666 10.5174C9.49823 11.2593 10.2212 11.5732 10.5885 11.7327C10.6606 11.764 10.7191 11.7894 10.7619 11.8108C11.0225 11.9412 11.1746 11.9195 11.3266 11.7453C11.4787 11.5715 11.9778 10.9846 12.1516 10.724C12.3254 10.463 12.4992 10.5064 12.7381 10.5933C12.977 10.6803 14.2583 11.3108 14.519 11.4412C14.5697 11.4665 14.6171 11.4894 14.6611 11.5106C14.8431 11.5985 14.9661 11.6578 15.0186 11.7453C15.0837 11.8542 15.0837 12.3758 14.8665 12.9843C14.6494 13.5929 13.5852 14.1798 13.1074 14.2232C13.0614 14.2274 13.0158 14.2328 12.9688 14.2383C12.5272 14.2903 11.9698 14.3559 9.97988 13.5712C7.5321 12.6059 5.91792 10.2138 5.58407 9.71902C5.55665 9.67837 5.53786 9.65053 5.52796 9.63734L5.52488 9.63322C5.38379 9.44458 4.4638 8.21455 4.4638 6.94187C4.4638 5.74159 5.05378 5.11243 5.32521 4.82297C5.34375 4.80321 5.3608 4.78502 5.37607 4.76835C5.61483 4.50755 5.89718 4.44232 6.07102 4.44232C6.08106 4.44232 6.09109 4.44231 6.10112 4.44231C6.26467 4.44229 6.42727 4.44227 6.57048 4.44836Z" fill="url(#paint0_linear_67_2)"/>
<defs>
<linearGradient id="paint0_linear_67_2" x1="9.42592" y1="18.0336" x2="9.42592" y2="0.67435" gradientUnits="userSpaceOnUse">
<stop stop-color="#F9F9F9"/>
<stop offset="1" stop-color="white"/>
</linearGradient>
</defs>
</svg>
