<svg width="321" height="376" viewBox="0 0 321 376" fill="none" xmlns="http://www.w3.org/2000/svg">
<rect x="0.986816" y="-0.000976562" width="319.499" height="374.342" rx="5" fill="white" fill-opacity="0.02"/>
<path fill-rule="evenodd" clip-rule="evenodd" d="M0.986816 375.984V231.953L320.41 116.279V84.0576H320.486V375.984H63.7476V290.977C63.7476 272.089 45.4616 258.596 27.4137 264.167C11.733 269.008 1.03762 283.503 1.03762 299.914L1.03762 375.984H0.986816ZM258.28 191.95C289.033 182.083 320.485 205.023 320.485 237.32V375.9H216.915V248.663C216.915 222.779 233.633 199.857 258.28 191.95ZM180.274 267.896C180.274 242.089 155.171 223.738 130.581 231.568C109.491 238.283 95.1706 257.872 95.1706 280.005V375.898H180.274V267.896Z" fill="white" fill-opacity="0.02"/>
</svg>
